<svg width="588" height="102" viewBox="0 0 588 102" fill="none" xmlns="http://www.w3.org/2000/svg">
<path d="M69.574 0H0V69.5907H69.574V0Z" fill="#EC2227"/>
<path d="M283.663 0H295.988V43.1462L311.692 24.4562H326.402L309.505 43.1462L328.191 66.8071H312.885L295.988 44.3392V66.8071H283.663V0Z" fill="white"/>
<path d="M275.314 24.4563H262.99V66.8072H275.314V24.4563Z" fill="white"/>
<path d="M261.996 7.1579C261.996 5.1696 262.791 3.57895 264.183 2.18714C265.574 0.795323 267.363 0 269.152 0C271.14 0 272.73 0.596493 274.321 2.18714C275.712 3.57895 276.507 5.36842 276.507 7.35673C276.507 9.34504 275.712 11.1345 274.321 12.5263C272.929 13.9181 271.14 14.7135 269.152 14.7135C267.165 14.7135 265.574 13.9181 264.183 12.5263C262.791 10.7369 261.996 8.94738 261.996 7.1579Z" fill="white"/>
<path d="M237.943 35.3919C239.136 31.2165 240.925 29.427 243.31 27.2399C245.696 25.2516 248.479 24.2574 251.858 24.2574C252.653 24.2574 253.846 24.4562 255.635 24.6551C256.032 24.6551 256.231 24.8539 256.43 24.8539L254.641 36.9826C253.647 36.5849 252.852 36.3861 251.858 36.1872C250.864 35.9884 249.87 35.9884 248.876 35.9884C245.099 35.9884 242.515 36.9826 240.726 38.772C239.136 40.7603 238.341 43.9416 238.341 48.3159V66.8072H226.016V24.4562H238.142L237.943 35.3919Z" fill="white"/>
<path d="M489.802 35.3919C490.994 31.2165 492.783 29.427 495.169 27.2399C497.554 25.2516 500.337 24.2574 503.716 24.2574C504.512 24.2574 505.704 24.4562 507.493 24.6551C507.891 24.6551 508.09 24.8539 508.288 24.8539L506.499 36.9826C505.505 36.5849 504.71 36.3861 503.716 36.1872C502.723 35.9884 501.729 35.9884 500.735 35.9884C496.958 35.9884 494.374 36.9826 492.585 38.772C490.994 40.7603 490.199 43.9416 490.199 48.3159V66.8072H477.875V24.4562H490L489.802 35.3919Z" fill="white"/>
<path d="M199.379 66.8072V34.0002H193.615V24.4563H199.379V10.5381H211.704V24.4563H217.667V34.0002H211.704V66.8072H199.379Z" fill="white"/>
<path d="M145.509 0H157.833V43.1462L173.537 24.4562H188.247L171.152 43.1462L189.838 66.8071H174.73L157.833 44.3392V66.8071H145.509V0Z" fill="white"/>
<path d="M131.396 29.8247C127.817 26.0469 122.848 24.2574 116.487 24.2574C110.325 24.2574 105.355 26.2457 101.379 30.2223C97.4036 34.1989 95.4158 39.3685 95.4158 45.5323C95.4158 52.0937 97.2049 57.0645 100.982 61.0411C104.759 64.8188 109.728 66.8072 116.288 66.8072C120.462 66.8072 124.239 66.0118 127.221 64.2224C130.203 62.6317 132.986 60.0469 134.974 56.468L125.631 51.8949C124.637 53.4855 123.245 54.6785 121.854 55.4738C120.264 56.2691 118.475 56.6668 116.487 56.6668C113.704 56.6668 111.517 55.8715 109.927 54.4797C108.337 53.0878 107.343 50.9007 106.746 48.1171H136.564C136.564 47.3218 136.763 46.7253 136.763 46.3276C136.763 45.9299 136.763 45.5323 136.763 45.1346C136.961 38.772 135.172 33.6025 131.396 29.8247ZM107.343 41.158C107.74 38.5732 108.734 36.7837 110.325 35.3919C111.915 34.1989 113.903 33.4036 116.487 33.4036C119.071 33.4036 121.059 34.0001 122.649 35.3919C124.239 36.5849 125.034 38.5732 125.432 41.158H107.343Z" fill="white"/>
<path d="M550.032 29.8247C546.454 26.0469 541.485 24.2574 535.123 24.2574C528.961 24.2574 523.992 26.2457 520.016 30.2223C516.04 34.1989 514.052 39.3685 514.052 45.5323C514.052 52.0937 515.842 57.0645 519.618 61.0411C523.395 64.8188 528.365 66.8072 534.925 66.8072C539.099 66.8072 542.876 66.0118 545.858 64.2224C548.84 62.6317 551.622 60.0469 553.61 56.468L544.268 51.8949C543.274 53.4855 541.882 54.6785 540.491 55.4738C538.9 56.2691 537.111 56.6668 535.123 56.6668C532.341 56.6668 530.154 55.8715 528.564 54.4797C526.973 53.0878 525.979 50.9007 525.383 48.1171H555.201C555.201 47.3218 555.399 46.7253 555.399 46.3276C555.399 45.9299 555.399 45.5323 555.399 45.1346C555.598 38.772 553.61 33.6025 550.032 29.8247ZM525.979 41.158C526.377 38.5732 527.371 36.7837 528.961 35.3919C530.552 34.1989 532.539 33.4036 535.123 33.4036C537.708 33.4036 539.695 34.0001 541.286 35.3919C542.876 36.5849 543.671 38.5732 544.069 41.158H525.979Z" fill="white"/>
<path d="M87.0671 0H74.7426V66.8071H87.0671V0Z" fill="white"/>
<path d="M569.712 66.8072V34.0001H563.947V24.4563H569.712V10.3393H582.037V24.4563H588V34.0001H582.037V66.8072H569.712Z" fill="white"/>
<path d="M418.836 64.0235C417.246 65.0176 415.457 65.6141 413.668 66.0118C411.879 66.4094 409.891 66.6083 407.704 66.6083C400.945 66.6083 395.578 64.62 391.404 60.6434C387.229 56.6668 385.043 51.4972 385.043 45.1346C385.043 38.9708 387.229 33.8012 391.404 29.8246C395.578 25.848 401.144 23.8597 407.903 23.8597C410.09 23.8597 412.077 24.0585 413.866 24.4562C415.655 24.8539 417.444 25.4503 419.035 26.4445V37.9767C417.643 36.7837 416.252 35.7895 414.463 34.9942C412.674 34.3977 410.885 34.0001 409.096 34.0001C405.716 34.0001 402.933 34.9942 400.747 36.9825C398.759 38.9708 397.566 41.5556 397.566 44.9357C397.566 48.3159 398.56 50.9007 400.747 52.889C402.933 54.8773 405.716 55.8714 409.294 55.8714C411.282 55.8714 413.071 55.4738 414.661 54.8773C416.252 54.2808 417.643 53.0878 418.836 51.696V64.0235Z" fill="white"/>
<path d="M376.694 24.4563H364.37V66.8072H376.694V24.4563Z" fill="white"/>
<path d="M363.176 7.1579C363.176 5.1696 363.972 3.57895 365.363 2.18714C366.755 0.795323 368.544 0 370.333 0C372.32 0 373.911 0.596493 375.501 2.18714C376.893 3.57895 377.688 5.36842 377.688 7.35673C377.688 9.34504 376.893 11.1345 375.501 12.5263C374.11 13.9181 372.32 14.7135 370.333 14.7135C368.345 14.7135 366.755 13.9181 365.363 12.5263C363.972 10.7369 363.176 8.94738 363.176 7.1579Z" fill="white"/>
<path d="M337.534 66.8072V34.0001H331.769V24.4563H337.534V10.3393H349.858V24.4563H355.822V34.0001H349.858V66.8072H337.534Z" fill="white"/>
<path d="M555.4 101.006H549.237V80.1286H555.4V83.3099C556.394 81.9181 557.388 80.924 558.58 80.3275C559.773 79.731 560.966 79.3333 562.357 79.3333C564.146 79.3333 565.538 79.731 566.532 80.3275C567.525 81.1228 568.321 82.1169 568.917 83.5088C569.911 82.1169 570.905 81.1228 572.296 80.3275C573.489 79.5322 574.88 79.3333 576.272 79.3333C577.663 79.3333 579.055 79.5321 580.049 80.1286C581.043 80.7251 581.838 81.5205 582.434 82.5146C582.832 83.1111 583.031 83.7076 583.031 84.5029C583.229 85.2982 583.229 86.4912 583.229 87.883V100.608H577.067V90.6667C577.067 88.0819 576.868 86.4912 576.272 85.4971C575.676 84.7017 574.88 84.3041 573.489 84.3041C571.899 84.3041 570.706 84.9006 570.11 86.0936C569.315 87.2865 569.116 89.076 569.116 91.8596V101.006H562.953V90.6667C562.953 88.2807 562.755 86.4912 562.158 85.6959C561.761 84.9006 560.767 84.3041 559.574 84.3041C557.984 84.3041 556.791 84.9006 555.996 86.0936C555.201 87.2865 555.002 89.076 555.002 91.6608V101.006H555.4ZM544.864 90.6667C544.864 93.8479 543.671 96.6316 541.485 98.6199C539.298 100.807 536.515 101.801 533.136 101.801C529.757 101.801 526.974 100.807 524.787 98.6199C522.601 96.4328 521.408 93.8479 521.408 90.6667C521.408 87.4854 522.601 84.7017 524.787 82.7134C526.974 80.5263 529.757 79.5322 533.136 79.5322C536.515 79.5322 539.298 80.5263 541.485 82.7134C543.671 84.7017 544.864 87.4854 544.864 90.6667ZM538.702 90.6667C538.702 88.8772 538.304 87.6842 537.112 86.4912C536.118 85.4971 534.726 84.9006 533.136 84.9006C531.546 84.9006 530.154 85.4971 529.16 86.4912C528.166 87.4854 527.769 88.8772 527.769 90.6667C527.769 92.4561 528.166 93.6491 529.16 94.8421C530.154 95.8363 531.546 96.4327 533.136 96.4327C534.726 96.4327 536.118 95.8363 537.112 94.8421C538.106 93.6491 538.702 92.2573 538.702 90.6667ZM518.227 100.409C517.432 100.807 516.438 101.205 515.643 101.602C514.649 101.801 513.655 102 512.661 102C509.282 102 506.698 101.006 504.511 98.8187C502.523 96.6316 501.331 94.0468 501.331 90.6667C501.331 87.2865 502.325 84.7017 504.511 82.7134C506.698 80.7251 509.282 79.5322 512.661 79.5322C513.854 79.5322 514.848 79.731 515.643 79.9298C516.438 80.1286 517.432 80.5263 518.227 80.924V87.0877C517.631 86.4912 516.836 85.8947 516.041 85.4971C515.246 85.0994 514.252 84.9006 513.456 84.9006C511.667 84.9006 510.475 85.4971 509.282 86.4912C508.288 87.4854 507.692 88.8772 507.692 90.6667C507.692 92.4561 508.288 93.8479 509.282 94.8421C510.276 95.8363 511.667 96.4327 513.456 96.4327C514.45 96.4327 515.246 96.2339 516.041 95.8363C516.836 95.4386 517.432 94.8421 518.227 94.2456V100.409ZM489.404 98.0234C489.404 97.0292 489.801 96.0351 490.398 95.4386C491.193 94.6433 491.988 94.4445 492.982 94.4445C493.976 94.4445 494.771 94.8421 495.566 95.4386C496.361 96.2339 496.56 97.0292 496.56 98.0234C496.56 99.0175 496.162 99.8129 495.566 100.608C494.771 101.404 493.976 101.602 492.982 101.602C491.988 101.602 491.193 101.205 490.398 100.608C489.801 99.8129 489.404 99.0175 489.404 98.0234Z" fill="#EC2227"/>
<path d="M60.8276 29.8249C57.2495 26.0471 52.0812 24.2576 45.9189 24.2576C39.7566 24.2576 34.787 26.2459 30.8114 30.2225C27.8296 33.205 26.0406 36.9828 25.2455 41.1582H21.071C19.0832 41.1582 17.4929 42.7489 17.4929 44.7372C17.4929 46.7255 19.0832 48.3161 21.071 48.3161H25.0467C25.4442 53.4857 27.2333 57.86 30.6126 61.0413C34.3895 64.8191 39.359 66.8074 45.9189 66.8074C50.0933 66.8074 53.8702 66.0121 56.8519 64.2226C59.8337 62.6319 62.6166 60.0471 64.6045 56.4682L55.2617 51.8951C54.2678 53.4857 52.8763 54.6787 51.4848 55.474C49.8945 56.2694 48.1055 56.667 46.1177 56.667C43.3347 56.667 41.1481 55.8717 39.5578 54.4799C37.9676 53.0881 36.9736 50.9009 36.3773 48.1173H66.1947C66.1947 47.322 66.3935 46.7255 66.3935 46.3278C66.3935 45.9302 66.3935 45.5325 66.3935 45.1348C66.3935 38.7723 64.6045 33.6027 60.8276 29.8249ZM36.7749 41.1582C37.1724 38.5734 38.1663 36.784 39.7566 35.3921C41.3469 34.1992 43.3347 33.4038 45.9189 33.4038C48.5031 33.4038 50.4909 34.0003 52.0811 35.3921C53.6714 36.5851 54.4665 38.5734 54.8641 41.1582H36.7749Z" fill="white"/>
<path d="M8.747 50.3044C11.7112 50.3044 14.1141 47.9009 14.1141 44.936C14.1141 41.9711 11.7112 39.5675 8.747 39.5675C5.78281 39.5675 3.37986 41.9711 3.37986 44.936C3.37986 47.9009 5.78281 50.3044 8.747 50.3044Z" fill="white"/>
<path d="M457.002 24.4563V28.4329C453.821 26.0469 450.243 24.4563 446.069 24.4563C435.732 24.4563 427.184 34.0001 427.184 45.5323C427.184 57.2633 435.533 66.6083 446.069 66.6083C450.243 66.6083 454.02 65.2165 457.002 62.6317V66.6083H469.525V24.4563H457.002ZM456.008 53.6844C454.219 55.6727 451.833 56.6668 448.852 56.6668C445.87 56.6668 443.484 55.6727 441.695 53.6844C439.906 51.6961 438.714 48.9124 438.714 45.3335C438.714 41.7545 439.906 39.1697 441.695 37.1814C443.484 35.1931 445.87 34.199 448.852 34.199C451.833 34.199 454.219 35.1931 455.809 37.1814C457.598 39.1697 458.393 41.9534 458.393 45.5323C458.592 49.1112 457.797 51.8949 456.008 53.6844Z" fill="white"/>
</svg>
