<svg width="187" height="35" viewBox="0 0 187 35" fill="none" xmlns="http://www.w3.org/2000/svg">
<path d="M26.5542 16.9142C27.0042 16.5698 27.3685 16.1281 27.6191 15.623C27.8697 15.1178 28 14.5626 28 14C28 13.4374 27.8697 12.8822 27.6191 12.377C27.3685 11.8719 27.0042 11.4302 26.5542 11.0858C20.7269 6.62739 14.2199 3.11321 7.27681 0.674843L6.00733 0.228877C3.58114 -0.622687 1.01691 0.999706 0.688363 3.47751C-0.229454 10.4632 -0.229454 17.5368 0.688363 24.5225C1.01885 27.0003 3.58114 28.6227 6.00733 27.7711L7.27681 27.3252C14.2199 24.8868 20.7269 21.3726 26.5542 16.9142Z" fill="white"/>
<path d="M57.4859 21C57.8593 21.1067 58.3393 21.1867 58.9259 21.24C59.5126 21.2667 60.0726 21.28 60.6059 21.28C61.6726 21.28 62.5526 21.0667 63.2459 20.64C63.9659 20.1867 64.3259 19.4933 64.3259 18.56C64.3259 17.68 64.0326 17.0533 63.4459 16.68C62.8593 16.3067 61.9659 16.12 60.7659 16.12H57.4859V21ZM57.4859 11.24H60.4059C61.5526 11.24 62.3793 11.0267 62.8859 10.6C63.4193 10.1733 63.6859 9.54667 63.6859 8.72C63.6859 8 63.3793 7.42667 62.7659 7C62.1793 6.57333 61.2859 6.36 60.0859 6.36C59.6859 6.36 59.2193 6.37333 58.6859 6.4C58.1793 6.42667 57.7793 6.46667 57.4859 6.52V11.24ZM60.0859 26.64C59.6326 26.64 59.0993 26.6267 58.4859 26.6C57.8726 26.5733 57.2326 26.52 56.5659 26.44C55.9259 26.36 55.2859 26.2533 54.6459 26.12C54.0059 26.0133 53.4193 25.8533 52.8859 25.64C51.4193 25.08 50.6859 24.1067 50.6859 22.72V4.04C50.6859 3.48 50.8326 3.05333 51.1259 2.76C51.4459 2.44 51.8726 2.18666 52.4059 2C53.3126 1.68 54.4459 1.45333 55.8059 1.32C57.1659 1.16 58.5659 1.08 60.0059 1.08C63.4193 1.08 66.0459 1.65333 67.8859 2.8C69.7259 3.94667 70.6459 5.72 70.6459 8.12C70.6459 9.32 70.2993 10.36 69.6059 11.24C68.9126 12.0933 67.9793 12.72 66.8059 13.12C68.1393 13.4933 69.2459 14.1733 70.1259 15.16C71.0326 16.1467 71.4859 17.3867 71.4859 18.88C71.4859 21.52 70.4993 23.48 68.5259 24.76C66.5793 26.0133 63.7659 26.64 60.0859 26.64ZM80.6116 2.48C81.0649 2.21333 81.7449 1.96 82.6516 1.72C83.5849 1.48 84.5182 1.36 85.4516 1.36C86.7849 1.36 87.9582 1.56 88.9716 1.96C90.0116 2.33333 90.6782 2.93333 90.9716 3.76C91.4516 5.14667 91.9716 6.76 92.5316 8.6C93.0916 10.44 93.6516 12.3467 94.2116 14.32C94.7716 16.2667 95.3182 18.2 95.8516 20.12C96.3849 22.0133 96.8516 23.6933 97.2516 25.16C96.9316 25.5333 96.4516 25.8267 95.8116 26.04C95.1716 26.28 94.4116 26.4 93.5316 26.4C92.8916 26.4 92.3449 26.3467 91.8916 26.24C91.4649 26.1333 91.1049 25.9733 90.8116 25.76C90.5449 25.5467 90.3182 25.2667 90.1316 24.92C89.9716 24.5733 89.8249 24.1733 89.6916 23.72L88.9716 20.96H81.7316C81.5182 21.76 81.3049 22.5867 81.0916 23.44C80.8782 24.2933 80.6649 25.12 80.4516 25.92C80.0782 26.0533 79.6782 26.16 79.2516 26.24C78.8516 26.3467 78.3582 26.4 77.7716 26.4C76.4116 26.4 75.3982 26.1733 74.7316 25.72C74.0916 25.24 73.7716 24.5867 73.7716 23.76C73.7716 23.3867 73.8249 23.0133 73.9316 22.64C74.0382 22.2667 74.1582 21.8267 74.2916 21.32C74.4782 20.6 74.7316 19.7067 75.0516 18.64C75.3982 17.5733 75.7716 16.4267 76.1716 15.2C76.5716 13.9467 76.9982 12.6667 77.4516 11.36C77.9049 10.0533 78.3316 8.82667 78.7316 7.68C79.1316 6.50667 79.4916 5.46667 79.8116 4.56C80.1582 3.65333 80.4249 2.96 80.6116 2.48ZM85.4116 7.64C85.0382 8.76 84.6116 10.0133 84.1316 11.4C83.6782 12.76 83.2649 14.1467 82.8916 15.56H87.8516C87.4782 14.12 87.0916 12.72 86.6916 11.36C86.3182 9.97333 85.9716 8.73333 85.6516 7.64H85.4116ZM111.846 26.32C112.033 26.6133 112.219 27.0267 112.406 27.56C112.619 28.12 112.726 28.76 112.726 29.48C112.726 30.8667 112.299 32.0133 111.446 32.92C110.593 33.8267 109.379 34.28 107.806 34.28C106.686 34.28 105.779 33.9867 105.086 33.4C104.419 32.84 104.086 32.0533 104.086 31.04C104.086 30.7467 104.099 30.5067 104.126 30.32C104.179 30.16 104.233 30 104.286 29.84C106.019 29.76 106.886 29.1067 106.886 27.88C106.886 27.72 106.859 27.5067 106.806 27.24C106.779 27 106.713 26.7733 106.606 26.56C105.593 26.48 104.659 26.32 103.806 26.08C102.979 25.8667 102.259 25.5733 101.646 25.2C101.033 24.8 100.553 24.3467 100.206 23.84C99.8593 23.3067 99.6859 22.7067 99.6859 22.04C99.6859 21.2667 99.9126 20.6133 100.366 20.08C100.819 19.52 101.313 19.0933 101.846 18.8C102.593 19.3867 103.499 19.8933 104.566 20.32C105.659 20.7467 106.846 20.96 108.126 20.96C109.433 20.96 110.353 20.76 110.886 20.36C111.419 19.96 111.686 19.4933 111.686 18.96C111.686 18.4267 111.473 18.0267 111.046 17.76C110.619 17.4667 110.019 17.1867 109.246 16.92L107.566 16.36C106.393 15.96 105.326 15.56 104.366 15.16C103.406 14.7333 102.579 14.2267 101.886 13.64C101.193 13.0533 100.646 12.36 100.246 11.56C99.8726 10.7333 99.6859 9.73333 99.6859 8.56C99.6859 6.29333 100.553 4.48 102.286 3.12C104.046 1.76 106.499 1.08 109.646 1.08C110.793 1.08 111.859 1.16 112.846 1.32C113.833 1.48 114.673 1.73333 115.366 2.08C116.086 2.4 116.646 2.82667 117.046 3.36C117.446 3.86666 117.646 4.46666 117.646 5.16C117.646 5.85333 117.486 6.45333 117.166 6.96C116.846 7.44 116.459 7.85333 116.006 8.2C115.419 7.82667 114.633 7.50667 113.646 7.24C112.659 6.94667 111.579 6.8 110.406 6.8C109.206 6.8 108.326 6.97333 107.766 7.32C107.206 7.64 106.926 8.05333 106.926 8.56C106.926 8.96 107.099 9.29333 107.446 9.56C107.793 9.8 108.313 10.0267 109.006 10.24L111.126 10.92C113.633 11.72 115.553 12.7467 116.886 14C118.246 15.2267 118.926 16.9067 118.926 19.04C118.926 20.88 118.326 22.44 117.126 23.72C115.953 25 114.193 25.8667 111.846 26.32ZM126.437 26.12C125.291 26.12 124.384 25.7867 123.717 25.12C123.051 24.4533 122.717 23.5467 122.717 22.4V1.72C123.011 1.66667 123.477 1.6 124.117 1.52C124.757 1.41333 125.371 1.36 125.957 1.36C126.571 1.36 127.104 1.41333 127.557 1.52C128.037 1.6 128.437 1.76 128.757 2C129.077 2.24 129.317 2.57333 129.477 3C129.637 3.42667 129.717 3.98667 129.717 4.68V20.48H138.877C139.064 20.7733 139.237 21.1733 139.397 21.68C139.557 22.16 139.637 22.6667 139.637 23.2C139.637 24.2667 139.411 25.0267 138.957 25.48C138.504 25.9067 137.904 26.12 137.157 26.12H126.437ZM148.776 2.48C149.229 2.21333 149.909 1.96 150.816 1.72C151.749 1.48 152.682 1.36 153.616 1.36C154.949 1.36 156.122 1.56 157.136 1.96C158.176 2.33333 158.842 2.93333 159.136 3.76C159.616 5.14667 160.136 6.76 160.696 8.6C161.256 10.44 161.816 12.3467 162.376 14.32C162.936 16.2667 163.482 18.2 164.016 20.12C164.549 22.0133 165.016 23.6933 165.416 25.16C165.096 25.5333 164.616 25.8267 163.976 26.04C163.336 26.28 162.576 26.4 161.696 26.4C161.056 26.4 160.509 26.3467 160.056 26.24C159.629 26.1333 159.269 25.9733 158.976 25.76C158.709 25.5467 158.482 25.2667 158.296 24.92C158.136 24.5733 157.989 24.1733 157.856 23.72L157.136 20.96H149.896C149.682 21.76 149.469 22.5867 149.256 23.44C149.042 24.2933 148.829 25.12 148.616 25.92C148.242 26.0533 147.842 26.16 147.416 26.24C147.016 26.3467 146.522 26.4 145.936 26.4C144.576 26.4 143.562 26.1733 142.896 25.72C142.256 25.24 141.936 24.5867 141.936 23.76C141.936 23.3867 141.989 23.0133 142.096 22.64C142.202 22.2667 142.322 21.8267 142.456 21.32C142.642 20.6 142.896 19.7067 143.216 18.64C143.562 17.5733 143.936 16.4267 144.336 15.2C144.736 13.9467 145.162 12.6667 145.616 11.36C146.069 10.0533 146.496 8.82667 146.896 7.68C147.296 6.50667 147.656 5.46667 147.976 4.56C148.322 3.65333 148.589 2.96 148.776 2.48ZM153.576 7.64C153.202 8.76 152.776 10.0133 152.296 11.4C151.842 12.76 151.429 14.1467 151.056 15.56H156.016C155.642 14.12 155.256 12.72 154.856 11.36C154.482 9.97333 154.136 8.73333 153.816 7.64H153.576ZM166.168 7.36C165.981 7.06667 165.808 6.66667 165.648 6.16C165.488 5.65333 165.408 5.12 165.408 4.56C165.408 3.52 165.634 2.77333 166.088 2.32C166.568 1.86667 167.181 1.64 167.928 1.64H185.368C185.554 1.93333 185.728 2.33333 185.888 2.84C186.048 3.34667 186.128 3.88 186.128 4.44C186.128 5.48 185.888 6.22667 185.408 6.68C184.954 7.13333 184.354 7.36 183.608 7.36H179.168V25.84C178.874 25.92 178.408 26 177.768 26.08C177.154 26.16 176.541 26.2 175.928 26.2C175.314 26.2 174.768 26.1467 174.288 26.04C173.834 25.96 173.448 25.8 173.128 25.56C172.808 25.32 172.568 24.9867 172.408 24.56C172.248 24.1333 172.168 23.5733 172.168 22.88V7.36H166.168Z" fill="white"/>
</svg>
