<svg width="362" height="90" viewBox="0 0 362 90" fill="none" xmlns="http://www.w3.org/2000/svg">
<rect width="362" height="90" rx="44" fill="#ED1C24"/>
<path d="M111.554 47.9142C112.004 47.5698 112.368 47.1281 112.619 46.623C112.87 46.1178 113 45.5626 113 45C113 44.4374 112.87 43.8822 112.619 43.377C112.368 42.8719 112.004 42.4302 111.554 42.0858C105.727 37.6274 99.2199 34.1132 92.2768 31.6748L91.0073 31.2289C88.5811 30.3773 86.0169 31.9997 85.6884 34.4775C84.7705 41.4632 84.7705 48.5368 85.6884 55.5225C86.0189 58.0003 88.5811 59.6227 91.0073 58.7711L92.2768 58.3252C99.2199 55.8868 105.727 52.3726 111.554 47.9142Z" fill="white"/>
<path d="M142.486 52C142.859 52.1067 143.339 52.1867 143.926 52.24C144.513 52.2667 145.073 52.28 145.606 52.28C146.673 52.28 147.553 52.0667 148.246 51.64C148.966 51.1867 149.326 50.4933 149.326 49.56C149.326 48.68 149.033 48.0533 148.446 47.68C147.859 47.3067 146.966 47.12 145.766 47.12H142.486V52ZM142.486 42.24H145.406C146.553 42.24 147.379 42.0267 147.886 41.6C148.419 41.1733 148.686 40.5467 148.686 39.72C148.686 39 148.379 38.4267 147.766 38C147.179 37.5733 146.286 37.36 145.086 37.36C144.686 37.36 144.219 37.3733 143.686 37.4C143.179 37.4267 142.779 37.4667 142.486 37.52V42.24ZM145.086 57.64C144.633 57.64 144.099 57.6267 143.486 57.6C142.873 57.5733 142.233 57.52 141.566 57.44C140.926 57.36 140.286 57.2533 139.646 57.12C139.006 57.0133 138.419 56.8533 137.886 56.64C136.419 56.08 135.686 55.1067 135.686 53.72V35.04C135.686 34.48 135.833 34.0533 136.126 33.76C136.446 33.44 136.873 33.1867 137.406 33C138.313 32.68 139.446 32.4533 140.806 32.32C142.166 32.16 143.566 32.08 145.006 32.08C148.419 32.08 151.046 32.6533 152.886 33.8C154.726 34.9467 155.646 36.72 155.646 39.12C155.646 40.32 155.299 41.36 154.606 42.24C153.913 43.0933 152.979 43.72 151.806 44.12C153.139 44.4933 154.246 45.1733 155.126 46.16C156.033 47.1467 156.486 48.3867 156.486 49.88C156.486 52.52 155.499 54.48 153.526 55.76C151.579 57.0133 148.766 57.64 145.086 57.64ZM165.612 33.48C166.065 33.2133 166.745 32.96 167.652 32.72C168.585 32.48 169.518 32.36 170.452 32.36C171.785 32.36 172.958 32.56 173.972 32.96C175.012 33.3333 175.678 33.9333 175.972 34.76C176.452 36.1467 176.972 37.76 177.532 39.6C178.092 41.44 178.652 43.3467 179.212 45.32C179.772 47.2667 180.318 49.2 180.852 51.12C181.385 53.0133 181.852 54.6933 182.252 56.16C181.932 56.5333 181.452 56.8267 180.812 57.04C180.172 57.28 179.412 57.4 178.532 57.4C177.892 57.4 177.345 57.3467 176.892 57.24C176.465 57.1333 176.105 56.9733 175.812 56.76C175.545 56.5467 175.318 56.2667 175.132 55.92C174.972 55.5733 174.825 55.1733 174.692 54.72L173.972 51.96H166.732C166.518 52.76 166.305 53.5867 166.092 54.44C165.878 55.2933 165.665 56.12 165.452 56.92C165.078 57.0533 164.678 57.16 164.252 57.24C163.852 57.3467 163.358 57.4 162.772 57.4C161.412 57.4 160.398 57.1733 159.732 56.72C159.092 56.24 158.772 55.5867 158.772 54.76C158.772 54.3867 158.825 54.0133 158.932 53.64C159.038 53.2667 159.158 52.8267 159.292 52.32C159.478 51.6 159.732 50.7067 160.052 49.64C160.398 48.5733 160.772 47.4267 161.172 46.2C161.572 44.9467 161.998 43.6667 162.452 42.36C162.905 41.0533 163.332 39.8267 163.732 38.68C164.132 37.5067 164.492 36.4667 164.812 35.56C165.158 34.6533 165.425 33.96 165.612 33.48ZM170.412 38.64C170.038 39.76 169.612 41.0133 169.132 42.4C168.678 43.76 168.265 45.1467 167.892 46.56H172.852C172.478 45.12 172.092 43.72 171.692 42.36C171.318 40.9733 170.972 39.7333 170.652 38.64H170.412ZM196.846 57.32C197.033 57.6133 197.219 58.0267 197.406 58.56C197.619 59.12 197.726 59.76 197.726 60.48C197.726 61.8667 197.299 63.0133 196.446 63.92C195.593 64.8267 194.379 65.28 192.806 65.28C191.686 65.28 190.779 64.9867 190.086 64.4C189.419 63.84 189.086 63.0533 189.086 62.04C189.086 61.7467 189.099 61.5067 189.126 61.32C189.179 61.16 189.233 61 189.286 60.84C191.019 60.76 191.886 60.1067 191.886 58.88C191.886 58.72 191.859 58.5067 191.806 58.24C191.779 58 191.713 57.7733 191.606 57.56C190.593 57.48 189.659 57.32 188.806 57.08C187.979 56.8667 187.259 56.5733 186.646 56.2C186.033 55.8 185.553 55.3467 185.206 54.84C184.859 54.3067 184.686 53.7067 184.686 53.04C184.686 52.2667 184.913 51.6133 185.366 51.08C185.819 50.52 186.313 50.0933 186.846 49.8C187.593 50.3867 188.499 50.8933 189.566 51.32C190.659 51.7467 191.846 51.96 193.126 51.96C194.433 51.96 195.353 51.76 195.886 51.36C196.419 50.96 196.686 50.4933 196.686 49.96C196.686 49.4267 196.473 49.0267 196.046 48.76C195.619 48.4667 195.019 48.1867 194.246 47.92L192.566 47.36C191.393 46.96 190.326 46.56 189.366 46.16C188.406 45.7333 187.579 45.2267 186.886 44.64C186.193 44.0533 185.646 43.36 185.246 42.56C184.873 41.7333 184.686 40.7333 184.686 39.56C184.686 37.2933 185.553 35.48 187.286 34.12C189.046 32.76 191.499 32.08 194.646 32.08C195.793 32.08 196.859 32.16 197.846 32.32C198.833 32.48 199.673 32.7333 200.366 33.08C201.086 33.4 201.646 33.8267 202.046 34.36C202.446 34.8667 202.646 35.4667 202.646 36.16C202.646 36.8533 202.486 37.4533 202.166 37.96C201.846 38.44 201.459 38.8533 201.006 39.2C200.419 38.8267 199.633 38.5067 198.646 38.24C197.659 37.9467 196.579 37.8 195.406 37.8C194.206 37.8 193.326 37.9733 192.766 38.32C192.206 38.64 191.926 39.0533 191.926 39.56C191.926 39.96 192.099 40.2933 192.446 40.56C192.793 40.8 193.313 41.0267 194.006 41.24L196.126 41.92C198.633 42.72 200.553 43.7467 201.886 45C203.246 46.2267 203.926 47.9067 203.926 50.04C203.926 51.88 203.326 53.44 202.126 54.72C200.953 56 199.193 56.8667 196.846 57.32ZM211.437 57.12C210.291 57.12 209.384 56.7867 208.717 56.12C208.051 55.4533 207.717 54.5467 207.717 53.4V32.72C208.011 32.6667 208.477 32.6 209.117 32.52C209.757 32.4133 210.371 32.36 210.957 32.36C211.571 32.36 212.104 32.4133 212.557 32.52C213.037 32.6 213.437 32.76 213.757 33C214.077 33.24 214.317 33.5733 214.477 34C214.637 34.4267 214.717 34.9867 214.717 35.68V51.48H223.877C224.064 51.7733 224.237 52.1733 224.397 52.68C224.557 53.16 224.637 53.6667 224.637 54.2C224.637 55.2667 224.411 56.0267 223.957 56.48C223.504 56.9067 222.904 57.12 222.157 57.12H211.437ZM233.776 33.48C234.229 33.2133 234.909 32.96 235.816 32.72C236.749 32.48 237.682 32.36 238.616 32.36C239.949 32.36 241.122 32.56 242.136 32.96C243.176 33.3333 243.842 33.9333 244.136 34.76C244.616 36.1467 245.136 37.76 245.696 39.6C246.256 41.44 246.816 43.3467 247.376 45.32C247.936 47.2667 248.482 49.2 249.016 51.12C249.549 53.0133 250.016 54.6933 250.416 56.16C250.096 56.5333 249.616 56.8267 248.976 57.04C248.336 57.28 247.576 57.4 246.696 57.4C246.056 57.4 245.509 57.3467 245.056 57.24C244.629 57.1333 244.269 56.9733 243.976 56.76C243.709 56.5467 243.482 56.2667 243.296 55.92C243.136 55.5733 242.989 55.1733 242.856 54.72L242.136 51.96H234.896C234.682 52.76 234.469 53.5867 234.256 54.44C234.042 55.2933 233.829 56.12 233.616 56.92C233.242 57.0533 232.842 57.16 232.416 57.24C232.016 57.3467 231.522 57.4 230.936 57.4C229.576 57.4 228.562 57.1733 227.896 56.72C227.256 56.24 226.936 55.5867 226.936 54.76C226.936 54.3867 226.989 54.0133 227.096 53.64C227.202 53.2667 227.322 52.8267 227.456 52.32C227.642 51.6 227.896 50.7067 228.216 49.64C228.562 48.5733 228.936 47.4267 229.336 46.2C229.736 44.9467 230.162 43.6667 230.616 42.36C231.069 41.0533 231.496 39.8267 231.896 38.68C232.296 37.5067 232.656 36.4667 232.976 35.56C233.322 34.6533 233.589 33.96 233.776 33.48ZM238.576 38.64C238.202 39.76 237.776 41.0133 237.296 42.4C236.842 43.76 236.429 45.1467 236.056 46.56H241.016C240.642 45.12 240.256 43.72 239.856 42.36C239.482 40.9733 239.136 39.7333 238.816 38.64H238.576ZM251.168 38.36C250.981 38.0667 250.808 37.6667 250.648 37.16C250.488 36.6533 250.408 36.12 250.408 35.56C250.408 34.52 250.634 33.7733 251.088 33.32C251.568 32.8667 252.181 32.64 252.928 32.64H270.368C270.554 32.9333 270.728 33.3333 270.888 33.84C271.048 34.3467 271.128 34.88 271.128 35.44C271.128 36.48 270.888 37.2267 270.408 37.68C269.954 38.1333 269.354 38.36 268.608 38.36H264.168V56.84C263.874 56.92 263.408 57 262.768 57.08C262.154 57.16 261.541 57.2 260.928 57.2C260.314 57.2 259.768 57.1467 259.288 57.04C258.834 56.96 258.448 56.8 258.128 56.56C257.808 56.32 257.568 55.9867 257.408 55.56C257.248 55.1333 257.168 54.5733 257.168 53.88V38.36H251.168Z" fill="white"/>
</svg>
