<svg width="405" height="69" viewBox="0 0 405 69" fill="none" xmlns="http://www.w3.org/2000/svg">
<path d="M200.446 0H208.731V29.2151L219.332 16.5777H229.293L217.788 29.2151L230.429 45.145H220.174L208.731 30.005V45.145H200.446V0Z" fill="#231F20"/>
<path d="M192.028 16.5775H183.743V45.1448H192.028V16.5775Z" fill="#231F20"/>
<path d="M183.025 4.83665C183.025 3.51434 183.504 2.37839 184.444 1.42881C185.402 0.470353 186.529 0 187.851 0C189.172 0 190.334 0.470353 191.301 1.41106C192.268 2.35177 192.738 3.49659 192.738 4.83665C192.738 6.17671 192.259 7.33041 191.301 8.28887C190.334 9.24732 189.199 9.71768 187.851 9.71768C186.502 9.71768 185.393 9.22957 184.444 8.25337C183.504 7.27716 183.025 6.15009 183.025 4.83665Z" fill="#231F20"/>
<path d="M167.173 23.9262C168.007 21.1396 169.196 19.0629 170.757 17.6962C172.327 16.3118 174.252 15.6285 176.567 15.6285C177.081 15.6285 177.951 15.7261 179.148 15.9124C179.388 15.9479 179.556 15.9834 179.672 16.0012L178.421 24.929C177.809 24.6717 177.179 24.4676 176.54 24.3433C175.91 24.2102 175.245 24.1569 174.553 24.1569C172.034 24.1569 170.216 24.8048 169.107 26.0916C168.007 27.3873 167.448 29.5527 167.448 32.5789V45.1453H159.163V16.578H167.333L167.164 23.9262H167.173Z" fill="#231F20"/>
<path d="M141.769 45.145V23.0828H137.777V16.5777H141.769V7.09967H150.054V16.5777H154.045V23.0828H150.054V45.145H141.769Z" fill="#231F20"/>
<path d="M107.076 0H115.361V29.2151L125.961 16.5777H135.931L124.426 29.2151L137.058 45.145H126.804L115.361 30.005V45.145H107.076V0Z" fill="#231F20"/>
<path d="M96.972 19.693C94.3286 16.9774 90.7449 15.6285 86.2032 15.6285C81.6615 15.6285 78.1754 17.0661 75.3546 19.9593C72.5337 22.8524 71.1233 26.5353 71.1233 31.0259C71.1233 35.5164 72.4717 39.3946 75.1683 42.1457C77.8738 44.8969 81.5284 46.2813 86.15 46.2813C89.1925 46.2813 91.8271 45.6778 94.0358 44.462C96.2446 43.2462 98.1251 41.3914 99.6775 38.8888L92.998 35.5519C92.2617 36.7322 91.3481 37.6197 90.2481 38.1965C89.1571 38.7823 87.8442 39.0751 86.3362 39.0751C84.3404 39.0751 82.7614 38.5693 81.5994 37.5487C80.4285 36.537 79.6834 34.9928 79.3552 32.9339H100.786C100.848 32.3482 100.884 31.9133 100.902 31.6116C100.919 31.301 100.928 31.0347 100.928 30.7774C100.928 26.1094 99.6065 22.4086 96.972 19.7019V19.693ZM79.6035 27.9109C79.9229 26.1005 80.6236 24.7338 81.7502 23.802C82.859 22.879 84.3493 22.4175 86.2121 22.4175C88.0749 22.4175 89.5385 22.879 90.6118 23.802C91.694 24.7249 92.3504 26.1005 92.5811 27.9109H79.6035Z" fill="#231F20"/>
<path d="M64.4975 0H56.2124V45.145H64.4975V0Z" fill="#231F20"/>
<path d="M392.723 45.1535V23.0913H388.732V16.5951H392.723V7.117H401.008V16.5951H405V23.0913H401.008V45.1535H392.723ZM385.414 32.9243H363.983C364.311 34.9832 365.056 36.5185 366.227 37.5391C367.389 38.5597 368.968 39.0655 370.964 39.0655C372.472 39.0655 373.785 38.7815 374.876 38.1869C375.976 37.6101 376.889 36.7226 377.626 35.5423L384.305 38.8792C382.753 41.3818 380.863 43.2455 378.664 44.4524C376.446 45.6682 373.811 46.2717 370.778 46.2717C366.156 46.2717 362.501 44.8873 359.796 42.1361C357.099 39.385 355.751 35.6754 355.751 31.0163C355.751 26.3571 357.161 22.8428 359.982 19.9497C362.803 17.0565 366.422 15.6189 370.831 15.6189C375.239 15.6189 378.956 16.9678 381.6 19.6834C384.234 22.3902 385.556 26.082 385.556 30.7589C385.556 31.0163 385.547 31.2825 385.529 31.5931C385.512 31.8949 385.467 32.3297 385.414 32.9154V32.9243ZM377.218 27.919C376.987 26.1086 376.331 24.7419 375.248 23.8101C374.175 22.8871 372.703 22.4257 370.849 22.4257C368.995 22.4257 367.504 22.8871 366.387 23.8101C365.26 24.7331 364.559 26.1086 364.24 27.919H377.218ZM341.274 23.9344C342.108 21.1477 343.297 19.0711 344.858 17.7044C346.428 16.32 348.353 15.6366 350.668 15.6366C351.183 15.6366 352.052 15.7342 353.25 15.9206C353.489 15.9561 353.658 15.9916 353.773 16.0093L352.522 24.9372C351.91 24.6798 351.28 24.4757 350.642 24.3515C350.012 24.2183 349.346 24.1651 348.655 24.1651C346.135 24.1651 344.317 24.8129 343.208 26.0998C342.108 27.3954 341.549 29.5608 341.549 32.5871V45.1535H333.264V16.5862H341.434L341.266 23.9344H341.274ZM325.476 45.1535H317.43L317.546 41.0446C316.419 42.855 315.071 44.1773 313.483 45.0204C311.904 45.8635 309.979 46.2806 307.708 46.2806C303.921 46.2806 300.869 44.8695 298.545 42.0563C296.23 39.243 295.068 35.5246 295.068 30.9187C295.068 26.3127 296.212 22.3547 298.483 19.6657C300.772 16.9678 303.938 15.6277 307.992 15.6277C310.112 15.6277 311.966 16.107 313.563 17.0477C315.16 18.0061 316.517 19.4172 317.599 21.2897V16.5773H325.467V45.1446L325.476 45.1535ZM317.892 30.821C317.892 28.2563 317.244 26.2329 315.958 24.7419C314.663 23.2421 312.924 22.4967 310.733 22.4967C308.542 22.4967 306.706 23.2421 305.42 24.7242C304.125 26.2151 303.486 28.2385 303.486 30.8299C303.486 33.4213 304.125 35.4358 305.393 36.8646C306.662 38.3023 308.427 39.0212 310.68 39.0212C312.933 39.0212 314.752 38.3023 316.011 36.8646C317.271 35.4358 317.901 33.4124 317.901 30.8299L317.892 30.821ZM290.597 44.3104C289.471 44.9849 288.282 45.4819 287.04 45.8102C285.798 46.1297 284.45 46.2894 282.969 46.2894C278.471 46.2894 274.79 44.8606 271.96 41.9941C269.131 39.1276 267.711 35.4181 267.711 30.8299C267.711 26.2417 269.14 22.6919 271.996 19.8698C274.843 17.0477 278.542 15.6366 283.093 15.6366C284.601 15.6366 285.967 15.7875 287.164 16.0715C288.362 16.3555 289.515 16.8169 290.597 17.447L290.535 25.7803C289.657 24.8839 288.646 24.1917 287.501 23.7036C286.357 23.2155 285.133 22.9759 283.856 22.9759C281.532 22.9759 279.66 23.6947 278.258 25.1147C276.857 26.5435 276.165 28.4249 276.165 30.7767C276.165 33.1284 276.883 35.0897 278.312 36.5185C279.731 37.9385 281.656 38.6573 284.095 38.6573C285.435 38.6573 286.632 38.4177 287.661 37.9296C288.708 37.4504 289.657 36.696 290.535 35.6754L290.597 44.3104ZM252.853 45.1535V16.5862H261.138V45.1535H252.853ZM252.135 4.85398C252.135 3.53167 252.614 2.39572 253.554 1.44614C254.512 0.487686 255.639 0.0173332 256.96 0.0173332C258.282 0.0173332 259.444 0.487686 260.411 1.42839C261.378 2.3691 261.848 3.51392 261.848 4.85398C261.848 6.19405 261.369 7.34774 260.411 8.3062C259.444 9.26465 258.309 9.73501 256.96 9.73501C255.612 9.73501 254.503 9.24691 253.554 8.2707C252.614 7.2945 252.135 6.16742 252.135 4.85398ZM235.148 45.1535V23.0913H231.156V16.5951H235.148V7.117H243.433V16.5951H247.425V23.0913H243.433V45.1535H235.148Z" fill="#ED1C24"/>
<path d="M381.946 68.432H377.83V54.2327H381.946V56.4602C382.62 55.5284 383.347 54.845 384.11 54.4102C384.873 53.9842 385.751 53.7623 386.718 53.7623C387.898 53.7623 388.856 54.0019 389.592 54.4812C390.337 54.9693 390.86 55.6881 391.162 56.6554C391.818 55.697 392.564 54.9693 393.397 54.49C394.231 54.0019 395.145 53.7623 396.138 53.7623C397.132 53.7623 397.992 53.9487 398.693 54.3214C399.385 54.6942 399.935 55.2444 400.316 55.9899C400.52 56.3981 400.662 56.8507 400.751 57.3654C400.831 57.8713 400.875 58.6522 400.875 59.6906V68.432H396.759V61.4034C396.759 59.6817 396.582 58.528 396.227 57.96C395.872 57.392 395.26 57.108 394.382 57.108C393.318 57.108 392.555 57.5074 392.076 58.2972C391.597 59.096 391.357 60.3828 391.357 62.1843V68.4409H387.241V61.4122C387.241 59.7438 387.082 58.6167 386.745 58.031C386.416 57.4364 385.849 57.1435 385.05 57.1435C383.959 57.1435 383.161 57.5429 382.673 58.3416C382.176 59.1403 381.928 60.4183 381.928 62.1843V68.4409L381.946 68.432ZM374.778 61.3856C374.778 63.5687 374.033 65.3792 372.543 66.8257C371.053 68.2723 369.163 68.9911 366.875 68.9911C364.586 68.9911 362.67 68.2723 361.171 66.8257C359.672 65.3792 358.927 63.5687 358.927 61.3856C358.927 59.2024 359.681 57.4009 361.18 55.9455C362.688 54.49 364.586 53.7623 366.866 53.7623C369.145 53.7623 371.062 54.4812 372.543 55.9189C374.033 57.3565 374.769 59.1758 374.769 61.3856H374.778ZM370.574 61.359C370.574 60.2053 370.237 59.2823 369.562 58.5901C368.888 57.9068 367.983 57.5607 366.839 57.5607C365.695 57.5607 364.799 57.8979 364.134 58.5901C363.468 59.2734 363.14 60.1964 363.14 61.359C363.14 62.5215 363.468 63.4445 364.134 64.1367C364.799 64.8289 365.704 65.1751 366.839 65.1751C367.975 65.1751 368.87 64.8289 369.554 64.1367C370.237 63.4445 370.574 62.5215 370.574 61.359ZM356.736 68.0149C356.177 68.3521 355.583 68.6006 354.97 68.7604C354.35 68.9201 353.684 69 352.948 69C350.713 69 348.885 68.29 347.475 66.8701C346.064 65.4502 345.364 63.5954 345.364 61.3235C345.364 59.0516 346.073 57.2767 347.493 55.8745C348.912 54.4723 350.748 53.7712 353.01 53.7712C353.764 53.7712 354.438 53.8422 355.033 53.9842C355.627 54.1262 356.203 54.3569 356.745 54.6675L356.718 58.8031C356.283 58.3594 355.778 58.0133 355.21 57.7736C354.642 57.534 354.039 57.4098 353.4 57.4098C352.247 57.4098 351.316 57.7648 350.624 58.4747C349.923 59.1847 349.586 60.1165 349.586 61.288C349.586 62.4594 349.941 63.4356 350.651 64.1456C351.36 64.8556 352.318 65.2105 353.525 65.2105C354.19 65.2105 354.784 65.0952 355.299 64.8467C355.813 64.6071 356.292 64.2343 356.727 63.7285L356.753 68.0238L356.736 68.0149ZM337.203 66.3909C337.203 65.6986 337.442 65.1041 337.93 64.6071C338.418 64.119 339.004 63.8705 339.687 63.8705C340.37 63.8705 340.955 64.119 341.443 64.6071C341.931 65.1041 342.17 65.6898 342.17 66.3909C342.17 67.092 341.931 67.6511 341.443 68.1303C340.964 68.6095 340.378 68.8491 339.678 68.8491C338.977 68.8491 338.409 68.6095 337.921 68.1214C337.433 67.6422 337.194 67.0653 337.194 66.3909H337.203Z" fill="#231F20"/>
<path d="M45.7983 20.0388C43.1549 17.3232 39.5712 15.9743 35.0295 15.9743C30.4878 15.9743 27.0017 17.4119 24.1809 20.3051C22.0342 22.4971 20.7125 25.1595 20.198 28.2744H16.1265C14.7515 28.2744 13.6427 29.3926 13.6427 30.7593C13.6427 32.126 14.7604 33.2442 16.1265 33.2442H20.0383C20.3577 37.0337 21.6794 40.1131 23.9946 42.4827C26.7001 45.2338 30.3547 46.6182 34.9763 46.6182C38.0188 46.6182 40.6534 46.0147 42.8621 44.7989C45.0709 43.5831 46.9514 41.7283 48.5038 39.2257L41.8243 35.8888C41.088 37.0692 40.1744 37.9566 39.0744 38.5335C37.9833 39.1192 36.6705 39.4121 35.1625 39.4121C33.1667 39.4121 31.5877 38.9062 30.4257 37.8856C29.2548 36.8739 28.5097 35.3297 28.1815 33.2708H49.6126C49.6747 32.6851 49.7101 32.2503 49.7279 31.9485C49.7456 31.6379 49.7545 31.3717 49.7545 31.1143C49.7545 26.4463 48.4328 22.7456 45.7983 20.0388ZM28.4298 28.2567C28.7492 26.4463 29.4499 25.0796 30.5765 24.1478C31.6853 23.2248 33.1755 22.7633 35.0383 22.7633C36.9011 22.7633 38.3648 23.2248 39.4381 24.1478C40.5203 25.0707 41.1767 26.4463 41.4074 28.2567H28.4298Z" fill="#231F20"/>
<path d="M0.0173931 31.5657C0.0173931 30.2084 0.487007 29.0425 1.44363 28.0681C2.40025 27.111 3.5482 26.6238 4.88747 26.6238C6.22674 26.6238 7.37469 27.111 8.33131 28.0681C9.28793 29.0425 9.75754 30.191 9.75754 31.5657C9.75754 32.9404 9.28793 34.0367 8.33131 34.9763C7.39208 35.916 6.24413 36.3858 4.87008 36.3858C3.49602 36.3858 2.38286 35.916 1.42624 34.9589C0.469614 34.0193 0 32.8882 0 31.5657H0.0173931Z" fill="#ED1C24"/>
</svg>
