<svg width="238" height="147" viewBox="0 0 238 147" fill="none" xmlns="http://www.w3.org/2000/svg">
<path d="M219.075 19.4978C206.431 6.47089 189.288 0 167.563 0C145.838 0 129.162 6.89661 115.669 20.775C105.4 31.2902 99.078 44.0617 96.6169 59.0043H77.1407C70.5637 59.0043 65.2598 64.3684 65.2598 70.9244C65.2598 77.4805 70.6062 82.8445 77.1407 82.8445H95.8531C97.3807 101.023 103.703 115.795 114.778 127.162C127.719 140.359 145.201 147 167.308 147C181.863 147 194.465 144.105 205.03 138.273C215.596 132.44 224.592 123.543 232.017 111.538L200.066 95.5308C196.544 101.193 192.174 105.45 186.912 108.217C181.693 111.027 175.413 112.432 168.2 112.432C158.652 112.432 151.099 110.005 145.541 105.109C139.94 100.256 136.376 92.8488 134.806 82.9722H237.321C237.618 80.1625 237.788 78.0765 237.873 76.629C237.958 75.139 238 73.8619 238 72.6273C238 50.2346 231.678 32.4822 219.075 19.4978ZM135.994 58.9192C137.521 50.2346 140.873 43.6785 146.262 39.2085C151.566 34.7811 158.695 32.5673 167.605 32.5673C176.516 32.5673 183.517 34.7811 188.652 39.2085C193.828 43.636 196.968 50.2346 198.072 58.9192H135.994Z" fill="#1B1B19"/>
<path d="M0.0831998 74.7926C0.0831998 68.2816 2.32959 62.6889 6.90558 58.0144C11.4816 53.4233 16.9728 51.086 23.3791 51.086C29.7855 51.086 35.2767 53.4233 39.8527 58.0144C44.4287 62.6889 46.6751 68.1982 46.6751 74.7926C46.6751 81.387 44.4287 86.6459 39.8527 91.1535C35.3599 95.6611 29.8687 97.9149 23.2959 97.9149C16.7232 97.9149 11.3984 95.6611 6.82238 91.07C2.24639 86.5624 0 81.1366 0 74.7926H0.0831998Z" fill="#ED1C24"/>
</svg>
