<svg width="78" height="78" viewBox="0 0 78 78" fill="none" xmlns="http://www.w3.org/2000/svg">
<circle cx="39" cy="39" r="39" fill="#1B1B19" fill-opacity="0.38"/>
<path fill-rule="evenodd" clip-rule="evenodd" d="M58 39C58 39.6061 57.7498 40.1874 57.3045 40.616C56.8591 41.0445 56.2551 41.2853 55.6253 41.2853H28.1116L38.3087 51.0938C38.5295 51.3063 38.7046 51.5585 38.8241 51.8362C38.9436 52.1138 39.0051 52.4113 39.0051 52.7118C39.0051 53.0123 38.9436 53.3098 38.8241 53.5875C38.7046 53.8651 38.5295 54.1173 38.3087 54.3298C38.0879 54.5423 37.8258 54.7108 37.5373 54.8258C37.2488 54.9408 36.9396 55 36.6274 55C36.3151 55 36.0059 54.9408 35.7175 54.8258C35.429 54.7108 35.1669 54.5423 34.9461 54.3298L20.6977 40.618C20.4765 40.4057 20.3011 40.1535 20.1813 39.8759C20.0616 39.5982 20 39.3006 20 39C20 38.6994 20.0616 38.4018 20.1813 38.1241C20.3011 37.8465 20.4765 37.5943 20.6977 37.382L34.9461 23.6702C35.392 23.2411 35.9968 23 36.6274 23C37.258 23 37.8628 23.2411 38.3087 23.6702C38.7546 24.0993 39.0051 24.6813 39.0051 25.2882C39.0051 25.8951 38.7546 26.4771 38.3087 26.9062L28.1116 36.7147H55.6253C56.2551 36.7147 56.8591 36.9555 57.3045 37.384C57.7498 37.8126 58 38.3939 58 39Z" fill="white"/>
</svg>
