<svg width="262" height="96" viewBox="0 0 262 96" fill="none" xmlns="http://www.w3.org/2000/svg">
<path fill-rule="evenodd" clip-rule="evenodd" d="M197.829 53.0634H198.996V47.3698L203.281 45.5823L225.147 43.9212L225.05 42.6934L202.661 44.3967L197.756 46.9365L197.829 53.0634Z" fill="#878786"/>
<mask id="mask0_575_6513" style="mask-type:luminance" maskUnits="userSpaceOnUse" x="204" y="53" width="7" height="6">
<path d="M207.557 53.2019C209.086 53.2019 210.325 54.4417 210.325 55.9644C210.325 57.4871 209.086 58.7269 207.557 58.7269C206.028 58.7269 204.794 57.4871 204.794 55.9644C204.794 54.4417 206.034 53.2019 207.557 53.2019Z" fill="white"/>
</mask>
<g mask="url(#mask0_575_6513)">
<path d="M210.32 53.2019H204.789V58.7329H210.32V53.2019Z" fill="url(#paint0_linear_575_6513)"/>
</g>
<mask id="mask1_575_6513" style="mask-type:luminance" maskUnits="userSpaceOnUse" x="205" y="54" width="5" height="4">
<path d="M207.57 57.5412C208.436 57.5292 209.134 56.819 209.122 55.9463C209.11 55.0797 208.4 54.3815 207.528 54.3935C206.661 54.4056 205.963 55.1158 205.975 55.9885C205.987 56.8551 206.697 57.5533 207.57 57.5412Z" fill="white"/>
</mask>
<g mask="url(#mask1_575_6513)">
<path d="M209.137 54.3811H205.972V57.5469H209.137V54.3811Z" fill="url(#paint1_linear_575_6513)"/>
</g>
<mask id="mask2_575_6513" style="mask-type:luminance" maskUnits="userSpaceOnUse" x="206" y="54" width="3" height="4">
<path d="M207.575 57.3906C208.364 57.3786 208.99 56.7346 208.984 55.9522C208.971 55.1698 208.328 54.5378 207.545 54.5439C206.757 54.5559 206.131 55.1999 206.137 55.9823C206.149 56.7707 206.793 57.3967 207.575 57.3906Z" fill="white"/>
</mask>
<g mask="url(#mask2_575_6513)">
<path d="M208.988 54.5319H206.124V57.3968H208.988V54.5319Z" fill="url(#paint2_linear_575_6513)"/>
</g>
<mask id="mask3_575_6513" style="mask-type:luminance" maskUnits="userSpaceOnUse" x="206" y="55" width="3" height="2">
<path d="M207.562 56.6924C207.965 56.6924 208.29 56.3554 208.284 55.9522C208.284 55.5489 207.947 55.2239 207.544 55.2299C207.14 55.2299 206.815 55.567 206.821 55.9702C206.821 56.3735 207.158 56.6985 207.562 56.6924Z" fill="white"/>
</mask>
<g mask="url(#mask3_575_6513)">
<path d="M208.29 55.2299H206.821V56.6984H208.29V55.2299Z" fill="url(#paint3_linear_575_6513)"/>
</g>
<mask id="mask4_575_6513" style="mask-type:luminance" maskUnits="userSpaceOnUse" x="238" y="52" width="6" height="7">
<path d="M241.037 52.5638C242.566 52.5638 243.8 53.8036 243.8 55.3263C243.8 56.849 242.56 58.0888 241.037 58.0888C239.514 58.0888 238.269 56.849 238.269 55.3263C238.269 53.8036 239.508 52.5638 241.037 52.5638Z" fill="white"/>
</mask>
<g mask="url(#mask4_575_6513)">
<path d="M243.8 52.5638H238.269V58.0948H243.8V52.5638Z" fill="url(#paint4_linear_575_6513)"/>
</g>
<mask id="mask5_575_6513" style="mask-type:luminance" maskUnits="userSpaceOnUse" x="239" y="53" width="4" height="4">
<path d="M241.052 56.9031C241.919 56.8911 242.617 56.1809 242.605 55.3082C242.593 54.4415 241.883 53.7434 241.01 53.7554C240.143 53.7674 239.445 54.4776 239.457 55.3443C239.469 56.211 240.179 56.9091 241.052 56.8971" fill="white"/>
</mask>
<g mask="url(#mask5_575_6513)">
<path d="M242.611 53.7431H239.445V56.9088H242.611V53.7431Z" fill="url(#paint5_linear_575_6513)"/>
</g>
<mask id="mask6_575_6513" style="mask-type:luminance" maskUnits="userSpaceOnUse" x="239" y="53" width="4" height="4">
<path d="M241.054 56.7528C241.842 56.7408 242.468 56.0968 242.462 55.3144C242.45 54.532 241.806 53.9 241.024 53.906C240.235 53.9181 239.609 54.5621 239.615 55.3445C239.627 56.1329 240.271 56.7588 241.054 56.7528Z" fill="white"/>
</mask>
<g mask="url(#mask6_575_6513)">
<path d="M242.469 53.8942H239.604V56.759H242.469V53.8942Z" fill="url(#paint6_linear_575_6513)"/>
</g>
<mask id="mask7_575_6513" style="mask-type:luminance" maskUnits="userSpaceOnUse" x="240" y="54" width="2" height="3">
<path d="M241.042 56.0548C241.445 56.0548 241.77 55.7177 241.764 55.3145C241.764 54.9113 241.427 54.5863 241.024 54.5923C240.62 54.5923 240.295 54.9293 240.301 55.3326C240.301 55.7358 240.638 56.0608 241.042 56.0548Z" fill="white"/>
</mask>
<g mask="url(#mask7_575_6513)">
<path d="M241.763 54.5921H240.295V56.0606H241.763V54.5921Z" fill="url(#paint7_linear_575_6513)"/>
</g>
<path d="M220.557 -2.99874e-06L194.613 16.6047L211.218 42.5488L237.162 25.9441L220.557 -2.99874e-06Z" fill="#E3000F"/>
<path fill-rule="evenodd" clip-rule="evenodd" d="M221.964 20.7919L228.271 16.7234L229.421 18.5049L225.539 21.0086L226.58 22.6276L230.462 20.1239L231.503 21.7429L227.621 24.2466L228.662 25.8656L232.544 23.3619L233.694 25.1433L227.386 29.2119L221.958 20.798L221.964 20.7919ZM206.592 30.7045L212.9 26.6359L214.049 28.4174L210.167 30.9211L211.209 32.5401L215.091 30.0364L216.132 31.6554L212.25 34.1591L213.291 35.7781L217.173 33.2744L218.323 35.0559L212.015 39.1244L206.586 30.7105L206.592 30.7045ZM216.3 24.4452L218.563 22.9827L227.061 29.4105L224.636 30.9753L222.842 29.6151L220.58 31.0776L221.079 33.2744L218.654 34.8392L216.3 24.4452ZM219.358 26.6119L219.857 29.254L221.476 28.2128L219.358 26.6179V26.6119Z" fill="white"/>
<mask id="mask8_575_6513" style="mask-type:luminance" maskUnits="userSpaceOnUse" x="199" y="51" width="5" height="4">
<path d="M200.592 51.5949L203.168 54.1107L202.644 54.6523L199.521 51.6069L200.592 51.5949Z" fill="white"/>
</mask>
<g mask="url(#mask8_575_6513)">
<path d="M203.168 51.5949H199.521V54.6523H203.168V51.5949Z" fill="url(#paint8_linear_575_6513)"/>
</g>
<mask id="mask9_575_6513" style="mask-type:luminance" maskUnits="userSpaceOnUse" x="202" y="51" width="6" height="5">
<path d="M205.475 51.5349L207.985 51.8659C207.985 51.8659 207.119 54.5441 204.675 55.0376C202.725 55.4349 202.34 52.6904 202.268 51.571L205.475 51.5349Z" fill="white"/>
</mask>
<g mask="url(#mask9_575_6513)">
<path d="M207.985 51.5349H202.268V55.4409H207.985V51.5349Z" fill="url(#paint9_linear_575_6513)"/>
</g>
<mask id="mask10_575_6513" style="mask-type:luminance" maskUnits="userSpaceOnUse" x="233" y="50" width="5" height="5">
<path d="M234.728 50.8728L237.623 53.6955L237.094 54.2371L233.663 50.8848L234.728 50.8728Z" fill="white"/>
</mask>
<g mask="url(#mask10_575_6513)">
<path d="M237.623 50.8728H233.663V54.2371H237.623V50.8728Z" fill="url(#paint10_linear_575_6513)"/>
</g>
<mask id="mask11_575_6513" style="mask-type:luminance" maskUnits="userSpaceOnUse" x="236" y="50" width="7" height="5">
<path d="M237.799 50.8367L242.439 51.4506C242.439 51.4506 241.572 54.1288 239.129 54.6223C236.962 55.0617 236.734 51.6251 236.709 50.8487L237.799 50.8367Z" fill="white"/>
</mask>
<g mask="url(#mask11_575_6513)">
<path d="M242.445 50.8367H236.709V55.0677H242.445V50.8367Z" fill="url(#paint11_linear_575_6513)"/>
</g>
<path d="M200.123 35.4571L200.115 35.9686L238.147 36.586L238.155 36.0745L200.123 35.4571Z" fill="#878786"/>
<path d="M196.983 26.2873L196.922 26.8375L238.312 31.4656L238.374 30.9153L196.983 26.2873Z" fill="#878786"/>
<path d="M232.722 26.0085L231.376 40.8495L231.736 40.8821L233.082 26.0411L232.722 26.0085Z" fill="#878786"/>
<path d="M227.692 40.924L227.854 25.4143L228.216 25.4203L228.053 40.93L227.692 40.924Z" fill="#878786"/>
<path d="M223.53 24.5902L223.163 24.6087L224.038 41.8838L224.405 41.8653L223.53 24.5902Z" fill="#878786"/>
<path d="M218.502 23.8394L218.137 23.8763L219.969 41.9719L220.334 41.9349L218.502 23.8394Z" fill="#878786"/>
<path d="M213.619 22.9425L213.233 23.008L216.506 42.2742L216.892 42.2087L213.619 22.9425Z" fill="#878786"/>
<path d="M208.928 22.1835L208.546 22.2693L213.084 42.4388L213.466 42.3529L208.928 22.1835Z" fill="#878786"/>
<path d="M204.256 21.5699L203.878 21.6687L209.318 42.5106L209.697 42.4118L204.256 21.5699Z" fill="#878786"/>
<path d="M199.38 20.7282L198.998 20.814L203.979 42.969L204.36 42.8832L199.38 20.7282Z" fill="#878786"/>
<path d="M195.083 19.6637L194.959 20.4729L239.139 27.2255L239.263 26.4164L195.083 19.6637Z" fill="#878786"/>
<path d="M237.642 39.6982L202.007 41.1731L202.029 41.7143L237.665 40.2394L237.642 39.6982Z" fill="#878786"/>
<path d="M199.87 34.5978L199.862 35.1093L238.243 35.7323L238.251 35.2208L199.87 34.5978Z" fill="#878786"/>
<path d="M197.071 25.362L197.01 25.9122L238.502 30.5516L238.563 30.0014L197.071 25.362Z" fill="#878786"/>
<path d="M234.375 24.5375L232.896 40.859L233.255 40.8916L234.735 24.5701L234.375 24.5375Z" fill="#878786"/>
<path d="M229.349 24.2868L228.66 41.0643L229.021 41.0792L229.709 24.3016L229.349 24.2868Z" fill="#878786"/>
<path d="M224.703 23.3913L224.342 23.4095L225.258 41.5503L225.619 41.5321L224.703 23.3913Z" fill="#878786"/>
<path d="M219.877 22.597L219.518 22.6279L221.142 41.5407L221.502 41.5098L219.877 22.597Z" fill="#878786"/>
<path d="M214.808 22.0396L214.452 22.1001L217.798 41.7994L218.154 41.739L214.808 22.0396Z" fill="#878786"/>
<path d="M209.589 20.5598L209.208 20.6457L214.027 42.0658L214.409 41.98L209.589 20.5598Z" fill="#878786"/>
<path d="M205.09 20.4252L204.712 20.524L210.412 42.3618L210.791 42.2629L205.09 20.4252Z" fill="#878786"/>
<path d="M200.883 19.506L200.501 19.5919L205.775 43.0319L206.156 42.946L200.883 19.506Z" fill="#878786"/>
<path d="M235.987 41.0144L237.564 25.2579L237.877 25.288L236.3 41.0445L235.987 41.0144Z" fill="#878786"/>
<path d="M194.556 18.3245L194.432 19.1336L239.202 25.9763L239.325 25.1672L194.556 18.3245Z" fill="#878786"/>
<path d="M202.451 42.7479L237.714 40.1418L237.78 40.9544L202.511 43.5604L202.451 42.7479Z" fill="#878786"/>
<path d="M193.168 12.9017L192.392 13.1596L202.494 43.5997L203.271 43.3418L193.168 12.9017Z" fill="#878786"/>
<path d="M238.531 25.1221L236.956 40.8783L237.77 40.9597L239.345 25.2035L238.531 25.1221Z" fill="#878786"/>
<path d="M188.709 11.9965L188.473 13.1154L192.966 14.0631L193.202 12.9442L188.709 11.9965Z" fill="#878786"/>
<path fill-rule="evenodd" clip-rule="evenodd" d="M184.113 11.4815C183.939 12.2398 184.408 13.0042 185.172 13.1787L189.861 14.2681C190.619 14.4426 191.383 13.9731 191.558 13.2088C191.733 12.4505 191.263 11.6861 190.499 11.5116L185.816 10.4222C185.052 10.2477 184.294 10.7171 184.119 11.4815" fill="#575656"/>
<mask id="mask12_575_6513" style="mask-type:luminance" maskUnits="userSpaceOnUse" x="196" y="49" width="47" height="3">
<path d="M196.851 50.8306C196.851 51.2278 197.188 51.5408 197.603 51.5348L242.236 50.9931C242.646 50.9931 242.977 50.6621 242.971 50.2709C242.971 49.8737 242.628 49.5607 242.218 49.5667L197.585 50.1084C197.176 50.1084 196.851 50.4394 196.851 50.8306Z" fill="white"/>
</mask>
<g mask="url(#mask12_575_6513)">
<path d="M242.971 49.5666H196.845V51.5467H242.971V49.5666Z" fill="url(#paint12_linear_575_6513)"/>
</g>
<mask id="mask13_575_6513" style="mask-type:luminance" maskUnits="userSpaceOnUse" x="196" y="50" width="47" height="3">
<path d="M196.842 51.884C196.842 51.6974 197.173 51.5409 197.583 51.5409L242.234 50.9993C242.643 50.9993 242.98 51.1437 242.98 51.3243C242.98 51.5108 242.649 51.6673 242.24 51.6673L197.589 52.209C197.179 52.209 196.842 52.0645 196.842 51.884Z" fill="white"/>
</mask>
<g mask="url(#mask13_575_6513)">
<path d="M242.972 50.9932H196.833V52.215H242.972V50.9932Z" fill="url(#paint13_linear_575_6513)"/>
</g>
<mask id="mask14_575_6513" style="mask-type:luminance" maskUnits="userSpaceOnUse" x="164" y="13" width="20" height="3">
<path d="M182.997 13.8467C177.544 14.5749 171.664 14.5208 166.115 15.1888C165.381 15.2791 165.627 15.243 164.911 15.3935C165.958 15.4476 166.982 15.3935 168.029 15.3513C172.819 15.1948 178.519 15.2069 183.141 14.7013C183.412 14.6652 183.593 14.4425 183.557 14.2018C183.514 13.9671 183.262 13.8046 182.991 13.8407" fill="white"/>
</mask>
<g mask="url(#mask14_575_6513)">
<path d="M183.604 13.8108H164.916V15.4538H183.604V13.8108Z" fill="url(#paint14_linear_575_6513)"/>
</g>
<mask id="mask15_575_6513" style="mask-type:luminance" maskUnits="userSpaceOnUse" x="153" y="26" width="30" height="3">
<path d="M181.803 26.0582C173.395 27.1776 164.331 27.0994 155.779 28.1286C154.648 28.267 155.033 28.2068 153.925 28.4475C155.544 28.5318 157.115 28.4415 158.734 28.3874C166.119 28.1466 174.9 28.1587 182.032 27.3883C182.447 27.3281 182.73 26.985 182.67 26.6239C182.604 26.2568 182.218 26.004 181.803 26.0642" fill="white"/>
</mask>
<g mask="url(#mask15_575_6513)">
<path d="M182.73 25.9979H153.925V28.5257H182.73V25.9979Z" fill="url(#paint15_linear_575_6513)"/>
</g>
<mask id="mask16_575_6513" style="mask-type:luminance" maskUnits="userSpaceOnUse" x="163" y="37" width="30" height="3">
<path d="M191.799 37.06C183.391 38.1794 174.327 38.1012 165.775 39.1303C164.644 39.2688 165.029 39.2086 163.921 39.4493C165.54 39.5336 167.111 39.4433 168.73 39.3891C176.115 39.1484 184.896 39.1604 192.028 38.3901C192.443 38.3299 192.726 37.9868 192.666 37.6257C192.6 37.2586 192.214 37.0058 191.799 37.066" fill="white"/>
</mask>
<g mask="url(#mask16_575_6513)">
<path d="M192.726 36.9999H163.921V39.5277H192.726V36.9999Z" fill="url(#paint16_linear_575_6513)"/>
</g>
<mask id="mask17_575_6513" style="mask-type:luminance" maskUnits="userSpaceOnUse" x="170" y="51" width="19" height="3">
<path d="M188.363 51.8054C182.91 52.5337 177.03 52.4795 171.481 53.1476C170.747 53.2378 170.994 53.2017 170.277 53.3522C171.325 53.4064 172.348 53.3522 173.395 53.3161C178.186 53.1596 183.885 53.1716 188.507 52.6661C188.778 52.63 188.959 52.4073 188.923 52.1665C188.881 51.9318 188.628 51.7693 188.363 51.8054Z" fill="white"/>
</mask>
<g mask="url(#mask17_575_6513)">
<path d="M188.966 51.7691H170.278V53.4121H188.966V51.7691Z" fill="url(#paint17_linear_575_6513)"/>
</g>
<path d="M122.465 48.7481H128.086V68.561L135.278 59.9967H142.037L134.231 68.561L142.808 79.3643H135.85L128.086 69.0967V79.3643H122.465V48.7481ZM111.132 79.3643V59.9907H116.753V79.3643H111.132ZM110.645 52.0342C110.645 51.1374 110.97 50.367 111.608 49.7231C112.258 49.0731 113.022 48.7541 113.919 48.7541C114.815 48.7541 115.604 49.0731 116.26 49.711C116.916 50.349 117.235 51.1254 117.235 52.0342C117.235 52.943 116.91 53.7254 116.26 54.3754C115.604 55.0254 114.833 55.3444 113.919 55.3444C113.004 55.3444 112.252 55.0133 111.608 54.3513C110.97 53.6893 110.645 52.9249 110.645 52.0342ZM99.8835 64.974C100.449 63.0842 101.256 61.6759 102.315 60.749C103.38 59.8101 104.686 59.3467 106.257 59.3467C106.606 59.3467 107.196 59.4129 108.008 59.5393C108.171 59.5633 108.285 59.5874 108.364 59.5995L107.515 65.6541C107.1 65.4796 106.672 65.3411 106.239 65.2569C105.812 65.1666 105.36 65.1305 104.891 65.1305C103.182 65.1305 101.948 65.5698 101.196 66.4425C100.449 67.3212 100.07 68.7897 100.07 70.8421V79.3643H94.4487V59.9907H99.9918L99.8775 64.974H99.8835ZM82.6464 79.3643V64.4022H79.9381V59.9967H82.6464V53.5689H88.2677V59.9967H90.976V64.4022H88.2677V79.3643H82.6464ZM59.108 48.7481H64.7293V68.561L71.9214 59.9967H78.6802L70.8742 68.561L79.4506 79.3643H72.4932L64.7293 69.0967V79.3643H59.108V48.7481ZM54.8348 71.0708H40.294C40.5167 72.4671 41.0223 73.5083 41.8167 74.2004C42.6052 74.8925 43.6765 75.2356 45.0306 75.2356C46.0538 75.2356 46.9445 75.043 47.6848 74.6398C48.4311 74.2485 49.051 73.6467 49.5505 72.8462L54.0825 75.1092C53.0292 76.8064 51.7473 78.0703 50.2547 78.8888C48.7501 79.7134 46.9626 80.1226 44.9042 80.1226C41.7686 80.1226 39.2889 79.1837 37.4533 77.318C35.6237 75.4523 34.7088 72.9365 34.7088 69.7768C34.7088 66.6171 35.6658 64.2337 37.5797 62.2717C39.4936 60.3096 41.9491 59.3346 44.9403 59.3346C47.9316 59.3346 50.4533 60.2495 52.2468 62.0911C54.0343 63.9268 54.9311 66.4305 54.9311 69.6023C54.9311 69.7768 54.9251 69.9573 54.913 70.168C54.901 70.3726 54.8709 70.6675 54.8348 71.0648V71.0708ZM49.2737 67.6763C49.1172 66.4485 48.6718 65.5217 47.9376 64.8897C47.2093 64.2638 46.2103 63.9509 44.9524 63.9509C43.6945 63.9509 42.6834 64.2638 41.9251 64.8897C41.1607 65.5157 40.6852 66.4485 40.4686 67.6763H49.2737ZM24.5977 79.3643V48.7481H30.219V79.3643H24.5977ZM20.1199 71.0708H5.58519C5.80788 72.4671 6.31344 73.5083 7.10788 74.2004C7.89631 74.8925 8.9676 75.2356 10.3218 75.2356C11.3449 75.2356 12.2357 75.043 12.9759 74.6398C13.7222 74.2485 14.3421 73.6467 14.8417 72.8462L19.3736 75.1092C18.3204 76.8064 17.0385 78.0703 15.5459 78.8888C14.0412 79.7134 12.2537 80.1226 10.1954 80.1226C7.05973 80.1226 4.5801 79.1837 2.74445 77.318C0.914816 75.4523 0 72.9365 0 69.7768C0 66.6171 0.956946 64.2337 2.87084 62.2717C4.78473 60.3096 7.24029 59.3346 10.2315 59.3346C13.2227 59.3346 15.7445 60.2495 17.538 62.0911C19.3255 63.9268 20.2222 66.4305 20.2222 69.6023C20.2222 69.7768 20.2162 69.9573 20.2042 70.168C20.1922 70.3726 20.1621 70.6675 20.126 71.0648L20.1199 71.0708ZM14.5588 67.6763C14.4023 66.4485 13.957 65.5217 13.2227 64.8897C12.4945 64.2638 11.4954 63.9509 10.2375 63.9509C8.97964 63.9509 7.96853 64.2638 7.2102 64.8897C6.44584 65.5157 5.97038 66.4485 5.75371 67.6763H14.5588Z" fill="#1B1B19"/>
<path d="M252.922 79.3703V64.4082H250.213V60.0026H252.922V53.5749H258.543V60.0026H261.251V64.4082H258.543V79.3703H252.922ZM247.962 71.0767H233.422C233.644 72.473 234.15 73.5142 234.944 74.2064C235.733 74.8985 236.804 75.2416 238.158 75.2416C239.181 75.2416 240.072 75.049 240.812 74.6457C241.559 74.2545 242.179 73.6527 242.678 72.8522L247.21 75.1152C246.157 76.8124 244.875 78.0763 243.382 78.8948C241.878 79.7193 240.09 80.1286 238.032 80.1286C234.896 80.1286 232.417 79.1897 230.581 77.324C228.751 75.4582 227.837 72.9425 227.837 69.7828C227.837 66.623 228.793 64.2397 230.707 62.2777C232.621 60.3156 235.077 59.3406 238.068 59.3406C241.059 59.3406 243.581 60.2554 245.374 62.0971C247.162 63.9327 248.059 66.4365 248.059 69.6082C248.059 69.7828 248.053 69.9633 248.041 70.174C248.029 70.3786 247.999 70.6735 247.962 71.0707V71.0767ZM242.401 67.6823C242.245 66.4545 241.799 65.5277 241.065 64.8957C240.337 64.2698 239.338 63.9568 238.08 63.9568C236.822 63.9568 235.811 64.2698 235.053 64.8957C234.288 65.5216 233.813 66.4545 233.596 67.6823H242.401ZM218.014 64.98C218.58 63.0902 219.386 61.6818 220.446 60.755C221.511 59.8161 222.817 59.3527 224.388 59.3527C224.737 59.3527 225.327 59.4189 226.139 59.5452C226.302 59.5693 226.416 59.5934 226.494 59.6054L225.646 65.6601C225.23 65.4855 224.803 65.3471 224.37 65.2628C223.943 65.1726 223.491 65.1365 223.022 65.1365C221.312 65.1365 220.079 65.5758 219.326 66.4485C218.58 67.3272 218.201 68.7957 218.201 70.848V79.3703H212.58V59.9966H218.123L218.008 64.98H218.014ZM207.295 79.3703H201.836L201.915 76.5837C201.15 77.8115 200.236 78.7082 199.158 79.28C198.087 79.8518 196.781 80.1346 195.24 80.1346C192.67 80.1346 190.6 79.1777 189.023 77.2698C187.452 75.3619 186.664 72.8402 186.664 69.7166C186.664 66.5929 187.44 63.9087 188.981 62.0851C190.534 60.2554 192.682 59.3466 195.433 59.3466C196.871 59.3466 198.129 59.6716 199.212 60.3096C200.296 60.9596 201.217 61.9165 201.951 63.1865V59.9906H207.289V79.3642L207.295 79.3703ZM202.149 69.6504C202.149 67.911 201.71 66.5388 200.837 65.5277C199.959 64.5105 198.779 64.005 197.292 64.005C195.806 64.005 194.56 64.5105 193.687 65.5156C192.809 66.5267 192.375 67.899 192.375 69.6564C192.375 71.4138 192.809 72.78 193.669 73.749C194.53 74.724 195.728 75.2115 197.256 75.2115C198.785 75.2115 200.019 74.724 200.874 73.749C201.728 72.78 202.155 71.4078 202.155 69.6564L202.149 69.6504ZM183.63 78.7985C182.866 79.2559 182.06 79.593 181.217 79.8156C180.374 80.0323 179.46 80.1406 178.455 80.1406C175.403 80.1406 172.905 79.1717 170.986 77.2277C169.066 75.2837 168.103 72.7679 168.103 69.6564C168.103 66.5448 169.072 64.1374 171.01 62.2235C172.942 60.3096 175.451 59.3527 178.539 59.3527C179.562 59.3527 180.489 59.455 181.301 59.6476C182.114 59.8402 182.896 60.1531 183.63 60.5804L183.588 66.2318C182.992 65.624 182.306 65.1545 181.53 64.8235C180.754 64.4925 179.923 64.33 179.056 64.33C177.48 64.33 176.21 64.8175 175.259 65.7804C174.308 66.7494 173.838 68.0253 173.838 69.6203C173.838 71.2152 174.326 72.5453 175.295 73.5142C176.258 74.4772 177.564 74.9647 179.219 74.9647C180.128 74.9647 180.94 74.8022 181.638 74.4712C182.348 74.1462 182.992 73.6346 183.588 72.9425L183.63 78.7985ZM158.022 79.3703V59.9966H163.643V79.3703H158.022ZM157.534 52.0401C157.534 51.1434 157.859 50.373 158.497 49.729C159.147 49.079 159.911 48.76 160.808 48.76C161.705 48.76 162.493 49.079 163.149 49.717C163.805 50.355 164.124 51.1313 164.124 52.0401C164.124 52.9489 163.799 53.7313 163.149 54.3813C162.493 55.0313 161.723 55.3503 160.808 55.3503C159.893 55.3503 159.141 55.0193 158.497 54.3573C157.859 53.6952 157.534 52.9309 157.534 52.0401ZM146.009 79.3703V64.4082H143.3V60.0026H146.009V53.5749H151.63V60.0026H154.338V64.4082H151.63V79.3703H146.009Z" fill="#E3000F"/>
<path d="M245.61 95.1509H242.817V85.5213H245.61V87.0319C246.067 86.4 246.56 85.9365 247.078 85.6416C247.596 85.3527 248.192 85.2023 248.848 85.2023C249.648 85.2023 250.298 85.3648 250.798 85.6898C251.303 86.0208 251.658 86.5083 251.863 87.1643C252.308 86.5143 252.814 86.0208 253.379 85.6958C253.945 85.3648 254.565 85.2023 255.239 85.2023C255.913 85.2023 256.497 85.3287 256.973 85.5814C257.442 85.8342 257.815 86.2074 258.074 86.7129C258.212 86.9898 258.309 87.2967 258.369 87.6458C258.423 87.9888 258.453 88.5185 258.453 89.2226V95.1509H255.66V90.3842C255.66 89.2166 255.54 88.4342 255.299 88.049C255.059 87.6638 254.643 87.4712 254.048 87.4712C253.325 87.4712 252.808 87.7421 252.483 88.2777C252.158 88.8194 251.995 89.6921 251.995 90.9138V95.1569H249.203V90.3902C249.203 89.2588 249.094 88.4944 248.866 88.0972C248.643 87.6939 248.258 87.4953 247.716 87.4953C246.976 87.4953 246.434 87.7662 246.103 88.3078C245.766 88.8495 245.598 89.7162 245.598 90.9138V95.1569L245.61 95.1509ZM240.747 90.3722C240.747 91.8527 240.241 93.0805 239.23 94.0615C238.219 95.0426 236.937 95.5301 235.384 95.5301C233.831 95.5301 232.531 95.0426 231.514 94.0615C230.497 93.0805 229.991 91.8527 229.991 90.3722C229.991 88.8916 230.503 87.6699 231.52 86.6828C232.543 85.6958 233.831 85.2023 235.378 85.2023C236.925 85.2023 238.225 85.6898 239.23 86.6648C240.241 87.6398 240.741 88.8736 240.741 90.3722H240.747ZM237.894 90.3541C237.894 89.5717 237.665 88.9458 237.208 88.4763C236.75 88.0129 236.136 87.7782 235.36 87.7782C234.584 87.7782 233.976 88.0069 233.524 88.4763C233.073 88.9398 232.85 89.5657 232.85 90.3541C232.85 91.1426 233.073 91.7685 233.524 92.2379C233.976 92.7074 234.59 92.9421 235.36 92.9421C236.13 92.9421 236.738 92.7074 237.202 92.2379C237.665 91.7685 237.894 91.1426 237.894 90.3541ZM228.505 94.868C228.126 95.0967 227.723 95.2652 227.307 95.3736C226.886 95.4819 226.435 95.5361 225.935 95.5361C224.418 95.5361 223.179 95.0546 222.222 94.0916C221.265 93.1287 220.789 91.8708 220.789 90.33C220.789 88.7893 221.271 87.5856 222.234 86.6347C223.197 85.6837 224.442 85.2083 225.977 85.2083C226.489 85.2083 226.946 85.2564 227.349 85.3527C227.753 85.449 228.144 85.6055 228.511 85.8162L228.493 88.6208C228.198 88.3199 227.855 88.0851 227.47 87.9226C227.085 87.7601 226.675 87.6759 226.242 87.6759C225.46 87.6759 224.828 87.9166 224.358 88.3981C223.883 88.8796 223.654 89.5115 223.654 90.306C223.654 91.1004 223.895 91.7625 224.376 92.2439C224.858 92.7254 225.508 92.9662 226.326 92.9662C226.778 92.9662 227.181 92.8879 227.53 92.7194C227.879 92.5569 228.204 92.3041 228.499 91.9611L228.517 94.874L228.505 94.868ZM215.252 93.7666C215.252 93.2972 215.415 92.8939 215.746 92.5569C216.077 92.2259 216.474 92.0574 216.937 92.0574C217.401 92.0574 217.798 92.2259 218.129 92.5569C218.46 92.8939 218.622 93.2912 218.622 93.7666C218.622 94.2421 218.46 94.6213 218.129 94.9463C217.804 95.2713 217.407 95.4338 216.931 95.4338C216.456 95.4338 216.071 95.2713 215.74 94.9402C215.409 94.6152 215.246 94.224 215.246 93.7666H215.252Z" fill="#1B1B19"/>
<mask id="mask18_575_6513" style="mask-type:luminance" maskUnits="userSpaceOnUse" x="235" y="52" width="8" height="8">
<path d="M238.615 52.3651C240.559 52.3651 242.135 53.942 242.135 55.886C242.135 57.8299 240.559 59.4068 238.615 59.4068C236.671 59.4068 235.094 57.8299 235.094 55.886C235.094 53.942 236.671 52.3651 238.615 52.3651Z" fill="white"/>
</mask>
<g mask="url(#mask18_575_6513)">
<path d="M242.135 52.3651H235.094V59.4068H242.135V52.3651Z" fill="url(#paint18_linear_575_6513)"/>
</g>
<mask id="mask19_575_6513" style="mask-type:luminance" maskUnits="userSpaceOnUse" x="236" y="53" width="5" height="5">
<path d="M238.641 57.8902C239.749 57.8782 240.633 56.9694 240.621 55.8619C240.609 54.7545 239.7 53.8698 238.593 53.8819C237.486 53.8939 236.601 54.8027 236.613 55.9101C236.625 57.0175 237.534 57.9022 238.641 57.8902Z" fill="white"/>
</mask>
<g mask="url(#mask19_575_6513)">
<path d="M240.631 53.8638H236.599V57.8962H240.631V53.8638Z" fill="url(#paint19_linear_575_6513)"/>
</g>
<mask id="mask20_575_6513" style="mask-type:luminance" maskUnits="userSpaceOnUse" x="236" y="54" width="5" height="4">
<path d="M238.64 57.6978C239.64 57.6857 240.446 56.8612 240.434 55.8621C240.422 54.8631 239.597 54.0566 238.598 54.0746C237.599 54.0867 236.793 54.9112 236.805 55.9103C236.817 56.9094 237.635 57.7158 238.64 57.7038" fill="white"/>
</mask>
<g mask="url(#mask20_575_6513)">
<path d="M240.445 54.056H236.792V57.7093H240.445V54.056Z" fill="url(#paint20_linear_575_6513)"/>
</g>
<mask id="mask21_575_6513" style="mask-type:luminance" maskUnits="userSpaceOnUse" x="237" y="54" width="3" height="3">
<path d="M238.63 56.8127C239.142 56.8067 239.557 56.3854 239.551 55.8739C239.545 55.3623 239.124 54.947 238.612 54.953C238.101 54.959 237.685 55.3803 237.691 55.8919C237.697 56.4035 238.119 56.8188 238.636 56.8127" fill="white"/>
</mask>
<g mask="url(#mask21_575_6513)">
<path d="M239.551 54.9471H237.68V56.8188H239.551V54.9471Z" fill="url(#paint21_linear_575_6513)"/>
</g>
<mask id="mask22_575_6513" style="mask-type:luminance" maskUnits="userSpaceOnUse" x="201" y="52" width="8" height="9">
<path d="M205.137 52.9972C207.081 52.9972 208.657 54.574 208.657 56.518C208.657 58.462 207.081 60.0389 205.137 60.0389C203.193 60.0389 201.616 58.462 201.616 56.518C201.616 54.574 203.193 52.9972 205.137 52.9972Z" fill="white"/>
</mask>
<g mask="url(#mask22_575_6513)">
<path d="M208.657 52.9972H201.616V60.0389H208.657V52.9972Z" fill="url(#paint22_linear_575_6513)"/>
</g>
<mask id="mask23_575_6513" style="mask-type:luminance" maskUnits="userSpaceOnUse" x="203" y="54" width="5" height="5">
<path d="M205.159 58.5285C206.266 58.5164 207.151 57.6076 207.139 56.5002C207.127 55.3928 206.218 54.5081 205.111 54.5201C204.003 54.5322 203.118 55.441 203.13 56.5484C203.143 57.6558 204.051 58.5405 205.159 58.5285Z" fill="white"/>
</mask>
<g mask="url(#mask23_575_6513)">
<path d="M207.15 54.5022H203.118V58.5346H207.15V54.5022Z" fill="url(#paint23_linear_575_6513)"/>
</g>
<mask id="mask24_575_6513" style="mask-type:luminance" maskUnits="userSpaceOnUse" x="203" y="54" width="4" height="5">
<path d="M205.16 58.3356C206.159 58.3236 206.966 57.499 206.954 56.4999C206.941 55.5009 206.117 54.6944 205.118 54.7124C204.119 54.7245 203.312 55.543 203.324 56.5481C203.336 57.5472 204.155 58.3536 205.16 58.3416" fill="white"/>
</mask>
<g mask="url(#mask24_575_6513)">
<path d="M206.965 54.6945H203.312V58.3477H206.965V54.6945Z" fill="url(#paint24_linear_575_6513)"/>
</g>
<mask id="mask25_575_6513" style="mask-type:luminance" maskUnits="userSpaceOnUse" x="204" y="55" width="3" height="3">
<path d="M205.146 57.451C205.658 57.445 206.073 57.0237 206.067 56.5121C206.061 56.0006 205.64 55.5853 205.128 55.5913C204.617 55.5973 204.202 56.0186 204.208 56.5302C204.214 57.0418 204.635 57.4571 205.152 57.451" fill="white"/>
</mask>
<g mask="url(#mask25_575_6513)">
<path d="M206.066 55.585H204.194V57.4568H206.066V55.585Z" fill="url(#paint25_linear_575_6513)"/>
</g>
<defs>
<linearGradient id="paint0_linear_575_6513" x1="204.133" y1="53.7736" x2="210.976" y2="58.1491" gradientUnits="userSpaceOnUse">
<stop stop-color="#000003"/>
<stop offset="0.41" stop-color="#494C4D"/>
<stop offset="0.6" stop-color="#494C4D"/>
<stop offset="0.63" stop-color="#494C4D"/>
<stop offset="1" stop-color="#000003"/>
</linearGradient>
<linearGradient id="paint1_linear_575_6513" x1="206.285" y1="54.032" x2="208.824" y2="57.8959" gradientUnits="userSpaceOnUse">
<stop stop-color="#000003"/>
<stop offset="0.41" stop-color="#494C4D"/>
<stop offset="0.6" stop-color="#494C4D"/>
<stop offset="0.63" stop-color="#494C4D"/>
<stop offset="1" stop-color="#000003"/>
</linearGradient>
<linearGradient id="paint2_linear_575_6513" x1="208.561" y1="54.1227" x2="206.768" y2="57.4088" gradientUnits="userSpaceOnUse">
<stop stop-color="#5B5B5C"/>
<stop offset="0.46" stop-color="#E3E3E4"/>
<stop offset="0.74" stop-color="white"/>
<stop offset="1" stop-color="#5B5B5C"/>
</linearGradient>
<linearGradient id="paint3_linear_575_6513" x1="206.966" y1="55.0674" x2="208.145" y2="56.8609" gradientUnits="userSpaceOnUse">
<stop stop-color="#000003"/>
<stop offset="0.41" stop-color="#494C4D"/>
<stop offset="0.6" stop-color="#494C4D"/>
<stop offset="0.63" stop-color="#494C4D"/>
<stop offset="1" stop-color="#000003"/>
</linearGradient>
<linearGradient id="paint4_linear_575_6513" x1="237.613" y1="53.1355" x2="244.456" y2="57.517" gradientUnits="userSpaceOnUse">
<stop stop-color="#000003"/>
<stop offset="0.41" stop-color="#494C4D"/>
<stop offset="0.6" stop-color="#494C4D"/>
<stop offset="0.63" stop-color="#494C4D"/>
<stop offset="1" stop-color="#000003"/>
</linearGradient>
<linearGradient id="paint5_linear_575_6513" x1="239.764" y1="53.394" x2="242.298" y2="57.2579" gradientUnits="userSpaceOnUse">
<stop stop-color="#000003"/>
<stop offset="0.41" stop-color="#494C4D"/>
<stop offset="0.6" stop-color="#494C4D"/>
<stop offset="0.63" stop-color="#494C4D"/>
<stop offset="1" stop-color="#000003"/>
</linearGradient>
<linearGradient id="paint6_linear_575_6513" x1="242.041" y1="53.485" x2="240.248" y2="56.7711" gradientUnits="userSpaceOnUse">
<stop stop-color="#5B5B5C"/>
<stop offset="0.46" stop-color="#E3E3E4"/>
<stop offset="0.74" stop-color="white"/>
<stop offset="1" stop-color="#5B5B5C"/>
</linearGradient>
<linearGradient id="paint7_linear_575_6513" x1="240.445" y1="54.4296" x2="241.625" y2="56.2231" gradientUnits="userSpaceOnUse">
<stop stop-color="#000003"/>
<stop offset="0.41" stop-color="#494C4D"/>
<stop offset="0.6" stop-color="#494C4D"/>
<stop offset="0.63" stop-color="#494C4D"/>
<stop offset="1" stop-color="#000003"/>
</linearGradient>
<linearGradient id="paint8_linear_575_6513" x1="201.621" y1="52.8407" x2="201.055" y2="53.4185" gradientUnits="userSpaceOnUse">
<stop stop-color="#5B5B5C"/>
<stop offset="0.33" stop-color="#E3E3E4"/>
<stop offset="0.6" stop-color="white"/>
<stop offset="0.71" stop-color="white"/>
<stop offset="1" stop-color="#5B5B5C"/>
</linearGradient>
<linearGradient id="paint9_linear_575_6513" x1="198.566" y1="51.6191" x2="207.937" y2="54.2913" gradientUnits="userSpaceOnUse">
<stop stop-color="#5B5B5C"/>
<stop offset="0.33" stop-color="#E3E3E4"/>
<stop offset="0.6" stop-color="white"/>
<stop offset="0.71" stop-color="white"/>
<stop offset="1" stop-color="#5B5B5C"/>
</linearGradient>
<linearGradient id="paint10_linear_575_6513" x1="235.92" y1="52.2691" x2="235.354" y2="52.8468" gradientUnits="userSpaceOnUse">
<stop stop-color="#5B5B5C"/>
<stop offset="0.33" stop-color="#E3E3E4"/>
<stop offset="0.6" stop-color="white"/>
<stop offset="0.71" stop-color="white"/>
<stop offset="1" stop-color="#5B5B5C"/>
</linearGradient>
<linearGradient id="paint11_linear_575_6513" x1="233.086" y1="51.1075" x2="242.427" y2="53.7617" gradientUnits="userSpaceOnUse">
<stop stop-color="#5B5B5C"/>
<stop offset="0.33" stop-color="#E3E3E4"/>
<stop offset="0.6" stop-color="white"/>
<stop offset="0.71" stop-color="white"/>
<stop offset="1" stop-color="#5B5B5C"/>
</linearGradient>
<linearGradient id="paint12_linear_575_6513" x1="219.896" y1="49.8013" x2="219.914" y2="51.2277" gradientUnits="userSpaceOnUse">
<stop stop-color="#6A6B6C"/>
<stop offset="0.03" stop-color="#6A6B6C"/>
<stop offset="0.32" stop-color="white"/>
<stop offset="0.38" stop-color="white"/>
<stop offset="0.52" stop-color="#D1D4D5"/>
<stop offset="0.53" stop-color="#D1D4D5"/>
<stop offset="1" stop-color="#6A6B6C"/>
</linearGradient>
<linearGradient id="paint13_linear_575_6513" x1="219.909" y1="52.0645" x2="219.903" y2="51.2761" gradientUnits="userSpaceOnUse">
<stop stop-color="#6A6B6C"/>
<stop offset="0.03" stop-color="#6A6B6C"/>
<stop offset="0.32" stop-color="white"/>
<stop offset="0.38" stop-color="white"/>
<stop offset="0.52" stop-color="#D1D4D5"/>
<stop offset="0.53" stop-color="#D1D4D5"/>
<stop offset="1" stop-color="#6A6B6C"/>
</linearGradient>
<linearGradient id="paint14_linear_575_6513" x1="183.537" y1="14.5149" x2="164.91" y2="14.7436" gradientUnits="userSpaceOnUse">
<stop stop-color="#575656"/>
<stop offset="1" stop-color="white"/>
</linearGradient>
<linearGradient id="paint15_linear_575_6513" x1="182.634" y1="27.0873" x2="153.919" y2="27.4364" gradientUnits="userSpaceOnUse">
<stop stop-color="#575656"/>
<stop offset="1" stop-color="white"/>
</linearGradient>
<linearGradient id="paint16_linear_575_6513" x1="192.63" y1="38.0953" x2="163.909" y2="38.4444" gradientUnits="userSpaceOnUse">
<stop stop-color="#575656"/>
<stop offset="1" stop-color="white"/>
</linearGradient>
<linearGradient id="paint17_linear_575_6513" x1="188.9" y1="52.4733" x2="170.272" y2="52.702" gradientUnits="userSpaceOnUse">
<stop stop-color="#575656"/>
<stop offset="1" stop-color="white"/>
</linearGradient>
<linearGradient id="paint18_linear_575_6513" x1="234.257" y1="53.0934" x2="242.966" y2="58.6665" gradientUnits="userSpaceOnUse">
<stop stop-color="#000003"/>
<stop offset="0.41" stop-color="#494C4D"/>
<stop offset="0.6" stop-color="#494C4D"/>
<stop offset="0.63" stop-color="#494C4D"/>
<stop offset="1" stop-color="#000003"/>
</linearGradient>
<linearGradient id="paint19_linear_575_6513" x1="236.996" y1="53.4244" x2="240.228" y2="58.3416" gradientUnits="userSpaceOnUse">
<stop stop-color="#000003"/>
<stop offset="0.41" stop-color="#494C4D"/>
<stop offset="0.6" stop-color="#494C4D"/>
<stop offset="0.63" stop-color="#494C4D"/>
<stop offset="1" stop-color="#000003"/>
</linearGradient>
<linearGradient id="paint20_linear_575_6513" x1="239.898" y1="53.5384" x2="237.611" y2="57.7273" gradientUnits="userSpaceOnUse">
<stop stop-color="#5B5B5C"/>
<stop offset="0.46" stop-color="#E3E3E4"/>
<stop offset="0.74" stop-color="white"/>
<stop offset="1" stop-color="#5B5B5C"/>
</linearGradient>
<linearGradient id="paint21_linear_575_6513" x1="237.866" y1="54.7424" x2="239.365" y2="57.0235" gradientUnits="userSpaceOnUse">
<stop stop-color="#000003"/>
<stop offset="0.41" stop-color="#494C4D"/>
<stop offset="0.6" stop-color="#494C4D"/>
<stop offset="0.63" stop-color="#494C4D"/>
<stop offset="1" stop-color="#000003"/>
</linearGradient>
<linearGradient id="paint22_linear_575_6513" x1="200.779" y1="53.7314" x2="209.494" y2="59.3046" gradientUnits="userSpaceOnUse">
<stop stop-color="#000003"/>
<stop offset="0.41" stop-color="#494C4D"/>
<stop offset="0.6" stop-color="#494C4D"/>
<stop offset="0.63" stop-color="#494C4D"/>
<stop offset="1" stop-color="#000003"/>
</linearGradient>
<linearGradient id="paint23_linear_575_6513" x1="203.521" y1="54.0628" x2="206.747" y2="58.98" gradientUnits="userSpaceOnUse">
<stop stop-color="#000003"/>
<stop offset="0.41" stop-color="#494C4D"/>
<stop offset="0.6" stop-color="#494C4D"/>
<stop offset="0.63" stop-color="#494C4D"/>
<stop offset="1" stop-color="#000003"/>
</linearGradient>
<linearGradient id="paint24_linear_575_6513" x1="206.418" y1="54.1769" x2="204.131" y2="58.3658" gradientUnits="userSpaceOnUse">
<stop stop-color="#5B5B5C"/>
<stop offset="0.46" stop-color="#E3E3E4"/>
<stop offset="0.74" stop-color="white"/>
<stop offset="1" stop-color="#5B5B5C"/>
</linearGradient>
<linearGradient id="paint25_linear_575_6513" x1="204.381" y1="55.3804" x2="205.886" y2="57.6614" gradientUnits="userSpaceOnUse">
<stop stop-color="#000003"/>
<stop offset="0.41" stop-color="#494C4D"/>
<stop offset="0.6" stop-color="#494C4D"/>
<stop offset="0.63" stop-color="#494C4D"/>
<stop offset="1" stop-color="#000003"/>
</linearGradient>
</defs>
</svg>
