<svg width="287" height="49" viewBox="0 0 287 49" fill="none" xmlns="http://www.w3.org/2000/svg">
<path d="M142.045 0H147.916V20.747L155.428 11.7726H162.487L154.334 20.747L163.291 32.0595H156.025L147.916 21.3079V32.0595H142.045V0Z" fill="#231F20"/>
<path d="M136.079 11.7724H130.208V32.0593H136.079V11.7724Z" fill="#231F20"/>
<path d="M129.699 3.43472C129.699 2.49569 130.039 1.689 130.705 1.01466C131.384 0.334019 132.182 0 133.119 0C134.055 0 134.879 0.334019 135.564 1.00206C136.249 1.67009 136.582 2.48308 136.582 3.43472C136.582 4.38636 136.243 5.20565 135.564 5.8863C134.879 6.56694 134.074 6.90096 133.119 6.90096C132.163 6.90096 131.378 6.55433 130.705 5.86109C130.039 5.16784 129.699 4.36746 129.699 3.43472Z" fill="#231F20"/>
<path d="M118.466 16.9911C119.057 15.0122 119.899 13.5374 121.005 12.5669C122.118 11.5837 123.482 11.0985 125.123 11.0985C125.487 11.0985 126.103 11.1678 126.952 11.3001C127.122 11.3254 127.241 11.3506 127.323 11.3632L126.436 17.7032C126.003 17.5205 125.556 17.3755 125.104 17.2873C124.658 17.1927 124.186 17.1549 123.696 17.1549C121.911 17.1549 120.622 17.615 119.836 18.5288C119.057 19.4489 118.661 20.9867 118.661 23.1358V32.0597H112.79V11.7728H118.579L118.46 16.9911H118.466Z" fill="#231F20"/>
<path d="M100.463 32.0595V16.3921H97.6344V11.7726H100.463V5.0418H106.334V11.7726H109.163V16.3921H106.334V32.0595H100.463Z" fill="#231F20"/>
<path d="M75.8783 0H81.7495V20.747L89.2612 11.7726H96.3267L88.1738 20.747L97.125 32.0595H89.8584L81.7495 21.3079V32.0595H75.8783V0Z" fill="#231F20"/>
<path d="M68.7184 13.9849C66.8452 12.0564 64.3056 11.0985 61.0872 11.0985C57.8688 11.0985 55.3984 12.1194 53.3994 14.174C51.4005 16.2285 50.401 18.8439 50.401 22.0329C50.401 25.2218 51.3565 27.9759 53.2674 29.9296C55.1846 31.8833 57.7745 32.8664 61.0495 32.8664C63.2056 32.8664 65.0725 32.4379 66.6377 31.5745C68.203 30.7111 69.5356 29.3939 70.6356 27.6167L65.9023 25.247C65.3805 26.0852 64.7331 26.7154 63.9536 27.1251C63.1804 27.541 62.2501 27.749 61.1815 27.749C59.7671 27.749 58.6482 27.3898 57.8248 26.665C56.995 25.9466 56.467 24.85 56.2344 23.3879H71.4214C71.4654 22.9719 71.4905 22.6631 71.5031 22.4488C71.5157 22.2282 71.522 22.0392 71.522 21.8564C71.522 18.5414 70.5853 15.9134 68.7184 13.9912V13.9849ZM56.4104 19.8208C56.6367 18.5351 57.1333 17.5646 57.9316 16.9028C58.7174 16.2474 59.7734 15.9197 61.0935 15.9197C62.4135 15.9197 63.4507 16.2474 64.2113 16.9028C64.9782 17.5583 65.4434 18.5351 65.6068 19.8208H56.4104Z" fill="#231F20"/>
<path d="M45.7056 0H39.8345V32.0595H45.7056V0Z" fill="#231F20"/>
<path d="M278.3 32.0655V16.3981H275.471V11.7849H278.3V5.0541H284.171V11.7849H287V16.3981H284.171V32.0655H278.3ZM273.12 23.381H257.934C258.166 24.8432 258.694 25.9334 259.524 26.6582C260.347 27.383 261.466 27.7422 262.881 27.7422C263.949 27.7422 264.88 27.5405 265.653 27.1183C266.432 26.7086 267.08 26.0784 267.601 25.2402L272.335 27.6098C271.235 29.3871 269.896 30.7105 268.337 31.5676C266.765 32.4311 264.898 32.8596 262.749 32.8596C259.474 32.8596 256.884 31.8765 254.967 29.9228C253.056 27.9691 252.1 25.3347 252.1 22.026C252.1 18.7174 253.1 16.2217 255.099 14.1672C257.097 12.1126 259.662 11.0917 262.786 11.0917C265.91 11.0917 268.544 12.0496 270.418 13.9781C272.284 15.9003 273.221 18.522 273.221 21.8433C273.221 22.026 273.215 22.2151 273.202 22.4357C273.19 22.65 273.158 22.9588 273.12 23.3747V23.381ZM267.312 19.8266C267.149 18.5409 266.684 17.5704 265.917 16.9086C265.156 16.2532 264.113 15.9255 262.799 15.9255C261.485 15.9255 260.429 16.2532 259.637 16.9086C258.839 17.5641 258.342 18.5409 258.116 19.8266H267.312ZM241.841 16.9969C242.432 15.018 243.275 13.5432 244.381 12.5727C245.494 11.5895 246.858 11.1043 248.498 11.1043C248.863 11.1043 249.479 11.1736 250.327 11.3059C250.497 11.3311 250.617 11.3563 250.698 11.369L249.812 17.709C249.378 17.5262 248.932 17.3813 248.479 17.2931C248.033 17.1985 247.562 17.1607 247.071 17.1607C245.286 17.1607 243.997 17.6208 243.212 18.5346C242.432 19.4547 242.036 20.9925 242.036 23.1415V32.0655H236.165V11.7786H241.954L241.835 16.9969H241.841ZM230.646 32.0655H224.945L225.026 29.1476C224.228 30.4332 223.272 31.3723 222.147 31.971C221.028 32.5697 219.664 32.8659 218.055 32.8659C215.371 32.8659 213.209 31.8639 211.562 29.866C209.921 27.8682 209.098 25.2276 209.098 21.9567C209.098 18.6859 209.908 15.8751 211.518 13.9655C213.139 12.0496 215.384 11.098 218.256 11.098C219.759 11.098 221.072 11.4383 222.204 12.1063C223.335 12.787 224.297 13.789 225.064 15.1188V11.7723H230.64V32.0592L230.646 32.0655ZM225.271 21.8874C225.271 20.0661 224.813 18.6291 223.901 17.5704C222.983 16.5053 221.751 15.9759 220.199 15.9759C218.646 15.9759 217.345 16.5053 216.433 17.5578C215.516 18.6165 215.063 20.0534 215.063 21.8937C215.063 23.734 215.516 25.1646 216.414 26.1792C217.313 27.2002 218.564 27.7107 220.161 27.7107C221.758 27.7107 223.046 27.2002 223.939 26.1792C224.831 25.1646 225.278 23.7277 225.278 21.8937L225.271 21.8874ZM205.929 31.4668C205.131 31.9458 204.289 32.2987 203.409 32.5319C202.529 32.7588 201.573 32.8722 200.523 32.8722C197.336 32.8722 194.728 31.8576 192.723 29.8219C190.717 27.7863 189.712 25.152 189.712 21.8937C189.712 18.6354 190.724 16.1145 192.748 14.1104C194.765 12.1063 197.387 11.1043 200.611 11.1043C201.68 11.1043 202.648 11.2114 203.497 11.4131C204.345 11.6147 205.163 11.9425 205.929 12.3899L205.885 18.3077C205.263 17.6712 204.546 17.1796 203.736 16.833C202.925 16.4864 202.057 16.3162 201.152 16.3162C199.505 16.3162 198.179 16.8267 197.186 17.8351C196.192 18.8497 195.702 20.1858 195.702 21.8559C195.702 23.526 196.211 24.9188 197.223 25.9334C198.229 26.9418 199.593 27.4523 201.322 27.4523C202.271 27.4523 203.12 27.2821 203.849 26.9355C204.59 26.5952 205.263 26.0595 205.885 25.3347L205.929 31.4668ZM179.182 32.0655V11.7786H185.054V32.0655H179.182ZM178.673 3.44703C178.673 2.508 179.013 1.70131 179.679 1.02697C180.358 0.346328 181.156 0.0123091 182.093 0.0123091C183.029 0.0123091 183.853 0.346328 184.538 1.01437C185.223 1.6824 185.556 2.49539 185.556 3.44703C185.556 4.39867 185.217 5.21796 184.538 5.89861C183.853 6.57925 183.048 6.91327 182.093 6.91327C181.137 6.91327 180.352 6.56664 179.679 5.8734C179.013 5.18015 178.673 4.37976 178.673 3.44703ZM166.636 32.0655V16.3981H163.807V11.7849H166.636V5.0541H172.507V11.7849H175.335V16.3981H172.507V32.0655H166.636Z" fill="#ED1C24"/>
<path d="M270.663 48.5967H267.746V38.5131H270.663V40.0949C271.14 39.4332 271.656 38.9479 272.196 38.6391C272.737 38.3366 273.359 38.179 274.045 38.179C274.881 38.179 275.559 38.3492 276.081 38.6895C276.609 39.0362 276.98 39.5466 277.194 40.2336C277.659 39.5529 278.187 39.0362 278.778 38.6958C279.369 38.3492 280.016 38.179 280.72 38.179C281.424 38.179 282.034 38.3114 282.531 38.5761C283.021 38.8408 283.411 39.2315 283.681 39.7609C283.826 40.0508 283.926 40.3722 283.989 40.7378C284.046 41.097 284.077 41.6516 284.077 42.3889V48.5967H281.16V43.6053C281.16 42.3826 281.035 41.5634 280.783 41.16C280.532 40.7567 280.098 40.555 279.476 40.555C278.721 40.555 278.181 40.8386 277.841 41.3995C277.502 41.9667 277.332 42.8805 277.332 44.1599V48.603H274.415V43.6116C274.415 42.4268 274.302 41.6264 274.063 41.2104C273.831 40.7882 273.429 40.5802 272.863 40.5802C272.09 40.5802 271.524 40.8638 271.178 41.431C270.826 41.9982 270.65 42.9057 270.65 44.1599V48.603L270.663 48.5967ZM265.584 43.5927C265.584 45.143 265.056 46.4287 264 47.456C262.943 48.4832 261.605 48.9937 259.983 48.9937C258.361 48.9937 257.003 48.4832 255.941 47.456C254.879 46.4287 254.351 45.143 254.351 43.5927C254.351 42.0423 254.885 40.763 255.947 39.7294C257.016 38.6958 258.361 38.179 259.976 38.179C261.592 38.179 262.95 38.6895 264 39.7105C265.056 40.7315 265.577 42.0234 265.577 43.5927H265.584ZM262.604 43.5738C262.604 42.7545 262.365 42.099 261.887 41.6075C261.41 41.1222 260.769 40.8764 259.958 40.8764C259.147 40.8764 258.512 41.1159 258.04 41.6075C257.569 42.0927 257.336 42.7482 257.336 43.5738C257.336 44.3994 257.569 45.0548 258.04 45.5464C258.512 46.0379 259.153 46.2837 259.958 46.2837C260.762 46.2837 261.397 46.0379 261.881 45.5464C262.365 45.0548 262.604 44.3994 262.604 43.5738ZM252.798 48.3005C252.402 48.5399 251.981 48.7164 251.547 48.8298C251.107 48.9433 250.635 49 250.114 49C248.53 49 247.235 48.4958 246.235 47.4875C245.236 46.4791 244.739 45.1619 244.739 43.5486C244.739 41.9352 245.242 40.6747 246.248 39.679C247.254 38.6832 248.555 38.1853 250.158 38.1853C250.692 38.1853 251.17 38.2358 251.591 38.3366C252.012 38.4374 252.421 38.6013 252.804 38.8219L252.785 41.7587C252.477 41.4436 252.119 41.1978 251.717 41.0277C251.314 40.8575 250.887 40.7693 250.434 40.7693C249.617 40.7693 248.957 41.0214 248.467 41.5255C247.97 42.0297 247.731 42.6915 247.731 43.5233C247.731 44.3552 247.983 45.0485 248.486 45.5527C248.989 46.0569 249.667 46.3089 250.522 46.3089C250.994 46.3089 251.415 46.227 251.78 46.0505C252.144 45.8804 252.484 45.6157 252.792 45.2565L252.81 48.3068L252.798 48.3005ZM238.956 47.1471C238.956 46.6556 239.126 46.2333 239.472 45.8804C239.817 45.5338 240.232 45.3573 240.716 45.3573C241.2 45.3573 241.615 45.5338 241.961 45.8804C242.307 46.2333 242.476 46.6493 242.476 47.1471C242.476 47.645 242.307 48.0421 241.961 48.3824C241.621 48.7227 241.206 48.8929 240.71 48.8929C240.213 48.8929 239.811 48.7227 239.465 48.3761C239.12 48.0358 238.95 47.6261 238.95 47.1471H238.956Z" fill="#231F20"/>
<path d="M32.4546 14.2305C30.5813 12.302 28.0418 11.344 24.8234 11.344C21.6049 11.344 19.1345 12.365 17.1356 14.4195C15.6144 15.9762 14.6777 17.8669 14.3132 20.079H11.4279C10.4536 20.079 9.6678 20.873 9.6678 21.8436C9.6678 22.8141 10.4598 23.6082 11.4279 23.6082H14.2C14.4263 26.2993 15.3629 28.4861 17.0036 30.1688C18.9208 32.1225 21.5106 33.1057 24.7856 33.1057C26.9417 33.1057 28.8087 32.6771 30.3739 31.8137C31.9391 30.9503 33.2717 29.6332 34.3718 27.8559L29.6384 25.4863C29.1167 26.3245 28.4692 26.9547 27.6898 27.3643C26.9166 27.7803 25.9863 27.9883 24.9176 27.9883C23.5033 27.9883 22.3844 27.629 21.5609 26.9043C20.7312 26.1858 20.2031 25.0892 19.9706 23.6271H35.1575C35.2015 23.2112 35.2267 22.9024 35.2393 22.6881C35.2518 22.4675 35.2581 22.2784 35.2581 22.0957C35.2581 18.7807 34.3215 16.1527 32.4546 14.2305ZM20.1466 20.0663C20.3729 18.7807 20.8695 17.8101 21.6678 17.1484C22.4535 16.493 23.5096 16.1653 24.8296 16.1653C26.1497 16.1653 27.1869 16.493 27.9475 17.1484C28.7144 17.8038 29.1796 18.7807 29.343 20.0663H20.1466Z" fill="#231F20"/>
<path d="M0.0123255 22.4162C0.0123255 21.4523 0.345114 20.6244 1.02302 19.9324C1.70092 19.2527 2.5144 18.9067 3.46346 18.9067C4.41253 18.9067 5.22601 19.2527 5.90391 19.9324C6.58182 20.6244 6.9146 21.44 6.9146 22.4162C6.9146 23.3924 6.58182 24.171 5.90391 24.8383C5.23834 25.5056 4.42485 25.8392 3.45114 25.8392C2.47743 25.8392 1.68859 25.5056 1.01069 24.8259C0.332788 24.1586 0 23.3554 0 22.4162H0.0123255Z" fill="#ED1C24"/>
</svg>
