<svg width="928" height="162" viewBox="0 0 928 162" fill="none" xmlns="http://www.w3.org/2000/svg">
<path d="M109.792 0H0V109.851H109.792V0Z" fill="#EC2227"/>
<path d="M447.637 0H467.086V68.1075L491.868 38.6047H515.081L488.417 68.1075L517.904 105.457H493.75L467.086 69.9907V105.457H447.637V0Z" fill="#1B1B19"/>
<path d="M434.461 38.605H415.012V105.457H434.461V38.605Z" fill="#1B1B19"/>
<path d="M413.445 11.2989C413.445 8.16035 414.7 5.64947 416.896 3.45246C419.092 1.25544 421.915 0 424.738 0C427.875 0 430.384 0.94158 432.894 3.45246C435.09 5.64947 436.345 8.47421 436.345 11.6128C436.345 14.7514 435.09 17.5761 432.894 19.7732C430.698 21.9702 427.875 23.2256 424.738 23.2256C421.601 23.2256 419.092 21.9702 416.896 19.7732C414.7 16.9484 413.445 14.1237 413.445 11.2989Z" fill="#1B1B19"/>
<path d="M375.488 55.8668C377.37 49.2757 380.193 46.451 383.957 42.9985C387.722 39.8599 392.113 38.2906 397.446 38.2906C398.701 38.2906 400.583 38.6045 403.406 38.9184C404.034 38.9184 404.347 39.2322 404.661 39.2322L401.838 58.3777C400.269 57.75 399.015 57.4361 397.446 57.1222C395.878 56.8084 394.309 56.8084 392.741 56.8084C386.781 56.8084 382.703 58.3777 379.879 61.2024C377.37 64.341 376.115 69.3628 376.115 76.2677V105.457H356.666V38.6045H375.801L375.488 55.8668Z" fill="#1B1B19"/>
<path d="M772.935 55.8668C774.817 49.2757 777.641 46.451 781.405 42.9985C785.169 39.8599 789.561 38.2906 794.894 38.2906C796.148 38.2906 798.03 38.6045 800.854 38.9184C801.481 38.9184 801.795 39.2322 802.108 39.2322L799.285 58.3777C797.717 57.75 796.462 57.4361 794.894 57.1222C793.325 56.8084 791.757 56.8084 790.188 56.8084C784.228 56.8084 780.15 58.3777 777.327 61.2024C774.817 64.341 773.563 69.3628 773.563 76.2677V105.457H754.114V38.6045H773.249L772.935 55.8668Z" fill="#1B1B19"/>
<path d="M314.632 105.457V53.6697H305.535V38.6045H314.632V16.6343H334.081V38.6045H343.491V53.6697H334.081V105.457H314.632Z" fill="#1B1B19"/>
<path d="M229.621 0H249.07V68.1075L273.852 38.6047H297.065L270.087 68.1075L299.574 105.457H275.734L249.07 69.9907V105.457H229.621V0Z" fill="#1B1B19"/>
<path d="M207.349 47.0787C201.703 41.1154 193.861 38.2906 183.822 38.2906C174.098 38.2906 166.256 41.4292 159.982 47.7064C153.708 53.9836 150.571 62.144 150.571 71.8736C150.571 82.231 153.394 90.0775 159.355 96.3547C165.315 102.318 173.157 105.457 183.509 105.457C190.096 105.457 196.056 104.201 200.762 101.376C205.467 98.8656 209.859 94.7854 212.996 89.1359L198.252 81.9171C196.684 84.428 194.488 86.3112 192.292 87.5666C189.783 88.8221 186.959 89.4498 183.822 89.4498C179.431 89.4498 175.98 88.1943 173.471 85.9973C170.961 83.8003 169.393 80.3478 168.452 75.9538H215.505C215.505 74.6984 215.819 73.7568 215.819 73.1291C215.819 72.5014 215.819 71.8736 215.819 71.2459C216.133 61.2024 213.309 53.0421 207.349 47.0787ZM169.393 64.9687C170.02 60.8885 171.588 58.0638 174.098 55.8668C176.607 53.9836 179.744 52.7282 183.822 52.7282C187.9 52.7282 191.037 53.6698 193.547 55.8668C196.056 57.75 197.311 60.8885 197.938 64.9687H169.393Z" fill="#1B1B19"/>
<path d="M867.983 47.0787C862.336 41.1154 854.494 38.2906 844.456 38.2906C834.731 38.2906 826.889 41.4292 820.615 47.7064C814.341 53.9836 811.205 62.144 811.205 71.8736C811.205 82.231 814.028 90.0775 819.988 96.3547C825.948 102.318 833.79 105.457 844.142 105.457C850.73 105.457 856.69 104.201 861.395 101.376C866.1 98.8656 870.492 94.7854 873.629 89.1359L858.885 81.9171C857.317 84.428 855.121 86.3112 852.925 87.5666C850.416 88.8221 847.593 89.4498 844.456 89.4498C840.064 89.4498 836.613 88.1943 834.104 85.9973C831.594 83.8003 830.026 80.3478 829.085 75.9538H876.138C876.138 74.6984 876.452 73.7568 876.452 73.1291C876.452 72.5014 876.452 71.8736 876.452 71.2459C876.766 61.2024 873.629 53.0421 867.983 47.0787ZM830.026 64.9687C830.653 60.8885 832.222 58.0638 834.731 55.8668C837.241 53.9836 840.378 52.7282 844.456 52.7282C848.534 52.7282 851.671 53.6698 854.18 55.8668C856.69 57.75 857.944 60.8885 858.572 64.9687H830.026Z" fill="#1B1B19"/>
<path d="M137.396 0H117.947V105.457H137.396V0Z" fill="#1B1B19"/>
<path d="M899.038 105.457V53.6704H889.941V38.6051H899.038V16.3211H918.487V38.6051H927.898V53.6704H918.487V105.457H899.038Z" fill="#1B1B19"/>
<path d="M660.948 101.063C658.438 102.632 655.615 103.574 652.792 104.201C649.968 104.829 646.831 105.143 643.381 105.143C632.715 105.143 624.246 102.004 617.658 95.7271C611.071 89.4499 607.62 81.2895 607.62 71.246C607.62 61.5163 611.071 53.356 617.658 47.0788C624.246 40.8016 633.029 37.663 643.695 37.663C647.145 37.663 650.282 37.9769 653.105 38.6046C655.928 39.2323 658.752 40.1739 661.261 41.7432V59.9471C659.065 58.0639 656.87 56.4946 654.046 55.2392C651.223 54.2976 648.4 53.6699 645.577 53.6699C640.244 53.6699 635.852 55.2392 632.402 58.3778C629.265 61.5164 627.383 65.5965 627.383 70.9321C627.383 76.2678 628.951 80.3479 632.402 83.4865C635.852 86.6251 640.244 88.1944 645.89 88.1944C649.027 88.1944 651.85 87.5667 654.36 86.6251C656.87 85.6835 659.065 83.8004 660.948 81.6034V101.063Z" fill="#1B1B19"/>
<path d="M594.445 38.605H574.996V105.457H594.445V38.605Z" fill="#1B1B19"/>
<path d="M573.114 11.2989C573.114 8.16035 574.368 5.64947 576.564 3.45246C578.76 1.25544 581.583 0 584.406 0C587.543 0 590.053 0.94158 592.562 3.45246C594.758 5.64947 596.013 8.47421 596.013 11.6128C596.013 14.7514 594.758 17.5761 592.562 19.7732C590.367 21.9702 587.543 23.2256 584.406 23.2256C581.269 23.2256 578.76 21.9702 576.564 19.7732C574.368 16.9484 573.114 14.1237 573.114 11.2989Z" fill="#1B1B19"/>
<path d="M532.647 105.457V53.6704H523.55V38.6051H532.647V16.3211H552.096V38.6051H561.507V53.6704H552.096V105.457H532.647Z" fill="#1B1B19"/>
<path d="M876.453 159.441H866.728V126.486H876.453V131.507C878.021 129.31 879.59 127.741 881.472 126.8C883.354 125.858 885.236 125.23 887.432 125.23C890.255 125.23 892.451 125.858 894.019 126.8C895.588 128.055 896.842 129.624 897.784 131.821C899.352 129.624 900.92 128.055 903.116 126.8C904.998 125.544 907.194 125.23 909.39 125.23C911.586 125.23 913.782 125.544 915.35 126.486C916.919 127.427 918.173 128.683 919.115 130.252C919.742 131.194 920.056 132.135 920.056 133.391C920.369 134.646 920.369 136.529 920.369 138.726V139.668V158.813H910.645V143.12C910.645 139.04 910.331 136.529 909.39 134.96C908.449 133.704 907.194 133.077 904.998 133.077C902.489 133.077 900.607 134.018 899.666 135.901C898.411 137.785 898.097 140.609 898.097 145.003V159.441H888.373V143.12C888.373 139.354 888.059 136.529 887.118 135.274C886.491 134.018 884.922 133.077 883.04 133.077C880.531 133.077 878.648 134.018 877.394 135.901C876.139 137.785 875.825 140.609 875.825 144.69V159.441H876.453ZM859.827 143.12C859.827 148.142 857.945 152.536 854.494 155.675C851.044 159.127 846.652 160.696 841.319 160.696C835.986 160.696 831.595 159.127 828.144 155.675C824.694 152.222 822.811 148.142 822.811 143.12C822.811 138.098 824.694 133.704 828.144 130.566C831.595 127.113 835.986 125.544 841.319 125.544C846.652 125.544 851.044 127.113 854.494 130.566C857.945 133.704 859.827 138.098 859.827 143.12ZM850.103 143.12C850.103 140.296 849.475 138.412 847.593 136.529C846.025 134.96 843.829 134.018 841.319 134.018C838.81 134.018 836.614 134.96 835.045 136.529C833.477 138.098 832.85 140.296 832.85 143.12C832.85 145.945 833.477 147.828 835.045 149.711C836.614 151.281 838.81 152.222 841.319 152.222C843.829 152.222 846.025 151.281 847.593 149.711C849.161 147.828 850.103 145.631 850.103 143.12ZM817.792 158.499C816.538 159.127 814.969 159.755 813.714 160.383C812.146 160.696 810.577 161.01 809.009 161.01C803.676 161.01 799.598 159.441 796.148 155.988C793.011 152.536 791.129 148.456 791.129 143.12C791.129 137.785 792.697 133.704 796.148 130.566C799.598 127.427 803.676 125.544 809.009 125.544C810.891 125.544 812.46 125.858 813.714 126.172C814.969 126.486 816.538 127.113 817.792 127.741V137.471C816.851 136.529 815.597 135.588 814.342 134.96C813.087 134.332 811.519 134.018 810.264 134.018C807.441 134.018 805.558 134.96 803.676 136.529C802.108 138.098 801.167 140.296 801.167 143.12C801.167 145.945 802.108 148.142 803.676 149.711C805.245 151.281 807.441 152.222 810.264 152.222C811.832 152.222 813.087 151.908 814.342 151.281C815.597 150.653 816.538 149.711 817.792 148.77V158.499ZM772.307 154.733C772.307 153.164 772.935 151.594 773.876 150.653C775.13 149.397 776.385 149.084 777.954 149.084C779.522 149.084 780.777 149.711 782.032 150.653C783.286 151.908 783.6 153.164 783.6 154.733C783.6 156.302 782.973 157.558 782.032 158.813C780.777 160.069 779.522 160.383 777.954 160.383C776.385 160.383 775.13 159.755 773.876 158.813C772.935 157.558 772.307 156.302 772.307 154.733Z" fill="#EC2227"/>
<path d="M95.9887 47.079C90.3422 41.1157 82.1863 38.291 72.4619 38.291C62.7374 38.291 54.8952 41.4296 48.6214 47.7067C43.916 52.4146 41.0928 58.378 39.838 64.969H33.2505C30.1136 64.969 27.6041 67.4799 27.6041 70.6185C27.6041 73.7571 30.1136 76.268 33.2505 76.268H39.5243C40.1517 84.4283 42.9749 91.3332 48.3077 96.355C54.2678 102.318 62.1101 105.457 72.4619 105.457C79.0494 105.457 85.0095 104.201 89.7149 101.377C94.4202 98.8659 98.8119 94.7857 101.949 89.1362L87.2053 81.9175C85.6369 84.4283 83.441 86.3115 81.2452 87.5669C78.7357 88.8224 75.9125 89.4501 72.7756 89.4501C68.3839 89.4501 64.9333 88.1946 62.4238 85.9976C59.9142 83.8006 58.3458 80.3482 57.4047 75.9541H104.458C104.458 74.6987 104.772 73.7571 104.772 73.1294C104.772 72.5017 104.772 71.8739 104.772 71.2462C104.772 61.2027 101.949 53.0424 95.9887 47.079ZM58.0321 64.969C58.6595 60.8889 60.2279 58.0641 62.7374 55.8671C65.247 53.9839 68.3839 52.7285 72.4619 52.7285C76.5398 52.7285 79.6768 53.6701 82.1863 55.8671C84.6958 57.7503 85.9506 60.8889 86.578 64.969H58.0321Z" fill="white"/>
<path d="M13.8025 79.4072C18.4801 79.4072 22.2721 75.6132 22.2721 70.933C22.2721 66.2528 18.4801 62.4588 13.8025 62.4588C9.12482 62.4588 5.33282 66.2528 5.33282 70.933C5.33282 75.6132 9.12482 79.4072 13.8025 79.4072Z" fill="white"/>
<path d="M721.175 38.605V44.8822C716.156 41.1159 710.51 38.605 703.922 38.605C687.61 38.605 674.121 53.6702 674.121 71.8741C674.121 90.3918 687.296 105.143 703.922 105.143C710.51 105.143 716.47 102.946 721.175 98.866V105.143H740.938V38.605H721.175ZM719.607 84.7423C716.783 87.8809 713.019 89.4502 708.314 89.4502C703.608 89.4502 699.844 87.8809 697.021 84.7423C694.198 81.6038 692.316 77.2097 692.316 71.5602C692.316 65.9108 694.198 61.8306 697.021 58.692C699.844 55.5534 703.608 53.9841 708.314 53.9841C713.019 53.9841 716.783 55.5534 719.293 58.692C722.116 61.8306 723.371 66.2246 723.371 71.8741C723.685 77.5236 722.43 81.9176 719.607 84.7423Z" fill="#1B1B19"/>
</svg>
