<svg width="111" height="111" viewBox="0 0 111 111" fill="none" xmlns="http://www.w3.org/2000/svg">
<circle cx="55.5" cy="55.5" r="54" fill="white" stroke="#ED1C24" stroke-width="3"/>
<path fill-rule="evenodd" clip-rule="evenodd" d="M44.4444 40.5556C44.4444 37.4908 45.6619 34.5516 47.829 32.3845C49.9961 30.2175 52.9353 29 56 29C59.0647 29 62.0039 30.2175 64.171 32.3845C66.3381 34.5516 67.5556 37.4908 67.5556 40.5556C67.5556 43.6203 66.3381 46.5595 64.171 48.7266C62.0039 50.8937 59.0647 52.1111 56 52.1111C52.9353 52.1111 49.9961 50.8937 47.829 48.7266C45.6619 46.5595 44.4444 43.6203 44.4444 40.5556ZM44.4444 57.8889C40.6135 57.8889 36.9395 59.4107 34.2307 62.1196C31.5218 64.8284 30 68.5024 30 72.3333C30 74.6319 30.9131 76.8363 32.5384 78.4616C34.1637 80.0869 36.3681 81 38.6667 81H73.3333C75.6319 81 77.8363 80.0869 79.4616 78.4616C81.0869 76.8363 82 74.6319 82 72.3333C82 68.5024 80.4782 64.8284 77.7693 62.1196C75.0605 59.4107 71.3865 57.8889 67.5556 57.8889H44.4444Z" fill="#DEDEDE"/>
</svg>
