<svg width="45" height="45" viewBox="0 0 45 45" fill="none" xmlns="http://www.w3.org/2000/svg">
<path d="M43.9673 10.7377C43.9335 10.3444 43.6744 10.0066 43.3044 9.87189C42.9334 9.73636 42.5181 9.82862 42.239 10.1072L36.5289 15.817L30.1987 13.8127L28.1943 7.48259L33.9046 1.77233C34.1841 1.49315 34.2752 1.07779 34.1406 0.707461C34.0046 0.33639 33.6676 0.0779297 33.2735 0.0438612C29.8056 -0.254929 26.4077 0.983231 23.951 3.44031C20.5863 6.80527 19.6953 11.7191 21.2731 15.9075C21.1006 16.0528 20.9305 16.2067 20.7626 16.3727L1.70184 34.3587C1.69512 34.3652 1.68849 34.3724 1.68121 34.3789C-0.560404 36.6206 -0.560404 40.268 1.68121 42.5101C3.9232 44.7516 7.54394 44.7244 9.78519 42.4827C9.79486 42.4736 9.8037 42.4646 9.81254 42.4546L27.6416 23.2454C27.8041 23.0821 27.955 22.9113 28.0973 22.736C32.2868 24.3167 37.2037 23.4278 40.5713 20.0606C43.0275 17.6033 44.2665 14.2051 43.9673 10.7377ZM6.91285 40.0885C6.08682 40.9143 4.74904 40.9138 3.9231 40.0885C3.09745 39.2634 3.09745 37.9245 3.9231 37.0991C4.74904 36.2738 6.08682 36.2738 6.91285 37.0991C7.7385 37.9245 7.7385 39.2634 6.91285 40.0885Z" fill="#989898"/>
</svg>
