<svg width="362" height="90" viewBox="0 0 362 90" fill="none" xmlns="http://www.w3.org/2000/svg">
<rect width="362" height="90" rx="44" fill="#ED1C24"/>
<path d="M137.982 53.04C137.982 53.8667 137.835 54.48 137.542 54.88C137.249 55.28 136.782 55.6667 136.142 56.04C135.769 56.2533 135.302 56.4667 134.742 56.68C134.182 56.8667 133.569 57.0267 132.902 57.16C132.235 57.32 131.529 57.44 130.782 57.52C130.062 57.6 129.342 57.64 128.622 57.64C126.702 57.64 124.902 57.3867 123.222 56.88C121.542 56.3467 120.075 55.56 118.822 54.52C117.595 53.4533 116.622 52.1333 115.902 50.56C115.182 48.9867 114.822 47.16 114.822 45.08C114.822 42.8933 115.209 40.9867 115.982 39.36C116.782 37.7333 117.822 36.3867 119.102 35.32C120.409 34.2267 121.889 33.4133 123.542 32.88C125.222 32.3467 126.942 32.08 128.702 32.08C131.235 32.08 133.235 32.4933 134.702 33.32C136.195 34.12 136.942 35.1733 136.942 36.48C136.942 37.1733 136.769 37.7733 136.422 38.28C136.075 38.7867 135.675 39.1867 135.222 39.48C134.555 39.08 133.715 38.6933 132.702 38.32C131.715 37.92 130.595 37.72 129.342 37.72C127.102 37.72 125.315 38.36 123.982 39.64C122.675 40.92 122.022 42.6933 122.022 44.96C122.022 46.1867 122.195 47.2533 122.542 48.16C122.915 49.04 123.409 49.7733 124.022 50.36C124.635 50.92 125.342 51.3467 126.142 51.64C126.942 51.9067 127.795 52.04 128.702 52.04C129.289 52.04 129.809 51.9867 130.262 51.88C130.715 51.7733 131.062 51.6533 131.302 51.52V47.76H127.022C126.862 47.4667 126.702 47.08 126.542 46.6C126.409 46.12 126.342 45.6133 126.342 45.08C126.342 44.12 126.555 43.4267 126.982 43C127.435 42.5733 128.009 42.36 128.702 42.36H135.462C136.262 42.36 136.875 42.5867 137.302 43.04C137.755 43.4667 137.982 44.08 137.982 44.88V53.04ZM143.664 31.52C143.664 30.5867 143.998 29.7867 144.664 29.12C145.331 28.4267 146.158 28.08 147.144 28.08C148.264 28.08 149.144 28.4267 149.784 29.12C150.424 29.7867 150.744 30.5867 150.744 31.52C150.744 32.4533 150.424 33.2667 149.784 33.96C149.144 34.6267 148.264 34.96 147.144 34.96C146.664 34.96 146.211 34.8667 145.784 34.68C145.358 34.4933 144.984 34.2533 144.664 33.96C144.344 33.64 144.091 33.28 143.904 32.88C143.744 32.4533 143.664 32 143.664 31.52ZM152.624 31.52C152.624 30.5867 152.931 29.7867 153.544 29.12C154.184 28.4267 155.064 28.08 156.184 28.08C156.691 28.08 157.158 28.1733 157.584 28.36C158.011 28.5467 158.384 28.8 158.704 29.12C159.024 29.44 159.264 29.8133 159.424 30.24C159.611 30.64 159.704 31.0667 159.704 31.52C159.704 32.4533 159.371 33.2667 158.704 33.96C158.038 34.6267 157.198 34.96 156.184 34.96C155.064 34.96 154.184 34.6267 153.544 33.96C152.931 33.2667 152.624 32.4533 152.624 31.52ZM162.184 47.28C162.184 48.9333 161.931 50.4133 161.424 51.72C160.918 53 160.198 54.08 159.264 54.96C158.358 55.84 157.264 56.5067 155.984 56.96C154.704 57.4133 153.278 57.64 151.704 57.64C150.131 57.64 148.704 57.4 147.424 56.92C146.144 56.44 145.038 55.76 144.104 54.88C143.198 53.9733 142.491 52.88 141.984 51.6C141.478 50.32 141.224 48.88 141.224 47.28C141.224 45.7067 141.478 44.28 141.984 43C142.491 41.72 143.198 40.64 144.104 39.76C145.038 38.8533 146.144 38.16 147.424 37.68C148.704 37.2 150.131 36.96 151.704 36.96C153.278 36.96 154.704 37.2133 155.984 37.72C157.264 38.2 158.358 38.8933 159.264 39.8C160.198 40.68 160.918 41.76 161.424 43.04C161.931 44.32 162.184 45.7333 162.184 47.28ZM148.184 47.28C148.184 48.9067 148.491 50.16 149.104 51.04C149.744 51.8933 150.624 52.32 151.744 52.32C152.864 52.32 153.718 51.88 154.304 51C154.918 50.12 155.224 48.88 155.224 47.28C155.224 45.68 154.918 44.4533 154.304 43.6C153.691 42.72 152.824 42.28 151.704 42.28C150.584 42.28 149.718 42.72 149.104 43.6C148.491 44.4533 148.184 45.68 148.184 47.28ZM177.822 44.68C177.822 43.8533 177.582 43.2533 177.102 42.88C176.649 42.48 176.022 42.28 175.222 42.28C174.689 42.28 174.155 42.3467 173.622 42.48C173.115 42.6133 172.675 42.8133 172.302 43.08V56.96C172.035 57.04 171.609 57.12 171.022 57.2C170.462 57.28 169.875 57.32 169.262 57.32C168.675 57.32 168.142 57.28 167.662 57.2C167.209 57.12 166.822 56.96 166.502 56.72C166.182 56.48 165.929 56.16 165.742 55.76C165.582 55.3333 165.502 54.7867 165.502 54.12V42.12C165.502 41.4 165.649 40.8133 165.942 40.36C166.262 39.9067 166.689 39.4933 167.222 39.12C168.129 38.48 169.262 37.96 170.622 37.56C172.009 37.16 173.542 36.96 175.222 36.96C178.235 36.96 180.555 37.6267 182.182 38.96C183.809 40.2667 184.622 42.0933 184.622 44.44V56.96C184.355 57.04 183.929 57.12 183.342 57.2C182.782 57.28 182.195 57.32 181.582 57.32C180.995 57.32 180.462 57.28 179.982 57.2C179.529 57.12 179.142 56.96 178.822 56.72C178.502 56.48 178.249 56.16 178.062 55.76C177.902 55.3333 177.822 54.7867 177.822 54.12V44.68ZM187.982 47.28C187.982 45.52 188.249 44 188.782 42.72C189.316 41.4133 190.049 40.3333 190.982 39.48C191.942 38.6267 193.049 38 194.302 37.6C195.582 37.1733 196.956 36.96 198.422 36.96C198.956 36.96 199.476 37.0133 199.982 37.12C200.489 37.2 200.902 37.3067 201.222 37.44V30.96C201.489 30.88 201.916 30.8 202.502 30.72C203.089 30.6133 203.689 30.56 204.302 30.56C204.889 30.56 205.409 30.6 205.862 30.68C206.342 30.76 206.742 30.92 207.062 31.16C207.382 31.4 207.622 31.7333 207.782 32.16C207.942 32.56 208.022 33.0933 208.022 33.76V52.72C208.022 53.9733 207.436 54.9733 206.262 55.72C205.489 56.2267 204.489 56.6667 203.262 57.04C202.036 57.44 200.622 57.64 199.022 57.64C197.289 57.64 195.729 57.4 194.342 56.92C192.982 56.44 191.822 55.7467 190.862 54.84C189.929 53.9333 189.209 52.8533 188.702 51.6C188.222 50.32 187.982 48.88 187.982 47.28ZM199.342 42.28C197.902 42.28 196.796 42.6933 196.022 43.52C195.249 44.3467 194.862 45.6 194.862 47.28C194.862 48.9333 195.222 50.1867 195.942 51.04C196.662 51.8667 197.702 52.28 199.062 52.28C199.542 52.28 199.969 52.2133 200.342 52.08C200.742 51.92 201.049 51.7467 201.262 51.56V42.76C200.729 42.44 200.089 42.28 199.342 42.28ZM222.54 57.64C220.966 57.64 219.5 57.4267 218.14 57C216.806 56.5467 215.633 55.88 214.62 55C213.633 54.12 212.846 53.0133 212.26 51.68C211.7 50.3467 211.42 48.7867 211.42 47C211.42 45.24 211.7 43.7333 212.26 42.48C212.846 41.2 213.606 40.16 214.54 39.36C215.473 38.5333 216.54 37.9333 217.74 37.56C218.94 37.16 220.166 36.96 221.42 36.96C222.833 36.96 224.113 37.1733 225.26 37.6C226.433 38.0267 227.433 38.6133 228.26 39.36C229.113 40.1067 229.766 41 230.22 42.04C230.7 43.08 230.94 44.2133 230.94 45.44C230.94 46.3467 230.686 47.04 230.18 47.52C229.673 48 228.966 48.3067 228.06 48.44L218.18 49.92C218.473 50.8 219.073 51.4667 219.98 51.92C220.886 52.3467 221.926 52.56 223.1 52.56C224.193 52.56 225.22 52.4267 226.18 52.16C227.166 51.8667 227.966 51.5333 228.58 51.16C229.006 51.4267 229.366 51.8 229.66 52.28C229.953 52.76 230.1 53.2667 230.1 53.8C230.1 55 229.54 55.8933 228.42 56.48C227.566 56.9333 226.606 57.24 225.54 57.4C224.473 57.56 223.473 57.64 222.54 57.64ZM221.42 41.92C220.78 41.92 220.22 42.0267 219.74 42.24C219.286 42.4533 218.913 42.7333 218.62 43.08C218.326 43.4 218.1 43.7733 217.94 44.2C217.806 44.6 217.726 45.0133 217.7 45.44L224.54 44.32C224.46 43.7867 224.166 43.2533 223.66 42.72C223.153 42.1867 222.406 41.92 221.42 41.92ZM241.013 56.96C240.746 57.04 240.319 57.12 239.733 57.2C239.173 57.28 238.586 57.32 237.973 57.32C237.386 57.32 236.853 57.28 236.373 57.2C235.919 57.12 235.533 56.96 235.213 56.72C234.893 56.48 234.639 56.16 234.453 55.76C234.293 55.3333 234.213 54.7867 234.213 54.12V42.12C234.213 41.5067 234.319 40.9867 234.533 40.56C234.773 40.1067 235.106 39.7067 235.533 39.36C235.959 39.0133 236.479 38.7067 237.093 38.44C237.733 38.1467 238.413 37.8933 239.133 37.68C239.853 37.4667 240.599 37.3067 241.373 37.2C242.146 37.0667 242.919 37 243.693 37C244.973 37 245.986 37.2533 246.733 37.76C247.479 38.24 247.853 39.04 247.853 40.16C247.853 40.5333 247.799 40.9067 247.693 41.28C247.586 41.6267 247.453 41.9467 247.293 42.24C246.733 42.24 246.159 42.2667 245.573 42.32C244.986 42.3733 244.413 42.4533 243.853 42.56C243.293 42.6667 242.759 42.7867 242.253 42.92C241.773 43.0267 241.359 43.16 241.013 43.32V56.96Z" fill="white"/>
</svg>
