<svg width="913" height="741" viewBox="0 0 913 741" fill="none" xmlns="http://www.w3.org/2000/svg">
<g filter="url(#filter0_f_575_6475)">
<path d="M280.257 446.003L457.835 382.631L554.911 365.908L808.257 416.078L509.136 570.107L280.257 446.003Z" fill="url(#paint0_radial_575_6475)"/>
</g>
<g filter="url(#filter1_f_575_6475)">
<path d="M280.257 446.003L457.835 382.631L554.911 365.908L808.257 416.078L509.136 570.107L280.257 446.003Z" fill="url(#paint1_radial_575_6475)" fill-opacity="0.6"/>
</g>
<path fill-rule="evenodd" clip-rule="evenodd" d="M431.779 219.923H795.212L791.377 422.755L560.428 472.968L434.253 388.372L431.779 219.923Z" fill="#AB5500"/>
<path fill-rule="evenodd" clip-rule="evenodd" d="M560.428 472.968V219.923H431.779L434.253 388.372L560.428 472.968Z" fill="url(#paint2_radial_575_6475)"/>
<path fill-rule="evenodd" clip-rule="evenodd" d="M560.428 219.923V472.968L791.377 422.755L795.212 219.923H560.428Z" fill="url(#paint3_radial_575_6475)"/>
<path style="mix-blend-mode:multiply" opacity="0.5" fill-rule="evenodd" clip-rule="evenodd" d="M456.271 399.132C441.303 388.001 436.232 380.209 434.005 367.965L434.253 388.496L560.427 472.968V449.593C557.83 456.024 548.923 456.642 541.501 453.427C518.493 443.285 476.929 414.468 456.271 399.132Z" fill="url(#paint4_radial_575_6475)"/>
<path style="mix-blend-mode:multiply" fill-rule="evenodd" clip-rule="evenodd" d="M560.428 449.592V472.968L791.377 422.754L791.996 388.743C788.532 402.224 781.729 410.015 762.184 418.92C724.579 435.864 645.781 453.921 604.836 458.25C584.549 460.476 563.52 460.105 560.428 449.592Z" fill="url(#paint5_radial_575_6475)"/>
<path style="mix-blend-mode:multiply" opacity="0.4" fill-rule="evenodd" clip-rule="evenodd" d="M432.026 244.658L431.779 227.838L560.304 299.571V330.243C551.645 301.179 456.643 237.732 432.026 244.782V244.658Z" fill="url(#paint6_radial_575_6475)"/>
<path style="mix-blend-mode:multiply" opacity="0.75" fill-rule="evenodd" clip-rule="evenodd" d="M560.427 330.12C582.446 290.914 746.102 261.85 794.345 270.631L794.716 247.75L560.303 295.119V329.996L560.427 330.12Z" fill="url(#paint7_radial_575_6475)"/>
<path fill-rule="evenodd" clip-rule="evenodd" d="M428.933 226.107L558.695 299.695L797.809 255.913L798.922 190.611L428.067 161.918L428.933 226.107Z" fill="#AB5500"/>
<path fill-rule="evenodd" clip-rule="evenodd" d="M428.067 161.918L558.695 232.415V299.695L428.933 226.107L428.067 161.918Z" fill="url(#paint8_radial_575_6475)"/>
<path fill-rule="evenodd" clip-rule="evenodd" d="M558.696 232.414L798.922 190.611L797.809 255.913L558.696 299.695V232.414Z" fill="url(#paint9_radial_575_6475)"/>
<path fill-rule="evenodd" clip-rule="evenodd" d="M428.067 161.918L558.695 232.414L798.922 190.611L658.027 125.185L428.067 161.918Z" fill="url(#paint10_radial_575_6475)"/>
<path style="mix-blend-mode:screen" opacity="0.2" fill-rule="evenodd" clip-rule="evenodd" d="M586.405 289.925C578.117 282.38 579.848 262.097 586.899 254.058C604.712 233.899 759.586 196.177 784.944 206.689C796.077 211.266 798.304 233.157 797.067 243.669C796.325 249.853 794.098 253.934 791.253 257.15L797.809 255.913L798.922 190.611L558.696 232.414V299.695L593.455 293.264C590.734 292.522 588.26 291.656 586.281 289.801L586.405 289.925Z" fill="url(#paint11_radial_575_6475)"/>
<path style="mix-blend-mode:screen" opacity="0.5" fill-rule="evenodd" clip-rule="evenodd" d="M435.613 225.983C432.396 217.326 429.18 195.435 435.86 187.891C446.869 175.646 476.681 191.725 487.196 197.043C505.38 206.071 537.542 225.118 546.449 243.051C549.294 248.864 551.397 255.171 552.51 261.479C553.747 268.405 552.757 286.214 544.84 289.059C543.603 289.554 542.243 289.554 540.882 289.554L558.819 299.695V232.415L428.067 161.918L428.933 226.107L438.953 231.796C437.592 229.941 436.479 228.086 435.736 225.983H435.613Z" fill="url(#paint12_radial_575_6475)"/>
<path style="mix-blend-mode:screen" opacity="0.3" fill-rule="evenodd" clip-rule="evenodd" d="M463.817 164.144C466.91 158.826 476.187 155.239 484.97 152.889L427.944 162.041L558.572 232.538L798.799 190.735L764.905 175.028C768.245 181.953 763.173 187.766 750.308 191.724C704.044 205.823 629.947 217.078 582.322 219.552C574.529 219.923 566.612 219.552 558.819 218.438C529.997 214.357 496.598 198.032 473.342 180.964C464.312 174.285 460.848 168.967 463.693 164.268L463.817 164.144Z" fill="url(#paint13_radial_575_6475)"/>
<path fill-rule="evenodd" clip-rule="evenodd" d="M478.909 189.375C492.64 197.537 551.398 231.054 554.614 234.641C557.954 238.228 557.954 252.698 558.82 286.709C559.933 272.363 561.047 238.722 563.273 235.63C566.613 233.033 759.339 197.909 787.048 192.714C745.979 199.269 565.747 228.581 559.562 228.704C549.914 226.973 498.207 199.022 478.909 189.375Z" fill="#FF6A66"/>
<path fill-rule="evenodd" clip-rule="evenodd" d="M661.367 280.896L656.295 452.066L704.167 441.677L709.734 271.991C709.981 249.977 710.229 227.962 710.352 205.947L661.738 214.357C661.614 236.496 661.491 258.634 661.243 280.772L661.367 280.896Z" fill="url(#paint14_radial_575_6475)"/>
<path fill-rule="evenodd" clip-rule="evenodd" d="M518.369 444.769L514.411 274.588C514.411 252.574 514.287 230.435 514.163 208.421L471.239 185.293C471.363 207.06 471.61 228.704 471.734 250.471L476.311 416.694L518.369 444.893V444.769Z" fill="url(#paint15_radial_575_6475)"/>
<path fill-rule="evenodd" clip-rule="evenodd" d="M710.353 206.071C684.87 193.456 655.677 182.449 629.823 169.833C609.784 160.063 590.61 149.303 573.292 138.79L528.141 145.964C552.634 157.466 576.385 168.349 599.269 180.099C620.917 191.23 640.091 203.474 661.738 214.481L710.353 206.071Z" fill="url(#paint16_radial_575_6475)"/>
<path style="mix-blend-mode:multiply" opacity="0.65" fill-rule="evenodd" clip-rule="evenodd" d="M640.833 203.103C628.71 186.406 660.625 187.272 675.098 189.993C659.759 183.438 644.296 176.883 629.823 169.833C609.784 160.063 590.61 149.303 573.292 138.79L528.141 145.964C552.634 157.466 576.385 168.349 599.269 180.099C613.742 187.519 627.102 195.435 640.709 203.103H640.833Z" fill="url(#paint17_radial_575_6475)"/>
<path fill-rule="evenodd" clip-rule="evenodd" d="M514.163 208.421C555.479 201.371 591.847 191.601 633.287 184.551C670.768 178.243 714.435 172.06 750.803 168.226L704.539 146.706C673.242 151.9 643.678 159.197 612.505 164.392C565.994 172.06 517.874 177.501 471.363 185.169L514.287 208.297L514.163 208.421Z" fill="url(#paint18_radial_575_6475)"/>
<g style="mix-blend-mode:multiply" opacity="0.35">
<path fill-rule="evenodd" clip-rule="evenodd" d="M471.733 250.347V246.513C476.434 252.945 505.627 272.115 514.41 269.518V274.465L514.781 293.758C513.915 289.43 511.689 282.751 505.009 275.701C494.494 264.447 477.053 254.058 471.981 261.849L471.733 250.347Z" fill="#F39200"/>
</g>
<g style="mix-blend-mode:multiply" opacity="0.2">
<path fill-rule="evenodd" clip-rule="evenodd" d="M661.367 280.896V274.712C666.192 283.122 707.26 273.97 709.858 264.942V271.991L709.24 289.677C708.126 285.843 706.518 282.38 701.941 281.762C692.911 280.401 677.696 284.235 668.542 291.903C663.347 296.232 661.12 302.416 660.625 308.105L661.367 280.896Z" fill="#F39200"/>
</g>
<g style="mix-blend-mode:multiply" opacity="0.5">
<path fill-rule="evenodd" clip-rule="evenodd" d="M518.369 441.059C504.638 432.896 489.423 422.631 476.311 413.479V416.57L518.493 444.769V441.059H518.369Z" fill="#936037"/>
</g>
<g style="mix-blend-mode:multiply" opacity="0.5">
<path fill-rule="evenodd" clip-rule="evenodd" d="M704.167 438.338C688.457 442.543 672.005 446.501 656.295 449.716V452.066L704.044 441.677V438.338H704.167Z" fill="#B17F4A"/>
</g>
<path style="mix-blend-mode:screen" fill-rule="evenodd" clip-rule="evenodd" d="M471.239 185.169C471.239 185.169 471.239 194.197 471.239 194.569C475.692 193.084 503.401 205.7 514.163 218.809C514.163 217.449 514.163 209.781 514.163 208.42C514.163 208.42 520.225 207.431 520.843 207.307C505.504 201 490.66 192.713 478.167 184.056C475.816 184.427 473.59 184.798 471.239 185.169Z" fill="url(#paint19_radial_575_6475)"/>
<path style="mix-blend-mode:screen" fill-rule="evenodd" clip-rule="evenodd" d="M704.292 202.979C689.076 206.07 671.882 209.162 656.048 211.512C658.028 212.502 659.883 213.491 661.862 214.481L710.477 206.07L704.292 202.979Z" fill="url(#paint20_radial_575_6475)"/>
<path style="mix-blend-mode:multiply" opacity="0.5" fill-rule="evenodd" clip-rule="evenodd" d="M661.739 224.376C677.573 220.047 694.396 216.089 710.353 212.874C710.353 210.647 710.353 208.297 710.353 206.071L661.739 214.481C661.739 217.821 661.739 221.036 661.739 224.376Z" fill="url(#paint21_radial_575_6475)"/>
<path style="mix-blend-mode:multiply" fill-rule="evenodd" clip-rule="evenodd" d="M482.496 183.314C520.967 199.392 561.417 194.94 609.289 188.879C617.082 187.272 625.123 185.787 633.287 184.427C670.768 178.119 714.435 171.936 750.803 168.101L704.539 146.582C673.242 151.776 643.678 159.073 612.505 164.267C569.705 171.317 525.667 176.512 482.62 183.19L482.496 183.314Z" fill="url(#paint22_radial_575_6475)"/>
<path fill-rule="evenodd" clip-rule="evenodd" d="M605.33 157.837L623.638 161.423C638.853 121.476 654.563 103.048 681.282 68.7888C664.954 71.6334 648.996 75.3437 634.4 82.146C631.678 72.7465 628.091 64.3364 623.266 57.4104C606.938 73.3648 599.763 91.1745 597.908 108.118C596.3 123.207 599.268 139.038 605.206 157.713L605.33 157.837Z" fill="url(#paint23_radial_575_6475)"/>
<path style="mix-blend-mode:multiply" fill-rule="evenodd" clip-rule="evenodd" d="M632.174 133.101C624.133 136.44 608.547 136.316 602.609 129.019C600.383 126.175 599.146 124.196 597.661 120.115C598.156 131.617 600.878 143.984 605.331 157.836L623.639 161.423C629.081 146.953 634.648 135.327 640.833 124.814C637.617 128.525 634.153 132.235 632.174 132.977V133.101Z" fill="url(#paint24_radial_575_6475)"/>
<path style="mix-blend-mode:screen" fill-rule="evenodd" clip-rule="evenodd" d="M597.909 110.096C599.517 107.87 602.362 105.52 607.434 105.397C615.846 105.149 638.854 107.376 644.05 114.054C644.792 115.044 645.287 116.033 645.534 117.27C650.977 108.612 656.914 100.45 663.718 91.6685C660.254 92.4106 657.038 93.0289 653.327 93.0289C641.328 93.2763 624.01 91.6685 613.495 85.7319C609.908 83.7531 608.3 80.9085 607.805 77.6929C602.115 87.8345 599.146 98.2234 598.033 108.365C598.033 108.983 597.909 109.602 597.909 110.22V110.096Z" fill="url(#paint25_radial_575_6475)"/>
<path fill-rule="evenodd" clip-rule="evenodd" d="M602.362 165.01L617.33 153.755C597.662 115.786 594.322 91.7925 586.529 49C577.746 63.0993 569.953 77.4459 565.252 92.9056C556.346 88.7006 547.687 85.7323 539.399 84.7429C540.388 107.623 548.924 124.691 560.428 137.43C570.571 148.684 584.302 156.971 602.362 165.01Z" fill="url(#paint26_radial_575_6475)"/>
<path style="mix-blend-mode:multiply" opacity="0.65" fill-rule="evenodd" clip-rule="evenodd" d="M601.744 128.525C598.899 136.687 588.508 148.189 578.983 147.818C575.396 147.695 573.045 147.2 569.087 145.716C577.993 153.013 589.003 159.197 602.362 165.133L617.33 153.879C610.156 140.15 605.208 128.277 601.373 116.775C601.991 121.599 602.486 126.669 601.744 128.648V128.525Z" fill="url(#paint27_radial_575_6475)"/>
<path style="mix-blend-mode:screen" fill-rule="evenodd" clip-rule="evenodd" d="M561.664 138.79C561.046 136.193 561.17 132.359 564.51 128.525C569.952 122.093 586.899 106.386 595.311 107.005C596.548 107.005 597.538 107.499 598.651 107.994C595.806 98.2235 593.703 88.3292 591.6 77.4456C589.868 80.4138 588.136 83.2584 585.786 86.103C577.993 95.2552 565.252 107.128 553.871 110.962C549.913 112.323 546.82 111.581 544.099 109.725C547.934 120.733 553.624 129.885 560.427 137.429C560.798 137.924 561.293 138.295 561.664 138.79Z" fill="url(#paint28_radial_575_6475)"/>
<path fill-rule="evenodd" clip-rule="evenodd" d="M609.783 158.703C597.413 140.522 539.769 85.8565 515.399 93.7719C498.205 99.3374 469.754 141.264 477.671 161.918C480.021 168.102 486.206 172.431 492.144 174.781C528.883 189.622 569.952 186.53 604.959 177.502C606.567 171.194 608.299 165.01 609.907 158.703H609.783Z" fill="url(#paint29_radial_575_6475)"/>
<path fill-rule="evenodd" clip-rule="evenodd" d="M617.33 157.095L626.732 175.523C653.575 178.367 705.034 176.636 736.454 156.971C739.794 154.869 742.763 151.158 741.897 145.84C737.691 122.341 709.611 91.2983 688.829 88.9484C668.542 86.5985 624.381 136.812 617.454 157.219L617.33 157.095Z" fill="url(#paint30_radial_575_6475)"/>
<path fill-rule="evenodd" clip-rule="evenodd" d="M592.837 171.565L592.218 178.367C561.912 185.293 516.266 186.901 488.681 168.844C476.434 160.805 482.867 138.79 489.547 136.193C510.823 128.277 574.158 157.713 592.837 171.565Z" fill="url(#paint31_linear_575_6475)"/>
<path style="mix-blend-mode:multiply" fill-rule="evenodd" clip-rule="evenodd" d="M510.576 136.193C527.028 161.052 548.676 174.285 578.611 180.964C583.435 180.222 588.012 179.356 592.342 178.367L592.96 171.565C578.735 161.052 538.408 141.387 510.576 136.193Z" fill="url(#paint32_radial_575_6475)"/>
<path fill-rule="evenodd" clip-rule="evenodd" d="M635.514 170.699L636.751 174.038C661.367 175.152 691.55 173.544 719.507 163.031C728.661 159.568 742.886 153.879 738.928 142.624C736.577 135.946 730.021 128.278 726.681 127.907C706.642 125.557 652.708 156.724 635.39 170.575L635.514 170.699Z" fill="url(#paint33_linear_575_6475)"/>
<path style="mix-blend-mode:multiply" fill-rule="evenodd" clip-rule="evenodd" d="M724.826 133.101C722.104 129.886 719.383 129.267 715.672 129.02C691.303 134.586 650.234 158.826 635.637 170.699C658.522 168.102 696.498 161.547 719.507 149.798C724.207 147.448 727.795 144.727 728.413 141.388C728.784 139.162 727.918 136.564 724.949 133.101H724.826Z" fill="url(#paint34_radial_575_6475)"/>
<path style="mix-blend-mode:screen" fill-rule="evenodd" clip-rule="evenodd" d="M489.671 136.193C498.949 132.73 516.143 136.44 534.204 142.748C530.245 138.172 529.379 130.256 534.451 122.588C541.626 111.581 554.491 110.715 564.263 114.178C551.398 104.284 537.915 96.2448 527.153 93.7712C522.205 94.637 519.359 95.5027 514.411 98.9657C502.289 107.747 488.805 127.535 484.723 138.914C483.857 141.264 483.363 143.737 482.991 146.087C484.476 141.14 486.95 137.059 489.671 136.069V136.193Z" fill="url(#paint35_radial_575_6475)"/>
<path style="mix-blend-mode:screen" fill-rule="evenodd" clip-rule="evenodd" d="M691.921 91.1743C687.591 89.8139 683.262 89.9376 677.2 91.5454C669.407 95.2557 660.501 102.305 651.842 110.592C656.79 107.005 661.738 105.892 671.263 107.376C682.767 109.108 691.797 117.27 693.776 127.659C694.766 133.348 693.034 136.069 689.694 138.667C704.538 131.864 718.516 127.041 726.804 128.03C729.155 128.278 732.989 131.988 735.834 136.564C728.536 120.61 711.094 97.1109 691.921 91.1743Z" fill="url(#paint36_radial_575_6475)"/>
<path style="mix-blend-mode:multiply" opacity="0.5" fill-rule="evenodd" clip-rule="evenodd" d="M631.556 138.666C631.927 136.44 632.669 134.338 633.659 132.235C634.277 130.751 635.143 129.267 635.885 127.906C634.648 129.391 633.411 130.875 632.298 132.359C631.432 133.596 630.442 134.709 629.576 135.822C624.381 142.872 620.299 149.55 618.072 154.745C620.67 160.31 629.453 166.618 637.617 168.968C641.947 165.752 647.884 161.671 654.564 157.589C657.409 155.858 660.502 154.003 663.594 152.147C659.017 153.755 654.688 154.992 650.111 154.992C640.215 154.992 629.329 150.169 631.432 138.543L631.556 138.666Z" fill="url(#paint37_radial_575_6475)"/>
<path style="mix-blend-mode:multiply" opacity="0.5" fill-rule="evenodd" clip-rule="evenodd" d="M591.724 144.108C591.229 150.416 581.828 156.352 575.89 156.476C570.942 156.476 565.499 154.868 560.675 153.508C571.313 158.455 580.838 163.525 587.642 167.854C596.548 166.37 603.846 161.176 606.815 154.497C602.609 149.303 596.424 142.5 589.002 135.327C590.858 138.048 591.971 140.892 591.724 143.984V144.108Z" fill="url(#paint38_radial_575_6475)"/>
<path d="M584.673 173.791C584.055 170.328 589.374 165.876 595.559 161.671C602.857 156.6 609.29 153.508 612.382 153.755C620.299 154.621 648.75 172.06 641.328 181.83C635.885 189.003 618.815 189.498 610.403 188.88C602.363 188.261 586.529 183.067 584.673 173.667V173.791Z" fill="#C45800"/>
<path fill-rule="evenodd" clip-rule="evenodd" d="M591.601 176.511C595.683 180.098 602.24 182.077 609.167 182.943C616.218 183.808 623.887 183.437 630.196 182.324C641.453 180.346 642.442 174.285 637.865 169.214C632.423 163.278 623.021 157.094 616.341 154.002C613.496 152.642 610.528 152.765 607.682 154.126C602.611 156.723 596.426 160.681 592.096 164.02C585.664 168.967 585.54 171.317 591.601 176.511Z" fill="url(#paint39_radial_575_6475)"/>
<path style="mix-blend-mode:screen" fill-rule="evenodd" clip-rule="evenodd" d="M633.905 165.381C628.462 160.805 621.659 156.476 616.463 154.003C613.618 152.642 610.526 152.642 607.68 154.003C602.856 156.476 597.042 160.063 592.713 163.279C592.713 174.657 636.255 177.007 634.895 167.236C634.895 166.371 634.4 165.752 633.781 165.257L633.905 165.381Z" fill="url(#paint40_radial_575_6475)"/>
<path d="M169.369 149.837L165.541 113.818L154.062 115.863L157.889 151.882L169.369 149.837Z" fill="url(#paint41_linear_575_6475)"/>
<path d="M909.915 331.919C877.101 353.879 844.486 328.937 811.671 350.898C818.061 337.287 824.451 323.677 830.865 310.074C850.966 302.275 870.919 323.213 890.996 315.405C897.309 320.892 903.612 326.405 909.924 331.893L909.915 331.919Z" fill="url(#paint42_linear_575_6475)"/>
<path d="M534.937 374.128L508.181 353.039L501.014 363.136L527.769 384.225L534.937 374.128Z" fill="url(#paint43_linear_575_6475)"/>
<path d="M866.746 233.762L832.836 239.714L834.104 251.916L868.014 245.964L866.746 233.762Z" fill="url(#paint44_linear_575_6475)"/>
<path d="M158.598 226.453L143.955 211.566L133.756 223.003L148.399 237.89L158.598 226.453Z" fill="url(#paint45_linear_575_6475)"/>
<path d="M58.7367 76.9563C58.7367 76.9563 40.7777 95.3405 25.8496 78.1464L12.7313 60.0174C12.7313 60.0174 26.118 82.1291 46.8988 64.9582L58.7276 76.9826L58.7367 76.9563Z" fill="url(#paint46_linear_575_6475)"/>
<path d="M28.7815 17.6632L40.7545 29.9733C40.7545 29.9733 8.95405 53.1396 25.8497 78.1464C25.8497 78.1464 15.2876 66.4429 12.7314 60.0175C8.5913 49.5072 7.62984 32.083 28.7723 17.6895L28.7815 17.6632Z" fill="url(#paint47_linear_575_6475)"/>
<path d="M374.409 6.72933C374.409 6.72933 442.27 25.9647 420.353 84.4884L393.811 139.872C393.811 139.872 429.607 78.6248 360.976 50.9948L374.485 6.71684L374.409 6.72933Z" fill="url(#paint48_linear_575_6475)"/>
<path d="M270.638 156.635L284.647 111.635C284.647 111.635 382.17 157.99 420.353 84.4884C420.353 84.4884 405.96 125.291 393.811 139.872C373.884 163.623 333.12 188.763 270.714 156.623L270.638 156.635Z" fill="url(#paint49_linear_575_6475)"/>
<g clip-path="url(#clip0_575_6475)">
<path d="M622.064 688.984C595.256 710.156 527.681 670.025 493.563 685.064L507.958 671.157C539.438 657.259 599.551 690.41 629.648 678.874C631.811 678.063 633.752 676.994 635.582 675.703L625.608 685.442L621.991 689.021L622.064 688.984Z" fill="url(#paint50_linear_575_6475)"/>
<path d="M646.859 624.029C631.947 618.483 616.417 607.509 605.238 592.958C599.796 585.793 598.595 581.399 600.164 579.407C605.16 572.913 638.148 591.391 646.896 624.103L646.859 624.029Z" fill="url(#paint51_linear_575_6475)"/>
<path d="M688.603 574.146C675.929 567.937 664.01 558.848 656.564 548.249C653.082 543.337 652.332 540.568 653.354 539.498C656.643 536.362 678.002 551.437 688.676 574.11L688.603 574.146Z" fill="url(#paint52_linear_575_6475)"/>
<path d="M687.365 620.954L686.561 621.728C685.355 622.798 684.074 623.72 682.719 624.495C681.291 625.306 679.788 625.969 678.212 626.485C679.334 623.607 679.939 620.248 680.175 616.519C680.741 606.331 678.261 596.658 674.207 588.054C680.912 591.344 687.834 593.785 694.455 595.265C694.653 597.665 694.704 600.138 694.571 602.612C694.27 607.853 693.119 612.135 691.229 615.677C690.138 617.707 688.899 619.441 687.365 620.954Z" fill="url(#paint53_linear_575_6475)"/>
<path d="M740.824 576.652L740.751 576.689C738.23 579.161 735.006 580.783 731.264 581.741C732.485 576.684 732.117 570.298 729.757 562.322L744.153 548.415C748.236 562.186 746.305 571.303 740.824 576.652Z" fill="url(#paint54_linear_575_6475)"/>
<path d="M635.582 675.703C633.752 676.994 631.738 678.1 629.648 678.874C630.01 677.951 630.373 677.029 630.698 676.032C635.467 661.971 635.319 649.087 632.353 637.9C638.023 640.045 643.614 641.303 648.834 641.823C648.651 648.21 647.477 655.001 645.093 662.124C643.937 665.483 642.447 668.361 640.66 670.649C639.165 672.604 637.448 674.301 635.545 675.629L635.582 675.703Z" fill="url(#paint55_linear_575_6475)"/>
<path d="M740.751 576.689L726.355 590.597C719.706 597.09 707.661 598.153 694.491 595.155C687.87 593.674 680.949 591.233 674.243 587.944C661.569 581.734 649.65 572.646 642.204 562.046C638.723 557.134 637.935 554.291 638.995 553.295L653.244 539.461C652.184 540.457 652.972 543.3 656.454 548.212C664.01 558.848 675.818 567.9 688.492 574.109C703.561 581.428 719.746 584.761 731.118 581.814C734.86 580.857 738.157 579.198 740.605 576.763L740.751 576.689Z" fill="url(#paint56_linear_575_6475)"/>
<path d="M686.634 621.692L671.983 635.821C666.243 640.838 658.098 642.715 648.871 641.897C643.578 641.414 638.06 640.119 632.39 637.974C617.478 632.428 601.948 621.454 590.769 606.903C585.327 599.738 584.126 595.344 585.694 593.352L600.09 579.444C598.522 581.436 599.723 585.83 605.164 592.995C616.381 607.62 631.801 618.556 646.785 624.066C658.309 628.356 669.521 629.47 678.176 626.596C679.752 626.08 681.255 625.417 682.683 624.605C684.075 623.905 685.392 622.872 686.525 621.839L686.634 621.692Z" fill="url(#paint57_linear_575_6475)"/>
</g>
<defs>
<filter id="filter0_f_575_6475" x="257.257" y="342.908" width="574" height="250.199" filterUnits="userSpaceOnUse" color-interpolation-filters="sRGB">
<feFlood flood-opacity="0" result="BackgroundImageFix"/>
<feBlend mode="normal" in="SourceGraphic" in2="BackgroundImageFix" result="shape"/>
<feGaussianBlur stdDeviation="11.5" result="effect1_foregroundBlur_575_6475"/>
</filter>
<filter id="filter1_f_575_6475" x="257.257" y="342.908" width="574" height="250.199" filterUnits="userSpaceOnUse" color-interpolation-filters="sRGB">
<feFlood flood-opacity="0" result="BackgroundImageFix"/>
<feBlend mode="normal" in="SourceGraphic" in2="BackgroundImageFix" result="shape"/>
<feGaussianBlur stdDeviation="11.5" result="effect1_foregroundBlur_575_6475"/>
</filter>
<radialGradient id="paint0_radial_575_6475" cx="0" cy="0" r="1" gradientUnits="userSpaceOnUse" gradientTransform="translate(691.275 324.752) rotate(118.23) scale(310.817 804.161)">
<stop/>
<stop offset="1" stop-opacity="0"/>
</radialGradient>
<radialGradient id="paint1_radial_575_6475" cx="0" cy="0" r="1" gradientUnits="userSpaceOnUse" gradientTransform="translate(691.275 324.752) rotate(118.23) scale(310.817 804.161)">
<stop/>
<stop offset="1" stop-opacity="0"/>
</radialGradient>
<radialGradient id="paint2_radial_575_6475" cx="0" cy="0" r="1" gradientUnits="userSpaceOnUse" gradientTransform="translate(434.624 260.242) scale(254.081 254.034)">
<stop stop-color="#FF6163"/>
<stop offset="1" stop-color="#8F0000"/>
</radialGradient>
<radialGradient id="paint3_radial_575_6475" cx="0" cy="0" r="1" gradientUnits="userSpaceOnUse" gradientTransform="translate(485.465 73.8593) scale(453.116 453.032)">
<stop stop-color="#E60E10"/>
<stop offset="1" stop-color="#730000"/>
</radialGradient>
<radialGradient id="paint4_radial_575_6475" cx="0" cy="0" r="1" gradientUnits="userSpaceOnUse" gradientTransform="translate(549.913 333.336) scale(148.441 148.413)">
<stop offset="0.54" stop-color="white"/>
<stop offset="0.58" stop-color="#F9F4F6"/>
<stop offset="0.66" stop-color="#E9D9DE"/>
<stop offset="0.76" stop-color="#D0ADB8"/>
<stop offset="0.87" stop-color="#AD6F83"/>
<stop offset="1" stop-color="#822341"/>
</radialGradient>
<radialGradient id="paint5_radial_575_6475" cx="0" cy="0" r="1" gradientUnits="userSpaceOnUse" gradientTransform="translate(591.229 243.792) scale(302.325 302.269)">
<stop offset="0.54" stop-color="white"/>
<stop offset="0.58" stop-color="#F9F4F6"/>
<stop offset="0.66" stop-color="#E9D9DE"/>
<stop offset="0.76" stop-color="#D0ADB8"/>
<stop offset="0.87" stop-color="#AD6F83"/>
<stop offset="1" stop-color="#822341"/>
</radialGradient>
<radialGradient id="paint6_radial_575_6475" cx="0" cy="0" r="1" gradientUnits="userSpaceOnUse" gradientTransform="translate(402.462 436.112) scale(234.413 234.37)">
<stop offset="0.54" stop-color="white"/>
<stop offset="0.58" stop-color="#FAF6F4"/>
<stop offset="0.65" stop-color="#ECDED9"/>
<stop offset="0.73" stop-color="#D6B7AD"/>
<stop offset="0.84" stop-color="#B8816F"/>
<stop offset="0.95" stop-color="#923E22"/>
<stop offset="1" stop-color="#822000"/>
</radialGradient>
<radialGradient id="paint7_radial_575_6475" cx="0" cy="0" r="1" gradientUnits="userSpaceOnUse" gradientTransform="translate(703.302 431.288) scale(212.765 212.726)">
<stop offset="0.54" stop-color="white"/>
<stop offset="0.58" stop-color="#FAF6F4"/>
<stop offset="0.65" stop-color="#ECDED9"/>
<stop offset="0.73" stop-color="#D6B7AD"/>
<stop offset="0.84" stop-color="#B8816F"/>
<stop offset="0.95" stop-color="#923E22"/>
<stop offset="1" stop-color="#822000"/>
</radialGradient>
<radialGradient id="paint8_radial_575_6475" cx="0" cy="0" r="1" gradientUnits="userSpaceOnUse" gradientTransform="translate(458.992 167.484) scale(281.419 281.367)">
<stop stop-color="#FF6163"/>
<stop offset="1" stop-color="#8F0000"/>
</radialGradient>
<radialGradient id="paint9_radial_575_6475" cx="0" cy="0" r="1" gradientUnits="userSpaceOnUse" gradientTransform="translate(608.423 -41.0373) scale(363.804 363.737)">
<stop stop-color="#E60E10"/>
<stop offset="1" stop-color="#730000"/>
</radialGradient>
<radialGradient id="paint10_radial_575_6475" cx="0" cy="0" r="1" gradientUnits="userSpaceOnUse" gradientTransform="translate(523.811 279.906) scale(554.798 554.695)">
<stop stop-color="#F23559"/>
<stop offset="1" stop-color="#C40000"/>
</radialGradient>
<radialGradient id="paint11_radial_575_6475" cx="0" cy="0" r="1" gradientUnits="userSpaceOnUse" gradientTransform="translate(783.089 292.398) scale(333.126 333.065)">
<stop/>
<stop offset="1" stop-color="#FF9A8A"/>
</radialGradient>
<radialGradient id="paint12_radial_575_6475" cx="0" cy="0" r="1" gradientUnits="userSpaceOnUse" gradientTransform="translate(516.76 393.567) scale(390.647 390.575)">
<stop/>
<stop offset="1" stop-color="#FF9A8A"/>
</radialGradient>
<radialGradient id="paint13_radial_575_6475" cx="0" cy="0" r="1" gradientUnits="userSpaceOnUse" gradientTransform="translate(655.553 -5.0475) scale(310.489 310.431)">
<stop/>
<stop offset="1" stop-color="#CA9E67"/>
</radialGradient>
<radialGradient id="paint14_radial_575_6475" cx="0" cy="0" r="1" gradientUnits="userSpaceOnUse" gradientTransform="translate(503.03 145.84) scale(374.319 374.249)">
<stop stop-color="#FFCC00"/>
<stop offset="1" stop-color="#B35100"/>
</radialGradient>
<radialGradient id="paint15_radial_575_6475" cx="0" cy="0" r="1" gradientUnits="userSpaceOnUse" gradientTransform="translate(447.241 96.2449) scale(341.414 341.351)">
<stop stop-color="#FCF80D"/>
<stop offset="1" stop-color="#F78A0C"/>
</radialGradient>
<radialGradient id="paint16_radial_575_6475" cx="0" cy="0" r="1" gradientUnits="userSpaceOnUse" gradientTransform="translate(626.36 169.586) scale(204.23 204.192)">
<stop stop-color="#FC9C0D"/>
<stop offset="1" stop-color="#FCF80D"/>
</radialGradient>
<radialGradient id="paint17_radial_575_6475" cx="0" cy="0" r="1" gradientUnits="userSpaceOnUse" gradientTransform="translate(647.636 228.828) scale(56.655 56.6444)">
<stop stop-color="#B85E16"/>
<stop offset="1" stop-color="white"/>
</radialGradient>
<radialGradient id="paint18_radial_575_6475" cx="0" cy="0" r="1" gradientUnits="userSpaceOnUse" gradientTransform="translate(611.021 177.501) scale(101.187 101.168)">
<stop stop-color="#FC9C0D"/>
<stop offset="1" stop-color="#FCF80D"/>
</radialGradient>
<radialGradient id="paint19_radial_575_6475" cx="0" cy="0" r="1" gradientUnits="userSpaceOnUse" gradientTransform="translate(465.302 158.207) scale(86.2195 86.2035)">
<stop stop-color="#FFF385"/>
<stop offset="1"/>
</radialGradient>
<radialGradient id="paint20_radial_575_6475" cx="0" cy="0" r="1" gradientUnits="userSpaceOnUse" gradientTransform="translate(675.222 238.845) scale(90.6727 90.6557)">
<stop stop-color="#F24C7C"/>
<stop offset="1"/>
</radialGradient>
<radialGradient id="paint21_radial_575_6475" cx="0" cy="0" r="1" gradientUnits="userSpaceOnUse" gradientTransform="translate(692.293 183.933) scale(96.8577 96.8397)">
<stop stop-color="#7C0000"/>
<stop offset="1" stop-color="white"/>
</radialGradient>
<radialGradient id="paint22_radial_575_6475" cx="0" cy="0" r="1" gradientUnits="userSpaceOnUse" gradientTransform="translate(688.458 141.758) scale(288.841 288.788)">
<stop stop-color="#B85E16"/>
<stop offset="1" stop-color="white"/>
</radialGradient>
<radialGradient id="paint23_radial_575_6475" cx="0" cy="0" r="1" gradientUnits="userSpaceOnUse" gradientTransform="translate(626.977 158.332) scale(230.084 230.041)">
<stop stop-color="#F78A0C"/>
<stop offset="1" stop-color="#FCDC0D"/>
</radialGradient>
<radialGradient id="paint24_radial_575_6475" cx="0" cy="0" r="1" gradientUnits="userSpaceOnUse" gradientTransform="translate(627.721 102.181) scale(68.654 68.6412)">
<stop stop-color="white"/>
<stop offset="1" stop-color="#BA5700"/>
</radialGradient>
<radialGradient id="paint25_radial_575_6475" cx="0" cy="0" r="1" gradientUnits="userSpaceOnUse" gradientTransform="translate(632.422 66.4382) scale(72.2413 72.2279)">
<stop stop-color="#FFF48F"/>
<stop offset="1"/>
</radialGradient>
<radialGradient id="paint26_radial_575_6475" cx="0" cy="0" r="1" gradientUnits="userSpaceOnUse" gradientTransform="translate(608.176 147.077) scale(126.175 126.151)">
<stop stop-color="#F78A0C"/>
<stop offset="1" stop-color="#FCDC0D"/>
</radialGradient>
<radialGradient id="paint27_radial_575_6475" cx="0" cy="0" r="1" gradientUnits="userSpaceOnUse" gradientTransform="translate(572.674 112.941) scale(65.314 65.3019)">
<stop stop-color="white"/>
<stop offset="1" stop-color="#BA5700"/>
</radialGradient>
<radialGradient id="paint28_radial_575_6475" cx="0" cy="0" r="1" gradientUnits="userSpaceOnUse" gradientTransform="translate(577.993 66.5619) scale(78.4263 78.4118)">
<stop stop-color="#FFF48F"/>
<stop offset="1"/>
</radialGradient>
<radialGradient id="paint29_radial_575_6475" cx="0" cy="0" r="1" gradientUnits="userSpaceOnUse" gradientTransform="translate(517.75 110.839) scale(105.888 105.868)">
<stop stop-color="#FCDC0D"/>
<stop offset="1" stop-color="#F78A0C"/>
</radialGradient>
<radialGradient id="paint30_radial_575_6475" cx="0" cy="0" r="1" gradientUnits="userSpaceOnUse" gradientTransform="translate(722.971 99.2136) scale(103.785 103.766)">
<stop stop-color="#FCDC0D"/>
<stop offset="1" stop-color="#F78A0C"/>
</radialGradient>
<linearGradient id="paint31_linear_575_6475" x1="481.754" y1="159.073" x2="592.837" y2="159.073" gradientUnits="userSpaceOnUse">
<stop stop-color="#D46D17"/>
<stop offset="1" stop-color="#FF9D00"/>
</linearGradient>
<radialGradient id="paint32_radial_575_6475" cx="0" cy="0" r="1" gradientUnits="userSpaceOnUse" gradientTransform="translate(610.402 116.157) scale(97.971 97.9529)">
<stop stop-color="#BA5700"/>
<stop offset="1" stop-color="white"/>
</radialGradient>
<linearGradient id="paint33_linear_575_6475" x1="635.514" y1="151.158" x2="862.381" y2="151.158" gradientUnits="userSpaceOnUse">
<stop stop-color="#D46D17"/>
<stop offset="1" stop-color="#FF9D00"/>
</linearGradient>
<radialGradient id="paint34_radial_575_6475" cx="0" cy="0" r="1" gradientUnits="userSpaceOnUse" gradientTransform="translate(627.102 174.905) scale(108.857 108.837)">
<stop stop-color="#BA5700"/>
<stop offset="1" stop-color="white"/>
</radialGradient>
<radialGradient id="paint35_radial_575_6475" cx="0" cy="0" r="1" gradientUnits="userSpaceOnUse" gradientTransform="translate(510.948 149.674) scale(94.0126 93.9952)">
<stop stop-color="#FFF48F"/>
<stop offset="1"/>
</radialGradient>
<radialGradient id="paint36_radial_575_6475" cx="0" cy="0" r="1" gradientUnits="userSpaceOnUse" gradientTransform="translate(654.439 155.239) scale(106.63 106.61)">
<stop stop-color="#FFF48F"/>
<stop offset="1"/>
</radialGradient>
<radialGradient id="paint37_radial_575_6475" cx="0" cy="0" r="1" gradientUnits="userSpaceOnUse" gradientTransform="translate(658.028 130.998) scale(56.9024 56.8918)">
<stop stop-color="white"/>
<stop offset="1" stop-color="#BA5700"/>
</radialGradient>
<radialGradient id="paint38_radial_575_6475" cx="0" cy="0" r="1" gradientUnits="userSpaceOnUse" gradientTransform="translate(577.374 135.698) scale(49.7277 49.7185)">
<stop stop-color="white"/>
<stop offset="1" stop-color="#BA5700"/>
</radialGradient>
<radialGradient id="paint39_radial_575_6475" cx="0" cy="0" r="1" gradientUnits="userSpaceOnUse" gradientTransform="translate(606.569 135.698) scale(57.5209 57.5102)">
<stop stop-color="#FCDC0D"/>
<stop offset="1" stop-color="#F78A0C"/>
</radialGradient>
<radialGradient id="paint40_radial_575_6475" cx="0" cy="0" r="1" gradientUnits="userSpaceOnUse" gradientTransform="translate(617.824 132.235) scale(49.2329 49.2238)">
<stop stop-color="#FFF48F"/>
<stop offset="1"/>
</radialGradient>
<linearGradient id="paint41_linear_575_6475" x1="159.784" y1="114.677" x2="166.122" y2="150.249" gradientUnits="userSpaceOnUse">
<stop stop-color="#E8BF00"/>
<stop offset="0.06" stop-color="#ECC902"/>
<stop offset="0.2" stop-color="#F3DD05"/>
<stop offset="0.34" stop-color="#F8E908"/>
<stop offset="0.49" stop-color="#FAED09"/>
<stop offset="0.98" stop-color="#E8C000"/>
<stop offset="1" stop-color="#E8BF00"/>
</linearGradient>
<linearGradient id="paint42_linear_575_6475" x1="811.792" y1="330.331" x2="909.937" y2="330.776" gradientUnits="userSpaceOnUse">
<stop offset="0.18" stop-color="#D5AC24"/>
<stop offset="0.35" stop-color="#EED329"/>
<stop offset="0.51" stop-color="#E9CC0A"/>
<stop offset="0.67" stop-color="#E8BF00"/>
<stop offset="0.82" stop-color="#EED329"/>
<stop offset="1" stop-color="#E6E52D"/>
</linearGradient>
<linearGradient id="paint43_linear_575_6475" x1="504.654" y1="358.097" x2="532.378" y2="377.778" gradientUnits="userSpaceOnUse">
<stop stop-color="#4A9DBD"/>
<stop offset="0.14" stop-color="#51A6C8"/>
<stop offset="0.38" stop-color="#64C0E6"/>
<stop offset="0.55" stop-color="#74D6FF"/>
<stop offset="0.71" stop-color="#49C8F9"/>
<stop offset="1" stop-color="#00B0EF"/>
</linearGradient>
<linearGradient id="paint44_linear_575_6475" x1="833.544" y1="245.774" x2="867.678" y2="242.227" gradientUnits="userSpaceOnUse">
<stop stop-color="#4A9DBD"/>
<stop offset="0.14" stop-color="#51A6C8"/>
<stop offset="0.38" stop-color="#64C0E6"/>
<stop offset="0.55" stop-color="#74D6FF"/>
<stop offset="0.71" stop-color="#49C8F9"/>
<stop offset="1" stop-color="#00B0EF"/>
</linearGradient>
<linearGradient id="paint45_linear_575_6475" x1="144.696" y1="223.456" x2="160.31" y2="237.382" gradientUnits="userSpaceOnUse">
<stop stop-color="#FF580B"/>
<stop offset="0.05" stop-color="#FF6311"/>
<stop offset="0.13" stop-color="#FF8124"/>
<stop offset="0.24" stop-color="#FFB142"/>
<stop offset="0.26" stop-color="#FFB947"/>
<stop offset="0.54" stop-color="#FF8400"/>
<stop offset="0.81" stop-color="#FF8400"/>
<stop offset="0.85" stop-color="#F89002"/>
<stop offset="0.93" stop-color="#F29C04"/>
<stop offset="1" stop-color="#F0A005"/>
</linearGradient>
<linearGradient id="paint46_linear_575_6475" x1="42.1392" y1="62.1348" x2="17.965" y2="83.5278" gradientUnits="userSpaceOnUse">
<stop stop-color="#CC5F08"/>
<stop offset="0.06" stop-color="#C96207"/>
<stop offset="0.37" stop-color="#C07205"/>
<stop offset="0.57" stop-color="#E89113"/>
<stop offset="0.68" stop-color="#FFA31B"/>
</linearGradient>
<linearGradient id="paint47_linear_575_6475" x1="13.0932" y1="64.8266" x2="42.105" y2="29.5758" gradientUnits="userSpaceOnUse">
<stop stop-color="#CC5F08"/>
<stop offset="0.06" stop-color="#C96207"/>
<stop offset="0.37" stop-color="#C07205"/>
<stop offset="0.57" stop-color="#E89113"/>
<stop offset="0.68" stop-color="#FFA31B"/>
<stop offset="1" stop-color="#FF8400"/>
</linearGradient>
<linearGradient id="paint48_linear_575_6475" x1="360.401" y1="66.1718" x2="443.659" y2="96.4564" gradientUnits="userSpaceOnUse">
<stop stop-color="#CC5F08"/>
<stop offset="0.06" stop-color="#C96207"/>
<stop offset="0.37" stop-color="#C07205"/>
<stop offset="0.57" stop-color="#E89113"/>
<stop offset="0.68" stop-color="#FFA31B"/>
</linearGradient>
<linearGradient id="paint49_linear_575_6475" x1="404.936" y1="132.7" x2="281.919" y2="108.899" gradientUnits="userSpaceOnUse">
<stop stop-color="#CC5F08"/>
<stop offset="0.06" stop-color="#C96207"/>
<stop offset="0.37" stop-color="#C07205"/>
<stop offset="0.57" stop-color="#E89113"/>
<stop offset="0.68" stop-color="#FFA31B"/>
<stop offset="1" stop-color="#FF8400"/>
</linearGradient>
<linearGradient id="paint50_linear_575_6475" x1="533.807" y1="648.351" x2="597.835" y2="714.582" gradientUnits="userSpaceOnUse">
<stop stop-color="#DA0000"/>
<stop offset="0.09" stop-color="#E61014"/>
<stop offset="0.24" stop-color="#F82831"/>
<stop offset="0.33" stop-color="#FF313D"/>
<stop offset="0.36" stop-color="#FD3F49"/>
<stop offset="0.42" stop-color="#FB5C63"/>
<stop offset="0.47" stop-color="#F96D72"/>
<stop offset="0.51" stop-color="#F97478"/>
<stop offset="0.67" stop-color="#FF313D"/>
<stop offset="0.69" stop-color="#F92C37"/>
<stop offset="0.81" stop-color="#DD141A"/>
<stop offset="0.92" stop-color="#CC0509"/>
<stop offset="1" stop-color="#C70003"/>
</linearGradient>
<linearGradient id="paint51_linear_575_6475" x1="589.174" y1="553.803" x2="721.325" y2="734.815" gradientUnits="userSpaceOnUse">
<stop stop-color="#DA0000"/>
<stop offset="0.09" stop-color="#E61014"/>
<stop offset="0.24" stop-color="#F82831"/>
<stop offset="0.33" stop-color="#FF313D"/>
<stop offset="0.36" stop-color="#FD3F49"/>
<stop offset="0.42" stop-color="#FB5C63"/>
<stop offset="0.47" stop-color="#F96D72"/>
<stop offset="0.51" stop-color="#F97478"/>
<stop offset="0.67" stop-color="#FF313D"/>
<stop offset="0.69" stop-color="#F92C37"/>
<stop offset="0.81" stop-color="#DD141A"/>
<stop offset="0.92" stop-color="#CC0509"/>
<stop offset="1" stop-color="#C70003"/>
</linearGradient>
<linearGradient id="paint52_linear_575_6475" x1="649.51" y1="530.407" x2="748.512" y2="654.249" gradientUnits="userSpaceOnUse">
<stop stop-color="#DA0000"/>
<stop offset="0.09" stop-color="#E61014"/>
<stop offset="0.24" stop-color="#F82831"/>
<stop offset="0.33" stop-color="#FF313D"/>
<stop offset="0.36" stop-color="#FD3F49"/>
<stop offset="0.42" stop-color="#FB5C63"/>
<stop offset="0.47" stop-color="#F96D72"/>
<stop offset="0.51" stop-color="#F97478"/>
<stop offset="0.67" stop-color="#FF313D"/>
<stop offset="0.69" stop-color="#F92C37"/>
<stop offset="0.81" stop-color="#DD141A"/>
<stop offset="0.92" stop-color="#CC0509"/>
<stop offset="1" stop-color="#C70003"/>
</linearGradient>
<linearGradient id="paint53_linear_575_6475" x1="632.972" y1="543.637" x2="731.975" y2="667.479" gradientUnits="userSpaceOnUse">
<stop stop-color="#DA0000"/>
<stop offset="0.09" stop-color="#E61014"/>
<stop offset="0.24" stop-color="#F82831"/>
<stop offset="0.33" stop-color="#FF313D"/>
<stop offset="0.36" stop-color="#FD3F49"/>
<stop offset="0.42" stop-color="#FB5C63"/>
<stop offset="0.47" stop-color="#F96D72"/>
<stop offset="0.51" stop-color="#F97478"/>
<stop offset="0.67" stop-color="#FF313D"/>
<stop offset="0.69" stop-color="#F92C37"/>
<stop offset="0.81" stop-color="#DD141A"/>
<stop offset="0.92" stop-color="#CC0509"/>
<stop offset="1" stop-color="#C70003"/>
</linearGradient>
<linearGradient id="paint54_linear_575_6475" x1="704.031" y1="518.264" x2="762.568" y2="598.815" gradientUnits="userSpaceOnUse">
<stop stop-color="#DA0000"/>
<stop offset="0.09" stop-color="#E61014"/>
<stop offset="0.24" stop-color="#F82831"/>
<stop offset="0.33" stop-color="#FF313D"/>
<stop offset="0.36" stop-color="#FD3F49"/>
<stop offset="0.42" stop-color="#FB5C63"/>
<stop offset="0.47" stop-color="#F96D72"/>
<stop offset="0.51" stop-color="#F97478"/>
<stop offset="0.67" stop-color="#FF313D"/>
<stop offset="0.69" stop-color="#F92C37"/>
<stop offset="0.81" stop-color="#DD141A"/>
<stop offset="0.92" stop-color="#CC0509"/>
<stop offset="1" stop-color="#C70003"/>
</linearGradient>
<linearGradient id="paint55_linear_575_6475" x1="571.478" y1="566.773" x2="703.571" y2="747.725" gradientUnits="userSpaceOnUse">
<stop stop-color="#DA0000"/>
<stop offset="0.09" stop-color="#E61014"/>
<stop offset="0.24" stop-color="#F82831"/>
<stop offset="0.33" stop-color="#FF313D"/>
<stop offset="0.36" stop-color="#FD3F49"/>
<stop offset="0.42" stop-color="#FB5C63"/>
<stop offset="0.47" stop-color="#F96D72"/>
<stop offset="0.51" stop-color="#F97478"/>
<stop offset="0.67" stop-color="#FF313D"/>
<stop offset="0.69" stop-color="#F92C37"/>
<stop offset="0.81" stop-color="#DD141A"/>
<stop offset="0.92" stop-color="#CC0509"/>
<stop offset="1" stop-color="#C70003"/>
</linearGradient>
<linearGradient id="paint56_linear_575_6475" x1="659.006" y1="536.166" x2="719.875" y2="599.13" gradientUnits="userSpaceOnUse">
<stop stop-color="#DA0000"/>
<stop offset="0.09" stop-color="#E61014"/>
<stop offset="0.24" stop-color="#F82831"/>
<stop offset="0.33" stop-color="#FF313D"/>
<stop offset="0.36" stop-color="#FD3F49"/>
<stop offset="0.42" stop-color="#FB5C63"/>
<stop offset="0.47" stop-color="#F96D72"/>
<stop offset="0.51" stop-color="#F97478"/>
<stop offset="0.67" stop-color="#FF313D"/>
<stop offset="0.69" stop-color="#F92C37"/>
<stop offset="0.81" stop-color="#DD141A"/>
<stop offset="0.92" stop-color="#CC0509"/>
<stop offset="1" stop-color="#C70003"/>
</linearGradient>
<linearGradient id="paint57_linear_575_6475" x1="603.545" y1="578.175" x2="666.539" y2="643.337" gradientUnits="userSpaceOnUse">
<stop stop-color="#DA0000"/>
<stop offset="0.09" stop-color="#E61014"/>
<stop offset="0.24" stop-color="#F82831"/>
<stop offset="0.33" stop-color="#FF313D"/>
<stop offset="0.36" stop-color="#FD3F49"/>
<stop offset="0.42" stop-color="#FB5C63"/>
<stop offset="0.47" stop-color="#F96D72"/>
<stop offset="0.51" stop-color="#F97478"/>
<stop offset="0.67" stop-color="#FF313D"/>
<stop offset="0.69" stop-color="#F92C37"/>
<stop offset="0.81" stop-color="#DD141A"/>
<stop offset="0.92" stop-color="#CC0509"/>
<stop offset="1" stop-color="#C70003"/>
</linearGradient>
<clipPath id="clip0_575_6475">
<rect width="285.271" height="120.046" fill="white" transform="translate(467.363 632.998) rotate(-26.7119)"/>
</clipPath>
</defs>
</svg>
