<svg width="530" height="498" viewBox="0 0 530 498" fill="none" xmlns="http://www.w3.org/2000/svg">
<g filter="url(#filter0_f_575_5793)">
<path d="M23 361.349L185.78 303.315L274.767 288L507 333.944L232.806 475L23 361.349Z" fill="url(#paint0_radial_575_5793)"/>
</g>
<g filter="url(#filter1_f_575_5793)">
<path d="M23 361.349L185.78 303.315L274.767 288L507 333.944L232.806 475L23 361.349Z" fill="url(#paint1_radial_575_5793)" fill-opacity="0.6"/>
</g>
<path fill-rule="evenodd" clip-rule="evenodd" d="M156.396 157.339H489.543L486.027 343.268L274.324 389.297L158.664 311.751L156.396 157.339Z" fill="#AB5500"/>
<path fill-rule="evenodd" clip-rule="evenodd" d="M274.324 389.297V157.339H156.396L158.664 311.751L274.324 389.297Z" fill="url(#paint2_radial_575_5793)"/>
<path fill-rule="evenodd" clip-rule="evenodd" d="M274.324 157.339V389.297L486.027 343.268L489.543 157.339H274.324Z" fill="url(#paint3_radial_575_5793)"/>
<path style="mix-blend-mode:multiply" opacity="0.5" fill-rule="evenodd" clip-rule="evenodd" d="M178.847 321.614C165.127 311.411 160.477 304.269 158.436 293.045L158.663 311.864L274.323 389.297V367.87C271.942 373.765 263.778 374.332 256.974 371.384C235.883 362.088 197.784 335.672 178.847 321.614Z" fill="url(#paint4_radial_575_5793)"/>
<path style="mix-blend-mode:multiply" fill-rule="evenodd" clip-rule="evenodd" d="M274.324 367.87V389.297L486.027 343.268L486.594 312.091C483.419 324.448 477.183 331.591 459.267 339.754C424.795 355.285 352.564 371.838 315.032 375.806C296.435 377.846 277.159 377.506 274.324 367.87Z" fill="url(#paint5_radial_575_5793)"/>
<path style="mix-blend-mode:multiply" opacity="0.4" fill-rule="evenodd" clip-rule="evenodd" d="M156.623 180.013L156.396 164.595L274.21 230.35V258.466C266.273 231.824 179.188 173.665 156.623 180.127V180.013Z" fill="url(#paint6_radial_575_5793)"/>
<path style="mix-blend-mode:multiply" opacity="0.75" fill-rule="evenodd" clip-rule="evenodd" d="M274.323 258.353C294.507 222.414 444.525 195.772 488.748 203.821L489.088 182.847L274.21 226.269V258.239L274.323 258.353Z" fill="url(#paint7_radial_575_5793)"/>
<path fill-rule="evenodd" clip-rule="evenodd" d="M153.787 163.008L272.735 230.464L491.923 190.33L492.943 130.47L152.993 104.168L153.787 163.008Z" fill="#AB5500"/>
<path fill-rule="evenodd" clip-rule="evenodd" d="M152.993 104.168L272.735 168.79V230.464L153.787 163.008L152.993 104.168Z" fill="url(#paint8_radial_575_5793)"/>
<path fill-rule="evenodd" clip-rule="evenodd" d="M272.736 168.79L492.944 130.47L491.924 190.33L272.736 230.464V168.79Z" fill="url(#paint9_radial_575_5793)"/>
<path fill-rule="evenodd" clip-rule="evenodd" d="M152.993 104.168L272.735 168.789L492.943 130.47L363.789 70.4965L152.993 104.168Z" fill="url(#paint10_radial_575_5793)"/>
<path style="mix-blend-mode:screen" opacity="0.2" fill-rule="evenodd" clip-rule="evenodd" d="M298.136 221.507C290.539 214.592 292.126 195.999 298.59 188.63C314.918 170.15 456.885 135.572 480.131 145.208C490.336 149.403 492.377 169.47 491.243 179.106C490.563 184.775 488.522 188.516 485.914 191.464L491.924 190.33L492.944 130.47L272.736 168.79V230.464L304.599 224.568C302.105 223.888 299.837 223.095 298.023 221.394L298.136 221.507Z" fill="url(#paint11_radial_575_5793)"/>
<path style="mix-blend-mode:screen" opacity="0.5" fill-rule="evenodd" clip-rule="evenodd" d="M159.91 162.895C156.962 154.959 154.013 134.892 160.137 127.976C170.229 116.752 197.556 131.491 207.194 136.366C223.863 144.642 253.345 162.101 261.509 178.54C264.117 183.868 266.045 189.65 267.066 195.432C268.2 201.781 267.292 218.106 260.035 220.714C258.901 221.167 257.654 221.167 256.407 221.167L272.849 230.464V168.79L152.993 104.168L153.787 163.008L162.971 168.223C161.724 166.522 160.704 164.822 160.023 162.895H159.91Z" fill="url(#paint12_radial_575_5793)"/>
<path style="mix-blend-mode:screen" opacity="0.3" fill-rule="evenodd" clip-rule="evenodd" d="M185.764 106.208C188.599 101.333 197.103 98.0456 205.154 95.8916L152.88 104.281L272.623 168.903L492.831 130.583L461.761 116.185C464.823 122.534 460.174 127.862 448.381 131.49C405.972 144.415 338.05 154.731 294.394 156.999C287.25 157.339 279.993 156.999 272.849 155.978C246.429 152.237 215.813 137.272 194.495 121.627C186.217 115.505 183.043 110.63 185.651 106.322L185.764 106.208Z" fill="url(#paint13_radial_575_5793)"/>
<path fill-rule="evenodd" clip-rule="evenodd" d="M199.599 129.337C212.185 136.819 266.047 167.543 268.995 170.831C272.056 174.118 272.056 187.383 272.85 218.56C273.871 205.409 274.891 174.572 276.932 171.738C279.994 169.357 456.659 137.159 482.059 132.398C444.413 138.406 279.2 165.275 273.53 165.389C264.686 163.802 217.288 138.18 199.599 129.337Z" fill="#FF6A66"/>
<path fill-rule="evenodd" clip-rule="evenodd" d="M366.851 213.231L362.202 370.137L406.085 360.614L411.188 205.069C411.415 184.888 411.641 164.708 411.755 144.528L367.192 152.237C367.078 172.531 366.965 192.824 366.738 213.118L366.851 213.231Z" fill="url(#paint14_radial_575_5793)"/>
<path fill-rule="evenodd" clip-rule="evenodd" d="M235.77 363.448L232.141 207.449C232.141 187.269 232.028 166.976 231.915 146.795L192.568 125.595C192.681 145.548 192.908 165.388 193.021 185.342L197.217 337.713L235.77 363.561V363.448Z" fill="url(#paint15_radial_575_5793)"/>
<path fill-rule="evenodd" clip-rule="evenodd" d="M411.755 144.642C388.396 133.078 361.635 122.988 337.936 111.424C319.567 102.468 301.991 92.6042 286.116 82.9677L244.728 89.5432C267.18 100.087 288.951 110.063 309.929 120.834C329.772 131.037 347.348 142.261 367.192 152.351L411.755 144.642Z" fill="url(#paint16_radial_575_5793)"/>
<path style="mix-blend-mode:multiply" opacity="0.65" fill-rule="evenodd" clip-rule="evenodd" d="M348.028 141.921C336.916 126.616 366.171 127.409 379.438 129.903C365.377 123.895 351.203 117.886 337.936 111.424C319.567 102.468 301.991 92.6042 286.116 82.9677L244.728 89.5432C267.18 100.087 288.951 110.063 309.929 120.834C323.195 127.636 335.442 134.892 347.915 141.921H348.028Z" fill="url(#paint17_radial_575_5793)"/>
<path fill-rule="evenodd" clip-rule="evenodd" d="M231.914 146.796C269.787 140.333 303.124 131.377 341.111 124.915C375.469 119.133 415.496 113.464 448.834 109.95L406.425 90.2233C377.737 94.9849 350.636 101.674 322.061 106.435C279.425 113.464 235.316 118.453 192.68 125.482L232.027 146.682L231.914 146.796Z" fill="url(#paint18_radial_575_5793)"/>
<g style="mix-blend-mode:multiply" opacity="0.35">
<path fill-rule="evenodd" clip-rule="evenodd" d="M193.021 185.228V181.714C197.33 187.609 224.09 205.182 232.141 202.801V207.336L232.481 225.022C231.688 221.054 229.647 214.932 223.523 208.47C213.885 198.153 197.897 188.63 193.248 195.772L193.021 185.228Z" fill="#F39200"/>
</g>
<g style="mix-blend-mode:multiply" opacity="0.2">
<path fill-rule="evenodd" clip-rule="evenodd" d="M366.852 213.231V207.563C371.274 215.272 408.92 206.883 411.302 198.606V205.069L410.735 221.281C409.714 217.766 408.24 214.592 404.045 214.025C395.767 212.778 381.82 216.292 373.429 223.321C368.666 227.289 366.625 232.958 366.172 238.173L366.852 213.231Z" fill="#F39200"/>
</g>
<g style="mix-blend-mode:multiply" opacity="0.5">
<path fill-rule="evenodd" clip-rule="evenodd" d="M235.77 360.047C223.184 352.564 209.236 343.155 197.217 334.765V337.599L235.883 363.448V360.047H235.77Z" fill="#936037"/>
</g>
<g style="mix-blend-mode:multiply" opacity="0.5">
<path fill-rule="evenodd" clip-rule="evenodd" d="M406.085 357.553C391.684 361.408 376.603 365.036 362.202 367.983V370.137L405.972 360.614V357.553H406.085Z" fill="#B17F4A"/>
</g>
<path style="mix-blend-mode:screen" fill-rule="evenodd" clip-rule="evenodd" d="M192.568 125.481C192.568 125.481 192.568 133.758 192.568 134.098C196.65 132.737 222.05 144.301 231.915 156.318C231.915 155.071 231.915 148.042 231.915 146.795C231.915 146.795 237.471 145.888 238.038 145.775C223.977 139.993 210.37 132.397 198.917 124.461C196.763 124.801 194.722 125.141 192.568 125.481Z" fill="url(#paint19_radial_575_5793)"/>
<path style="mix-blend-mode:screen" fill-rule="evenodd" clip-rule="evenodd" d="M406.199 141.807C392.252 144.641 376.49 147.475 361.976 149.63C363.79 150.537 365.491 151.443 367.306 152.35L411.869 144.641L406.199 141.807Z" fill="url(#paint20_radial_575_5793)"/>
<path style="mix-blend-mode:multiply" opacity="0.5" fill-rule="evenodd" clip-rule="evenodd" d="M367.192 161.421C381.707 157.453 397.128 153.825 411.756 150.877C411.756 148.837 411.756 146.683 411.756 144.642L367.192 152.351C367.192 155.412 367.192 158.36 367.192 161.421Z" fill="url(#paint21_radial_575_5793)"/>
<path style="mix-blend-mode:multiply" fill-rule="evenodd" clip-rule="evenodd" d="M202.887 123.781C238.152 138.519 275.231 134.438 319.114 128.883C326.258 127.409 333.628 126.048 341.112 124.801C375.47 119.019 415.497 113.351 448.835 109.836L406.426 90.1096C377.738 94.8712 350.637 101.56 322.062 106.322C282.828 112.784 242.461 117.546 203 123.668L202.887 123.781Z" fill="url(#paint22_radial_575_5793)"/>
<path fill-rule="evenodd" clip-rule="evenodd" d="M315.484 100.427L332.266 103.715C346.214 67.0957 360.614 50.2033 385.107 18.7995C370.139 21.407 355.512 24.8081 342.131 31.0436C339.637 22.4273 336.348 14.7181 331.926 8.36929C316.958 22.9942 310.382 39.3197 308.681 54.8516C307.207 68.6829 309.928 83.1944 315.371 100.313L315.484 100.427Z" fill="url(#paint23_radial_575_5793)"/>
<path style="mix-blend-mode:multiply" fill-rule="evenodd" clip-rule="evenodd" d="M340.091 77.7522C332.72 80.8132 318.433 80.6998 312.99 74.0109C310.949 71.4034 309.815 69.5895 308.454 65.8482C308.908 76.3917 311.403 87.7289 315.485 100.426L332.267 103.714C337.256 90.4498 342.359 79.7929 348.028 70.1563C345.08 73.5575 341.905 76.9586 340.091 77.6388V77.7522Z" fill="url(#paint24_radial_575_5793)"/>
<path style="mix-blend-mode:screen" fill-rule="evenodd" clip-rule="evenodd" d="M308.682 56.665C310.156 54.6243 312.764 52.4703 317.413 52.3569C325.124 52.1301 346.215 54.1708 350.977 60.2929C351.657 61.1999 352.111 62.1068 352.338 63.2406C357.327 55.3046 362.77 47.822 369.007 39.7727C365.832 40.4529 362.883 41.0198 359.482 41.0198C348.482 41.2465 332.608 39.7727 322.969 34.3308C319.681 32.5169 318.207 29.9094 317.753 26.9617C312.537 36.2582 309.816 45.7813 308.795 55.0778C308.795 55.6447 308.682 56.2115 308.682 56.7784V56.665Z" fill="url(#paint25_radial_575_5793)"/>
<path fill-rule="evenodd" clip-rule="evenodd" d="M312.764 107.002L326.484 96.6854C308.455 61.8804 305.393 39.8864 298.25 0.659851C290.199 13.5842 283.055 26.7353 278.746 40.9067C270.582 37.0521 262.644 34.3311 255.047 33.4242C255.954 54.3979 263.778 70.0431 274.324 81.7204C283.622 92.0372 296.209 99.6331 312.764 107.002Z" fill="url(#paint26_radial_575_5793)"/>
<path style="mix-blend-mode:multiply" opacity="0.65" fill-rule="evenodd" clip-rule="evenodd" d="M312.197 73.5575C309.589 81.04 300.064 91.5835 291.333 91.2434C288.044 91.13 285.89 90.6765 282.261 89.3161C290.425 96.005 300.517 101.674 312.764 107.115L326.484 96.7986C319.907 84.2144 315.372 73.3307 311.857 62.7872C312.423 67.2087 312.877 71.8569 312.197 73.6708V73.5575Z" fill="url(#paint27_radial_575_5793)"/>
<path style="mix-blend-mode:screen" fill-rule="evenodd" clip-rule="evenodd" d="M275.457 82.9671C274.89 80.5863 275.004 77.0718 278.065 73.5573C283.055 67.6619 298.589 53.2638 306.3 53.8306C307.434 53.8306 308.341 54.2841 309.362 54.7376C306.754 45.7813 304.826 36.7115 302.898 26.7349C301.311 29.4558 299.723 32.0633 297.569 34.6709C290.425 43.0604 278.746 53.944 268.314 57.4585C264.685 58.7056 261.85 58.0254 259.356 56.3248C262.871 66.4149 268.087 74.8043 274.324 81.72C274.664 82.1735 275.117 82.5136 275.457 82.9671Z" fill="url(#paint28_radial_575_5793)"/>
<path fill-rule="evenodd" clip-rule="evenodd" d="M319.566 101.221C308.227 84.5551 255.386 34.4449 233.048 41.7007C217.286 46.8024 191.206 85.2353 198.463 104.168C200.617 109.837 206.287 113.805 211.73 115.959C245.407 129.564 283.054 126.729 315.144 118.453C316.618 112.671 318.205 107.003 319.679 101.221H319.566Z" fill="url(#paint29_radial_575_5793)"/>
<path fill-rule="evenodd" clip-rule="evenodd" d="M326.484 99.7468L335.102 116.639C359.708 119.247 406.879 117.659 435.681 99.6334C438.743 97.7061 441.464 94.305 440.67 89.43C436.815 67.8894 411.075 39.4332 392.025 37.2792C373.429 35.1251 332.948 81.1539 326.598 99.8602L326.484 99.7468Z" fill="url(#paint30_radial_575_5793)"/>
<path fill-rule="evenodd" clip-rule="evenodd" d="M304.032 113.011L303.465 119.246C275.684 125.595 233.842 127.069 208.556 110.517C197.33 103.147 203.226 82.9674 209.349 80.5866C228.853 73.3308 286.91 100.313 304.032 113.011Z" fill="url(#paint31_linear_575_5793)"/>
<path style="mix-blend-mode:multiply" fill-rule="evenodd" clip-rule="evenodd" d="M228.626 80.5865C243.707 103.374 263.551 115.505 290.992 121.627C295.414 120.947 299.61 120.153 303.579 119.246L304.146 113.011C291.105 103.374 254.14 85.3481 228.626 80.5865Z" fill="url(#paint32_radial_575_5793)"/>
<path fill-rule="evenodd" clip-rule="evenodd" d="M343.153 112.218L344.287 115.279C366.852 116.299 394.519 114.825 420.146 105.188C428.537 102.014 441.577 96.799 437.949 86.4822C435.794 80.3601 429.784 73.3311 426.723 72.991C408.353 70.8369 358.914 99.4065 343.039 112.104L343.153 112.218Z" fill="url(#paint33_linear_575_5793)"/>
<path style="mix-blend-mode:multiply" fill-rule="evenodd" clip-rule="evenodd" d="M425.022 77.7527C422.527 74.8051 420.033 74.2382 416.631 74.0115C394.293 79.1132 356.646 101.334 343.266 112.218C364.244 109.837 399.055 103.828 420.146 93.0579C424.455 90.9038 427.743 88.4096 428.31 85.3486C428.651 83.3079 427.857 80.9271 425.135 77.7527H425.022Z" fill="url(#paint34_radial_575_5793)"/>
<path style="mix-blend-mode:screen" fill-rule="evenodd" clip-rule="evenodd" d="M209.463 80.5865C217.968 77.4121 233.729 80.8133 250.285 86.5952C246.656 82.4005 245.862 75.1447 250.511 68.1157C257.088 58.0256 268.881 57.232 277.839 60.4064C266.046 51.3367 253.686 43.9676 243.821 41.7001C239.286 42.4937 236.678 43.2873 232.142 46.4617C221.029 54.5111 208.67 72.6505 204.928 83.0807C204.134 85.2347 203.68 87.5022 203.34 89.6562C204.701 85.1214 206.969 81.3801 209.463 80.4731V80.5865Z" fill="url(#paint35_radial_575_5793)"/>
<path style="mix-blend-mode:screen" fill-rule="evenodd" clip-rule="evenodd" d="M394.859 39.3197C390.89 38.0726 386.921 38.186 381.365 39.6598C374.221 43.0609 366.057 49.5231 358.12 57.119C362.655 53.8312 367.191 52.8109 375.922 54.1713C386.468 55.7585 394.745 63.241 396.56 72.7642C397.467 77.9793 395.879 80.4735 392.818 82.8543C406.425 76.6189 419.238 72.1974 426.835 73.1043C428.99 73.3311 432.505 76.7322 435.113 80.927C428.423 66.3021 412.435 44.7615 394.859 39.3197Z" fill="url(#paint36_radial_575_5793)"/>
<path style="mix-blend-mode:multiply" opacity="0.5" fill-rule="evenodd" clip-rule="evenodd" d="M339.524 82.854C339.865 80.8134 340.545 78.886 341.452 76.9587C342.019 75.5983 342.813 74.2378 343.493 72.9907C342.359 74.3512 341.225 75.7116 340.205 77.0721C339.411 78.2058 338.504 79.2262 337.71 80.2465C332.948 86.7087 329.206 92.8307 327.165 97.5923C329.546 102.694 337.597 108.476 345.081 110.63C349.049 107.682 354.492 103.941 360.615 100.2C363.223 98.6127 366.058 96.9121 368.893 95.2115C364.697 96.6854 360.729 97.8191 356.533 97.8191C347.462 97.8191 337.483 93.3976 339.411 82.7407L339.524 82.854Z" fill="url(#paint37_radial_575_5793)"/>
<path style="mix-blend-mode:multiply" opacity="0.5" fill-rule="evenodd" clip-rule="evenodd" d="M303.012 87.8423C302.558 93.6242 293.94 99.0661 288.498 99.1794C283.962 99.1794 278.973 97.7056 274.55 96.4585C284.302 100.993 293.033 105.642 299.27 109.61C307.434 108.249 314.124 103.488 316.846 97.3655C312.99 92.6039 307.321 86.3684 300.517 79.7929C302.218 82.2871 303.239 84.8946 303.012 87.7289V87.8423Z" fill="url(#paint38_radial_575_5793)"/>
<path d="M296.549 115.052C295.982 111.877 300.858 107.796 306.527 103.941C313.218 99.2931 319.114 96.4588 321.949 96.6856C329.206 97.4792 355.286 113.465 348.483 122.421C343.493 128.996 327.845 129.45 320.134 128.883C312.764 128.316 298.25 123.555 296.549 114.938V115.052Z" fill="#C45800"/>
<path fill-rule="evenodd" clip-rule="evenodd" d="M302.899 117.545C306.641 120.833 312.651 122.647 319.001 123.441C325.464 124.234 332.495 123.894 338.278 122.874C348.596 121.06 349.503 115.505 345.308 110.856C340.319 105.415 331.701 99.7461 325.578 96.9118C322.97 95.6647 320.248 95.7781 317.64 97.0252C312.991 99.4059 307.322 103.034 303.353 106.095C297.456 110.63 297.343 112.784 302.899 117.545Z" fill="url(#paint39_radial_575_5793)"/>
<path style="mix-blend-mode:screen" fill-rule="evenodd" clip-rule="evenodd" d="M341.678 107.342C336.689 103.148 330.452 99.1797 325.69 96.9123C323.082 95.6652 320.247 95.6652 317.639 96.9123C313.216 99.1797 307.887 102.468 303.918 105.415C303.918 115.845 343.832 117.999 342.585 109.043C342.585 108.249 342.131 107.683 341.564 107.229L341.678 107.342Z" fill="url(#paint40_radial_575_5793)"/>
<defs>
<filter id="filter0_f_575_5793" x="0" y="265" width="530" height="233" filterUnits="userSpaceOnUse" color-interpolation-filters="sRGB">
<feFlood flood-opacity="0" result="BackgroundImageFix"/>
<feBlend mode="normal" in="SourceGraphic" in2="BackgroundImageFix" result="shape"/>
<feGaussianBlur stdDeviation="11.5" result="effect1_foregroundBlur_575_5793"/>
</filter>
<filter id="filter1_f_575_5793" x="0" y="265" width="530" height="233" filterUnits="userSpaceOnUse" color-interpolation-filters="sRGB">
<feFlood flood-opacity="0" result="BackgroundImageFix"/>
<feBlend mode="normal" in="SourceGraphic" in2="BackgroundImageFix" result="shape"/>
<feGaussianBlur stdDeviation="11.5" result="effect1_foregroundBlur_575_5793"/>
</filter>
<radialGradient id="paint0_radial_575_5793" cx="0" cy="0" r="1" gradientUnits="userSpaceOnUse" gradientTransform="translate(399.766 250.31) rotate(118.253) scale(284.7 736.987)">
<stop/>
<stop offset="1" stop-opacity="0"/>
</radialGradient>
<radialGradient id="paint1_radial_575_5793" cx="0" cy="0" r="1" gradientUnits="userSpaceOnUse" gradientTransform="translate(399.766 250.31) rotate(118.253) scale(284.7 736.987)">
<stop/>
<stop offset="1" stop-opacity="0"/>
</radialGradient>
<radialGradient id="paint2_radial_575_5793" cx="0" cy="0" r="1" gradientUnits="userSpaceOnUse" gradientTransform="translate(159.004 194.298) scale(232.908 232.865)">
<stop stop-color="#FF6163"/>
<stop offset="1" stop-color="#8F0000"/>
</radialGradient>
<radialGradient id="paint3_radial_575_5793" cx="0" cy="0" r="1" gradientUnits="userSpaceOnUse" gradientTransform="translate(205.608 23.4475) scale(415.356 415.279)">
<stop stop-color="#E60E10"/>
<stop offset="1" stop-color="#730000"/>
</radialGradient>
<radialGradient id="paint4_radial_575_5793" cx="0" cy="0" r="1" gradientUnits="userSpaceOnUse" gradientTransform="translate(264.685 261.301) scale(136.071 136.046)">
<stop offset="0.54" stop-color="white"/>
<stop offset="0.58" stop-color="#F9F4F6"/>
<stop offset="0.66" stop-color="#E9D9DE"/>
<stop offset="0.76" stop-color="#D0ADB8"/>
<stop offset="0.87" stop-color="#AD6F83"/>
<stop offset="1" stop-color="#822341"/>
</radialGradient>
<radialGradient id="paint5_radial_575_5793" cx="0" cy="0" r="1" gradientUnits="userSpaceOnUse" gradientTransform="translate(302.558 179.22) scale(277.131 277.08)">
<stop offset="0.54" stop-color="white"/>
<stop offset="0.58" stop-color="#F9F4F6"/>
<stop offset="0.66" stop-color="#E9D9DE"/>
<stop offset="0.76" stop-color="#D0ADB8"/>
<stop offset="0.87" stop-color="#AD6F83"/>
<stop offset="1" stop-color="#822341"/>
</radialGradient>
<radialGradient id="paint6_radial_575_5793" cx="0" cy="0" r="1" gradientUnits="userSpaceOnUse" gradientTransform="translate(129.522 355.512) scale(214.879 214.839)">
<stop offset="0.54" stop-color="white"/>
<stop offset="0.58" stop-color="#FAF6F4"/>
<stop offset="0.65" stop-color="#ECDED9"/>
<stop offset="0.73" stop-color="#D6B7AD"/>
<stop offset="0.84" stop-color="#B8816F"/>
<stop offset="0.95" stop-color="#923E22"/>
<stop offset="1" stop-color="#822000"/>
</radialGradient>
<radialGradient id="paint7_radial_575_5793" cx="0" cy="0" r="1" gradientUnits="userSpaceOnUse" gradientTransform="translate(405.291 351.091) scale(195.035 194.999)">
<stop offset="0.54" stop-color="white"/>
<stop offset="0.58" stop-color="#FAF6F4"/>
<stop offset="0.65" stop-color="#ECDED9"/>
<stop offset="0.73" stop-color="#D6B7AD"/>
<stop offset="0.84" stop-color="#B8816F"/>
<stop offset="0.95" stop-color="#923E22"/>
<stop offset="1" stop-color="#822000"/>
</radialGradient>
<radialGradient id="paint8_radial_575_5793" cx="0" cy="0" r="1" gradientUnits="userSpaceOnUse" gradientTransform="translate(181.341 109.27) scale(257.968 257.92)">
<stop stop-color="#FF6163"/>
<stop offset="1" stop-color="#8F0000"/>
</radialGradient>
<radialGradient id="paint9_radial_575_5793" cx="0" cy="0" r="1" gradientUnits="userSpaceOnUse" gradientTransform="translate(318.32 -81.8744) scale(333.487 333.425)">
<stop stop-color="#E60E10"/>
<stop offset="1" stop-color="#730000"/>
</radialGradient>
<radialGradient id="paint10_radial_575_5793" cx="0" cy="0" r="1" gradientUnits="userSpaceOnUse" gradientTransform="translate(240.759 212.324) scale(508.565 508.471)">
<stop stop-color="#F23559"/>
<stop offset="1" stop-color="#C40000"/>
</radialGradient>
<radialGradient id="paint11_radial_575_5793" cx="0" cy="0" r="1" gradientUnits="userSpaceOnUse" gradientTransform="translate(478.43 223.775) scale(305.366 305.309)">
<stop/>
<stop offset="1" stop-color="#FF9A8A"/>
</radialGradient>
<radialGradient id="paint12_radial_575_5793" cx="0" cy="0" r="1" gradientUnits="userSpaceOnUse" gradientTransform="translate(234.295 316.513) scale(358.093 358.027)">
<stop/>
<stop offset="1" stop-color="#FF9A8A"/>
</radialGradient>
<radialGradient id="paint13_radial_575_5793" cx="0" cy="0" r="1" gradientUnits="userSpaceOnUse" gradientTransform="translate(361.522 -48.8837) scale(284.615 284.562)">
<stop/>
<stop offset="1" stop-color="#CA9E67"/>
</radialGradient>
<radialGradient id="paint14_radial_575_5793" cx="0" cy="0" r="1" gradientUnits="userSpaceOnUse" gradientTransform="translate(221.709 89.4297) scale(343.125 343.062)">
<stop stop-color="#FFCC00"/>
<stop offset="1" stop-color="#B35100"/>
</radialGradient>
<radialGradient id="paint15_radial_575_5793" cx="0" cy="0" r="1" gradientUnits="userSpaceOnUse" gradientTransform="translate(170.569 43.9676) scale(312.963 312.905)">
<stop stop-color="#FCF80D"/>
<stop offset="1" stop-color="#F78A0C"/>
</radialGradient>
<radialGradient id="paint16_radial_575_5793" cx="0" cy="0" r="1" gradientUnits="userSpaceOnUse" gradientTransform="translate(334.761 111.197) scale(187.211 187.176)">
<stop stop-color="#FC9C0D"/>
<stop offset="1" stop-color="#FCF80D"/>
</radialGradient>
<radialGradient id="paint17_radial_575_5793" cx="0" cy="0" r="1" gradientUnits="userSpaceOnUse" gradientTransform="translate(354.265 165.502) scale(51.9337 51.9241)">
<stop stop-color="#B85E16"/>
<stop offset="1" stop-color="white"/>
</radialGradient>
<radialGradient id="paint18_radial_575_5793" cx="0" cy="0" r="1" gradientUnits="userSpaceOnUse" gradientTransform="translate(320.7 118.453) scale(92.755 92.7378)">
<stop stop-color="#FC9C0D"/>
<stop offset="1" stop-color="#FCF80D"/>
</radialGradient>
<radialGradient id="paint19_radial_575_5793" cx="0" cy="0" r="1" gradientUnits="userSpaceOnUse" gradientTransform="translate(187.125 100.766) scale(79.0345 79.0198)">
<stop stop-color="#FFF385"/>
<stop offset="1"/>
</radialGradient>
<radialGradient id="paint20_radial_575_5793" cx="0" cy="0" r="1" gradientUnits="userSpaceOnUse" gradientTransform="translate(379.552 174.685) scale(83.1166 83.1011)">
<stop stop-color="#F24C7C"/>
<stop offset="1"/>
</radialGradient>
<radialGradient id="paint21_radial_575_5793" cx="0" cy="0" r="1" gradientUnits="userSpaceOnUse" gradientTransform="translate(395.2 124.348) scale(88.7863 88.7698)">
<stop stop-color="#7C0000"/>
<stop offset="1" stop-color="white"/>
</radialGradient>
<radialGradient id="paint22_radial_575_5793" cx="0" cy="0" r="1" gradientUnits="userSpaceOnUse" gradientTransform="translate(391.685 85.6881) scale(264.771 264.722)">
<stop stop-color="#B85E16"/>
<stop offset="1" stop-color="white"/>
</radialGradient>
<radialGradient id="paint23_radial_575_5793" cx="0" cy="0" r="1" gradientUnits="userSpaceOnUse" gradientTransform="translate(335.328 100.88) scale(210.91 210.871)">
<stop stop-color="#F78A0C"/>
<stop offset="1" stop-color="#FCDC0D"/>
</radialGradient>
<radialGradient id="paint24_radial_575_5793" cx="0" cy="0" r="1" gradientUnits="userSpaceOnUse" gradientTransform="translate(336.009 49.4094) scale(62.9328 62.9211)">
<stop stop-color="white"/>
<stop offset="1" stop-color="#BA5700"/>
</radialGradient>
<radialGradient id="paint25_radial_575_5793" cx="0" cy="0" r="1" gradientUnits="userSpaceOnUse" gradientTransform="translate(340.318 16.6449) scale(66.2212 66.2089)">
<stop stop-color="#FFF48F"/>
<stop offset="1"/>
</radialGradient>
<radialGradient id="paint26_radial_575_5793" cx="0" cy="0" r="1" gradientUnits="userSpaceOnUse" gradientTransform="translate(318.093 90.5634) scale(115.66 115.639)">
<stop stop-color="#F78A0C"/>
<stop offset="1" stop-color="#FCDC0D"/>
</radialGradient>
<radialGradient id="paint27_radial_575_5793" cx="0" cy="0" r="1" gradientUnits="userSpaceOnUse" gradientTransform="translate(285.549 59.2727) scale(59.8712 59.8601)">
<stop stop-color="white"/>
<stop offset="1" stop-color="#BA5700"/>
</radialGradient>
<radialGradient id="paint28_radial_575_5793" cx="0" cy="0" r="1" gradientUnits="userSpaceOnUse" gradientTransform="translate(290.425 16.7582) scale(71.8908 71.8775)">
<stop stop-color="#FFF48F"/>
<stop offset="1"/>
</radialGradient>
<radialGradient id="paint29_radial_575_5793" cx="0" cy="0" r="1" gradientUnits="userSpaceOnUse" gradientTransform="translate(235.202 57.346) scale(97.0639 97.0459)">
<stop stop-color="#FCDC0D"/>
<stop offset="1" stop-color="#F78A0C"/>
</radialGradient>
<radialGradient id="paint30_radial_575_5793" cx="0" cy="0" r="1" gradientUnits="userSpaceOnUse" gradientTransform="translate(423.321 46.689) scale(95.1362 95.1186)">
<stop stop-color="#FCDC0D"/>
<stop offset="1" stop-color="#F78A0C"/>
</radialGradient>
<linearGradient id="paint31_linear_575_5793" x1="202.206" y1="101.56" x2="304.032" y2="101.56" gradientUnits="userSpaceOnUse">
<stop stop-color="#D46D17"/>
<stop offset="1" stop-color="#FF9D00"/>
</linearGradient>
<radialGradient id="paint32_radial_575_5793" cx="0" cy="0" r="1" gradientUnits="userSpaceOnUse" gradientTransform="translate(320.134 62.2203) scale(89.8068 89.7901)">
<stop stop-color="#BA5700"/>
<stop offset="1" stop-color="white"/>
</radialGradient>
<linearGradient id="paint33_linear_575_5793" x1="343.153" y1="94.3048" x2="551.114" y2="94.3048" gradientUnits="userSpaceOnUse">
<stop stop-color="#D46D17"/>
<stop offset="1" stop-color="#FF9D00"/>
</linearGradient>
<radialGradient id="paint34_radial_575_5793" cx="0" cy="0" r="1" gradientUnits="userSpaceOnUse" gradientTransform="translate(335.442 116.072) scale(99.7853 99.7669)">
<stop stop-color="#BA5700"/>
<stop offset="1" stop-color="white"/>
</radialGradient>
<radialGradient id="paint35_radial_575_5793" cx="0" cy="0" r="1" gradientUnits="userSpaceOnUse" gradientTransform="translate(228.967 92.944) scale(86.1782 86.1622)">
<stop stop-color="#FFF48F"/>
<stop offset="1"/>
</radialGradient>
<radialGradient id="paint36_radial_575_5793" cx="0" cy="0" r="1" gradientUnits="userSpaceOnUse" gradientTransform="translate(360.501 98.0461) scale(97.7442 97.7261)">
<stop stop-color="#FFF48F"/>
<stop offset="1"/>
</radialGradient>
<radialGradient id="paint37_radial_575_5793" cx="0" cy="0" r="1" gradientUnits="userSpaceOnUse" gradientTransform="translate(363.79 75.825) scale(52.1605 52.1509)">
<stop stop-color="white"/>
<stop offset="1" stop-color="#BA5700"/>
</radialGradient>
<radialGradient id="paint38_radial_575_5793" cx="0" cy="0" r="1" gradientUnits="userSpaceOnUse" gradientTransform="translate(289.858 80.133) scale(45.5837 45.5753)">
<stop stop-color="white"/>
<stop offset="1" stop-color="#BA5700"/>
</radialGradient>
<radialGradient id="paint39_radial_575_5793" cx="0" cy="0" r="1" gradientUnits="userSpaceOnUse" gradientTransform="translate(316.62 80.1328) scale(52.7275 52.7177)">
<stop stop-color="#FCDC0D"/>
<stop offset="1" stop-color="#F78A0C"/>
</radialGradient>
<radialGradient id="paint40_radial_575_5793" cx="0" cy="0" r="1" gradientUnits="userSpaceOnUse" gradientTransform="translate(326.937 76.9589) scale(45.1302 45.1218)">
<stop stop-color="#FFF48F"/>
<stop offset="1"/>
</radialGradient>
</defs>
</svg>
