<svg width="1143" height="155" viewBox="0 0 1143 155" fill="none" xmlns="http://www.w3.org/2000/svg">
<path d="M7.98 23C8.08 18.94 8.13 14.94 8.13 11V4.16H0.81V2H17.61V4.16H10.29V11C10.29 16.56 10.33 20.56 10.41 23H7.98ZM31.4545 16.04H19.0645C19.1645 17.66 19.7545 18.98 20.8345 20C21.9145 21 23.3445 21.5 25.1245 21.5C26.5445 21.5 27.6745 21.28 28.5145 20.84C29.3545 20.4 30.0145 19.72 30.4945 18.8L30.2245 21.05C30.1445 21.55 29.9745 21.91 29.7145 22.13C28.5945 23.07 27.0345 23.54 25.0345 23.54C23.3345 23.54 21.8745 23.18 20.6545 22.46C19.4345 21.74 18.5045 20.77 17.8645 19.55C17.2245 18.33 16.9045 16.98 16.9045 15.5C16.9045 13.92 17.2245 12.52 17.8645 11.3C18.5245 10.08 19.4245 9.14 20.5645 8.48C21.7245 7.8 23.0145 7.46 24.4345 7.46C26.0145 7.46 27.3245 7.82 28.3645 8.54C29.4245 9.24 30.2045 10.17 30.7045 11.33C31.2045 12.47 31.4545 13.69 31.4545 14.99V16.04ZM29.2645 14.18C29.2245 12.78 28.7645 11.64 27.8845 10.76C27.0045 9.88 25.8545 9.44 24.4345 9.44C22.9945 9.44 21.8045 9.86 20.8645 10.7C19.9245 11.52 19.3445 12.68 19.1245 14.18H29.2645ZM34.556 23C34.616 19.78 34.646 16.04 34.646 11.78C34.646 7.42 34.616 3.68 34.556 0.559999H36.866C36.826 2.64 36.806 6.38 36.806 11.78C36.806 17.18 36.826 20.92 36.866 23H34.556ZM54.5698 16.04H42.1798C42.2798 17.66 42.8698 18.98 43.9498 20C45.0298 21 46.4598 21.5 48.2398 21.5C49.6598 21.5 50.7898 21.28 51.6298 20.84C52.4698 20.4 53.1298 19.72 53.6098 18.8L53.3398 21.05C53.2598 21.55 53.0898 21.91 52.8298 22.13C51.7098 23.07 50.1498 23.54 48.1498 23.54C46.4498 23.54 44.9898 23.18 43.7698 22.46C42.5498 21.74 41.6198 20.77 40.9798 19.55C40.3398 18.33 40.0198 16.98 40.0198 15.5C40.0198 13.92 40.3398 12.52 40.9798 11.3C41.6398 10.08 42.5398 9.14 43.6798 8.48C44.8398 7.8 46.1298 7.46 47.5498 7.46C49.1298 7.46 50.4398 7.82 51.4798 8.54C52.5398 9.24 53.3198 10.17 53.8198 11.33C54.3198 12.47 54.5698 13.69 54.5698 14.99V16.04ZM52.3798 14.18C52.3398 12.78 51.8798 11.64 50.9998 10.76C50.1198 9.88 48.9698 9.44 47.5498 9.44C46.1098 9.44 44.9198 9.86 43.9798 10.7C43.0398 11.52 42.4598 12.68 42.2398 14.18H52.3798ZM58.3313 23C58.3913 21.36 58.4213 18.72 58.4213 15.08V9.92H56.4713V8H58.4213V5.93C58.4213 4.15 58.8613 2.75 59.7412 1.73C60.6213 0.709998 61.8813 0.199998 63.5213 0.199998C64.3013 0.199998 65.0113 0.359999 65.6513 0.679999C66.2113 0.979999 66.5013 1.38 66.5213 1.88L66.6713 4.58C66.4113 3.82 66.0113 3.23 65.4713 2.81C64.9313 2.39 64.2913 2.18 63.5513 2.18C62.6113 2.18 61.8813 2.5 61.3613 3.14C60.8413 3.76 60.5813 4.67 60.5813 5.87V8H64.2113V9.92H60.5813V15.08C60.5813 18.72 60.6013 21.36 60.6413 23H58.3313ZM73.2738 23.54C71.8138 23.54 70.5038 23.2 69.3438 22.52C68.2038 21.82 67.3038 20.86 66.6438 19.64C66.0038 18.42 65.6838 17.04 65.6838 15.5C65.6838 13.96 66.0038 12.58 66.6438 11.36C67.3038 10.14 68.2038 9.19 69.3438 8.51C70.5038 7.81 71.8138 7.46 73.2738 7.46C74.7338 7.46 76.0338 7.81 77.1738 8.51C78.3338 9.19 79.2338 10.14 79.8738 11.36C80.5338 12.58 80.8638 13.96 80.8638 15.5C80.8638 17.04 80.5338 18.42 79.8738 19.64C79.2338 20.86 78.3338 21.82 77.1738 22.52C76.0338 23.2 74.7338 23.54 73.2738 23.54ZM73.2738 21.56C74.2938 21.56 75.2038 21.31 76.0038 20.81C76.8238 20.29 77.4638 19.57 77.9238 18.65C78.4038 17.73 78.6438 16.68 78.6438 15.5C78.6438 14.32 78.4038 13.27 77.9238 12.35C77.4638 11.43 76.8238 10.72 76.0038 10.22C75.2038 9.7 74.2938 9.44 73.2738 9.44C72.2538 9.44 71.3338 9.7 70.5138 10.22C69.7138 10.72 69.0738 11.43 68.5938 12.35C68.1338 13.27 67.9038 14.32 67.9038 15.5C67.9038 16.68 68.1338 17.73 68.5938 18.65C69.0738 19.57 69.7138 20.29 70.5138 20.81C71.3338 21.31 72.2538 21.56 73.2738 21.56ZM84.0091 23C84.0691 20.38 84.0991 17.88 84.0991 15.5C84.0991 13.14 84.0691 10.64 84.0091 8H86.2891L86.2291 11.42C86.5891 10.18 87.2091 9.21 88.0891 8.51C88.9691 7.81 90.1191 7.46 91.5391 7.46C93.2591 7.46 94.5791 7.98 95.4991 9.02C96.4191 10.04 96.8791 11.5 96.8791 13.4V15.5C96.8791 18.8 96.8991 21.3 96.9391 23H94.6591C94.6991 21.26 94.7191 18.76 94.7191 15.5V13.88C94.7191 12.48 94.3891 11.42 93.7291 10.7C93.0891 9.98 92.1791 9.62 90.9991 9.62C89.7591 9.62 88.7191 10.02 87.8791 10.82C87.0591 11.62 86.5091 12.66 86.2291 13.94V15.5C86.2291 18.8 86.2591 21.3 86.3191 23H84.0091ZM107.302 23C107.402 20.14 107.452 16.64 107.452 12.5C107.452 8.34 107.402 4.84 107.302 2H110.122C111.902 5.06 114.792 9.75 118.792 16.07L121.132 19.82V12.2C121.132 8.24 121.082 4.84 120.982 2H123.352C123.272 5.04 123.232 8.54 123.232 12.5C123.232 17.22 123.272 20.72 123.352 23H120.562C119.342 20.92 116.532 16.39 112.132 9.41L109.552 5.33V12.8C109.552 16.74 109.602 20.14 109.702 23H107.302ZM132.652 23.54C130.952 23.54 129.632 23.03 128.692 22.01C127.772 20.97 127.312 19.5 127.312 17.6V15.5C127.312 13.04 127.282 10.54 127.222 8H129.532C129.472 9.74 129.442 12.24 129.442 15.5V17.12C129.442 18.52 129.762 19.58 130.402 20.3C131.042 21.02 131.962 21.38 133.162 21.38C134.422 21.38 135.462 20.99 136.282 20.21C137.102 19.41 137.652 18.36 137.932 17.06V15.5C137.932 12.2 137.912 9.7 137.872 8H140.152C140.112 9.74 140.092 12.24 140.092 15.5C140.092 18.74 140.112 21.24 140.152 23H137.872L137.932 19.61C137.572 20.83 136.952 21.79 136.072 22.49C135.212 23.19 134.072 23.54 132.652 23.54ZM143.921 23C143.981 20.38 144.011 17.88 144.011 15.5C144.011 13.14 143.981 10.64 143.921 8H146.201L146.141 11.42C146.361 10.2 146.891 9.24 147.731 8.54C148.591 7.82 149.671 7.46 150.971 7.46C152.191 7.46 153.201 7.8 154.001 8.48C154.801 9.16 155.321 10.13 155.561 11.39C155.881 10.13 156.461 9.16 157.301 8.48C158.161 7.8 159.211 7.46 160.451 7.46C161.911 7.46 163.061 7.92 163.901 8.84C164.761 9.76 165.191 11.07 165.191 12.77V15.5C165.191 17.94 165.221 20.44 165.281 23H162.971C163.031 21.26 163.061 18.76 163.061 15.5V13.34C163.061 12.12 162.771 11.2 162.191 10.58C161.631 9.94 160.791 9.62 159.671 9.62C158.611 9.62 157.741 10.01 157.061 10.79C156.381 11.57 155.921 12.6 155.681 13.88V15.5C155.681 18.8 155.701 21.3 155.741 23H153.461C153.501 21.26 153.521 18.76 153.521 15.5V13.31C153.521 12.09 153.231 11.17 152.651 10.55C152.091 9.93 151.251 9.62 150.131 9.62C149.071 9.62 148.201 10.02 147.521 10.82C146.841 11.6 146.381 12.64 146.141 13.94V15.5C146.141 18.8 146.171 21.3 146.231 23H143.921ZM173.438 23.54C172.058 23.54 170.908 23.12 169.988 22.28C169.088 21.42 168.638 20.3 168.638 18.92C168.638 17.46 169.148 16.34 170.168 15.56C171.208 14.76 172.618 14.36 174.398 14.36C175.858 14.36 176.968 14.19 177.728 13.85C178.488 13.49 178.868 12.88 178.868 12.02C178.868 11.22 178.548 10.59 177.908 10.13C177.288 9.67 176.298 9.44 174.938 9.44C173.758 9.44 172.638 9.79 171.578 10.49C170.538 11.19 169.688 12.24 169.028 13.64L169.238 10.76C169.258 10.44 169.388 10.14 169.628 9.86C170.168 9.18 170.908 8.61 171.848 8.15C172.788 7.69 173.888 7.46 175.148 7.46C176.988 7.46 178.428 7.93 179.468 8.87C180.528 9.79 181.058 11.14 181.058 12.92L181.028 16.19C181.008 16.67 180.998 17.26 180.998 17.96C180.998 20.06 181.018 21.74 181.058 23H178.838L178.898 19.76C178.478 20.94 177.828 21.87 176.948 22.55C176.088 23.21 174.918 23.54 173.438 23.54ZM173.978 21.53C175.698 21.53 176.948 20.99 177.728 19.91C178.508 18.81 178.898 16.99 178.898 14.45C178.518 15.17 177.978 15.66 177.278 15.92C176.578 16.16 175.568 16.28 174.248 16.28C173.208 16.28 172.378 16.52 171.758 17C171.158 17.46 170.858 18.11 170.858 18.95C170.858 19.79 171.138 20.43 171.698 20.87C172.278 21.31 173.038 21.53 173.978 21.53ZM184.79 23C184.85 20.38 184.88 17.88 184.88 15.5C184.88 13.14 184.85 10.64 184.79 8H187.1L187.04 11.36C187.42 10.14 188.04 9.19 188.9 8.51C189.78 7.81 190.9 7.46 192.26 7.46C192.76 7.46 193.2 7.52 193.58 7.64C193.98 7.74 194.38 7.92 194.78 8.18C195.12 8.42 195.3 8.73 195.32 9.11L195.5 12.08C195.14 11.26 194.65 10.66 194.03 10.28C193.43 9.88 192.66 9.68 191.72 9.68C190.46 9.68 189.43 10.07 188.63 10.85C187.85 11.63 187.32 12.68 187.04 14V15.5C187.04 18.8 187.06 21.3 187.1 23H184.79ZM202.266 23.54C200.886 23.54 199.736 23.12 198.816 22.28C197.916 21.42 197.466 20.3 197.466 18.92C197.466 17.46 197.976 16.34 198.996 15.56C200.036 14.76 201.446 14.36 203.226 14.36C204.686 14.36 205.796 14.19 206.556 13.85C207.316 13.49 207.696 12.88 207.696 12.02C207.696 11.22 207.376 10.59 206.736 10.13C206.116 9.67 205.126 9.44 203.766 9.44C202.586 9.44 201.466 9.79 200.406 10.49C199.366 11.19 198.516 12.24 197.856 13.64L198.066 10.76C198.086 10.44 198.216 10.14 198.456 9.86C198.996 9.18 199.736 8.61 200.676 8.15C201.616 7.69 202.716 7.46 203.976 7.46C205.816 7.46 207.256 7.93 208.296 8.87C209.356 9.79 209.886 11.14 209.886 12.92L209.856 16.19C209.836 16.67 209.826 17.26 209.826 17.96C209.826 20.06 209.846 21.74 209.886 23H207.666L207.726 19.76C207.306 20.94 206.656 21.87 205.776 22.55C204.916 23.21 203.746 23.54 202.266 23.54ZM202.806 21.53C204.526 21.53 205.776 20.99 206.556 19.91C207.336 18.81 207.726 16.99 207.726 14.45C207.346 15.17 206.806 15.66 206.106 15.92C205.406 16.16 204.396 16.28 203.076 16.28C202.036 16.28 201.206 16.52 200.586 17C199.986 17.46 199.686 18.11 199.686 18.95C199.686 19.79 199.966 20.43 200.526 20.87C201.106 21.31 201.866 21.53 202.806 21.53ZM219.139 23.54C217.059 23.54 215.319 23.05 213.919 22.07C213.759 21.95 213.629 21.82 213.529 21.68C213.449 21.54 213.399 21.35 213.379 21.11L213.109 18.11C214.349 20.39 216.319 21.53 219.019 21.53C220.259 21.53 221.199 21.29 221.839 20.81C222.499 20.31 222.829 19.67 222.829 18.89C222.829 18.17 222.609 17.63 222.169 17.27C221.729 16.91 221.019 16.64 220.039 16.46L217.039 15.89C215.839 15.65 214.859 15.18 214.099 14.48C213.359 13.76 212.989 12.87 212.989 11.81C212.989 10.45 213.529 9.39 214.609 8.63C215.709 7.85 217.029 7.46 218.569 7.46C219.649 7.46 220.549 7.56 221.269 7.76C221.989 7.96 222.679 8.27 223.339 8.69C223.599 8.85 223.749 9.11 223.789 9.47L224.089 12.14C223.529 11.3 222.799 10.64 221.899 10.16C220.999 9.66 219.929 9.41 218.689 9.41C217.649 9.41 216.809 9.62 216.169 10.04C215.529 10.44 215.209 10.99 215.209 11.69C215.209 12.31 215.419 12.79 215.839 13.13C216.259 13.47 216.899 13.73 217.759 13.91L221.029 14.6C222.409 14.9 223.429 15.36 224.089 15.98C224.749 16.6 225.079 17.5 225.079 18.68C225.079 20.18 224.509 21.37 223.369 22.25C222.249 23.11 220.839 23.54 219.139 23.54ZM228.179 23C228.239 20.38 228.269 17.88 228.269 15.5C228.269 13.14 228.239 10.64 228.179 8H230.489C230.449 9.76 230.429 12.26 230.429 15.5C230.429 18.8 230.449 21.3 230.489 23H228.179ZM235.353 23.33C234.873 23.33 234.453 23.15 234.093 22.79C233.733 22.43 233.553 22.01 233.553 21.53C233.553 21.03 233.733 20.61 234.093 20.27C234.453 19.91 234.873 19.73 235.353 19.73C235.853 19.73 236.273 19.91 236.613 20.27C236.973 20.61 237.153 21.03 237.153 21.53C237.153 22.01 236.973 22.43 236.613 22.79C236.273 23.15 235.853 23.33 235.353 23.33ZM235.353 11.27C234.873 11.27 234.453 11.09 234.093 10.73C233.733 10.37 233.553 9.95 233.553 9.47C233.553 8.97 233.733 8.55 234.093 8.21C234.453 7.85 234.873 7.67 235.353 7.67C235.853 7.67 236.273 7.85 236.613 8.21C236.973 8.55 237.153 8.97 237.153 9.47C237.153 9.95 236.973 10.37 236.613 10.73C236.273 11.09 235.853 11.27 235.353 11.27Z" fill="#1B1B19"/>
<rect x="1" y="56" width="1141" height="98" rx="44" fill="#F9F4F4" fill-opacity="0.25" stroke="#D9D9D9" stroke-width="2"/>
</svg>
