<svg width="1143" height="155" viewBox="0 0 1143 155" fill="none" xmlns="http://www.w3.org/2000/svg">
<path d="M1.9627 23C2.0627 20.14 2.1127 16.64 2.1127 12.5C2.1127 8.34 2.0627 4.84 1.9627 2H15.1627V4.16H4.3327C4.2927 6.84 4.2727 9.26 4.2727 11.42H14.3227V13.58H4.2727C4.2727 15.74 4.2927 18.16 4.3327 20.84H15.6427V23H1.9627ZM18.5614 13.28C20.5614 13.32 22.0814 13.34 23.1214 13.34C24.2014 13.34 25.7214 13.32 27.6814 13.28V15.32C25.7214 15.28 24.2014 15.26 23.1214 15.26C22.0814 15.26 20.5614 15.28 18.5614 15.32V13.28ZM31.0545 23C31.1545 20.14 31.2045 16.64 31.2045 12.5C31.2045 8.34 31.1545 4.84 31.0545 2H39.1245C41.2245 2 42.8745 2.5 44.0745 3.5C45.2945 4.5 45.9045 5.95 45.9045 7.85C45.9045 9.75 45.2945 11.2 44.0745 12.2C42.8745 13.2 41.2245 13.7 39.1245 13.7H33.3645C33.3645 16.84 33.4145 19.94 33.5145 23H31.0545ZM38.9745 11.54C40.4345 11.54 41.5545 11.26 42.3345 10.7C43.1145 10.14 43.5045 9.19 43.5045 7.85C43.5045 6.53 43.1045 5.59 42.3045 5.03C41.5245 4.45 40.4145 4.16 38.9745 4.16H33.4245C33.3845 5.5 33.3645 7.96 33.3645 11.54H38.9745ZM54.976 23.54C53.516 23.54 52.206 23.2 51.046 22.52C49.906 21.82 49.006 20.86 48.346 19.64C47.706 18.42 47.386 17.04 47.386 15.5C47.386 13.96 47.706 12.58 48.346 11.36C49.006 10.14 49.906 9.19 51.046 8.51C52.206 7.81 53.516 7.46 54.976 7.46C56.436 7.46 57.736 7.81 58.876 8.51C60.036 9.19 60.936 10.14 61.576 11.36C62.236 12.58 62.566 13.96 62.566 15.5C62.566 17.04 62.236 18.42 61.576 19.64C60.936 20.86 60.036 21.82 58.876 22.52C57.736 23.2 56.436 23.54 54.976 23.54ZM54.976 21.56C55.996 21.56 56.906 21.31 57.706 20.81C58.526 20.29 59.166 19.57 59.626 18.65C60.106 17.73 60.346 16.68 60.346 15.5C60.346 14.32 60.106 13.27 59.626 12.35C59.166 11.43 58.526 10.72 57.706 10.22C56.906 9.7 55.996 9.44 54.976 9.44C53.956 9.44 53.036 9.7 52.216 10.22C51.416 10.72 50.776 11.43 50.296 12.35C49.836 13.27 49.606 14.32 49.606 15.5C49.606 16.68 49.836 17.73 50.296 18.65C50.776 19.57 51.416 20.29 52.216 20.81C53.036 21.31 53.956 21.56 54.976 21.56ZM71.2313 23.54C69.1513 23.54 67.4113 23.05 66.0113 22.07C65.8513 21.95 65.7213 21.82 65.6213 21.68C65.5413 21.54 65.4913 21.35 65.4713 21.11L65.2013 18.11C66.4413 20.39 68.4113 21.53 71.1113 21.53C72.3513 21.53 73.2913 21.29 73.9313 20.81C74.5913 20.31 74.9213 19.67 74.9213 18.89C74.9213 18.17 74.7013 17.63 74.2613 17.27C73.8213 16.91 73.1113 16.64 72.1313 16.46L69.1313 15.89C67.9313 15.65 66.9513 15.18 66.1913 14.48C65.4513 13.76 65.0813 12.87 65.0813 11.81C65.0813 10.45 65.6213 9.39 66.7013 8.63C67.8013 7.85 69.1213 7.46 70.6613 7.46C71.7413 7.46 72.6413 7.56 73.3613 7.76C74.0813 7.96 74.7713 8.27 75.4313 8.69C75.6913 8.85 75.8413 9.11 75.8813 9.47L76.1813 12.14C75.6213 11.3 74.8913 10.64 73.9913 10.16C73.0913 9.66 72.0213 9.41 70.7813 9.41C69.7413 9.41 68.9013 9.62 68.2613 10.04C67.6213 10.44 67.3013 10.99 67.3013 11.69C67.3013 12.31 67.5113 12.79 67.9313 13.13C68.3513 13.47 68.9913 13.73 69.8513 13.91L73.1213 14.6C74.5013 14.9 75.5213 15.36 76.1813 15.98C76.8413 16.6 77.1713 17.5 77.1713 18.68C77.1713 20.18 76.6013 21.37 75.4613 22.25C74.3413 23.11 72.9313 23.54 71.2313 23.54ZM86.378 23.54C84.698 23.54 83.348 22.99 82.328 21.89C81.308 20.77 80.798 19.17 80.798 17.09C80.798 14.71 80.818 12.32 80.858 9.92H78.338V8H80.858C80.858 7.16 80.848 6.55 80.828 6.17C80.828 5.43 80.808 4.04 80.768 2H83.138C83.098 2.96 83.078 4.27 83.078 5.93C83.058 6.35 83.048 7.04 83.048 8H89.468V9.92H83.048V17.09C83.048 18.51 83.358 19.6 83.978 20.36C84.618 21.12 85.558 21.5 86.798 21.5C87.498 21.5 88.148 21.33 88.748 20.99C89.368 20.63 89.868 20.08 90.248 19.34L90.038 21.71C90.018 21.97 89.968 22.17 89.888 22.31C89.828 22.43 89.708 22.56 89.528 22.7C89.148 22.98 88.718 23.19 88.238 23.33C87.758 23.47 87.138 23.54 86.378 23.54ZM97.1909 23.54C95.8109 23.54 94.6609 23.12 93.7409 22.28C92.8409 21.42 92.3909 20.3 92.3909 18.92C92.3909 17.46 92.9009 16.34 93.9209 15.56C94.9609 14.76 96.3709 14.36 98.1509 14.36C99.6109 14.36 100.721 14.19 101.481 13.85C102.241 13.49 102.621 12.88 102.621 12.02C102.621 11.22 102.301 10.59 101.661 10.13C101.041 9.67 100.051 9.44 98.6909 9.44C97.5109 9.44 96.3909 9.79 95.3309 10.49C94.2909 11.19 93.4409 12.24 92.7809 13.64L92.9909 10.76C93.0109 10.44 93.1409 10.14 93.3809 9.86C93.9209 9.18 94.6609 8.61 95.6009 8.15C96.5409 7.69 97.6409 7.46 98.9009 7.46C100.741 7.46 102.181 7.93 103.221 8.87C104.281 9.79 104.811 11.14 104.811 12.92L104.781 16.19C104.761 16.67 104.751 17.26 104.751 17.96C104.751 20.06 104.771 21.74 104.811 23H102.591L102.651 19.76C102.231 20.94 101.581 21.87 100.701 22.55C99.8409 23.21 98.6709 23.54 97.1909 23.54ZM97.7309 21.53C99.4509 21.53 100.701 20.99 101.481 19.91C102.261 18.81 102.651 16.99 102.651 14.45C102.271 15.17 101.731 15.66 101.031 15.92C100.331 16.16 99.3209 16.28 98.0009 16.28C96.9609 16.28 96.1309 16.52 95.5109 17C94.9109 17.46 94.6109 18.11 94.6109 18.95C94.6109 19.79 94.8909 20.43 95.4509 20.87C96.0309 21.31 96.7909 21.53 97.7309 21.53ZM131.607 23L130.917 21.26C130.157 19.32 129.657 18.06 129.417 17.48H118.317C117.317 20 116.597 21.84 116.157 23H113.547C115.447 18.66 116.927 15.22 117.987 12.68C119.067 10.14 120.447 6.8 122.127 2.66L122.397 2H125.367C126.987 6 128.357 9.34 129.477 12.02C130.597 14.7 132.177 18.36 134.217 23H131.607ZM128.547 15.32C126.807 11.06 125.247 7.33 123.867 4.13C122.287 7.79 120.737 11.52 119.217 15.32H128.547ZM142.714 23.54C141.274 23.54 139.994 23.21 138.874 22.55C137.774 21.87 136.914 20.92 136.294 19.7C135.674 18.48 135.364 17.07 135.364 15.47C135.364 13.89 135.674 12.49 136.294 11.27C136.914 10.05 137.764 9.11 138.844 8.45C139.944 7.79 141.204 7.46 142.624 7.46C144.004 7.46 145.184 7.75 146.164 8.33C147.164 8.91 147.884 9.72 148.324 10.76L148.234 0.559999H150.544C150.504 2.64 150.484 6.38 150.484 11.78C150.484 17.14 150.504 20.88 150.544 23H148.234L148.294 20.03C147.874 21.07 147.214 21.92 146.314 22.58C145.414 23.22 144.214 23.54 142.714 23.54ZM142.954 21.53C144.054 21.53 145.004 21.27 145.804 20.75C146.624 20.21 147.244 19.48 147.664 18.56C148.104 17.64 148.324 16.61 148.324 15.47C148.324 14.33 148.104 13.3 147.664 12.38C147.244 11.46 146.624 10.73 145.804 10.19C145.004 9.65 144.054 9.38 142.954 9.38C141.854 9.38 140.894 9.65 140.074 10.19C139.274 10.73 138.654 11.46 138.214 12.38C137.794 13.3 137.584 14.33 137.584 15.47C137.584 16.61 137.794 17.64 138.214 18.56C138.654 19.48 139.274 20.21 140.074 20.75C140.894 21.27 141.854 21.53 142.954 21.53ZM154.334 23C154.394 20.38 154.424 17.88 154.424 15.5C154.424 13.14 154.394 10.64 154.334 8H156.644L156.584 11.36C156.964 10.14 157.584 9.19 158.444 8.51C159.324 7.81 160.444 7.46 161.804 7.46C162.304 7.46 162.744 7.52 163.124 7.64C163.524 7.74 163.924 7.92 164.324 8.18C164.664 8.42 164.844 8.73 164.864 9.11L165.044 12.08C164.684 11.26 164.194 10.66 163.574 10.28C162.974 9.88 162.204 9.68 161.264 9.68C160.004 9.68 158.974 10.07 158.174 10.85C157.394 11.63 156.864 12.68 156.584 14V15.5C156.584 18.8 156.604 21.3 156.644 23H154.334ZM181.174 16.04H168.784C168.884 17.66 169.474 18.98 170.554 20C171.634 21 173.064 21.5 174.844 21.5C176.264 21.5 177.394 21.28 178.234 20.84C179.074 20.4 179.734 19.72 180.214 18.8L179.944 21.05C179.864 21.55 179.694 21.91 179.434 22.13C178.314 23.07 176.754 23.54 174.754 23.54C173.054 23.54 171.594 23.18 170.374 22.46C169.154 21.74 168.224 20.77 167.584 19.55C166.944 18.33 166.624 16.98 166.624 15.5C166.624 13.92 166.944 12.52 167.584 11.3C168.244 10.08 169.144 9.14 170.284 8.48C171.444 7.8 172.734 7.46 174.154 7.46C175.734 7.46 177.044 7.82 178.084 8.54C179.144 9.24 179.924 10.17 180.424 11.33C180.924 12.47 181.174 13.69 181.174 14.99V16.04ZM178.984 14.18C178.944 12.78 178.484 11.64 177.604 10.76C176.724 9.88 175.574 9.44 174.154 9.44C172.714 9.44 171.524 9.86 170.584 10.7C169.644 11.52 169.064 12.68 168.844 14.18H178.984ZM189.796 23.54C187.716 23.54 185.976 23.05 184.576 22.07C184.416 21.95 184.286 21.82 184.186 21.68C184.106 21.54 184.056 21.35 184.036 21.11L183.766 18.11C185.006 20.39 186.976 21.53 189.676 21.53C190.916 21.53 191.856 21.29 192.496 20.81C193.156 20.31 193.486 19.67 193.486 18.89C193.486 18.17 193.266 17.63 192.826 17.27C192.386 16.91 191.676 16.64 190.696 16.46L187.696 15.89C186.496 15.65 185.516 15.18 184.756 14.48C184.016 13.76 183.646 12.87 183.646 11.81C183.646 10.45 184.186 9.39 185.266 8.63C186.366 7.85 187.686 7.46 189.226 7.46C190.306 7.46 191.206 7.56 191.926 7.76C192.646 7.96 193.336 8.27 193.996 8.69C194.256 8.85 194.406 9.11 194.446 9.47L194.746 12.14C194.186 11.3 193.456 10.64 192.556 10.16C191.656 9.66 190.586 9.41 189.346 9.41C188.306 9.41 187.466 9.62 186.826 10.04C186.186 10.44 185.866 10.99 185.866 11.69C185.866 12.31 186.076 12.79 186.496 13.13C186.916 13.47 187.556 13.73 188.416 13.91L191.686 14.6C193.066 14.9 194.086 15.36 194.746 15.98C195.406 16.6 195.736 17.5 195.736 18.68C195.736 20.18 195.166 21.37 194.026 22.25C192.906 23.11 191.496 23.54 189.796 23.54ZM200.006 4.88C199.506 4.88 199.076 4.7 198.716 4.34C198.376 3.98 198.206 3.56 198.206 3.08C198.206 2.6 198.376 2.18 198.716 1.82C199.076 1.46 199.506 1.28 200.006 1.28C200.486 1.28 200.906 1.46 201.266 1.82C201.626 2.18 201.806 2.6 201.806 3.08C201.806 3.56 201.626 3.98 201.266 4.34C200.906 4.7 200.486 4.88 200.006 4.88ZM198.836 23C198.896 20.38 198.926 17.88 198.926 15.5C198.926 13.14 198.896 10.64 198.836 8H201.146C201.106 9.76 201.086 12.26 201.086 15.5C201.086 18.8 201.106 21.3 201.146 23H198.836ZM206.01 23.33C205.53 23.33 205.11 23.15 204.75 22.79C204.39 22.43 204.21 22.01 204.21 21.53C204.21 21.03 204.39 20.61 204.75 20.27C205.11 19.91 205.53 19.73 206.01 19.73C206.51 19.73 206.93 19.91 207.27 20.27C207.63 20.61 207.81 21.03 207.81 21.53C207.81 22.01 207.63 22.43 207.27 22.79C206.93 23.15 206.51 23.33 206.01 23.33ZM206.01 11.27C205.53 11.27 205.11 11.09 204.75 10.73C204.39 10.37 204.21 9.95 204.21 9.47C204.21 8.97 204.39 8.55 204.75 8.21C205.11 7.85 205.53 7.67 206.01 7.67C206.51 7.67 206.93 7.85 207.27 8.21C207.63 8.55 207.81 8.97 207.81 9.47C207.81 9.95 207.63 10.37 207.27 10.73C206.93 11.09 206.51 11.27 206.01 11.27Z" fill="#1B1B19"/>
<rect x="1" y="56" width="1141" height="98" rx="44" fill="#F9F4F4" fill-opacity="0.25" stroke="#D9D9D9" stroke-width="2"/>
</svg>
