<svg width="1143" height="155" viewBox="0 0 1143 155" fill="none" xmlns="http://www.w3.org/2000/svg">
<path d="M1.95 23C2.05 20.14 2.1 16.64 2.1 12.5C2.1 8.34 2.05 4.84 1.95 2H15.24V4.16H4.32C4.28 6.84 4.26 9.26 4.26 11.42H14.04V13.58H4.26C4.26 15.58 4.27 17.27 4.29 18.65C4.31 20.01 4.35 21.46 4.41 23H1.95ZM19.8178 4.88C19.3178 4.88 18.8878 4.7 18.5278 4.34C18.1878 3.98 18.0178 3.56 18.0178 3.08C18.0178 2.6 18.1878 2.18 18.5278 1.82C18.8878 1.46 19.3178 1.28 19.8178 1.28C20.2978 1.28 20.7178 1.46 21.0778 1.82C21.4378 2.18 21.6178 2.6 21.6178 3.08C21.6178 3.56 21.4378 3.98 21.0778 4.34C20.7178 4.7 20.2978 4.88 19.8178 4.88ZM18.6478 23C18.7078 20.38 18.7378 17.88 18.7378 15.5C18.7378 13.14 18.7078 10.64 18.6478 8H20.9578C20.9178 9.76 20.8978 12.26 20.8978 15.5C20.8978 18.8 20.9178 21.3 20.9578 23H18.6478ZM24.7416 23C24.8016 20.38 24.8316 17.88 24.8316 15.5C24.8316 13.14 24.8016 10.64 24.7416 8H27.0516L26.9916 11.36C27.3716 10.14 27.9916 9.19 28.8516 8.51C29.7316 7.81 30.8516 7.46 32.2116 7.46C32.7116 7.46 33.1516 7.52 33.5316 7.64C33.9316 7.74 34.3316 7.92 34.7316 8.18C35.0716 8.42 35.2516 8.73 35.2716 9.11L35.4516 12.08C35.0916 11.26 34.6016 10.66 33.9816 10.28C33.3816 9.88 32.6116 9.68 31.6716 9.68C30.4116 9.68 29.3816 10.07 28.5816 10.85C27.8016 11.63 27.2716 12.68 26.9916 14V15.5C26.9916 18.8 27.0116 21.3 27.0516 23H24.7416ZM38.3353 23C38.3953 20.38 38.4253 17.88 38.4253 15.5C38.4253 13.14 38.3953 10.64 38.3353 8H40.6153L40.5553 11.42C40.7753 10.2 41.3053 9.24 42.1453 8.54C43.0053 7.82 44.0853 7.46 45.3853 7.46C46.6053 7.46 47.6153 7.8 48.4153 8.48C49.2153 9.16 49.7353 10.13 49.9753 11.39C50.2953 10.13 50.8753 9.16 51.7153 8.48C52.5753 7.8 53.6253 7.46 54.8653 7.46C56.3253 7.46 57.4753 7.92 58.3153 8.84C59.1753 9.76 59.6053 11.07 59.6053 12.77V15.5C59.6053 17.94 59.6353 20.44 59.6953 23H57.3853C57.4453 21.26 57.4753 18.76 57.4753 15.5V13.34C57.4753 12.12 57.1853 11.2 56.6053 10.58C56.0453 9.94 55.2053 9.62 54.0853 9.62C53.0253 9.62 52.1553 10.01 51.4753 10.79C50.7953 11.57 50.3353 12.6 50.0953 13.88V15.5C50.0953 18.8 50.1153 21.3 50.1553 23H47.8753C47.9153 21.26 47.9353 18.76 47.9353 15.5V13.31C47.9353 12.09 47.6453 11.17 47.0653 10.55C46.5053 9.93 45.6653 9.62 44.5453 9.62C43.4853 9.62 42.6153 10.02 41.9353 10.82C41.2553 11.6 40.7953 12.64 40.5553 13.94V15.5C40.5553 18.8 40.5853 21.3 40.6453 23H38.3353ZM67.852 23.54C66.472 23.54 65.322 23.12 64.402 22.28C63.502 21.42 63.052 20.3 63.052 18.92C63.052 17.46 63.562 16.34 64.582 15.56C65.622 14.76 67.032 14.36 68.812 14.36C70.272 14.36 71.382 14.19 72.142 13.85C72.902 13.49 73.282 12.88 73.282 12.02C73.282 11.22 72.962 10.59 72.322 10.13C71.702 9.67 70.712 9.44 69.352 9.44C68.172 9.44 67.052 9.79 65.992 10.49C64.952 11.19 64.102 12.24 63.442 13.64L63.652 10.76C63.672 10.44 63.802 10.14 64.042 9.86C64.582 9.18 65.322 8.61 66.262 8.15C67.202 7.69 68.302 7.46 69.562 7.46C71.402 7.46 72.842 7.93 73.882 8.87C74.942 9.79 75.472 11.14 75.472 12.92L75.442 16.19C75.422 16.67 75.412 17.26 75.412 17.96C75.412 20.06 75.432 21.74 75.472 23H73.252L73.312 19.76C72.892 20.94 72.242 21.87 71.362 22.55C70.502 23.21 69.332 23.54 67.852 23.54ZM68.392 21.53C70.112 21.53 71.362 20.99 72.142 19.91C72.922 18.81 73.312 16.99 73.312 14.45C72.932 15.17 72.392 15.66 71.692 15.92C70.992 16.16 69.982 16.28 68.662 16.28C67.622 16.28 66.792 16.52 66.172 17C65.572 17.46 65.272 18.11 65.272 18.95C65.272 19.79 65.552 20.43 66.112 20.87C66.692 21.31 67.452 21.53 68.392 21.53ZM102.268 23L101.578 21.26C100.818 19.32 100.318 18.06 100.078 17.48H88.9777C87.9777 20 87.2577 21.84 86.8177 23H84.2077C86.1077 18.66 87.5877 15.22 88.6477 12.68C89.7277 10.14 91.1077 6.8 92.7877 2.66L93.0577 2H96.0277C97.6477 6 99.0177 9.34 100.138 12.02C101.258 14.7 102.838 18.36 104.878 23H102.268ZM99.2077 15.32C97.4677 11.06 95.9077 7.33 94.5277 4.13C92.9477 7.79 91.3977 11.52 89.8777 15.32H99.2077ZM113.376 23.54C111.936 23.54 110.656 23.21 109.536 22.55C108.436 21.87 107.576 20.92 106.956 19.7C106.336 18.48 106.026 17.07 106.026 15.47C106.026 13.89 106.336 12.49 106.956 11.27C107.576 10.05 108.426 9.11 109.506 8.45C110.606 7.79 111.866 7.46 113.286 7.46C114.666 7.46 115.846 7.75 116.826 8.33C117.826 8.91 118.546 9.72 118.986 10.76L118.896 0.559999H121.206C121.166 2.64 121.146 6.38 121.146 11.78C121.146 17.14 121.166 20.88 121.206 23H118.896L118.956 20.03C118.536 21.07 117.876 21.92 116.976 22.58C116.076 23.22 114.876 23.54 113.376 23.54ZM113.616 21.53C114.716 21.53 115.666 21.27 116.466 20.75C117.286 20.21 117.906 19.48 118.326 18.56C118.766 17.64 118.986 16.61 118.986 15.47C118.986 14.33 118.766 13.3 118.326 12.38C117.906 11.46 117.286 10.73 116.466 10.19C115.666 9.65 114.716 9.38 113.616 9.38C112.516 9.38 111.556 9.65 110.736 10.19C109.936 10.73 109.316 11.46 108.876 12.38C108.456 13.3 108.246 14.33 108.246 15.47C108.246 16.61 108.456 17.64 108.876 18.56C109.316 19.48 109.936 20.21 110.736 20.75C111.556 21.27 112.516 21.53 113.616 21.53ZM124.995 23C125.055 20.38 125.085 17.88 125.085 15.5C125.085 13.14 125.055 10.64 124.995 8H127.305C127.265 9.76 127.245 12.26 127.245 15.5C127.245 18.8 127.265 21.3 127.305 23H124.995ZM132.169 23.33C131.689 23.33 131.269 23.15 130.909 22.79C130.549 22.43 130.369 22.01 130.369 21.53C130.369 21.03 130.549 20.61 130.909 20.27C131.269 19.91 131.689 19.73 132.169 19.73C132.669 19.73 133.089 19.91 133.429 20.27C133.789 20.61 133.969 21.03 133.969 21.53C133.969 22.01 133.789 22.43 133.429 22.79C133.089 23.15 132.669 23.33 132.169 23.33ZM132.169 11.27C131.689 11.27 131.269 11.09 130.909 10.73C130.549 10.37 130.369 9.95 130.369 9.47C130.369 8.97 130.549 8.55 130.909 8.21C131.269 7.85 131.689 7.67 132.169 7.67C132.669 7.67 133.089 7.85 133.429 8.21C133.789 8.55 133.969 8.97 133.969 9.47C133.969 9.95 133.789 10.37 133.429 10.73C133.089 11.09 132.669 11.27 132.169 11.27Z" fill="#1B1B19"/>
<rect x="1" y="56" width="1141" height="98" rx="44" fill="#F9F4F4" fill-opacity="0.25" stroke="#D9D9D9" stroke-width="2"/>
</svg>
