<svg width="482" height="90" viewBox="0 0 482 90" fill="none" xmlns="http://www.w3.org/2000/svg">
<rect width="482" height="90" rx="44" fill="#1B1B19"/>
<path d="M143.64 32.76C143.827 33.0533 143.987 33.4533 144.12 33.96C144.28 34.44 144.36 34.9467 144.36 35.48C144.36 36.52 144.133 37.2667 143.68 37.72C143.253 38.1467 142.667 38.36 141.92 38.36H133.52V42.88H142.28C142.493 43.1733 142.667 43.56 142.8 44.04C142.96 44.52 143.04 45.0267 143.04 45.56C143.04 46.5733 142.813 47.3067 142.36 47.76C141.933 48.1867 141.347 48.4 140.6 48.4H133.6V56.84C133.307 56.92 132.84 57 132.2 57.08C131.587 57.16 130.973 57.2 130.36 57.2C129.747 57.2 129.2 57.1467 128.72 57.04C128.267 56.96 127.88 56.8 127.56 56.56C127.24 56.32 127 55.9867 126.84 55.56C126.68 55.1333 126.6 54.5733 126.6 53.88V36.48C126.6 35.3333 126.933 34.4267 127.6 33.76C128.267 33.0933 129.173 32.76 130.32 32.76H143.64ZM166.552 47.28C166.552 48.9333 166.298 50.4133 165.792 51.72C165.285 53 164.565 54.08 163.632 54.96C162.725 55.84 161.632 56.5067 160.352 56.96C159.072 57.4133 157.645 57.64 156.072 57.64C154.498 57.64 153.072 57.4 151.792 56.92C150.512 56.44 149.405 55.76 148.472 54.88C147.565 53.9733 146.858 52.88 146.352 51.6C145.845 50.32 145.592 48.88 145.592 47.28C145.592 45.7067 145.845 44.28 146.352 43C146.858 41.72 147.565 40.64 148.472 39.76C149.405 38.8533 150.512 38.16 151.792 37.68C153.072 37.2 154.498 36.96 156.072 36.96C157.645 36.96 159.072 37.2133 160.352 37.72C161.632 38.2 162.725 38.8933 163.632 39.8C164.565 40.68 165.285 41.76 165.792 43.04C166.298 44.32 166.552 45.7333 166.552 47.28ZM152.552 47.28C152.552 48.9067 152.858 50.16 153.472 51.04C154.112 51.8933 154.992 52.32 156.112 52.32C157.232 52.32 158.085 51.88 158.672 51C159.285 50.12 159.592 48.88 159.592 47.28C159.592 45.68 159.285 44.4533 158.672 43.6C158.058 42.72 157.192 42.28 156.072 42.28C154.952 42.28 154.085 42.72 153.472 43.6C152.858 44.4533 152.552 45.68 152.552 47.28ZM176.669 50.32C176.669 51.0133 176.882 51.5067 177.309 51.8C177.762 52.0933 178.389 52.24 179.189 52.24C179.589 52.24 180.002 52.2133 180.429 52.16C180.856 52.08 181.229 51.9867 181.549 51.88C181.789 52.1733 181.989 52.5067 182.149 52.88C182.336 53.2267 182.429 53.6533 182.429 54.16C182.429 55.1733 182.042 56 181.269 56.64C180.522 57.28 179.189 57.6 177.269 57.6C174.922 57.6 173.109 57.0667 171.829 56C170.576 54.9333 169.949 53.2 169.949 50.8V33.68C170.242 33.6 170.656 33.52 171.189 33.44C171.749 33.3333 172.336 33.28 172.949 33.28C174.122 33.28 175.029 33.4933 175.669 33.92C176.336 34.32 176.669 35.1867 176.669 36.52V39.08H181.909C182.069 39.3733 182.216 39.7467 182.349 40.2C182.509 40.6267 182.589 41.1067 182.589 41.64C182.589 42.5733 182.376 43.2533 181.949 43.68C181.549 44.08 181.002 44.28 180.309 44.28H176.669V50.32ZM205.77 47.28C205.77 48.9333 205.517 50.4133 205.01 51.72C204.504 53 203.784 54.08 202.85 54.96C201.944 55.84 200.85 56.5067 199.57 56.96C198.29 57.4133 196.864 57.64 195.29 57.64C193.717 57.64 192.29 57.4 191.01 56.92C189.73 56.44 188.624 55.76 187.69 54.88C186.784 53.9733 186.077 52.88 185.57 51.6C185.064 50.32 184.81 48.88 184.81 47.28C184.81 45.7067 185.064 44.28 185.57 43C186.077 41.72 186.784 40.64 187.69 39.76C188.624 38.8533 189.73 38.16 191.01 37.68C192.29 37.2 193.717 36.96 195.29 36.96C196.864 36.96 198.29 37.2133 199.57 37.72C200.85 38.2 201.944 38.8933 202.85 39.8C203.784 40.68 204.504 41.76 205.01 43.04C205.517 44.32 205.77 45.7333 205.77 47.28ZM191.77 47.28C191.77 48.9067 192.077 50.16 192.69 51.04C193.33 51.8933 194.21 52.32 195.33 52.32C196.45 52.32 197.304 51.88 197.89 51C198.504 50.12 198.81 48.88 198.81 47.28C198.81 45.68 198.504 44.4533 197.89 43.6C197.277 42.72 196.41 42.28 195.29 42.28C194.17 42.28 193.304 42.72 192.69 43.6C192.077 44.4533 191.77 45.68 191.77 47.28ZM218.568 36.96C220.088 36.96 221.461 37.16 222.688 37.56C223.941 37.9333 224.994 38.4267 225.848 39.04C226.381 39.4133 226.794 39.8267 227.088 40.28C227.408 40.7333 227.568 41.32 227.568 42.04V56.04C227.568 57.4533 227.301 58.6667 226.768 59.68C226.234 60.72 225.501 61.5733 224.568 62.24C223.661 62.9333 222.581 63.44 221.328 63.76C220.101 64.08 218.781 64.24 217.368 64.24C214.941 64.24 213.034 63.9067 211.648 63.24C210.261 62.6 209.568 61.5467 209.568 60.08C209.568 59.4667 209.688 58.92 209.928 58.44C210.194 57.9867 210.488 57.64 210.808 57.4C211.581 57.8267 212.448 58.1867 213.408 58.48C214.394 58.7733 215.408 58.92 216.448 58.92C217.888 58.92 219.034 58.68 219.888 58.2C220.741 57.72 221.168 56.9467 221.168 55.88V55.24C220.074 55.72 218.741 55.96 217.168 55.96C215.968 55.96 214.821 55.7867 213.728 55.44C212.661 55.0667 211.714 54.5067 210.888 53.76C210.088 52.9867 209.434 52 208.928 50.8C208.448 49.6 208.208 48.1733 208.208 46.52C208.208 44.8933 208.461 43.48 208.968 42.28C209.501 41.08 210.221 40.0933 211.128 39.32C212.061 38.52 213.154 37.9333 214.408 37.56C215.688 37.16 217.074 36.96 218.568 36.96ZM221.048 42.76C220.861 42.6533 220.581 42.5467 220.208 42.44C219.861 42.3333 219.421 42.28 218.888 42.28C217.581 42.28 216.594 42.6533 215.928 43.4C215.288 44.12 214.968 45.16 214.968 46.52C214.968 48.0667 215.288 49.1867 215.928 49.88C216.594 50.5467 217.434 50.88 218.448 50.88C219.541 50.88 220.408 50.6267 221.048 50.12V42.76ZM218.288 34.88C216.048 34.88 214.328 34.48 213.128 33.68C211.928 32.8533 211.328 31.84 211.328 30.64C211.328 29.9467 211.581 29.2933 212.088 28.68C212.621 28.0667 213.434 27.76 214.528 27.76C214.661 27.76 214.781 27.76 214.888 27.76C214.994 27.76 215.114 27.7733 215.248 27.8C215.381 28.3867 215.714 28.88 216.248 29.28C216.781 29.68 217.461 29.88 218.288 29.88C219.114 29.88 219.781 29.68 220.288 29.28C220.821 28.88 221.168 28.3867 221.328 27.8C221.461 27.7733 221.581 27.76 221.688 27.76C221.794 27.76 221.914 27.76 222.048 27.76C223.141 27.76 223.941 28.0667 224.448 28.68C224.981 29.2933 225.248 29.9467 225.248 30.64C225.248 31.84 224.648 32.8533 223.448 33.68C222.248 34.48 220.528 34.88 218.288 34.88ZM238.583 56.96C238.316 57.04 237.89 57.12 237.303 57.2C236.743 57.28 236.156 57.32 235.543 57.32C234.956 57.32 234.423 57.28 233.943 57.2C233.49 57.12 233.103 56.96 232.783 56.72C232.463 56.48 232.21 56.16 232.023 55.76C231.863 55.3333 231.783 54.7867 231.783 54.12V42.12C231.783 41.5067 231.89 40.9867 232.103 40.56C232.343 40.1067 232.676 39.7067 233.103 39.36C233.53 39.0133 234.05 38.7067 234.663 38.44C235.303 38.1467 235.983 37.8933 236.703 37.68C237.423 37.4667 238.17 37.3067 238.943 37.2C239.716 37.0667 240.49 37 241.263 37C242.543 37 243.556 37.2533 244.303 37.76C245.05 38.24 245.423 39.04 245.423 40.16C245.423 40.5333 245.37 40.9067 245.263 41.28C245.156 41.6267 245.023 41.9467 244.863 42.24C244.303 42.24 243.73 42.2667 243.143 42.32C242.556 42.3733 241.983 42.4533 241.423 42.56C240.863 42.6667 240.33 42.7867 239.823 42.92C239.343 43.0267 238.93 43.16 238.583 43.32V56.96ZM255.963 52.68C256.416 52.68 256.909 52.64 257.443 52.56C258.003 52.4533 258.416 52.32 258.683 52.16V48.96L255.803 49.2C255.056 49.2533 254.443 49.4133 253.963 49.68C253.483 49.9467 253.243 50.3467 253.243 50.88C253.243 51.4133 253.443 51.8533 253.843 52.2C254.269 52.52 254.976 52.68 255.963 52.68ZM255.643 36.96C257.083 36.96 258.389 37.1067 259.563 37.4C260.763 37.6933 261.776 38.1467 262.603 38.76C263.456 39.3467 264.109 40.1067 264.563 41.04C265.016 41.9467 265.243 43.0267 265.243 44.28V53.24C265.243 53.9333 265.043 54.5067 264.643 54.96C264.269 55.3867 263.816 55.76 263.283 56.08C261.549 57.12 259.109 57.64 255.963 57.64C254.549 57.64 253.269 57.5067 252.123 57.24C251.003 56.9733 250.029 56.5733 249.203 56.04C248.403 55.5067 247.776 54.8267 247.323 54C246.896 53.1733 246.683 52.2133 246.683 51.12C246.683 49.28 247.229 47.8667 248.323 46.88C249.416 45.8933 251.109 45.28 253.403 45.04L258.643 44.48V44.2C258.643 43.4267 258.296 42.88 257.603 42.56C256.936 42.2133 255.963 42.04 254.683 42.04C253.669 42.04 252.683 42.1467 251.723 42.36C250.763 42.5733 249.896 42.84 249.123 43.16C248.776 42.92 248.483 42.56 248.243 42.08C248.003 41.5733 247.883 41.0533 247.883 40.52C247.883 39.8267 248.043 39.28 248.363 38.88C248.709 38.4533 249.229 38.0933 249.923 37.8C250.696 37.5067 251.603 37.2933 252.643 37.16C253.709 37.0267 254.709 36.96 255.643 36.96ZM269.48 37.56C269.48 36.2 269.707 35.04 270.16 34.08C270.64 33.0933 271.28 32.2933 272.08 31.68C272.88 31.04 273.814 30.5733 274.88 30.28C275.974 29.9867 277.134 29.84 278.36 29.84C280.334 29.84 281.787 30.1067 282.72 30.64C283.654 31.1467 284.12 32.0267 284.12 33.28C284.12 33.8133 284 34.2933 283.76 34.72C283.547 35.1467 283.307 35.4667 283.04 35.68C282.534 35.5467 282 35.44 281.44 35.36C280.907 35.2533 280.28 35.2 279.56 35.2C278.414 35.2 277.52 35.4 276.88 35.8C276.24 36.1733 275.92 36.84 275.92 37.8V39.08H282.48C282.64 39.3733 282.787 39.7467 282.92 40.2C283.08 40.6267 283.16 41.1067 283.16 41.64C283.16 42.5733 282.947 43.2533 282.52 43.68C282.12 44.08 281.574 44.28 280.88 44.28H276.28V56.96C276.014 57.04 275.587 57.12 275 57.2C274.44 57.28 273.854 57.32 273.24 57.32C272.654 57.32 272.12 57.28 271.64 57.2C271.187 57.12 270.8 56.96 270.48 56.72C270.16 56.48 269.907 56.16 269.72 55.76C269.56 55.3333 269.48 54.7867 269.48 54.12V37.56ZM307.476 37.64C305.422 37.64 303.849 38.2667 302.756 39.52C301.662 40.7733 301.116 42.5467 301.116 44.84C301.116 47.16 301.716 48.9467 302.916 50.2C304.142 51.4533 305.782 52.08 307.836 52.08C308.929 52.08 309.849 51.9333 310.596 51.64C311.369 51.3467 312.102 51.0133 312.796 50.64C313.249 51.0133 313.596 51.4667 313.836 52C314.102 52.5067 314.236 53.1067 314.236 53.8C314.236 54.68 313.862 55.4533 313.116 56.12C312.369 56.7867 311.196 57.24 309.596 57.48C309.809 57.8533 309.969 58.3333 310.076 58.92C310.182 59.5067 310.236 60.0267 310.236 60.48C310.236 61.8667 309.809 63.0133 308.956 63.92C308.102 64.8267 306.889 65.28 305.316 65.28C304.196 65.28 303.289 64.9867 302.596 64.4C301.929 63.84 301.596 63.0533 301.596 62.04C301.596 61.7467 301.609 61.5067 301.636 61.32C301.689 61.16 301.742 61 301.796 60.84C303.529 60.76 304.396 60.1067 304.396 58.88C304.396 58.72 304.369 58.5067 304.316 58.24C304.289 58 304.209 57.7467 304.076 57.48C302.636 57.2667 301.289 56.8533 300.036 56.24C298.809 55.6 297.742 54.76 296.836 53.72C295.929 52.68 295.209 51.4267 294.676 49.96C294.169 48.4667 293.916 46.76 293.916 44.84C293.916 42.76 294.236 40.9333 294.876 39.36C295.542 37.76 296.436 36.4133 297.556 35.32C298.702 34.2267 300.036 33.4 301.556 32.84C303.076 32.28 304.702 32 306.436 32C308.889 32 310.782 32.4 312.116 33.2C313.476 34 314.156 35.0267 314.156 36.28C314.156 36.9733 313.982 37.5733 313.636 38.08C313.289 38.5867 312.889 38.9867 312.436 39.28C311.742 38.8267 310.996 38.44 310.196 38.12C309.422 37.8 308.516 37.64 307.476 37.64ZM327.219 57.64C325.646 57.64 324.179 57.4267 322.819 57C321.486 56.5467 320.313 55.88 319.299 55C318.313 54.12 317.526 53.0133 316.939 51.68C316.379 50.3467 316.099 48.7867 316.099 47C316.099 45.24 316.379 43.7333 316.939 42.48C317.526 41.2 318.286 40.16 319.219 39.36C320.153 38.5333 321.219 37.9333 322.419 37.56C323.619 37.16 324.846 36.96 326.099 36.96C327.513 36.96 328.793 37.1733 329.939 37.6C331.113 38.0267 332.113 38.6133 332.939 39.36C333.793 40.1067 334.446 41 334.899 42.04C335.379 43.08 335.619 44.2133 335.619 45.44C335.619 46.3467 335.366 47.04 334.859 47.52C334.353 48 333.646 48.3067 332.739 48.44L322.859 49.92C323.153 50.8 323.753 51.4667 324.659 51.92C325.566 52.3467 326.606 52.56 327.779 52.56C328.873 52.56 329.899 52.4267 330.859 52.16C331.846 51.8667 332.646 51.5333 333.259 51.16C333.686 51.4267 334.046 51.8 334.339 52.28C334.633 52.76 334.779 53.2667 334.779 53.8C334.779 55 334.219 55.8933 333.099 56.48C332.246 56.9333 331.286 57.24 330.219 57.4C329.153 57.56 328.153 57.64 327.219 57.64ZM326.099 41.92C325.459 41.92 324.899 42.0267 324.419 42.24C323.966 42.4533 323.593 42.7333 323.299 43.08C323.006 43.4 322.779 43.7733 322.619 44.2C322.486 44.6 322.406 45.0133 322.379 45.44L329.219 44.32C329.139 43.7867 328.846 43.2533 328.339 42.72C327.833 42.1867 327.086 41.92 326.099 41.92ZM357.893 53.48C357.759 54.7333 357.386 55.6933 356.773 56.36C356.186 57.0267 355.319 57.36 354.173 57.36C353.319 57.36 352.559 57.16 351.893 56.76C351.226 56.3333 350.506 55.6267 349.733 54.64L345.773 49.68V56.96C345.479 57.0133 345.039 57.08 344.453 57.16C343.893 57.2667 343.319 57.32 342.733 57.32C342.146 57.32 341.613 57.28 341.133 57.2C340.679 57.12 340.293 56.96 339.973 56.72C339.653 56.48 339.399 56.16 339.213 55.76C339.053 55.3333 338.973 54.7867 338.973 54.12V30.96C339.266 30.88 339.693 30.8 340.253 30.72C340.839 30.6133 341.426 30.56 342.013 30.56C342.599 30.56 343.119 30.6 343.573 30.68C344.053 30.76 344.453 30.92 344.773 31.16C345.093 31.4 345.333 31.7333 345.493 32.16C345.679 32.56 345.773 33.0933 345.773 33.76V44.32L352.653 37.28C354.039 37.28 355.146 37.5867 355.973 38.2C356.826 38.8133 357.253 39.5867 357.253 40.52C357.253 40.92 357.186 41.2933 357.053 41.64C356.919 41.96 356.706 42.2933 356.413 42.64C356.146 42.9867 355.786 43.36 355.333 43.76C354.906 44.1333 354.399 44.5733 353.813 45.08L351.493 47.08L357.893 53.48Z" fill="white"/>
</svg>
