<svg width="482" height="90" viewBox="0 0 482 90" fill="none" xmlns="http://www.w3.org/2000/svg">
<rect width="482" height="90" rx="44" fill="#ED1C24"/>
<path d="M114.714 32.76C114.901 33.0533 115.061 33.4533 115.194 33.96C115.354 34.44 115.434 34.9467 115.434 35.48C115.434 36.52 115.208 37.2667 114.754 37.72C114.328 38.1467 113.741 38.36 112.994 38.36H104.594V42.88H113.354C113.568 43.1733 113.741 43.56 113.874 44.04C114.034 44.52 114.114 45.0267 114.114 45.56C114.114 46.5733 113.888 47.3067 113.434 47.76C113.008 48.1867 112.421 48.4 111.674 48.4H104.674V56.84C104.381 56.92 103.914 57 103.274 57.08C102.661 57.16 102.048 57.2 101.434 57.2C100.821 57.2 100.274 57.1467 99.7942 57.04C99.3409 56.96 98.9542 56.8 98.6342 56.56C98.3142 56.32 98.0742 55.9867 97.9142 55.56C97.7542 55.1333 97.6742 54.5733 97.6742 53.88V36.48C97.6742 35.3333 98.0076 34.4267 98.6742 33.76C99.3409 33.0933 100.248 32.76 101.394 32.76H114.714ZM137.626 47.28C137.626 48.9333 137.372 50.4133 136.866 51.72C136.359 53 135.639 54.08 134.706 54.96C133.799 55.84 132.706 56.5067 131.426 56.96C130.146 57.4133 128.719 57.64 127.146 57.64C125.572 57.64 124.146 57.4 122.866 56.92C121.586 56.44 120.479 55.76 119.546 54.88C118.639 53.9733 117.932 52.88 117.426 51.6C116.919 50.32 116.666 48.88 116.666 47.28C116.666 45.7067 116.919 44.28 117.426 43C117.932 41.72 118.639 40.64 119.546 39.76C120.479 38.8533 121.586 38.16 122.866 37.68C124.146 37.2 125.572 36.96 127.146 36.96C128.719 36.96 130.146 37.2133 131.426 37.72C132.706 38.2 133.799 38.8933 134.706 39.8C135.639 40.68 136.359 41.76 136.866 43.04C137.372 44.32 137.626 45.7333 137.626 47.28ZM123.626 47.28C123.626 48.9067 123.932 50.16 124.546 51.04C125.186 51.8933 126.066 52.32 127.186 52.32C128.306 52.32 129.159 51.88 129.746 51C130.359 50.12 130.666 48.88 130.666 47.28C130.666 45.68 130.359 44.4533 129.746 43.6C129.132 42.72 128.266 42.28 127.146 42.28C126.026 42.28 125.159 42.72 124.546 43.6C123.932 44.4533 123.626 45.68 123.626 47.28ZM147.743 50.32C147.743 51.0133 147.957 51.5067 148.383 51.8C148.837 52.0933 149.463 52.24 150.263 52.24C150.663 52.24 151.077 52.2133 151.503 52.16C151.93 52.08 152.303 51.9867 152.623 51.88C152.863 52.1733 153.063 52.5067 153.223 52.88C153.41 53.2267 153.503 53.6533 153.503 54.16C153.503 55.1733 153.117 56 152.343 56.64C151.597 57.28 150.263 57.6 148.343 57.6C145.997 57.6 144.183 57.0667 142.903 56C141.65 54.9333 141.023 53.2 141.023 50.8V33.68C141.317 33.6 141.73 33.52 142.263 33.44C142.823 33.3333 143.41 33.28 144.023 33.28C145.197 33.28 146.103 33.4933 146.743 33.92C147.41 34.32 147.743 35.1867 147.743 36.52V39.08H152.983C153.143 39.3733 153.29 39.7467 153.423 40.2C153.583 40.6267 153.663 41.1067 153.663 41.64C153.663 42.5733 153.45 43.2533 153.023 43.68C152.623 44.08 152.077 44.28 151.383 44.28H147.743V50.32ZM176.845 47.28C176.845 48.9333 176.591 50.4133 176.085 51.72C175.578 53 174.858 54.08 173.925 54.96C173.018 55.84 171.925 56.5067 170.645 56.96C169.365 57.4133 167.938 57.64 166.365 57.64C164.791 57.64 163.365 57.4 162.085 56.92C160.805 56.44 159.698 55.76 158.765 54.88C157.858 53.9733 157.151 52.88 156.645 51.6C156.138 50.32 155.885 48.88 155.885 47.28C155.885 45.7067 156.138 44.28 156.645 43C157.151 41.72 157.858 40.64 158.765 39.76C159.698 38.8533 160.805 38.16 162.085 37.68C163.365 37.2 164.791 36.96 166.365 36.96C167.938 36.96 169.365 37.2133 170.645 37.72C171.925 38.2 173.018 38.8933 173.925 39.8C174.858 40.68 175.578 41.76 176.085 43.04C176.591 44.32 176.845 45.7333 176.845 47.28ZM162.845 47.28C162.845 48.9067 163.151 50.16 163.765 51.04C164.405 51.8933 165.285 52.32 166.405 52.32C167.525 52.32 168.378 51.88 168.965 51C169.578 50.12 169.885 48.88 169.885 47.28C169.885 45.68 169.578 44.4533 168.965 43.6C168.351 42.72 167.485 42.28 166.365 42.28C165.245 42.28 164.378 42.72 163.765 43.6C163.151 44.4533 162.845 45.68 162.845 47.28ZM189.642 36.96C191.162 36.96 192.535 37.16 193.762 37.56C195.015 37.9333 196.069 38.4267 196.922 39.04C197.455 39.4133 197.869 39.8267 198.162 40.28C198.482 40.7333 198.642 41.32 198.642 42.04V56.04C198.642 57.4533 198.375 58.6667 197.842 59.68C197.309 60.72 196.575 61.5733 195.642 62.24C194.735 62.9333 193.655 63.44 192.402 63.76C191.175 64.08 189.855 64.24 188.442 64.24C186.015 64.24 184.109 63.9067 182.722 63.24C181.335 62.6 180.642 61.5467 180.642 60.08C180.642 59.4667 180.762 58.92 181.002 58.44C181.269 57.9867 181.562 57.64 181.882 57.4C182.655 57.8267 183.522 58.1867 184.482 58.48C185.469 58.7733 186.482 58.92 187.522 58.92C188.962 58.92 190.109 58.68 190.962 58.2C191.815 57.72 192.242 56.9467 192.242 55.88V55.24C191.149 55.72 189.815 55.96 188.242 55.96C187.042 55.96 185.895 55.7867 184.802 55.44C183.735 55.0667 182.789 54.5067 181.962 53.76C181.162 52.9867 180.509 52 180.002 50.8C179.522 49.6 179.282 48.1733 179.282 46.52C179.282 44.8933 179.535 43.48 180.042 42.28C180.575 41.08 181.295 40.0933 182.202 39.32C183.135 38.52 184.229 37.9333 185.482 37.56C186.762 37.16 188.149 36.96 189.642 36.96ZM192.122 42.76C191.935 42.6533 191.655 42.5467 191.282 42.44C190.935 42.3333 190.495 42.28 189.962 42.28C188.655 42.28 187.669 42.6533 187.002 43.4C186.362 44.12 186.042 45.16 186.042 46.52C186.042 48.0667 186.362 49.1867 187.002 49.88C187.669 50.5467 188.509 50.88 189.522 50.88C190.615 50.88 191.482 50.6267 192.122 50.12V42.76ZM189.362 34.88C187.122 34.88 185.402 34.48 184.202 33.68C183.002 32.8533 182.402 31.84 182.402 30.64C182.402 29.9467 182.655 29.2933 183.162 28.68C183.695 28.0667 184.509 27.76 185.602 27.76C185.735 27.76 185.855 27.76 185.962 27.76C186.069 27.76 186.189 27.7733 186.322 27.8C186.455 28.3867 186.789 28.88 187.322 29.28C187.855 29.68 188.535 29.88 189.362 29.88C190.189 29.88 190.855 29.68 191.362 29.28C191.895 28.88 192.242 28.3867 192.402 27.8C192.535 27.7733 192.655 27.76 192.762 27.76C192.869 27.76 192.989 27.76 193.122 27.76C194.215 27.76 195.015 28.0667 195.522 28.68C196.055 29.2933 196.322 29.9467 196.322 30.64C196.322 31.84 195.722 32.8533 194.522 33.68C193.322 34.48 191.602 34.88 189.362 34.88ZM209.657 56.96C209.391 57.04 208.964 57.12 208.377 57.2C207.817 57.28 207.231 57.32 206.617 57.32C206.031 57.32 205.497 57.28 205.017 57.2C204.564 57.12 204.177 56.96 203.857 56.72C203.537 56.48 203.284 56.16 203.097 55.76C202.937 55.3333 202.857 54.7867 202.857 54.12V42.12C202.857 41.5067 202.964 40.9867 203.177 40.56C203.417 40.1067 203.751 39.7067 204.177 39.36C204.604 39.0133 205.124 38.7067 205.737 38.44C206.377 38.1467 207.057 37.8933 207.777 37.68C208.497 37.4667 209.244 37.3067 210.017 37.2C210.791 37.0667 211.564 37 212.337 37C213.617 37 214.631 37.2533 215.377 37.76C216.124 38.24 216.497 39.04 216.497 40.16C216.497 40.5333 216.444 40.9067 216.337 41.28C216.231 41.6267 216.097 41.9467 215.937 42.24C215.377 42.24 214.804 42.2667 214.217 42.32C213.631 42.3733 213.057 42.4533 212.497 42.56C211.937 42.6667 211.404 42.7867 210.897 42.92C210.417 43.0267 210.004 43.16 209.657 43.32V56.96ZM227.037 52.68C227.49 52.68 227.983 52.64 228.517 52.56C229.077 52.4533 229.49 52.32 229.757 52.16V48.96L226.877 49.2C226.13 49.2533 225.517 49.4133 225.037 49.68C224.557 49.9467 224.317 50.3467 224.317 50.88C224.317 51.4133 224.517 51.8533 224.917 52.2C225.343 52.52 226.05 52.68 227.037 52.68ZM226.717 36.96C228.157 36.96 229.463 37.1067 230.637 37.4C231.837 37.6933 232.85 38.1467 233.677 38.76C234.53 39.3467 235.183 40.1067 235.637 41.04C236.09 41.9467 236.317 43.0267 236.317 44.28V53.24C236.317 53.9333 236.117 54.5067 235.717 54.96C235.343 55.3867 234.89 55.76 234.357 56.08C232.623 57.12 230.183 57.64 227.037 57.64C225.623 57.64 224.343 57.5067 223.197 57.24C222.077 56.9733 221.103 56.5733 220.277 56.04C219.477 55.5067 218.85 54.8267 218.397 54C217.97 53.1733 217.757 52.2133 217.757 51.12C217.757 49.28 218.303 47.8667 219.397 46.88C220.49 45.8933 222.183 45.28 224.477 45.04L229.717 44.48V44.2C229.717 43.4267 229.37 42.88 228.677 42.56C228.01 42.2133 227.037 42.04 225.757 42.04C224.743 42.04 223.757 42.1467 222.797 42.36C221.837 42.5733 220.97 42.84 220.197 43.16C219.85 42.92 219.557 42.56 219.317 42.08C219.077 41.5733 218.957 41.0533 218.957 40.52C218.957 39.8267 219.117 39.28 219.437 38.88C219.783 38.4533 220.303 38.0933 220.997 37.8C221.77 37.5067 222.677 37.2933 223.717 37.16C224.783 37.0267 225.783 36.96 226.717 36.96ZM240.555 37.56C240.555 36.2 240.781 35.04 241.235 34.08C241.715 33.0933 242.355 32.2933 243.155 31.68C243.955 31.04 244.888 30.5733 245.955 30.28C247.048 29.9867 248.208 29.84 249.435 29.84C251.408 29.84 252.861 30.1067 253.795 30.64C254.728 31.1467 255.195 32.0267 255.195 33.28C255.195 33.8133 255.075 34.2933 254.835 34.72C254.621 35.1467 254.381 35.4667 254.115 35.68C253.608 35.5467 253.075 35.44 252.515 35.36C251.981 35.2533 251.355 35.2 250.635 35.2C249.488 35.2 248.595 35.4 247.955 35.8C247.315 36.1733 246.995 36.84 246.995 37.8V39.08H253.555C253.715 39.3733 253.861 39.7467 253.995 40.2C254.155 40.6267 254.235 41.1067 254.235 41.64C254.235 42.5733 254.021 43.2533 253.595 43.68C253.195 44.08 252.648 44.28 251.955 44.28H247.355V56.96C247.088 57.04 246.661 57.12 246.075 57.2C245.515 57.28 244.928 57.32 244.315 57.32C243.728 57.32 243.195 57.28 242.715 57.2C242.261 57.12 241.875 56.96 241.555 56.72C241.235 56.48 240.981 56.16 240.795 55.76C240.635 55.3333 240.555 54.7867 240.555 54.12V37.56ZM264.505 56.96C264.212 57.0133 263.772 57.08 263.185 57.16C262.625 57.2667 262.052 57.32 261.465 57.32C260.878 57.32 260.345 57.28 259.865 57.2C259.412 57.12 259.025 56.96 258.705 56.72C258.385 56.48 258.132 56.16 257.945 55.76C257.785 55.3333 257.705 54.7867 257.705 54.12V37.84C257.998 37.7867 258.425 37.72 258.985 37.64C259.572 37.5333 260.158 37.48 260.745 37.48C261.332 37.48 261.852 37.52 262.305 37.6C262.785 37.68 263.185 37.84 263.505 38.08C263.825 38.32 264.065 38.6533 264.225 39.08C264.412 39.48 264.505 40.0133 264.505 40.68V56.96ZM290.082 56.84C289.788 56.92 289.335 57 288.722 57.08C288.108 57.16 287.508 57.2 286.922 57.2C285.695 57.2 284.775 57 284.162 56.6C283.548 56.1733 283.242 55.2933 283.242 53.96V48.56C282.575 47.5733 281.855 46.48 281.082 45.28C280.308 44.08 279.548 42.8533 278.802 41.6C278.055 40.3467 277.362 39.12 276.722 37.92C276.082 36.6933 275.562 35.5733 275.162 34.56C275.508 34.08 275.975 33.64 276.562 33.24C277.175 32.84 277.922 32.64 278.802 32.64C279.842 32.64 280.682 32.8533 281.322 33.28C281.988 33.7067 282.615 34.5067 283.202 35.68L286.522 42.36H286.762C287.135 41.5333 287.455 40.7867 287.722 40.12C288.015 39.4267 288.295 38.7467 288.562 38.08C288.828 37.3867 289.108 36.68 289.402 35.96C289.695 35.2133 290.028 34.36 290.402 33.4C290.882 33.16 291.415 32.9733 292.002 32.84C292.588 32.7067 293.148 32.64 293.682 32.64C294.615 32.64 295.402 32.8933 296.042 33.4C296.708 33.88 297.042 34.6133 297.042 35.6C297.042 35.92 296.975 36.3067 296.842 36.76C296.708 37.2133 296.402 37.9067 295.922 38.84C295.442 39.7467 294.735 40.9867 293.802 42.56C292.895 44.1333 291.655 46.1867 290.082 48.72V56.84ZM306.529 52.68C306.982 52.68 307.476 52.64 308.009 52.56C308.569 52.4533 308.982 52.32 309.249 52.16V48.96L306.369 49.2C305.622 49.2533 305.009 49.4133 304.529 49.68C304.049 49.9467 303.809 50.3467 303.809 50.88C303.809 51.4133 304.009 51.8533 304.409 52.2C304.836 52.52 305.542 52.68 306.529 52.68ZM306.209 36.96C307.649 36.96 308.956 37.1067 310.129 37.4C311.329 37.6933 312.342 38.1467 313.169 38.76C314.022 39.3467 314.676 40.1067 315.129 41.04C315.582 41.9467 315.809 43.0267 315.809 44.28V53.24C315.809 53.9333 315.609 54.5067 315.209 54.96C314.836 55.3867 314.382 55.76 313.849 56.08C312.116 57.12 309.676 57.64 306.529 57.64C305.116 57.64 303.836 57.5067 302.689 57.24C301.569 56.9733 300.596 56.5733 299.769 56.04C298.969 55.5067 298.342 54.8267 297.889 54C297.462 53.1733 297.249 52.2133 297.249 51.12C297.249 49.28 297.796 47.8667 298.889 46.88C299.982 45.8933 301.676 45.28 303.969 45.04L309.209 44.48V44.2C309.209 43.4267 308.862 42.88 308.169 42.56C307.502 42.2133 306.529 42.04 305.249 42.04C304.236 42.04 303.249 42.1467 302.289 42.36C301.329 42.5733 300.462 42.84 299.689 43.16C299.342 42.92 299.049 42.56 298.809 42.08C298.569 41.5733 298.449 41.0533 298.449 40.52C298.449 39.8267 298.609 39.28 298.929 38.88C299.276 38.4533 299.796 38.0933 300.489 37.8C301.262 37.5067 302.169 37.2933 303.209 37.16C304.276 37.0267 305.276 36.96 306.209 36.96ZM320.647 57C320.22 56.6267 319.873 56.1867 319.607 55.68C319.367 55.1733 319.247 54.6 319.247 53.96C319.247 53.4267 319.367 52.9067 319.607 52.4C319.873 51.8667 320.193 51.3733 320.567 50.92L327.447 42.84H320.087C319.927 42.5467 319.767 42.1733 319.607 41.72C319.473 41.2667 319.407 40.7733 319.407 40.24C319.407 39.3067 319.607 38.64 320.007 38.24C320.433 37.8133 320.993 37.6 321.687 37.6H334.287C334.713 37.9733 335.047 38.4133 335.287 38.92C335.553 39.4267 335.687 40 335.687 40.64C335.687 41.1733 335.553 41.7067 335.287 42.24C335.047 42.7467 334.74 43.2267 334.367 43.68L327.647 51.76H335.487C335.647 52.0533 335.793 52.4267 335.927 52.88C336.087 53.3333 336.167 53.8267 336.167 54.36C336.167 55.2933 335.953 55.9733 335.527 56.4C335.127 56.8 334.58 57 333.887 57H320.647ZM337.994 47.28C337.994 45.52 338.261 44 338.794 42.72C339.327 41.4133 340.061 40.3333 340.994 39.48C341.954 38.6267 343.061 38 344.314 37.6C345.594 37.1733 346.967 36.96 348.434 36.96C348.967 36.96 349.487 37.0133 349.994 37.12C350.501 37.2 350.914 37.3067 351.234 37.44V30.96C351.501 30.88 351.927 30.8 352.514 30.72C353.101 30.6133 353.701 30.56 354.314 30.56C354.901 30.56 355.421 30.6 355.874 30.68C356.354 30.76 356.754 30.92 357.074 31.16C357.394 31.4 357.634 31.7333 357.794 32.16C357.954 32.56 358.034 33.0933 358.034 33.76V52.72C358.034 53.9733 357.447 54.9733 356.274 55.72C355.501 56.2267 354.501 56.6667 353.274 57.04C352.047 57.44 350.634 57.64 349.034 57.64C347.301 57.64 345.741 57.4 344.354 56.92C342.994 56.44 341.834 55.7467 340.874 54.84C339.941 53.9333 339.221 52.8533 338.714 51.6C338.234 50.32 337.994 48.88 337.994 47.28ZM349.354 42.28C347.914 42.28 346.807 42.6933 346.034 43.52C345.261 44.3467 344.874 45.6 344.874 47.28C344.874 48.9333 345.234 50.1867 345.954 51.04C346.674 51.8667 347.714 52.28 349.074 52.28C349.554 52.28 349.981 52.2133 350.354 52.08C350.754 51.92 351.061 51.7467 351.274 51.56V42.76C350.741 42.44 350.101 42.28 349.354 42.28ZM369.231 56.96C368.938 57.0133 368.498 57.08 367.911 57.16C367.351 57.2667 366.778 57.32 366.191 57.32C365.605 57.32 365.071 57.28 364.591 57.2C364.138 57.12 363.751 56.96 363.431 56.72C363.111 56.48 362.858 56.16 362.671 55.76C362.511 55.3333 362.431 54.7867 362.431 54.12V37.84C362.725 37.7867 363.151 37.72 363.711 37.64C364.298 37.5333 364.885 37.48 365.471 37.48C366.058 37.48 366.578 37.52 367.031 37.6C367.511 37.68 367.911 37.84 368.231 38.08C368.551 38.32 368.791 38.6533 368.951 39.08C369.138 39.48 369.231 40.0133 369.231 40.68V56.96ZM380.36 56.96C380.094 57.04 379.667 57.12 379.08 57.2C378.52 57.28 377.934 57.32 377.32 57.32C376.734 57.32 376.2 57.28 375.72 57.2C375.267 57.12 374.88 56.96 374.56 56.72C374.24 56.48 373.987 56.16 373.8 55.76C373.64 55.3333 373.56 54.7867 373.56 54.12V42.12C373.56 41.5067 373.667 40.9867 373.88 40.56C374.12 40.1067 374.454 39.7067 374.88 39.36C375.307 39.0133 375.827 38.7067 376.44 38.44C377.08 38.1467 377.76 37.8933 378.48 37.68C379.2 37.4667 379.947 37.3067 380.72 37.2C381.494 37.0667 382.267 37 383.04 37C384.32 37 385.334 37.2533 386.08 37.76C386.827 38.24 387.2 39.04 387.2 40.16C387.2 40.5333 387.147 40.9067 387.04 41.28C386.934 41.6267 386.8 41.9467 386.64 42.24C386.08 42.24 385.507 42.2667 384.92 42.32C384.334 42.3733 383.76 42.4533 383.2 42.56C382.64 42.6667 382.107 42.7867 381.6 42.92C381.12 43.0267 380.707 43.16 380.36 43.32V56.96Z" fill="white"/>
</svg>
