<svg width="63" height="76" viewBox="0 0 63 76" fill="none" xmlns="http://www.w3.org/2000/svg">
<path d="M1.05638 25.964C1.05638 23.6453 1.80838 21.7027 3.31238 20.136C4.81638 18.5067 6.79038 17.692 9.23438 17.692C11.741 17.692 13.715 18.5067 15.1564 20.136C16.6604 21.7027 17.4124 23.6453 17.4124 25.964C17.4124 28.2827 16.6604 30.2253 15.1564 31.792C13.715 33.3587 11.741 34.142 9.23438 34.142C6.79038 34.142 4.81638 33.3587 3.31238 31.792C1.80838 30.2253 1.05638 28.2827 1.05638 25.964ZM0.680375 56.232C0.680375 53.9133 1.40104 51.9707 2.84238 50.404C4.34638 48.7747 6.35171 47.96 8.85838 47.96C11.3024 47.96 13.2764 48.7747 14.7804 50.404C16.2844 51.9707 17.0364 53.9133 17.0364 56.232C17.0364 58.5507 16.2844 60.5247 14.7804 62.154C13.2764 63.7207 11.3024 64.504 8.85838 64.504C6.35171 64.504 4.34638 63.7207 2.84238 62.154C1.40104 60.5247 0.680375 58.5507 0.680375 56.232ZM46.0266 75.314C44.5226 75.314 43.1752 74.8753 41.9846 73.998C40.8566 73.1833 40.0106 72.306 39.4466 71.366C42.6426 66.6033 45.0239 61.6213 46.5906 56.42C48.2199 51.156 49.0346 44.952 49.0346 37.808C49.0346 30.664 48.1886 24.46 46.4966 19.196C44.8672 13.8693 42.5172 8.95 39.4466 4.438C40.0106 3.43533 40.8566 2.52666 41.9846 1.712C43.1752 0.897332 44.5226 0.489998 46.0266 0.489998C48.2199 0.489998 50.0686 1.17933 51.5726 2.558C53.0766 3.874 54.3926 5.50333 55.5206 7.446C57.4632 10.83 59.0612 15.0913 60.3146 20.23C61.6306 25.306 62.2886 31.1653 62.2886 37.808C62.2886 44.4507 61.6619 50.3413 60.4086 55.48C59.2179 60.556 57.5886 64.8173 55.5206 68.264C54.3926 70.2693 53.0766 71.93 51.5726 73.246C50.0686 74.6247 48.2199 75.314 46.0266 75.314Z" fill="white"/>
</svg>
