<svg width="362" height="90" viewBox="0 0 362 90" fill="none" xmlns="http://www.w3.org/2000/svg">
<rect width="362" height="90" rx="44" fill="#ED1C24"/>
<path d="M119.46 56.84C119.166 56.92 118.7 57 118.06 57.08C117.446 57.16 116.833 57.2 116.22 57.2C115.606 57.2 115.06 57.1467 114.58 57.04C114.126 56.96 113.74 56.8 113.42 56.56C113.1 56.32 112.86 55.9867 112.7 55.56C112.54 55.1333 112.46 54.5733 112.46 53.88V47.64H104.78V56.84C104.486 56.92 104.02 57 103.38 57.08C102.766 57.16 102.153 57.2 101.54 57.2C100.926 57.2 100.38 57.1467 99.8997 57.04C99.4464 56.96 99.0597 56.8 98.7397 56.56C98.4197 56.32 98.1797 55.9867 98.0197 55.56C97.8597 55.1333 97.7797 54.5733 97.7797 53.88V32.76C98.073 32.7067 98.5397 32.64 99.1797 32.56C99.8197 32.4533 100.433 32.4 101.02 32.4C101.633 32.4 102.166 32.4533 102.62 32.56C103.1 32.64 103.5 32.8 103.82 33.04C104.14 33.28 104.38 33.6133 104.54 34.04C104.7 34.4667 104.78 35.0267 104.78 35.72V42.12H112.46V32.76C112.753 32.7067 113.22 32.64 113.86 32.56C114.5 32.4533 115.113 32.4 115.7 32.4C116.313 32.4 116.846 32.4533 117.3 32.56C117.78 32.64 118.18 32.8 118.5 33.04C118.82 33.28 119.06 33.6133 119.22 34.04C119.38 34.4667 119.46 35.0267 119.46 35.72V56.84ZM134.415 57.64C132.841 57.64 131.375 57.4267 130.015 57C128.681 56.5467 127.508 55.88 126.495 55C125.508 54.12 124.721 53.0133 124.135 51.68C123.575 50.3467 123.295 48.7867 123.295 47C123.295 45.24 123.575 43.7333 124.135 42.48C124.721 41.2 125.481 40.16 126.415 39.36C127.348 38.5333 128.415 37.9333 129.615 37.56C130.815 37.16 132.041 36.96 133.295 36.96C134.708 36.96 135.988 37.1733 137.135 37.6C138.308 38.0267 139.308 38.6133 140.135 39.36C140.988 40.1067 141.641 41 142.095 42.04C142.575 43.08 142.815 44.2133 142.815 45.44C142.815 46.3467 142.561 47.04 142.055 47.52C141.548 48 140.841 48.3067 139.935 48.44L130.055 49.92C130.348 50.8 130.948 51.4667 131.855 51.92C132.761 52.3467 133.801 52.56 134.975 52.56C136.068 52.56 137.095 52.4267 138.055 52.16C139.041 51.8667 139.841 51.5333 140.455 51.16C140.881 51.4267 141.241 51.8 141.535 52.28C141.828 52.76 141.975 53.2667 141.975 53.8C141.975 55 141.415 55.8933 140.295 56.48C139.441 56.9333 138.481 57.24 137.415 57.4C136.348 57.56 135.348 57.64 134.415 57.64ZM133.295 41.92C132.655 41.92 132.095 42.0267 131.615 42.24C131.161 42.4533 130.788 42.7333 130.495 43.08C130.201 43.4 129.975 43.7733 129.815 44.2C129.681 44.6 129.601 45.0133 129.575 45.44L136.415 44.32C136.335 43.7867 136.041 43.2533 135.535 42.72C135.028 42.1867 134.281 41.92 133.295 41.92ZM145.248 47.28C145.248 45.52 145.514 44 146.048 42.72C146.581 41.4133 147.314 40.3333 148.248 39.48C149.208 38.6267 150.314 38 151.568 37.6C152.848 37.1733 154.221 36.96 155.688 36.96C156.221 36.96 156.741 37.0133 157.248 37.12C157.754 37.2 158.168 37.3067 158.488 37.44V30.96C158.754 30.88 159.181 30.8 159.768 30.72C160.354 30.6133 160.954 30.56 161.568 30.56C162.154 30.56 162.674 30.6 163.128 30.68C163.608 30.76 164.008 30.92 164.328 31.16C164.648 31.4 164.888 31.7333 165.048 32.16C165.208 32.56 165.288 33.0933 165.288 33.76V52.72C165.288 53.9733 164.701 54.9733 163.528 55.72C162.754 56.2267 161.754 56.6667 160.528 57.04C159.301 57.44 157.888 57.64 156.288 57.64C154.554 57.64 152.994 57.4 151.608 56.92C150.248 56.44 149.088 55.7467 148.128 54.84C147.194 53.9333 146.474 52.8533 145.968 51.6C145.488 50.32 145.248 48.88 145.248 47.28ZM156.608 42.28C155.168 42.28 154.061 42.6933 153.288 43.52C152.514 44.3467 152.128 45.6 152.128 47.28C152.128 48.9333 152.488 50.1867 153.208 51.04C153.928 51.8667 154.968 52.28 156.328 52.28C156.808 52.28 157.234 52.2133 157.608 52.08C158.008 51.92 158.314 51.7467 158.528 51.56V42.76C157.994 42.44 157.354 42.28 156.608 42.28ZM169.365 32.16C169.365 31.1467 169.699 30.2933 170.365 29.6C171.059 28.9067 171.965 28.56 173.085 28.56C174.205 28.56 175.099 28.9067 175.765 29.6C176.459 30.2933 176.805 31.1467 176.805 32.16C176.805 33.1733 176.459 34.0267 175.765 34.72C175.099 35.4133 174.205 35.76 173.085 35.76C171.965 35.76 171.059 35.4133 170.365 34.72C169.699 34.0267 169.365 33.1733 169.365 32.16ZM176.485 56.96C176.192 57.0133 175.752 57.08 175.165 57.16C174.605 57.2667 174.032 57.32 173.445 57.32C172.859 57.32 172.325 57.28 171.845 57.2C171.392 57.12 171.005 56.96 170.685 56.72C170.365 56.48 170.112 56.16 169.925 55.76C169.765 55.3333 169.685 54.7867 169.685 54.12V37.84C169.979 37.7867 170.405 37.72 170.965 37.64C171.552 37.5333 172.139 37.48 172.725 37.48C173.312 37.48 173.832 37.52 174.285 37.6C174.765 37.68 175.165 37.84 175.485 38.08C175.805 38.32 176.045 38.6533 176.205 39.08C176.392 39.48 176.485 40.0133 176.485 40.68V56.96ZM183.854 52.04C183.561 51.3733 183.241 50.6267 182.894 49.8C182.574 48.9733 182.228 48.0267 181.854 46.96C181.508 45.8933 181.134 44.68 180.734 43.32C180.361 41.9333 179.961 40.3467 179.534 38.56C179.908 38.1867 180.401 37.8667 181.014 37.6C181.654 37.3067 182.348 37.16 183.094 37.16C184.028 37.16 184.801 37.36 185.414 37.76C186.028 38.1333 186.481 38.8533 186.774 39.92L189.934 50.92H190.094C190.414 50.0133 190.721 49.0267 191.014 47.96C191.334 46.8933 191.641 45.8 191.934 44.68C192.228 43.5333 192.494 42.4 192.734 41.28C193.001 40.1333 193.228 39.0133 193.414 37.92C194.374 37.4133 195.428 37.16 196.574 37.16C197.508 37.16 198.281 37.36 198.894 37.76C199.508 38.16 199.814 38.8533 199.814 39.84C199.814 40.56 199.721 41.4 199.534 42.36C199.348 43.2933 199.094 44.2933 198.774 45.36C198.481 46.4267 198.121 47.5333 197.694 48.68C197.294 49.8 196.868 50.9067 196.414 52C195.961 53.0933 195.494 54.1333 195.014 55.12C194.534 56.08 194.068 56.9467 193.614 57.72C192.868 59.0267 192.174 60.0933 191.534 60.92C190.894 61.7467 190.281 62.3867 189.694 62.84C189.108 63.32 188.521 63.64 187.934 63.8C187.348 63.9867 186.734 64.08 186.094 64.08C184.974 64.08 184.068 63.7467 183.374 63.08C182.681 62.4133 182.268 61.5467 182.134 60.48C182.988 59.8133 183.841 59.0667 184.694 58.24C185.548 57.44 186.321 56.6133 187.014 55.76C186.561 55.6267 186.068 55.32 185.534 54.84C185.028 54.3333 184.468 53.4 183.854 52.04ZM212.93 57.64C211.357 57.64 209.89 57.4267 208.53 57C207.197 56.5467 206.024 55.88 205.01 55C204.024 54.12 203.237 53.0133 202.65 51.68C202.09 50.3467 201.81 48.7867 201.81 47C201.81 45.24 202.09 43.7333 202.65 42.48C203.237 41.2 203.997 40.16 204.93 39.36C205.864 38.5333 206.93 37.9333 208.13 37.56C209.33 37.16 210.557 36.96 211.81 36.96C213.224 36.96 214.504 37.1733 215.65 37.6C216.824 38.0267 217.824 38.6133 218.65 39.36C219.504 40.1067 220.157 41 220.61 42.04C221.09 43.08 221.33 44.2133 221.33 45.44C221.33 46.3467 221.077 47.04 220.57 47.52C220.064 48 219.357 48.3067 218.45 48.44L208.57 49.92C208.864 50.8 209.464 51.4667 210.37 51.92C211.277 52.3467 212.317 52.56 213.49 52.56C214.584 52.56 215.61 52.4267 216.57 52.16C217.557 51.8667 218.357 51.5333 218.97 51.16C219.397 51.4267 219.757 51.8 220.05 52.28C220.344 52.76 220.49 53.2667 220.49 53.8C220.49 55 219.93 55.8933 218.81 56.48C217.957 56.9333 216.997 57.24 215.93 57.4C214.864 57.56 213.864 57.64 212.93 57.64ZM211.81 41.92C211.17 41.92 210.61 42.0267 210.13 42.24C209.677 42.4533 209.304 42.7333 209.01 43.08C208.717 43.4 208.49 43.7733 208.33 44.2C208.197 44.6 208.117 45.0133 208.09 45.44L214.93 44.32C214.85 43.7867 214.557 43.2533 214.05 42.72C213.544 42.1867 212.797 41.92 211.81 41.92ZM238.291 33.48C238.745 33.2133 239.425 32.96 240.331 32.72C241.265 32.48 242.198 32.36 243.131 32.36C244.465 32.36 245.638 32.56 246.651 32.96C247.691 33.3333 248.358 33.9333 248.651 34.76C249.131 36.1467 249.651 37.76 250.211 39.6C250.771 41.44 251.331 43.3467 251.891 45.32C252.451 47.2667 252.998 49.2 253.531 51.12C254.065 53.0133 254.531 54.6933 254.931 56.16C254.611 56.5333 254.131 56.8267 253.491 57.04C252.851 57.28 252.091 57.4 251.211 57.4C250.571 57.4 250.025 57.3467 249.571 57.24C249.145 57.1333 248.785 56.9733 248.491 56.76C248.225 56.5467 247.998 56.2667 247.811 55.92C247.651 55.5733 247.505 55.1733 247.371 54.72L246.651 51.96H239.411C239.198 52.76 238.985 53.5867 238.771 54.44C238.558 55.2933 238.345 56.12 238.131 56.92C237.758 57.0533 237.358 57.16 236.931 57.24C236.531 57.3467 236.038 57.4 235.451 57.4C234.091 57.4 233.078 57.1733 232.411 56.72C231.771 56.24 231.451 55.5867 231.451 54.76C231.451 54.3867 231.505 54.0133 231.611 53.64C231.718 53.2667 231.838 52.8267 231.971 52.32C232.158 51.6 232.411 50.7067 232.731 49.64C233.078 48.5733 233.451 47.4267 233.851 46.2C234.251 44.9467 234.678 43.6667 235.131 42.36C235.585 41.0533 236.011 39.8267 236.411 38.68C236.811 37.5067 237.171 36.4667 237.491 35.56C237.838 34.6533 238.105 33.96 238.291 33.48ZM243.091 38.64C242.718 39.76 242.291 41.0133 241.811 42.4C241.358 43.76 240.945 45.1467 240.571 46.56H245.531C245.158 45.12 244.771 43.72 244.371 42.36C243.998 40.9733 243.651 39.7333 243.331 38.64H243.091ZM264.609 56.96C264.316 57.0133 263.876 57.08 263.289 57.16C262.729 57.2667 262.156 57.32 261.569 57.32C260.983 57.32 260.449 57.28 259.969 57.2C259.516 57.12 259.129 56.96 258.809 56.72C258.489 56.48 258.236 56.16 258.049 55.76C257.889 55.3333 257.809 54.7867 257.809 54.12V30.92C258.103 30.8667 258.529 30.8 259.089 30.72C259.676 30.6133 260.263 30.56 260.849 30.56C261.436 30.56 261.956 30.6 262.409 30.68C262.889 30.76 263.289 30.92 263.609 31.16C263.929 31.4 264.169 31.7333 264.329 32.16C264.516 32.56 264.609 33.0933 264.609 33.76V56.96Z" fill="white"/>
</svg>
