<svg width="482" height="90" viewBox="0 0 482 90" fill="none" xmlns="http://www.w3.org/2000/svg">
<rect width="482" height="90" rx="44" fill="#1B1B19"/>
<path d="M81.1584 57.32C81.3451 57.6133 81.5318 58.0267 81.7184 58.56C81.9318 59.12 82.0384 59.76 82.0384 60.48C82.0384 61.8667 81.6118 63.0133 80.7584 63.92C79.9051 64.8267 78.6918 65.28 77.1184 65.28C75.9984 65.28 75.0918 64.9867 74.3984 64.4C73.7318 63.84 73.3984 63.0533 73.3984 62.04C73.3984 61.7467 73.4118 61.5067 73.4384 61.32C73.4918 61.16 73.5451 61 73.5984 60.84C75.3318 60.76 76.1984 60.1067 76.1984 58.88C76.1984 58.72 76.1718 58.5067 76.1184 58.24C76.0918 58 76.0251 57.7733 75.9184 57.56C74.9051 57.48 73.9718 57.32 73.1184 57.08C72.2918 56.8667 71.5718 56.5733 70.9584 56.2C70.3451 55.8 69.8651 55.3467 69.5184 54.84C69.1718 54.3067 68.9984 53.7067 68.9984 53.04C68.9984 52.2667 69.2251 51.6133 69.6784 51.08C70.1318 50.52 70.6251 50.0933 71.1584 49.8C71.9051 50.3867 72.8118 50.8933 73.8784 51.32C74.9718 51.7467 76.1584 51.96 77.4384 51.96C78.7451 51.96 79.6651 51.76 80.1984 51.36C80.7318 50.96 80.9984 50.4933 80.9984 49.96C80.9984 49.4267 80.7851 49.0267 80.3584 48.76C79.9318 48.4667 79.3318 48.1867 78.5584 47.92L76.8784 47.36C75.7051 46.96 74.6384 46.56 73.6784 46.16C72.7184 45.7333 71.8918 45.2267 71.1984 44.64C70.5051 44.0533 69.9584 43.36 69.5584 42.56C69.1851 41.7333 68.9984 40.7333 68.9984 39.56C68.9984 37.2933 69.8651 35.48 71.5984 34.12C73.3584 32.76 75.8118 32.08 78.9584 32.08C80.1051 32.08 81.1718 32.16 82.1584 32.32C83.1451 32.48 83.9851 32.7333 84.6784 33.08C85.3984 33.4 85.9584 33.8267 86.3584 34.36C86.7584 34.8667 86.9584 35.4667 86.9584 36.16C86.9584 36.8533 86.7984 37.4533 86.4784 37.96C86.1584 38.44 85.7718 38.8533 85.3184 39.2C84.7318 38.8267 83.9451 38.5067 82.9584 38.24C81.9718 37.9467 80.8918 37.8 79.7184 37.8C78.5184 37.8 77.6384 37.9733 77.0784 38.32C76.5184 38.64 76.2384 39.0533 76.2384 39.56C76.2384 39.96 76.4118 40.2933 76.7584 40.56C77.1051 40.8 77.6251 41.0267 78.3184 41.24L80.4384 41.92C82.9451 42.72 84.8651 43.7467 86.1984 45C87.5584 46.2267 88.2384 47.9067 88.2384 50.04C88.2384 51.88 87.6384 53.44 86.4384 54.72C85.2651 56 83.5051 56.8667 81.1584 57.32ZM100.22 52.68C100.674 52.68 101.167 52.64 101.7 52.56C102.26 52.4533 102.674 52.32 102.94 52.16V48.96L100.06 49.2C99.3136 49.2533 98.7003 49.4133 98.2203 49.68C97.7403 49.9467 97.5003 50.3467 97.5003 50.88C97.5003 51.4133 97.7003 51.8533 98.1003 52.2C98.527 52.52 99.2336 52.68 100.22 52.68ZM99.9003 36.96C101.34 36.96 102.647 37.1067 103.82 37.4C105.02 37.6933 106.034 38.1467 106.86 38.76C107.714 39.3467 108.367 40.1067 108.82 41.04C109.274 41.9467 109.5 43.0267 109.5 44.28V53.24C109.5 53.9333 109.3 54.5067 108.9 54.96C108.527 55.3867 108.074 55.76 107.54 56.08C105.807 57.12 103.367 57.64 100.22 57.64C98.807 57.64 97.527 57.5067 96.3803 57.24C95.2603 56.9733 94.287 56.5733 93.4603 56.04C92.6603 55.5067 92.0336 54.8267 91.5803 54C91.1536 53.1733 90.9403 52.2133 90.9403 51.12C90.9403 49.28 91.487 47.8667 92.5803 46.88C93.6736 45.8933 95.367 45.28 97.6603 45.04L102.9 44.48V44.2C102.9 43.4267 102.554 42.88 101.86 42.56C101.194 42.2133 100.22 42.04 98.9403 42.04C97.927 42.04 96.9403 42.1467 95.9803 42.36C95.0203 42.5733 94.1536 42.84 93.3803 43.16C93.0336 42.92 92.7403 42.56 92.5003 42.08C92.2603 41.5733 92.1403 41.0533 92.1403 40.52C92.1403 39.8267 92.3003 39.28 92.6203 38.88C92.967 38.4533 93.487 38.0933 94.1803 37.8C94.9536 37.5067 95.8603 37.2933 96.9003 37.16C97.967 37.0267 98.967 36.96 99.9003 36.96ZM122.978 36.96C124.071 36.96 125.138 37.12 126.178 37.44C127.245 37.7333 128.165 38.1867 128.938 38.8C129.738 38.2667 130.631 37.8267 131.618 37.48C132.631 37.1333 133.845 36.96 135.258 36.96C136.271 36.96 137.258 37.0933 138.218 37.36C139.205 37.6267 140.071 38.0533 140.818 38.64C141.591 39.2 142.205 39.96 142.658 40.92C143.111 41.8533 143.338 43 143.338 44.36V56.96C143.071 57.04 142.645 57.12 142.058 57.2C141.498 57.28 140.911 57.32 140.298 57.32C139.711 57.32 139.178 57.28 138.698 57.2C138.245 57.12 137.858 56.96 137.538 56.72C137.218 56.48 136.965 56.16 136.778 55.76C136.618 55.3333 136.538 54.7867 136.538 54.12V44.56C136.538 43.76 136.311 43.1867 135.858 42.84C135.405 42.4667 134.791 42.28 134.018 42.28C133.645 42.28 133.245 42.3733 132.818 42.56C132.391 42.72 132.071 42.8933 131.858 43.08C131.885 43.1867 131.898 43.2933 131.898 43.4C131.898 43.48 131.898 43.56 131.898 43.64V56.96C131.605 57.04 131.165 57.12 130.578 57.2C130.018 57.28 129.445 57.32 128.858 57.32C128.271 57.32 127.738 57.28 127.258 57.2C126.805 57.12 126.418 56.96 126.098 56.72C125.778 56.48 125.525 56.16 125.338 55.76C125.178 55.3333 125.098 54.7867 125.098 54.12V44.56C125.098 43.76 124.845 43.1867 124.338 42.84C123.858 42.4667 123.271 42.28 122.578 42.28C122.098 42.28 121.685 42.36 121.338 42.52C120.991 42.6533 120.698 42.7867 120.458 42.92V56.96C120.191 57.04 119.765 57.12 119.178 57.2C118.618 57.28 118.031 57.32 117.418 57.32C116.831 57.32 116.298 57.28 115.818 57.2C115.365 57.12 114.978 56.96 114.658 56.72C114.338 56.48 114.085 56.16 113.898 55.76C113.738 55.3333 113.658 54.7867 113.658 54.12V42.04C113.658 41.32 113.805 40.7467 114.098 40.32C114.418 39.8933 114.845 39.4933 115.378 39.12C116.285 38.48 117.405 37.96 118.738 37.56C120.098 37.16 121.511 36.96 122.978 36.96ZM156.406 36.96C158.006 36.96 159.486 37.1733 160.846 37.6C162.233 38 163.42 38.6267 164.406 39.48C165.393 40.3333 166.166 41.4133 166.726 42.72C167.286 44 167.566 45.5333 167.566 47.32C167.566 49.0267 167.326 50.52 166.846 51.8C166.366 53.08 165.686 54.16 164.806 55.04C163.926 55.8933 162.86 56.5333 161.606 56.96C160.38 57.3867 159.006 57.6 157.486 57.6C156.34 57.6 155.273 57.4267 154.286 57.08V63.72C154.02 63.8 153.593 63.88 153.006 63.96C152.42 64.0667 151.82 64.12 151.206 64.12C150.62 64.12 150.086 64.08 149.606 64C149.153 63.92 148.766 63.76 148.446 63.52C148.126 63.28 147.886 62.9467 147.726 62.52C147.566 62.12 147.486 61.5867 147.486 60.92V41.72C147.486 41 147.633 40.4133 147.926 39.96C148.246 39.5067 148.673 39.0933 149.206 38.72C150.033 38.1867 151.06 37.76 152.286 37.44C153.513 37.12 154.886 36.96 156.406 36.96ZM156.486 52.24C159.233 52.24 160.606 50.6 160.606 47.32C160.606 45.6133 160.26 44.3467 159.566 43.52C158.9 42.6933 157.926 42.28 156.646 42.28C156.14 42.28 155.686 42.3467 155.286 42.48C154.886 42.5867 154.54 42.72 154.246 42.88V51.68C154.566 51.84 154.913 51.9733 155.286 52.08C155.66 52.1867 156.06 52.24 156.486 52.24ZM170.725 32.16C170.725 31.1467 171.058 30.2933 171.725 29.6C172.418 28.9067 173.325 28.56 174.445 28.56C175.565 28.56 176.458 28.9067 177.125 29.6C177.818 30.2933 178.165 31.1467 178.165 32.16C178.165 33.1733 177.818 34.0267 177.125 34.72C176.458 35.4133 175.565 35.76 174.445 35.76C173.325 35.76 172.418 35.4133 171.725 34.72C171.058 34.0267 170.725 33.1733 170.725 32.16ZM177.845 56.96C177.551 57.0133 177.111 57.08 176.525 57.16C175.965 57.2667 175.391 57.32 174.805 57.32C174.218 57.32 173.685 57.28 173.205 57.2C172.751 57.12 172.365 56.96 172.045 56.72C171.725 56.48 171.471 56.16 171.285 55.76C171.125 55.3333 171.045 54.7867 171.045 54.12V37.84C171.338 37.7867 171.765 37.72 172.325 37.64C172.911 37.5333 173.498 37.48 174.085 37.48C174.671 37.48 175.191 37.52 175.645 37.6C176.125 37.68 176.525 37.84 176.845 38.08C177.165 38.32 177.405 38.6533 177.565 39.08C177.751 39.48 177.845 40.0133 177.845 40.68V56.96ZM185.214 52.04C184.92 51.3733 184.6 50.6267 184.254 49.8C183.934 48.9733 183.587 48.0267 183.214 46.96C182.867 45.8933 182.494 44.68 182.094 43.32C181.72 41.9333 181.32 40.3467 180.894 38.56C181.267 38.1867 181.76 37.8667 182.374 37.6C183.014 37.3067 183.707 37.16 184.454 37.16C185.387 37.16 186.16 37.36 186.774 37.76C187.387 38.1333 187.84 38.8533 188.134 39.92L191.294 50.92H191.454C191.774 50.0133 192.08 49.0267 192.374 47.96C192.694 46.8933 193 45.8 193.294 44.68C193.587 43.5333 193.854 42.4 194.094 41.28C194.36 40.1333 194.587 39.0133 194.774 37.92C195.734 37.4133 196.787 37.16 197.934 37.16C198.867 37.16 199.64 37.36 200.254 37.76C200.867 38.16 201.174 38.8533 201.174 39.84C201.174 40.56 201.08 41.4 200.894 42.36C200.707 43.2933 200.454 44.2933 200.134 45.36C199.84 46.4267 199.48 47.5333 199.054 48.68C198.654 49.8 198.227 50.9067 197.774 52C197.32 53.0933 196.854 54.1333 196.374 55.12C195.894 56.08 195.427 56.9467 194.974 57.72C194.227 59.0267 193.534 60.0933 192.894 60.92C192.254 61.7467 191.64 62.3867 191.054 62.84C190.467 63.32 189.88 63.64 189.294 63.8C188.707 63.9867 188.094 64.08 187.454 64.08C186.334 64.08 185.427 63.7467 184.734 63.08C184.04 62.4133 183.627 61.5467 183.494 60.48C184.347 59.8133 185.2 59.0667 186.054 58.24C186.907 57.44 187.68 56.6133 188.374 55.76C187.92 55.6267 187.427 55.32 186.894 54.84C186.387 54.3333 185.827 53.4 185.214 52.04ZM224.13 47.28C224.13 48.9333 223.876 50.4133 223.37 51.72C222.863 53 222.143 54.08 221.21 54.96C220.303 55.84 219.21 56.5067 217.93 56.96C216.65 57.4133 215.223 57.64 213.65 57.64C212.076 57.64 210.65 57.4 209.37 56.92C208.09 56.44 206.983 55.76 206.05 54.88C205.143 53.9733 204.436 52.88 203.93 51.6C203.423 50.32 203.17 48.88 203.17 47.28C203.17 45.7067 203.423 44.28 203.93 43C204.436 41.72 205.143 40.64 206.05 39.76C206.983 38.8533 208.09 38.16 209.37 37.68C210.65 37.2 212.076 36.96 213.65 36.96C215.223 36.96 216.65 37.2133 217.93 37.72C219.21 38.2 220.303 38.8933 221.21 39.8C222.143 40.68 222.863 41.76 223.37 43.04C223.876 44.32 224.13 45.7333 224.13 47.28ZM210.13 47.28C210.13 48.9067 210.436 50.16 211.05 51.04C211.69 51.8933 212.57 52.32 213.69 52.32C214.81 52.32 215.663 51.88 216.25 51C216.863 50.12 217.17 48.88 217.17 47.28C217.17 45.68 216.863 44.4533 216.25 43.6C215.636 42.72 214.77 42.28 213.65 42.28C212.53 42.28 211.663 42.72 211.05 43.6C210.436 44.4533 210.13 45.68 210.13 47.28ZM239.767 44.68C239.767 43.8533 239.527 43.2533 239.047 42.88C238.594 42.48 237.967 42.28 237.167 42.28C236.634 42.28 236.101 42.3467 235.567 42.48C235.061 42.6133 234.621 42.8133 234.247 43.08V56.96C233.981 57.04 233.554 57.12 232.967 57.2C232.407 57.28 231.821 57.32 231.207 57.32C230.621 57.32 230.087 57.28 229.607 57.2C229.154 57.12 228.767 56.96 228.447 56.72C228.127 56.48 227.874 56.16 227.687 55.76C227.527 55.3333 227.447 54.7867 227.447 54.12V42.12C227.447 41.4 227.594 40.8133 227.887 40.36C228.207 39.9067 228.634 39.4933 229.167 39.12C230.074 38.48 231.207 37.96 232.567 37.56C233.954 37.16 235.487 36.96 237.167 36.96C240.181 36.96 242.501 37.6267 244.127 38.96C245.754 40.2667 246.567 42.0933 246.567 44.44V56.96C246.301 57.04 245.874 57.12 245.287 57.2C244.727 57.28 244.141 57.32 243.527 57.32C242.941 57.32 242.407 57.28 241.927 57.2C241.474 57.12 241.087 56.96 240.767 56.72C240.447 56.48 240.194 56.16 240.007 55.76C239.847 55.3333 239.767 54.7867 239.767 54.12V44.68ZM268.375 44C269.495 44 270.349 43.7467 270.935 43.24C271.549 42.7067 271.855 41.9067 271.855 40.84C271.855 39.8267 271.535 39.0533 270.895 38.52C270.282 37.96 269.375 37.68 268.175 37.68C267.749 37.68 267.389 37.6933 267.095 37.72C266.829 37.72 266.549 37.7467 266.255 37.8V44H268.375ZM266.295 56.84C266.002 56.92 265.535 57 264.895 57.08C264.282 57.16 263.669 57.2 263.055 57.2C262.442 57.2 261.895 57.1467 261.415 57.04C260.962 56.96 260.575 56.8 260.255 56.56C259.935 56.32 259.695 55.9867 259.535 55.56C259.375 55.1333 259.295 54.5733 259.295 53.88V35.04C259.295 34.48 259.442 34.0533 259.735 33.76C260.055 33.44 260.482 33.1867 261.015 33C261.922 32.68 262.949 32.4533 264.095 32.32C265.269 32.16 266.442 32.08 267.615 32.08C271.295 32.08 274.109 32.8667 276.055 34.44C278.002 36.0133 278.975 38.1467 278.975 40.84C278.975 42.1467 278.762 43.3333 278.335 44.4C277.935 45.44 277.322 46.3467 276.495 47.12C275.695 47.8667 274.669 48.4533 273.415 48.88C272.189 49.28 270.762 49.48 269.135 49.48H266.295V56.84ZM301.552 47.28C301.552 48.9333 301.298 50.4133 300.792 51.72C300.285 53 299.565 54.08 298.632 54.96C297.725 55.84 296.632 56.5067 295.352 56.96C294.072 57.4133 292.645 57.64 291.072 57.64C289.498 57.64 288.072 57.4 286.792 56.92C285.512 56.44 284.405 55.76 283.472 54.88C282.565 53.9733 281.858 52.88 281.352 51.6C280.845 50.32 280.592 48.88 280.592 47.28C280.592 45.7067 280.845 44.28 281.352 43C281.858 41.72 282.565 40.64 283.472 39.76C284.405 38.8533 285.512 38.16 286.792 37.68C288.072 37.2 289.498 36.96 291.072 36.96C292.645 36.96 294.072 37.2133 295.352 37.72C296.632 38.2 297.725 38.8933 298.632 39.8C299.565 40.68 300.285 41.76 300.792 43.04C301.298 44.32 301.552 45.7333 301.552 47.28ZM287.552 47.28C287.552 48.9067 287.858 50.16 288.472 51.04C289.112 51.8933 289.992 52.32 291.112 52.32C292.232 52.32 293.085 51.88 293.672 51C294.285 50.12 294.592 48.88 294.592 47.28C294.592 45.68 294.285 44.4533 293.672 43.6C293.058 42.72 292.192 42.28 291.072 42.28C289.952 42.28 289.085 42.72 288.472 43.6C287.858 44.4533 287.552 45.68 287.552 47.28ZM305.393 57C304.966 56.6267 304.619 56.1867 304.353 55.68C304.113 55.1733 303.993 54.6 303.993 53.96C303.993 53.4267 304.113 52.9067 304.353 52.4C304.619 51.8667 304.939 51.3733 305.313 50.92L312.193 42.84H304.833C304.673 42.5467 304.513 42.1733 304.353 41.72C304.219 41.2667 304.153 40.7733 304.153 40.24C304.153 39.3067 304.353 38.64 304.753 38.24C305.179 37.8133 305.739 37.6 306.433 37.6H319.033C319.459 37.9733 319.793 38.4133 320.033 38.92C320.299 39.4267 320.433 40 320.433 40.64C320.433 41.1733 320.299 41.7067 320.033 42.24C319.793 42.7467 319.486 43.2267 319.113 43.68L312.393 51.76H320.233C320.393 52.0533 320.539 52.4267 320.673 52.88C320.833 53.3333 320.913 53.8267 320.913 54.36C320.913 55.2933 320.699 55.9733 320.273 56.4C319.873 56.8 319.326 57 318.633 57H305.393ZM323.971 37.84C324.237 37.76 324.651 37.68 325.211 37.6C325.797 37.52 326.397 37.48 327.011 37.48C327.597 37.48 328.117 37.52 328.571 37.6C329.051 37.68 329.451 37.84 329.771 38.08C330.091 38.32 330.331 38.6533 330.491 39.08C330.677 39.48 330.771 40.0133 330.771 40.68V49.28C330.771 50.3733 331.037 51.16 331.571 51.64C332.104 52.0933 332.877 52.32 333.891 52.32C334.504 52.32 334.997 52.2667 335.371 52.16C335.771 52.0533 336.077 51.9467 336.291 51.84V37.84C336.557 37.76 336.971 37.68 337.531 37.6C338.117 37.52 338.717 37.48 339.331 37.48C339.917 37.48 340.437 37.52 340.891 37.6C341.371 37.68 341.771 37.84 342.091 38.08C342.411 38.32 342.651 38.6533 342.811 39.08C342.997 39.48 343.091 40.0133 343.091 40.68V52.84C343.091 54.1733 342.531 55.1733 341.411 55.84C340.477 56.4267 339.357 56.8667 338.051 57.16C336.771 57.48 335.371 57.64 333.851 57.64C332.411 57.64 331.077 57.48 329.851 57.16C328.651 56.84 327.611 56.3467 326.731 55.68C325.851 55.0133 325.171 54.16 324.691 53.12C324.211 52.0533 323.971 50.7733 323.971 49.28V37.84ZM370.3 56.2C369.926 56.52 369.34 56.8 368.54 57.04C367.766 57.28 366.913 57.4 365.98 57.4C364.86 57.4 363.9 57.24 363.1 56.92C362.3 56.5733 361.753 56.1067 361.46 55.52C361.166 54.9067 360.806 54.12 360.38 53.16C359.953 52.1733 359.5 51.08 359.02 49.88C358.566 48.68 358.086 47.4133 357.58 46.08C357.1 44.72 356.633 43.3467 356.18 41.96C355.726 40.5733 355.3 39.2133 354.9 37.88C354.5 36.5467 354.153 35.2933 353.86 34.12C354.233 33.7467 354.766 33.4133 355.46 33.12C356.18 32.8 356.94 32.64 357.74 32.64C358.726 32.64 359.526 32.8533 360.14 33.28C360.78 33.68 361.246 34.44 361.54 35.56C362.26 38.1733 362.98 40.68 363.7 43.08C364.446 45.4533 365.22 47.9333 366.02 50.52H366.26C366.98 48.0133 367.713 45.28 368.46 42.32C369.233 39.36 369.966 36.4133 370.66 33.48C371.14 33.24 371.646 33.04 372.18 32.88C372.74 32.72 373.366 32.64 374.06 32.64C375.046 32.64 375.886 32.8667 376.58 33.32C377.273 33.7467 377.62 34.4667 377.62 35.48C377.62 36.0667 377.473 36.92 377.18 38.04C376.913 39.16 376.553 40.4267 376.1 41.84C375.673 43.2267 375.18 44.68 374.62 46.2C374.086 47.72 373.54 49.16 372.98 50.52C372.446 51.8533 371.94 53.04 371.46 54.08C370.98 55.0933 370.593 55.8 370.3 56.2ZM389.563 57.64C387.99 57.64 386.523 57.4267 385.163 57C383.83 56.5467 382.656 55.88 381.643 55C380.656 54.12 379.87 53.0133 379.283 51.68C378.723 50.3467 378.443 48.7867 378.443 47C378.443 45.24 378.723 43.7333 379.283 42.48C379.87 41.2 380.63 40.16 381.563 39.36C382.496 38.5333 383.563 37.9333 384.763 37.56C385.963 37.16 387.19 36.96 388.443 36.96C389.856 36.96 391.136 37.1733 392.283 37.6C393.456 38.0267 394.456 38.6133 395.283 39.36C396.136 40.1067 396.79 41 397.243 42.04C397.723 43.08 397.963 44.2133 397.963 45.44C397.963 46.3467 397.71 47.04 397.203 47.52C396.696 48 395.99 48.3067 395.083 48.44L385.203 49.92C385.496 50.8 386.096 51.4667 387.003 51.92C387.91 52.3467 388.95 52.56 390.123 52.56C391.216 52.56 392.243 52.4267 393.203 52.16C394.19 51.8667 394.99 51.5333 395.603 51.16C396.03 51.4267 396.39 51.8 396.683 52.28C396.976 52.76 397.123 53.2667 397.123 53.8C397.123 55 396.563 55.8933 395.443 56.48C394.59 56.9333 393.63 57.24 392.563 57.4C391.496 57.56 390.496 57.64 389.563 57.64ZM388.443 41.92C387.803 41.92 387.243 42.0267 386.763 42.24C386.31 42.4533 385.936 42.7333 385.643 43.08C385.35 43.4 385.123 43.7733 384.963 44.2C384.83 44.6 384.75 45.0133 384.723 45.44L391.563 44.32C391.483 43.7867 391.19 43.2533 390.683 42.72C390.176 42.1867 389.43 41.92 388.443 41.92ZM408.036 56.96C407.77 57.04 407.343 57.12 406.756 57.2C406.196 57.28 405.61 57.32 404.996 57.32C404.41 57.32 403.876 57.28 403.396 57.2C402.943 57.12 402.556 56.96 402.236 56.72C401.916 56.48 401.663 56.16 401.476 55.76C401.316 55.3333 401.236 54.7867 401.236 54.12V42.12C401.236 41.5067 401.343 40.9867 401.556 40.56C401.796 40.1067 402.13 39.7067 402.556 39.36C402.983 39.0133 403.503 38.7067 404.116 38.44C404.756 38.1467 405.436 37.8933 406.156 37.68C406.876 37.4667 407.623 37.3067 408.396 37.2C409.17 37.0667 409.943 37 410.716 37C411.996 37 413.01 37.2533 413.756 37.76C414.503 38.24 414.876 39.04 414.876 40.16C414.876 40.5333 414.823 40.9067 414.716 41.28C414.61 41.6267 414.476 41.9467 414.316 42.24C413.756 42.24 413.183 42.2667 412.596 42.32C412.01 42.3733 411.436 42.4533 410.876 42.56C410.316 42.6667 409.783 42.7867 409.276 42.92C408.796 43.0267 408.383 43.16 408.036 43.32V56.96Z" fill="white"/>
</svg>
