<svg width="482" height="90" viewBox="0 0 482 90" fill="none" xmlns="http://www.w3.org/2000/svg">
<rect width="482" height="90" rx="44" fill="#ED1C24"/>
<path d="M88.7358 53.04C88.7358 53.8667 88.5891 54.48 88.2958 54.88C88.0024 55.28 87.5358 55.6667 86.8958 56.04C86.5224 56.2533 86.0558 56.4667 85.4958 56.68C84.9358 56.8667 84.3224 57.0267 83.6558 57.16C82.9891 57.32 82.2824 57.44 81.5358 57.52C80.8158 57.6 80.0958 57.64 79.3758 57.64C77.4558 57.64 75.6558 57.3867 73.9758 56.88C72.2958 56.3467 70.8291 55.56 69.5758 54.52C68.3491 53.4533 67.3758 52.1333 66.6558 50.56C65.9358 48.9867 65.5758 47.16 65.5758 45.08C65.5758 42.8933 65.9624 40.9867 66.7358 39.36C67.5358 37.7333 68.5758 36.3867 69.8558 35.32C71.1624 34.2267 72.6424 33.4133 74.2958 32.88C75.9758 32.3467 77.6958 32.08 79.4558 32.08C81.9891 32.08 83.9891 32.4933 85.4558 33.32C86.9491 34.12 87.6958 35.1733 87.6958 36.48C87.6958 37.1733 87.5224 37.7733 87.1758 38.28C86.8291 38.7867 86.4291 39.1867 85.9758 39.48C85.3091 39.08 84.4691 38.6933 83.4558 38.32C82.4691 37.92 81.3491 37.72 80.0958 37.72C77.8558 37.72 76.0691 38.36 74.7358 39.64C73.4291 40.92 72.7758 42.6933 72.7758 44.96C72.7758 46.1867 72.9491 47.2533 73.2958 48.16C73.6691 49.04 74.1624 49.7733 74.7758 50.36C75.3891 50.92 76.0958 51.3467 76.8958 51.64C77.6958 51.9067 78.5491 52.04 79.4558 52.04C80.0424 52.04 80.5624 51.9867 81.0158 51.88C81.4691 51.7733 81.8158 51.6533 82.0558 51.52V47.76H77.7758C77.6158 47.4667 77.4558 47.08 77.2958 46.6C77.1624 46.12 77.0958 45.6133 77.0958 45.08C77.0958 44.12 77.3091 43.4267 77.7358 43C78.1891 42.5733 78.7624 42.36 79.4558 42.36H86.2158C87.0158 42.36 87.6291 42.5867 88.0558 43.04C88.5091 43.4667 88.7358 44.08 88.7358 44.88V53.04ZM92.6583 32.16C92.6583 31.1467 92.9916 30.2933 93.6583 29.6C94.3516 28.9067 95.2583 28.56 96.3783 28.56C97.4983 28.56 98.3916 28.9067 99.0583 29.6C99.7516 30.2933 100.098 31.1467 100.098 32.16C100.098 33.1733 99.7516 34.0267 99.0583 34.72C98.3916 35.4133 97.4983 35.76 96.3783 35.76C95.2583 35.76 94.3516 35.4133 93.6583 34.72C92.9916 34.0267 92.6583 33.1733 92.6583 32.16ZM99.7783 56.96C99.4849 57.0133 99.0449 57.08 98.4583 57.16C97.8983 57.2667 97.3249 57.32 96.7383 57.32C96.1516 57.32 95.6183 57.28 95.1383 57.2C94.6849 57.12 94.2983 56.96 93.9783 56.72C93.6583 56.48 93.4049 56.16 93.2183 55.76C93.0583 55.3333 92.9783 54.7867 92.9783 54.12V37.84C93.2716 37.7867 93.6983 37.72 94.2583 37.64C94.8449 37.5333 95.4316 37.48 96.0183 37.48C96.6049 37.48 97.1249 37.52 97.5783 37.6C98.0583 37.68 98.4583 37.84 98.7783 38.08C99.0983 38.32 99.3383 38.6533 99.4983 39.08C99.6849 39.48 99.7783 40.0133 99.7783 40.68V56.96ZM110.907 56.96C110.641 57.04 110.214 57.12 109.627 57.2C109.067 57.28 108.481 57.32 107.867 57.32C107.281 57.32 106.747 57.28 106.267 57.2C105.814 57.12 105.427 56.96 105.107 56.72C104.787 56.48 104.534 56.16 104.347 55.76C104.187 55.3333 104.107 54.7867 104.107 54.12V42.12C104.107 41.5067 104.214 40.9867 104.427 40.56C104.667 40.1067 105.001 39.7067 105.427 39.36C105.854 39.0133 106.374 38.7067 106.987 38.44C107.627 38.1467 108.307 37.8933 109.027 37.68C109.747 37.4667 110.494 37.3067 111.267 37.2C112.041 37.0667 112.814 37 113.587 37C114.867 37 115.881 37.2533 116.627 37.76C117.374 38.24 117.747 39.04 117.747 40.16C117.747 40.5333 117.694 40.9067 117.587 41.28C117.481 41.6267 117.347 41.9467 117.187 42.24C116.627 42.24 116.054 42.2667 115.467 42.32C114.881 42.3733 114.307 42.4533 113.747 42.56C113.187 42.6667 112.654 42.7867 112.147 42.92C111.667 43.0267 111.254 43.16 110.907 43.32V56.96ZM120.393 32.16C120.393 31.1467 120.726 30.2933 121.393 29.6C122.086 28.9067 122.993 28.56 124.113 28.56C125.233 28.56 126.126 28.9067 126.793 29.6C127.486 30.2933 127.833 31.1467 127.833 32.16C127.833 33.1733 127.486 34.0267 126.793 34.72C126.126 35.4133 125.233 35.76 124.113 35.76C122.993 35.76 122.086 35.4133 121.393 34.72C120.726 34.0267 120.393 33.1733 120.393 32.16ZM127.513 56.96C127.219 57.0133 126.779 57.08 126.193 57.16C125.633 57.2667 125.059 57.32 124.473 57.32C123.886 57.32 123.353 57.28 122.873 57.2C122.419 57.12 122.033 56.96 121.713 56.72C121.393 56.48 121.139 56.16 120.953 55.76C120.793 55.3333 120.713 54.7867 120.713 54.12V37.84C121.006 37.7867 121.433 37.72 121.993 37.64C122.579 37.5333 123.166 37.48 123.753 37.48C124.339 37.48 124.859 37.52 125.313 37.6C125.793 37.68 126.193 37.84 126.513 38.08C126.833 38.32 127.073 38.6533 127.233 39.08C127.419 39.48 127.513 40.0133 127.513 40.68V56.96ZM142.962 57.28C143.068 57.4667 143.162 57.6933 143.242 57.96C143.322 58.2267 143.388 58.5067 143.442 58.8C143.522 59.0933 143.575 59.3867 143.602 59.68C143.655 59.9733 143.682 60.24 143.682 60.48C143.682 61.84 143.255 62.96 142.402 63.84C141.548 64.7467 140.362 65.2 138.842 65.2C137.748 65.2 136.855 64.92 136.162 64.36C135.468 63.8267 135.122 63.0533 135.122 62.04C135.122 61.5867 135.175 61.1867 135.282 60.84C136.135 60.7867 136.802 60.5733 137.282 60.2C137.762 59.8533 138.002 59.3733 138.002 58.76C138.002 58.5467 137.975 58.3333 137.922 58.12C137.868 57.9067 137.815 57.7333 137.762 57.6C135.842 57.4667 134.308 57.08 133.162 56.44C132.042 55.7733 131.482 54.84 131.482 53.64C131.482 53 131.615 52.4667 131.882 52.04C132.148 51.5867 132.468 51.2133 132.842 50.92C133.615 51.3467 134.495 51.7333 135.482 52.08C136.495 52.4 137.655 52.56 138.962 52.56C139.788 52.56 140.415 52.44 140.842 52.2C141.295 51.96 141.522 51.64 141.522 51.24C141.522 50.8667 141.362 50.5733 141.042 50.36C140.722 50.1467 140.188 49.9733 139.442 49.84L138.242 49.6C135.922 49.1467 134.188 48.44 133.042 47.48C131.922 46.4933 131.362 45.0933 131.362 43.28C131.362 42.2933 131.575 41.4 132.002 40.6C132.428 39.8 133.028 39.1333 133.802 38.6C134.575 38.0667 135.495 37.6533 136.562 37.36C137.655 37.0667 138.855 36.92 140.162 36.92C141.148 36.92 142.068 37 142.922 37.16C143.802 37.2933 144.562 37.5067 145.202 37.8C145.842 38.0933 146.348 38.48 146.722 38.96C147.095 39.4133 147.282 39.96 147.282 40.6C147.282 41.2133 147.162 41.7467 146.922 42.2C146.708 42.6267 146.428 42.9867 146.082 43.28C145.868 43.1467 145.548 43.0133 145.122 42.88C144.695 42.72 144.228 42.5867 143.722 42.48C143.215 42.3467 142.695 42.24 142.162 42.16C141.655 42.08 141.188 42.04 140.762 42.04C139.882 42.04 139.202 42.1467 138.722 42.36C138.242 42.5467 138.002 42.8533 138.002 43.28C138.002 43.5733 138.135 43.8133 138.402 44C138.668 44.1867 139.175 44.36 139.922 44.52L141.162 44.8C143.722 45.3867 145.535 46.2 146.602 47.24C147.695 48.2533 148.242 49.5733 148.242 51.2C148.242 52.8533 147.762 54.1867 146.802 55.2C145.842 56.2133 144.562 56.9067 142.962 57.28ZM166.937 47.36C165.764 46.96 164.697 46.56 163.737 46.16C162.777 45.7333 161.95 45.2267 161.257 44.64C160.564 44.0533 160.017 43.36 159.617 42.56C159.244 41.7333 159.057 40.7333 159.057 39.56C159.057 37.2933 159.924 35.48 161.657 34.12C163.417 32.76 165.87 32.08 169.017 32.08C170.164 32.08 171.23 32.16 172.217 32.32C173.204 32.48 174.044 32.7333 174.737 33.08C175.457 33.4 176.017 33.8267 176.417 34.36C176.817 34.8667 177.017 35.4667 177.017 36.16C177.017 36.8533 176.857 37.4533 176.537 37.96C176.217 38.44 175.83 38.8533 175.377 39.2C174.79 38.8267 174.004 38.5067 173.017 38.24C172.03 37.9467 170.95 37.8 169.777 37.8C168.577 37.8 167.697 37.9733 167.137 38.32C166.577 38.64 166.297 39.0533 166.297 39.56C166.297 39.96 166.47 40.2933 166.817 40.56C167.164 40.8 167.684 41.0267 168.377 41.24L170.497 41.92C173.004 42.72 174.924 43.7467 176.257 45C177.617 46.2267 178.297 47.9067 178.297 50.04C178.297 52.3067 177.404 54.1467 175.617 55.56C173.83 56.9467 171.204 57.64 167.737 57.64C166.51 57.64 165.364 57.5333 164.297 57.32C163.257 57.1333 162.337 56.8533 161.537 56.48C160.764 56.08 160.15 55.6 159.697 55.04C159.27 54.4533 159.057 53.7867 159.057 53.04C159.057 52.2667 159.284 51.6133 159.737 51.08C160.19 50.52 160.684 50.0933 161.217 49.8C161.964 50.3867 162.87 50.8933 163.937 51.32C165.03 51.7467 166.217 51.96 167.497 51.96C168.804 51.96 169.724 51.76 170.257 51.36C170.79 50.96 171.057 50.4933 171.057 49.96C171.057 49.4267 170.844 49.0267 170.417 48.76C169.99 48.4667 169.39 48.1867 168.617 47.92L166.937 47.36ZM190.279 52.68C190.732 52.68 191.226 52.64 191.759 52.56C192.319 52.4533 192.732 52.32 192.999 52.16V48.96L190.119 49.2C189.372 49.2533 188.759 49.4133 188.279 49.68C187.799 49.9467 187.559 50.3467 187.559 50.88C187.559 51.4133 187.759 51.8533 188.159 52.2C188.586 52.52 189.292 52.68 190.279 52.68ZM189.959 36.96C191.399 36.96 192.706 37.1067 193.879 37.4C195.079 37.6933 196.092 38.1467 196.919 38.76C197.772 39.3467 198.426 40.1067 198.879 41.04C199.332 41.9467 199.559 43.0267 199.559 44.28V53.24C199.559 53.9333 199.359 54.5067 198.959 54.96C198.586 55.3867 198.132 55.76 197.599 56.08C195.866 57.12 193.426 57.64 190.279 57.64C188.866 57.64 187.586 57.5067 186.439 57.24C185.319 56.9733 184.346 56.5733 183.519 56.04C182.719 55.5067 182.092 54.8267 181.639 54C181.212 53.1733 180.999 52.2133 180.999 51.12C180.999 49.28 181.546 47.8667 182.639 46.88C183.732 45.8933 185.426 45.28 187.719 45.04L192.959 44.48V44.2C192.959 43.4267 192.612 42.88 191.919 42.56C191.252 42.2133 190.279 42.04 188.999 42.04C187.986 42.04 186.999 42.1467 186.039 42.36C185.079 42.5733 184.212 42.84 183.439 43.16C183.092 42.92 182.799 42.56 182.559 42.08C182.319 41.5733 182.199 41.0533 182.199 40.52C182.199 39.8267 182.359 39.28 182.679 38.88C183.026 38.4533 183.546 38.0933 184.239 37.8C185.012 37.5067 185.919 37.2933 186.959 37.16C188.026 37.0267 189.026 36.96 189.959 36.96ZM206.288 52.04C205.995 51.3733 205.675 50.6267 205.328 49.8C205.008 48.9733 204.661 48.0267 204.288 46.96C203.941 45.8933 203.568 44.68 203.168 43.32C202.795 41.9333 202.395 40.3467 201.968 38.56C202.341 38.1867 202.835 37.8667 203.448 37.6C204.088 37.3067 204.781 37.16 205.528 37.16C206.461 37.16 207.235 37.36 207.848 37.76C208.461 38.1333 208.915 38.8533 209.208 39.92L212.368 50.92H212.528C212.848 50.0133 213.155 49.0267 213.448 47.96C213.768 46.8933 214.075 45.8 214.368 44.68C214.661 43.5333 214.928 42.4 215.168 41.28C215.435 40.1333 215.661 39.0133 215.848 37.92C216.808 37.4133 217.861 37.16 219.008 37.16C219.941 37.16 220.715 37.36 221.328 37.76C221.941 38.16 222.248 38.8533 222.248 39.84C222.248 40.56 222.155 41.4 221.968 42.36C221.781 43.2933 221.528 44.2933 221.208 45.36C220.915 46.4267 220.555 47.5333 220.128 48.68C219.728 49.8 219.301 50.9067 218.848 52C218.395 53.0933 217.928 54.1333 217.448 55.12C216.968 56.08 216.501 56.9467 216.048 57.72C215.301 59.0267 214.608 60.0933 213.968 60.92C213.328 61.7467 212.715 62.3867 212.128 62.84C211.541 63.32 210.955 63.64 210.368 63.8C209.781 63.9867 209.168 64.08 208.528 64.08C207.408 64.08 206.501 63.7467 205.808 63.08C205.115 62.4133 204.701 61.5467 204.568 60.48C205.421 59.8133 206.275 59.0667 207.128 58.24C207.981 57.44 208.755 56.6133 209.448 55.76C208.995 55.6267 208.501 55.32 207.968 54.84C207.461 54.3333 206.901 53.4 206.288 52.04ZM225.359 37.56C225.359 36.2 225.586 35.04 226.039 34.08C226.519 33.0933 227.159 32.2933 227.959 31.68C228.759 31.04 229.693 30.5733 230.759 30.28C231.853 29.9867 233.013 29.84 234.239 29.84C236.213 29.84 237.666 30.1067 238.599 30.64C239.533 31.1467 239.999 32.0267 239.999 33.28C239.999 33.8133 239.879 34.2933 239.639 34.72C239.426 35.1467 239.186 35.4667 238.919 35.68C238.413 35.5467 237.879 35.44 237.319 35.36C236.786 35.2533 236.159 35.2 235.439 35.2C234.293 35.2 233.399 35.4 232.759 35.8C232.119 36.1733 231.799 36.84 231.799 37.8V39.08H238.359C238.519 39.3733 238.666 39.7467 238.799 40.2C238.959 40.6267 239.039 41.1067 239.039 41.64C239.039 42.5733 238.826 43.2533 238.399 43.68C237.999 44.08 237.453 44.28 236.759 44.28H232.159V56.96C231.893 57.04 231.466 57.12 230.879 57.2C230.319 57.28 229.733 57.32 229.119 57.32C228.533 57.32 227.999 57.28 227.519 57.2C227.066 57.12 226.679 56.96 226.359 56.72C226.039 56.48 225.786 56.16 225.599 55.76C225.439 55.3333 225.359 54.7867 225.359 54.12V37.56ZM250.005 52.68C250.459 52.68 250.952 52.64 251.485 52.56C252.045 52.4533 252.459 52.32 252.725 52.16V48.96L249.845 49.2C249.099 49.2533 248.485 49.4133 248.005 49.68C247.525 49.9467 247.285 50.3467 247.285 50.88C247.285 51.4133 247.485 51.8533 247.885 52.2C248.312 52.52 249.019 52.68 250.005 52.68ZM249.685 36.96C251.125 36.96 252.432 37.1067 253.605 37.4C254.805 37.6933 255.819 38.1467 256.645 38.76C257.499 39.3467 258.152 40.1067 258.605 41.04C259.059 41.9467 259.285 43.0267 259.285 44.28V53.24C259.285 53.9333 259.085 54.5067 258.685 54.96C258.312 55.3867 257.859 55.76 257.325 56.08C255.592 57.12 253.152 57.64 250.005 57.64C248.592 57.64 247.312 57.5067 246.165 57.24C245.045 56.9733 244.072 56.5733 243.245 56.04C242.445 55.5067 241.819 54.8267 241.365 54C240.939 53.1733 240.725 52.2133 240.725 51.12C240.725 49.28 241.272 47.8667 242.365 46.88C243.459 45.8933 245.152 45.28 247.445 45.04L252.685 44.48V44.2C252.685 43.4267 252.339 42.88 251.645 42.56C250.979 42.2133 250.005 42.04 248.725 42.04C247.712 42.04 246.725 42.1467 245.765 42.36C244.805 42.5733 243.939 42.84 243.165 43.16C242.819 42.92 242.525 42.56 242.285 42.08C242.045 41.5733 241.925 41.0533 241.925 40.52C241.925 39.8267 242.085 39.28 242.405 38.88C242.752 38.4533 243.272 38.0933 243.965 37.8C244.739 37.5067 245.645 37.2933 246.685 37.16C247.752 37.0267 248.752 36.96 249.685 36.96ZM279.843 51.2C279.843 53.2267 279.083 54.8133 277.563 55.96C276.043 57.1067 273.803 57.68 270.843 57.68C269.723 57.68 268.683 57.6 267.723 57.44C266.763 57.28 265.937 57.04 265.243 56.72C264.577 56.3733 264.043 55.9467 263.643 55.44C263.27 54.9333 263.083 54.3333 263.083 53.64C263.083 53 263.217 52.4667 263.483 52.04C263.75 51.5867 264.07 51.2133 264.443 50.92C265.217 51.3467 266.097 51.7333 267.083 52.08C268.097 52.4 269.257 52.56 270.563 52.56C271.39 52.56 272.017 52.44 272.443 52.2C272.897 51.96 273.123 51.64 273.123 51.24C273.123 50.8667 272.963 50.5733 272.643 50.36C272.323 50.1467 271.79 49.9733 271.043 49.84L269.843 49.6C267.523 49.1467 265.79 48.44 264.643 47.48C263.523 46.4933 262.963 45.0933 262.963 43.28C262.963 42.2933 263.177 41.4 263.603 40.6C264.03 39.8 264.63 39.1333 265.403 38.6C266.177 38.0667 267.097 37.6533 268.163 37.36C269.257 37.0667 270.457 36.92 271.763 36.92C272.75 36.92 273.67 37 274.523 37.16C275.403 37.2933 276.163 37.5067 276.803 37.8C277.443 38.0933 277.95 38.48 278.323 38.96C278.697 39.4133 278.883 39.96 278.883 40.6C278.883 41.2133 278.763 41.7467 278.523 42.2C278.31 42.6267 278.03 42.9867 277.683 43.28C277.47 43.1467 277.15 43.0133 276.723 42.88C276.297 42.72 275.83 42.5867 275.323 42.48C274.817 42.3467 274.297 42.24 273.763 42.16C273.257 42.08 272.79 42.04 272.363 42.04C271.483 42.04 270.803 42.1467 270.323 42.36C269.843 42.5467 269.603 42.8533 269.603 43.28C269.603 43.5733 269.737 43.8133 270.003 44C270.27 44.1867 270.777 44.36 271.523 44.52L272.763 44.8C275.323 45.3867 277.137 46.2 278.203 47.24C279.297 48.2533 279.843 49.5733 279.843 51.2ZM290.091 56.96C289.797 57.0133 289.357 57.08 288.771 57.16C288.211 57.2667 287.637 57.32 287.051 57.32C286.464 57.32 285.931 57.28 285.451 57.2C284.997 57.12 284.611 56.96 284.291 56.72C283.971 56.48 283.717 56.16 283.531 55.76C283.371 55.3333 283.291 54.7867 283.291 54.12V37.84C283.584 37.7867 284.011 37.72 284.571 37.64C285.157 37.5333 285.744 37.48 286.331 37.48C286.917 37.48 287.437 37.52 287.891 37.6C288.371 37.68 288.771 37.84 289.091 38.08C289.411 38.32 289.651 38.6533 289.811 39.08C289.997 39.48 290.091 40.0133 290.091 40.68V56.96ZM306.74 44.68C306.74 43.8533 306.5 43.2533 306.02 42.88C305.567 42.48 304.94 42.28 304.14 42.28C303.607 42.28 303.073 42.3467 302.54 42.48C302.033 42.6133 301.593 42.8133 301.22 43.08V56.96C300.953 57.04 300.527 57.12 299.94 57.2C299.38 57.28 298.793 57.32 298.18 57.32C297.593 57.32 297.06 57.28 296.58 57.2C296.127 57.12 295.74 56.96 295.42 56.72C295.1 56.48 294.847 56.16 294.66 55.76C294.5 55.3333 294.42 54.7867 294.42 54.12V42.12C294.42 41.4 294.567 40.8133 294.86 40.36C295.18 39.9067 295.607 39.4933 296.14 39.12C297.047 38.48 298.18 37.96 299.54 37.56C300.927 37.16 302.46 36.96 304.14 36.96C307.153 36.96 309.473 37.6267 311.1 38.96C312.727 40.2667 313.54 42.0933 313.54 44.44V56.96C313.273 57.04 312.847 57.12 312.26 57.2C311.7 57.28 311.113 57.32 310.5 57.32C309.913 57.32 309.38 57.28 308.9 57.2C308.447 57.12 308.06 56.96 307.74 56.72C307.42 56.48 307.167 56.16 306.98 55.76C306.82 55.3333 306.74 54.7867 306.74 54.12V44.68ZM326.06 52.68C326.513 52.68 327.007 52.64 327.54 52.56C328.1 52.4533 328.513 52.32 328.78 52.16V48.96L325.9 49.2C325.153 49.2533 324.54 49.4133 324.06 49.68C323.58 49.9467 323.34 50.3467 323.34 50.88C323.34 51.4133 323.54 51.8533 323.94 52.2C324.367 52.52 325.073 52.68 326.06 52.68ZM325.74 36.96C327.18 36.96 328.487 37.1067 329.66 37.4C330.86 37.6933 331.873 38.1467 332.7 38.76C333.553 39.3467 334.207 40.1067 334.66 41.04C335.113 41.9467 335.34 43.0267 335.34 44.28V53.24C335.34 53.9333 335.14 54.5067 334.74 54.96C334.367 55.3867 333.913 55.76 333.38 56.08C331.647 57.12 329.207 57.64 326.06 57.64C324.647 57.64 323.367 57.5067 322.22 57.24C321.1 56.9733 320.127 56.5733 319.3 56.04C318.5 55.5067 317.873 54.8267 317.42 54C316.993 53.1733 316.78 52.2133 316.78 51.12C316.78 49.28 317.327 47.8667 318.42 46.88C319.513 45.8933 321.207 45.28 323.5 45.04L328.74 44.48V44.2C328.74 43.4267 328.393 42.88 327.7 42.56C327.033 42.2133 326.06 42.04 324.78 42.04C323.767 42.04 322.78 42.1467 321.82 42.36C320.86 42.5733 319.993 42.84 319.22 43.16C318.873 42.92 318.58 42.56 318.34 42.08C318.1 41.5733 317.98 41.0533 317.98 40.52C317.98 39.8267 318.14 39.28 318.46 38.88C318.807 38.4533 319.327 38.0933 320.02 37.8C320.793 37.5067 321.7 37.2933 322.74 37.16C323.807 37.0267 324.807 36.96 325.74 36.96ZM354.986 51.8C355.279 51.8533 355.639 51.9067 356.066 51.96C356.492 51.9867 356.892 52 357.266 52C358.172 52 358.999 51.8667 359.746 51.6C360.519 51.3333 361.172 50.92 361.706 50.36C362.266 49.8 362.692 49.08 362.986 48.2C363.306 47.2933 363.466 46.2133 363.466 44.96C363.466 42.56 362.906 40.76 361.786 39.56C360.666 38.3333 359.172 37.72 357.306 37.72C356.932 37.72 356.546 37.7333 356.146 37.76C355.772 37.7867 355.386 37.8267 354.986 37.88V51.8ZM357.226 57.64C356.772 57.64 356.252 57.6267 355.666 57.6C355.079 57.5733 354.466 57.52 353.826 57.44C353.212 57.36 352.586 57.2533 351.946 57.12C351.332 57.0133 350.759 56.8533 350.226 56.64C348.759 56.08 348.026 55.1067 348.026 53.72V35.04C348.026 34.48 348.172 34.0533 348.466 33.76C348.786 33.44 349.212 33.1867 349.746 33C350.892 32.6267 352.106 32.3867 353.386 32.28C354.666 32.1467 355.812 32.08 356.826 32.08C358.906 32.08 360.786 32.3333 362.466 32.84C364.172 33.3467 365.626 34.1333 366.826 35.2C368.052 36.24 368.999 37.56 369.666 39.16C370.332 40.76 370.666 42.6533 370.666 44.84C370.666 46.9733 370.346 48.84 369.706 50.44C369.066 52.0133 368.146 53.3467 366.946 54.44C365.772 55.5067 364.359 56.3067 362.706 56.84C361.052 57.3733 359.226 57.64 357.226 57.64ZM375.746 31.52C375.746 30.5867 376.08 29.7867 376.746 29.12C377.413 28.4267 378.24 28.08 379.226 28.08C380.346 28.08 381.226 28.4267 381.866 29.12C382.506 29.7867 382.826 30.5867 382.826 31.52C382.826 32.4533 382.506 33.2667 381.866 33.96C381.226 34.6267 380.346 34.96 379.226 34.96C378.746 34.96 378.293 34.8667 377.866 34.68C377.44 34.4933 377.066 34.2533 376.746 33.96C376.426 33.64 376.173 33.28 375.986 32.88C375.826 32.4533 375.746 32 375.746 31.52ZM384.706 31.52C384.706 30.5867 385.013 29.7867 385.626 29.12C386.266 28.4267 387.146 28.08 388.266 28.08C388.773 28.08 389.24 28.1733 389.666 28.36C390.093 28.5467 390.466 28.8 390.786 29.12C391.106 29.44 391.346 29.8133 391.506 30.24C391.693 30.64 391.786 31.0667 391.786 31.52C391.786 32.4533 391.453 33.2667 390.786 33.96C390.12 34.6267 389.28 34.96 388.266 34.96C387.146 34.96 386.266 34.6267 385.626 33.96C385.013 33.2667 384.706 32.4533 384.706 31.52ZM394.266 47.28C394.266 48.9333 394.013 50.4133 393.506 51.72C393 53 392.28 54.08 391.346 54.96C390.44 55.84 389.346 56.5067 388.066 56.96C386.786 57.4133 385.36 57.64 383.786 57.64C382.213 57.64 380.786 57.4 379.506 56.92C378.226 56.44 377.12 55.76 376.186 54.88C375.28 53.9733 374.573 52.88 374.066 51.6C373.56 50.32 373.306 48.88 373.306 47.28C373.306 45.7067 373.56 44.28 374.066 43C374.573 41.72 375.28 40.64 376.186 39.76C377.12 38.8533 378.226 38.16 379.506 37.68C380.786 37.2 382.213 36.96 383.786 36.96C385.36 36.96 386.786 37.2133 388.066 37.72C389.346 38.2 390.44 38.8933 391.346 39.8C392.28 40.68 393 41.76 393.506 43.04C394.013 44.32 394.266 45.7333 394.266 47.28ZM380.266 47.28C380.266 48.9067 380.573 50.16 381.186 51.04C381.826 51.8933 382.706 52.32 383.826 52.32C384.946 52.32 385.8 51.88 386.386 51C387 50.12 387.306 48.88 387.306 47.28C387.306 45.68 387 44.4533 386.386 43.6C385.773 42.72 384.906 42.28 383.786 42.28C382.666 42.28 381.8 42.72 381.186 43.6C380.573 44.4533 380.266 45.68 380.266 47.28ZM409.904 44.68C409.904 43.8533 409.664 43.2533 409.184 42.88C408.731 42.48 408.104 42.28 407.304 42.28C406.771 42.28 406.237 42.3467 405.704 42.48C405.197 42.6133 404.757 42.8133 404.384 43.08V56.96C404.117 57.04 403.691 57.12 403.104 57.2C402.544 57.28 401.957 57.32 401.344 57.32C400.757 57.32 400.224 57.28 399.744 57.2C399.291 57.12 398.904 56.96 398.584 56.72C398.264 56.48 398.011 56.16 397.824 55.76C397.664 55.3333 397.584 54.7867 397.584 54.12V42.12C397.584 41.4 397.731 40.8133 398.024 40.36C398.344 39.9067 398.771 39.4933 399.304 39.12C400.211 38.48 401.344 37.96 402.704 37.56C404.091 37.16 405.624 36.96 407.304 36.96C410.317 36.96 412.637 37.6267 414.264 38.96C415.891 40.2667 416.704 42.0933 416.704 44.44V56.96C416.437 57.04 416.011 57.12 415.424 57.2C414.864 57.28 414.277 57.32 413.664 57.32C413.077 57.32 412.544 57.28 412.064 57.2C411.611 57.12 411.224 56.96 410.904 56.72C410.584 56.48 410.331 56.16 410.144 55.76C409.984 55.3333 409.904 54.7867 409.904 54.12V44.68Z" fill="white"/>
</svg>
