<svg width="836" height="259" viewBox="0 0 836 259" fill="none" xmlns="http://www.w3.org/2000/svg">
<g filter="url(#filter0_d_524_17069)">
<path d="M103.77 112.712C103.242 112.856 102.402 113 101.25 113.144C100.146 113.288 99.0424 113.36 97.9384 113.36C96.8344 113.36 95.8504 113.264 94.9864 113.072C94.1704 112.928 93.4744 112.64 92.8984 112.208C92.3224 111.776 91.8904 111.176 91.6024 110.408C91.3144 109.64 91.1704 108.632 91.1704 107.384V96.152H77.3464V112.712C76.8184 112.856 75.9784 113 74.8264 113.144C73.7224 113.288 72.6184 113.36 71.5144 113.36C70.4104 113.36 69.4264 113.264 68.5624 113.072C67.7464 112.928 67.0504 112.64 66.4744 112.208C65.8984 111.776 65.4664 111.176 65.1784 110.408C64.8904 109.64 64.7464 108.632 64.7464 107.384V69.368C65.2744 69.272 66.1144 69.152 67.2664 69.008C68.4184 68.816 69.5224 68.72 70.5784 68.72C71.6824 68.72 72.6424 68.816 73.4584 69.008C74.3224 69.152 75.0424 69.44 75.6184 69.872C76.1944 70.304 76.6264 70.904 76.9144 71.672C77.2024 72.44 77.3464 73.448 77.3464 74.696V86.216H91.1704V69.368C91.6984 69.272 92.5384 69.152 93.6904 69.008C94.8424 68.816 95.9464 68.72 97.0024 68.72C98.1064 68.72 99.0664 68.816 99.8824 69.008C100.746 69.152 101.466 69.44 102.042 69.872C102.618 70.304 103.05 70.904 103.338 71.672C103.626 72.44 103.77 73.448 103.77 74.696V112.712ZM130.689 114.152C127.857 114.152 125.217 113.768 122.769 113C120.369 112.184 118.257 110.984 116.433 109.4C114.657 107.816 113.241 105.824 112.185 103.424C111.177 101.024 110.673 98.216 110.673 95C110.673 91.832 111.177 89.12 112.185 86.864C113.241 84.56 114.609 82.688 116.289 81.248C117.969 79.76 119.889 78.68 122.049 78.008C124.209 77.288 126.417 76.928 128.673 76.928C131.217 76.928 133.521 77.312 135.585 78.08C137.697 78.848 139.497 79.904 140.985 81.248C142.521 82.592 143.697 84.2 144.513 86.072C145.377 87.944 145.809 89.984 145.809 92.192C145.809 93.824 145.353 95.072 144.441 95.936C143.529 96.8 142.257 97.352 140.625 97.592L122.841 100.256C123.369 101.84 124.449 103.04 126.081 103.856C127.713 104.624 129.585 105.008 131.697 105.008C133.665 105.008 135.513 104.768 137.241 104.288C139.017 103.76 140.457 103.16 141.561 102.488C142.329 102.968 142.977 103.64 143.505 104.504C144.033 105.368 144.297 106.28 144.297 107.24C144.297 109.4 143.289 111.008 141.273 112.064C139.737 112.88 138.009 113.432 136.089 113.72C134.169 114.008 132.369 114.152 130.689 114.152ZM128.673 85.856C127.521 85.856 126.513 86.048 125.649 86.432C124.833 86.816 124.161 87.32 123.633 87.944C123.105 88.52 122.697 89.192 122.409 89.96C122.169 90.68 122.025 91.424 121.977 92.192L134.289 90.176C134.145 89.216 133.617 88.256 132.705 87.296C131.793 86.336 130.449 85.856 128.673 85.856ZM150.189 95.504C150.189 92.336 150.669 89.6 151.629 87.296C152.589 84.944 153.909 83 155.589 81.464C157.317 79.928 159.309 78.8 161.565 78.08C163.869 77.312 166.341 76.928 168.981 76.928C169.941 76.928 170.877 77.024 171.789 77.216C172.701 77.36 173.445 77.552 174.021 77.792V66.128C174.501 65.984 175.269 65.84 176.325 65.696C177.381 65.504 178.461 65.408 179.565 65.408C180.621 65.408 181.557 65.48 182.373 65.624C183.237 65.768 183.957 66.056 184.533 66.488C185.109 66.92 185.541 67.52 185.829 68.288C186.117 69.008 186.261 69.968 186.261 71.168V105.296C186.261 107.552 185.205 109.352 183.093 110.696C181.701 111.608 179.901 112.4 177.693 113.072C175.485 113.792 172.941 114.152 170.061 114.152C166.941 114.152 164.133 113.72 161.637 112.856C159.189 111.992 157.101 110.744 155.373 109.112C153.693 107.48 152.397 105.536 151.485 103.28C150.621 100.976 150.189 98.384 150.189 95.504ZM170.637 86.504C168.045 86.504 166.053 87.248 164.661 88.736C163.269 90.224 162.573 92.48 162.573 95.504C162.573 98.48 163.221 100.736 164.517 102.272C165.813 103.76 167.685 104.504 170.133 104.504C170.997 104.504 171.765 104.384 172.437 104.144C173.157 103.856 173.709 103.544 174.093 103.208V87.368C173.133 86.792 171.981 86.504 170.637 86.504ZM193.601 68.288C193.601 66.464 194.201 64.928 195.401 63.68C196.649 62.432 198.281 61.808 200.297 61.808C202.313 61.808 203.921 62.432 205.121 63.68C206.369 64.928 206.993 66.464 206.993 68.288C206.993 70.112 206.369 71.648 205.121 72.896C203.921 74.144 202.313 74.768 200.297 74.768C198.281 74.768 196.649 74.144 195.401 72.896C194.201 71.648 193.601 70.112 193.601 68.288ZM206.417 112.928C205.889 113.024 205.097 113.144 204.041 113.288C203.033 113.48 202.001 113.576 200.945 113.576C199.889 113.576 198.929 113.504 198.065 113.36C197.249 113.216 196.553 112.928 195.977 112.496C195.401 112.064 194.945 111.488 194.609 110.768C194.321 110 194.177 109.016 194.177 107.816V78.512C194.705 78.416 195.473 78.296 196.481 78.152C197.537 77.96 198.593 77.864 199.649 77.864C200.705 77.864 201.641 77.936 202.457 78.08C203.321 78.224 204.041 78.512 204.617 78.944C205.193 79.376 205.625 79.976 205.913 80.744C206.249 81.464 206.417 82.424 206.417 83.624V112.928ZM219.681 104.072C219.153 102.872 218.577 101.528 217.953 100.04C217.377 98.552 216.753 96.848 216.081 94.928C215.457 93.008 214.785 90.824 214.065 88.376C213.393 85.88 212.673 83.024 211.905 79.808C212.577 79.136 213.465 78.56 214.569 78.08C215.721 77.552 216.969 77.288 218.313 77.288C219.993 77.288 221.385 77.648 222.489 78.368C223.593 79.04 224.409 80.336 224.937 82.256L230.625 102.056H230.913C231.489 100.424 232.041 98.648 232.569 96.728C233.145 94.808 233.697 92.84 234.225 90.824C234.753 88.76 235.233 86.72 235.665 84.704C236.145 82.64 236.553 80.624 236.889 78.656C238.617 77.744 240.513 77.288 242.577 77.288C244.257 77.288 245.649 77.648 246.753 78.368C247.857 79.088 248.409 80.336 248.409 82.112C248.409 83.408 248.241 84.92 247.905 86.648C247.569 88.328 247.113 90.128 246.537 92.048C246.009 93.968 245.361 95.96 244.593 98.024C243.873 100.04 243.105 102.032 242.289 104C241.473 105.968 240.633 107.84 239.769 109.616C238.905 111.344 238.065 112.904 237.249 114.296C235.905 116.648 234.657 118.568 233.505 120.056C232.353 121.544 231.249 122.696 230.193 123.512C229.137 124.376 228.081 124.952 227.025 125.24C225.969 125.576 224.865 125.744 223.713 125.744C221.697 125.744 220.065 125.144 218.817 123.944C217.569 122.744 216.825 121.184 216.585 119.264C218.121 118.064 219.657 116.72 221.193 115.232C222.729 113.792 224.121 112.304 225.369 110.768C224.553 110.528 223.665 109.976 222.705 109.112C221.793 108.2 220.785 106.52 219.681 104.072ZM272.018 114.152C269.186 114.152 266.546 113.768 264.098 113C261.698 112.184 259.586 110.984 257.762 109.4C255.986 107.816 254.57 105.824 253.514 103.424C252.506 101.024 252.002 98.216 252.002 95C252.002 91.832 252.506 89.12 253.514 86.864C254.57 84.56 255.938 82.688 257.618 81.248C259.298 79.76 261.218 78.68 263.378 78.008C265.538 77.288 267.746 76.928 270.002 76.928C272.546 76.928 274.85 77.312 276.914 78.08C279.026 78.848 280.826 79.904 282.314 81.248C283.85 82.592 285.026 84.2 285.842 86.072C286.706 87.944 287.138 89.984 287.138 92.192C287.138 93.824 286.682 95.072 285.77 95.936C284.858 96.8 283.586 97.352 281.954 97.592L264.17 100.256C264.698 101.84 265.778 103.04 267.41 103.856C269.042 104.624 270.914 105.008 273.026 105.008C274.994 105.008 276.842 104.768 278.57 104.288C280.346 103.76 281.786 103.16 282.89 102.488C283.658 102.968 284.306 103.64 284.834 104.504C285.362 105.368 285.626 106.28 285.626 107.24C285.626 109.4 284.618 111.008 282.602 112.064C281.066 112.88 279.338 113.432 277.418 113.72C275.498 114.008 273.698 114.152 272.018 114.152ZM270.002 85.856C268.85 85.856 267.842 86.048 266.978 86.432C266.162 86.816 265.49 87.32 264.962 87.944C264.434 88.52 264.026 89.192 263.738 89.96C263.498 90.68 263.354 91.424 263.306 92.192L275.618 90.176C275.474 89.216 274.946 88.256 274.034 87.296C273.122 86.336 271.778 85.856 270.002 85.856ZM315.205 90.824C315.205 89.336 314.773 88.256 313.909 87.584C313.093 86.864 311.965 86.504 310.525 86.504C309.565 86.504 308.605 86.624 307.645 86.864C306.733 87.104 305.941 87.464 305.269 87.944V112.928C304.789 113.072 304.021 113.216 302.965 113.36C301.957 113.504 300.901 113.576 299.797 113.576C298.741 113.576 297.781 113.504 296.917 113.36C296.101 113.216 295.405 112.928 294.829 112.496C294.253 112.064 293.797 111.488 293.461 110.768C293.173 110 293.029 109.016 293.029 107.816V86.216C293.029 84.92 293.293 83.864 293.821 83.048C294.397 82.232 295.165 81.488 296.125 80.816C297.757 79.664 299.797 78.728 302.245 78.008C304.741 77.288 307.501 76.928 310.525 76.928C315.949 76.928 320.125 78.128 323.053 80.528C325.981 82.88 327.445 86.168 327.445 90.392V112.928C326.965 113.072 326.197 113.216 325.141 113.36C324.133 113.504 323.077 113.576 321.973 113.576C320.917 113.576 319.957 113.504 319.093 113.36C318.277 113.216 317.581 112.928 317.005 112.496C316.429 112.064 315.973 111.488 315.637 110.768C315.349 110 315.205 109.016 315.205 107.816V90.824ZM334.718 68.288C334.718 66.464 335.318 64.928 336.518 63.68C337.766 62.432 339.398 61.808 341.414 61.808C343.43 61.808 345.038 62.432 346.238 63.68C347.486 64.928 348.11 66.464 348.11 68.288C348.11 70.112 347.486 71.648 346.238 72.896C345.038 74.144 343.43 74.768 341.414 74.768C339.398 74.768 337.766 74.144 336.518 72.896C335.318 71.648 334.718 70.112 334.718 68.288ZM347.534 112.928C347.006 113.024 346.214 113.144 345.158 113.288C344.15 113.48 343.118 113.576 342.062 113.576C341.006 113.576 340.046 113.504 339.182 113.36C338.366 113.216 337.67 112.928 337.094 112.496C336.518 112.064 336.062 111.488 335.726 110.768C335.438 110 335.294 109.016 335.294 107.816V78.512C335.822 78.416 336.59 78.296 337.598 78.152C338.654 77.96 339.71 77.864 340.766 77.864C341.822 77.864 342.758 77.936 343.574 78.08C344.438 78.224 345.158 78.512 345.734 78.944C346.31 79.376 346.742 79.976 347.03 80.744C347.366 81.464 347.534 82.424 347.534 83.624V112.928ZM356.55 113C355.782 112.328 355.158 111.536 354.678 110.624C354.246 109.712 354.03 108.68 354.03 107.528C354.03 106.568 354.246 105.632 354.678 104.72C355.158 103.76 355.734 102.872 356.406 102.056L368.79 87.512H355.542C355.254 86.984 354.966 86.312 354.678 85.496C354.438 84.68 354.318 83.792 354.318 82.832C354.318 81.152 354.678 79.952 355.398 79.232C356.166 78.464 357.174 78.08 358.422 78.08H381.102C381.87 78.752 382.47 79.544 382.902 80.456C383.382 81.368 383.622 82.4 383.622 83.552C383.622 84.512 383.382 85.472 382.902 86.432C382.47 87.344 381.918 88.208 381.246 89.024L369.15 103.568H383.262C383.55 104.096 383.814 104.768 384.054 105.584C384.342 106.4 384.486 107.288 384.486 108.248C384.486 109.928 384.102 111.152 383.334 111.92C382.614 112.64 381.63 113 380.382 113H356.55ZM389.702 68.288C389.702 66.464 390.302 64.928 391.502 63.68C392.75 62.432 394.382 61.808 396.398 61.808C398.414 61.808 400.022 62.432 401.222 63.68C402.47 64.928 403.094 66.464 403.094 68.288C403.094 70.112 402.47 71.648 401.222 72.896C400.022 74.144 398.414 74.768 396.398 74.768C394.382 74.768 392.75 74.144 391.502 72.896C390.302 71.648 389.702 70.112 389.702 68.288ZM402.518 112.928C401.99 113.024 401.198 113.144 400.142 113.288C399.134 113.48 398.102 113.576 397.046 113.576C395.99 113.576 395.03 113.504 394.166 113.36C393.35 113.216 392.654 112.928 392.078 112.496C391.502 112.064 391.046 111.488 390.71 110.768C390.422 110 390.278 109.016 390.278 107.816V78.512C390.806 78.416 391.574 78.296 392.582 78.152C393.638 77.96 394.694 77.864 395.75 77.864C396.806 77.864 397.742 77.936 398.558 78.08C399.422 78.224 400.142 78.512 400.718 78.944C401.294 79.376 401.726 79.976 402.014 80.744C402.35 81.464 402.518 82.424 402.518 83.624V112.928ZM441.788 76.928C444.524 76.928 446.996 77.288 449.204 78.008C451.46 78.68 453.356 79.568 454.892 80.672C455.852 81.344 456.596 82.088 457.124 82.904C457.7 83.72 457.988 84.776 457.988 86.072V111.272C457.988 113.816 457.508 116 456.548 117.824C455.588 119.696 454.268 121.232 452.588 122.432C450.956 123.68 449.012 124.592 446.756 125.168C444.548 125.744 442.172 126.032 439.628 126.032C435.26 126.032 431.828 125.432 429.332 124.232C426.836 123.08 425.588 121.184 425.588 118.544C425.588 117.44 425.804 116.456 426.236 115.592C426.716 114.776 427.244 114.152 427.82 113.72C429.212 114.488 430.772 115.136 432.5 115.664C434.276 116.192 436.1 116.456 437.972 116.456C440.564 116.456 442.628 116.024 444.164 115.16C445.7 114.296 446.468 112.904 446.468 110.984V109.832C444.5 110.696 442.1 111.128 439.268 111.128C437.108 111.128 435.044 110.816 433.076 110.192C431.156 109.52 429.452 108.512 427.964 107.168C426.524 105.776 425.348 104 424.436 101.84C423.572 99.68 423.14 97.112 423.14 94.136C423.14 91.208 423.596 88.664 424.508 86.504C425.468 84.344 426.764 82.568 428.396 81.176C430.076 79.736 432.044 78.68 434.3 78.008C436.604 77.288 439.1 76.928 441.788 76.928ZM446.252 87.368C445.916 87.176 445.412 86.984 444.74 86.792C444.116 86.6 443.324 86.504 442.364 86.504C440.012 86.504 438.236 87.176 437.036 88.52C435.884 89.816 435.308 91.688 435.308 94.136C435.308 96.92 435.884 98.936 437.036 100.184C438.236 101.384 439.748 101.984 441.572 101.984C443.54 101.984 445.1 101.528 446.252 100.616V87.368ZM468.456 67.136C468.456 65.456 469.056 64.016 470.256 62.816C471.456 61.568 472.944 60.944 474.72 60.944C476.736 60.944 478.32 61.568 479.472 62.816C480.624 64.016 481.2 65.456 481.2 67.136C481.2 68.816 480.624 70.28 479.472 71.528C478.32 72.728 476.736 73.328 474.72 73.328C473.856 73.328 473.04 73.16 472.272 72.824C471.504 72.488 470.832 72.056 470.256 71.528C469.68 70.952 469.224 70.304 468.888 69.584C468.6 68.816 468.456 68 468.456 67.136ZM484.584 67.136C484.584 65.456 485.136 64.016 486.24 62.816C487.392 61.568 488.976 60.944 490.992 60.944C491.904 60.944 492.744 61.112 493.512 61.448C494.28 61.784 494.952 62.24 495.528 62.816C496.104 63.392 496.536 64.064 496.824 64.832C497.16 65.552 497.328 66.32 497.328 67.136C497.328 68.816 496.728 70.28 495.528 71.528C494.328 72.728 492.816 73.328 490.992 73.328C488.976 73.328 487.392 72.728 486.24 71.528C485.136 70.28 484.584 68.816 484.584 67.136ZM501.792 95.504C501.792 98.48 501.336 101.144 500.424 103.496C499.512 105.8 498.216 107.744 496.536 109.328C494.904 110.912 492.936 112.112 490.632 112.928C488.328 113.744 485.76 114.152 482.928 114.152C480.096 114.152 477.528 113.72 475.224 112.856C472.92 111.992 470.928 110.768 469.248 109.184C467.616 107.552 466.344 105.584 465.432 103.28C464.52 100.976 464.064 98.384 464.064 95.504C464.064 92.672 464.52 90.104 465.432 87.8C466.344 85.496 467.616 83.552 469.248 81.968C470.928 80.336 472.92 79.088 475.224 78.224C477.528 77.36 480.096 76.928 482.928 76.928C485.76 76.928 488.328 77.384 490.632 78.296C492.936 79.16 494.904 80.408 496.536 82.04C498.216 83.624 499.512 85.568 500.424 87.872C501.336 90.176 501.792 92.72 501.792 95.504ZM476.592 95.504C476.592 98.432 477.144 100.688 478.248 102.272C479.4 103.808 480.984 104.576 483 104.576C485.016 104.576 486.552 103.784 487.608 102.2C488.712 100.616 489.264 98.384 489.264 95.504C489.264 92.624 488.712 90.416 487.608 88.88C486.504 87.296 484.944 86.504 482.928 86.504C480.912 86.504 479.352 87.296 478.248 88.88C477.144 90.416 476.592 92.624 476.592 95.504ZM520.004 112.928C519.524 113.072 518.756 113.216 517.7 113.36C516.692 113.504 515.636 113.576 514.532 113.576C513.476 113.576 512.516 113.504 511.652 113.36C510.836 113.216 510.14 112.928 509.564 112.496C508.988 112.064 508.532 111.488 508.196 110.768C507.908 110 507.764 109.016 507.764 107.816V86.216C507.764 85.112 507.956 84.176 508.34 83.408C508.772 82.592 509.372 81.872 510.14 81.248C510.908 80.624 511.844 80.072 512.948 79.592C514.1 79.064 515.324 78.608 516.62 78.224C517.916 77.84 519.26 77.552 520.652 77.36C522.044 77.12 523.436 77 524.828 77C527.132 77 528.956 77.456 530.3 78.368C531.644 79.232 532.316 80.672 532.316 82.688C532.316 83.36 532.22 84.032 532.028 84.704C531.836 85.328 531.596 85.904 531.308 86.432C530.3 86.432 529.268 86.48 528.212 86.576C527.156 86.672 526.124 86.816 525.116 87.008C524.108 87.2 523.148 87.416 522.236 87.656C521.372 87.848 520.628 88.088 520.004 88.376V112.928ZM554.533 114.152C551.701 114.152 549.061 113.768 546.613 113C544.213 112.184 542.101 110.984 540.277 109.4C538.501 107.816 537.085 105.824 536.029 103.424C535.021 101.024 534.517 98.216 534.517 95C534.517 91.832 535.021 89.12 536.029 86.864C537.085 84.56 538.453 82.688 540.133 81.248C541.813 79.76 543.733 78.68 545.893 78.008C548.053 77.288 550.261 76.928 552.517 76.928C555.061 76.928 557.365 77.312 559.429 78.08C561.541 78.848 563.341 79.904 564.829 81.248C566.365 82.592 567.541 84.2 568.357 86.072C569.221 87.944 569.653 89.984 569.653 92.192C569.653 93.824 569.197 95.072 568.285 95.936C567.373 96.8 566.101 97.352 564.469 97.592L546.685 100.256C547.213 101.84 548.293 103.04 549.925 103.856C551.557 104.624 553.429 105.008 555.541 105.008C557.509 105.008 559.357 104.768 561.085 104.288C562.861 103.76 564.301 103.16 565.405 102.488C566.173 102.968 566.821 103.64 567.349 104.504C567.877 105.368 568.141 106.28 568.141 107.24C568.141 109.4 567.133 111.008 565.117 112.064C563.581 112.88 561.853 113.432 559.933 113.72C558.013 114.008 556.213 114.152 554.533 114.152ZM552.517 85.856C551.365 85.856 550.357 86.048 549.493 86.432C548.677 86.816 548.005 87.32 547.477 87.944C546.949 88.52 546.541 89.192 546.253 89.96C546.013 90.68 545.869 91.424 545.821 92.192L558.133 90.176C557.989 89.216 557.461 88.256 556.549 87.296C555.637 86.336 554.293 85.856 552.517 85.856ZM598.664 112.064C597.992 112.592 597.008 113.024 595.712 113.36C594.416 113.696 592.952 113.864 591.32 113.864C589.448 113.864 587.816 113.624 586.424 113.144C585.08 112.664 584.144 111.896 583.616 110.84C583.184 110.024 582.656 108.896 582.032 107.456C581.456 105.968 580.832 104.336 580.16 102.56C579.488 100.736 578.792 98.792 578.072 96.728C577.352 94.664 576.656 92.624 575.984 90.608C575.36 88.592 574.784 86.648 574.256 84.776C573.728 82.904 573.296 81.248 572.96 79.808C573.632 79.136 574.52 78.56 575.624 78.08C576.776 77.552 578.024 77.288 579.368 77.288C581.048 77.288 582.416 77.648 583.472 78.368C584.576 79.04 585.392 80.336 585.92 82.256L588.728 93.272C589.256 95.432 589.76 97.4 590.24 99.176C590.72 100.904 591.08 102.248 591.32 103.208H591.68C592.592 99.656 593.552 95.72 594.56 91.4C595.568 87.08 596.48 82.832 597.296 78.656C598.112 78.224 599.024 77.888 600.032 77.648C601.088 77.408 602.096 77.288 603.056 77.288C604.736 77.288 606.152 77.648 607.304 78.368C608.456 79.088 609.032 80.336 609.032 82.112C609.032 82.88 608.84 84.008 608.456 85.496C608.12 86.936 607.664 88.592 607.088 90.464C606.56 92.288 605.912 94.232 605.144 96.296C604.424 98.36 603.68 100.376 602.912 102.344C602.144 104.312 601.376 106.16 600.608 107.888C599.888 109.568 599.24 110.96 598.664 112.064ZM626.954 112.928C626.426 113.024 625.634 113.144 624.578 113.288C623.57 113.48 622.538 113.576 621.482 113.576C620.426 113.576 619.466 113.504 618.602 113.36C617.786 113.216 617.09 112.928 616.514 112.496C615.938 112.064 615.482 111.488 615.146 110.768C614.858 110 614.714 109.016 614.714 107.816V66.056C615.242 65.96 616.01 65.84 617.018 65.696C618.074 65.504 619.13 65.408 620.186 65.408C621.242 65.408 622.178 65.48 622.994 65.624C623.858 65.768 624.578 66.056 625.154 66.488C625.73 66.92 626.162 67.52 626.45 68.288C626.786 69.008 626.954 69.968 626.954 71.168V112.928ZM634.39 68.288C634.39 66.464 634.99 64.928 636.19 63.68C637.438 62.432 639.07 61.808 641.086 61.808C643.102 61.808 644.71 62.432 645.91 63.68C647.158 64.928 647.782 66.464 647.782 68.288C647.782 70.112 647.158 71.648 645.91 72.896C644.71 74.144 643.102 74.768 641.086 74.768C639.07 74.768 637.438 74.144 636.19 72.896C634.99 71.648 634.39 70.112 634.39 68.288ZM647.206 112.928C646.678 113.024 645.886 113.144 644.83 113.288C643.822 113.48 642.79 113.576 641.734 113.576C640.678 113.576 639.718 113.504 638.854 113.36C638.038 113.216 637.342 112.928 636.766 112.496C636.19 112.064 635.734 111.488 635.398 110.768C635.11 110 634.966 109.016 634.966 107.816V78.512C635.494 78.416 636.262 78.296 637.27 78.152C638.326 77.96 639.382 77.864 640.438 77.864C641.494 77.864 642.43 77.936 643.246 78.08C644.11 78.224 644.83 78.512 645.406 78.944C645.982 79.376 646.414 79.976 646.702 80.744C647.038 81.464 647.206 82.424 647.206 83.624V112.928ZM653.486 95.504C653.486 92.336 653.966 89.6 654.926 87.296C655.886 84.944 657.206 83 658.886 81.464C660.614 79.928 662.606 78.8 664.862 78.08C667.166 77.312 669.638 76.928 672.278 76.928C673.238 76.928 674.174 77.024 675.086 77.216C675.998 77.36 676.742 77.552 677.318 77.792V66.128C677.798 65.984 678.566 65.84 679.622 65.696C680.678 65.504 681.758 65.408 682.862 65.408C683.918 65.408 684.854 65.48 685.67 65.624C686.534 65.768 687.254 66.056 687.83 66.488C688.406 66.92 688.838 67.52 689.126 68.288C689.414 69.008 689.558 69.968 689.558 71.168V105.296C689.558 107.552 688.502 109.352 686.39 110.696C684.998 111.608 683.198 112.4 680.99 113.072C678.782 113.792 676.238 114.152 673.358 114.152C670.238 114.152 667.43 113.72 664.934 112.856C662.486 111.992 660.398 110.744 658.67 109.112C656.99 107.48 655.694 105.536 654.782 103.28C653.918 100.976 653.486 98.384 653.486 95.504ZM673.934 86.504C671.342 86.504 669.35 87.248 667.958 88.736C666.566 90.224 665.87 92.48 665.87 95.504C665.87 98.48 666.518 100.736 667.814 102.272C669.11 103.76 670.982 104.504 673.43 104.504C674.294 104.504 675.062 104.384 675.734 104.144C676.454 103.856 677.006 103.544 677.39 103.208V87.368C676.43 86.792 675.278 86.504 673.934 86.504ZM715.689 114.152C712.857 114.152 710.217 113.768 707.769 113C705.369 112.184 703.257 110.984 701.433 109.4C699.657 107.816 698.241 105.824 697.185 103.424C696.177 101.024 695.673 98.216 695.673 95C695.673 91.832 696.177 89.12 697.185 86.864C698.241 84.56 699.609 82.688 701.289 81.248C702.969 79.76 704.889 78.68 707.049 78.008C709.209 77.288 711.417 76.928 713.673 76.928C716.217 76.928 718.521 77.312 720.585 78.08C722.697 78.848 724.497 79.904 725.985 81.248C727.521 82.592 728.697 84.2 729.513 86.072C730.377 87.944 730.809 89.984 730.809 92.192C730.809 93.824 730.353 95.072 729.441 95.936C728.529 96.8 727.257 97.352 725.625 97.592L707.841 100.256C708.369 101.84 709.449 103.04 711.081 103.856C712.713 104.624 714.585 105.008 716.697 105.008C718.665 105.008 720.513 104.768 722.241 104.288C724.017 103.76 725.457 103.16 726.561 102.488C727.329 102.968 727.977 103.64 728.505 104.504C729.033 105.368 729.297 106.28 729.297 107.24C729.297 109.4 728.289 111.008 726.273 112.064C724.737 112.88 723.009 113.432 721.089 113.72C719.169 114.008 717.369 114.152 715.689 114.152ZM713.673 85.856C712.521 85.856 711.513 86.048 710.649 86.432C709.833 86.816 709.161 87.32 708.633 87.944C708.105 88.52 707.697 89.192 707.409 89.96C707.169 90.68 707.025 91.424 706.977 92.192L719.289 90.176C719.145 89.216 718.617 88.256 717.705 87.296C716.793 86.336 715.449 85.856 713.673 85.856ZM758.877 90.824C758.877 89.336 758.445 88.256 757.581 87.584C756.765 86.864 755.637 86.504 754.197 86.504C753.237 86.504 752.277 86.624 751.317 86.864C750.405 87.104 749.613 87.464 748.941 87.944V112.928C748.461 113.072 747.693 113.216 746.637 113.36C745.629 113.504 744.573 113.576 743.469 113.576C742.413 113.576 741.453 113.504 740.589 113.36C739.773 113.216 739.077 112.928 738.501 112.496C737.925 112.064 737.469 111.488 737.133 110.768C736.845 110 736.701 109.016 736.701 107.816V86.216C736.701 84.92 736.965 83.864 737.493 83.048C738.069 82.232 738.837 81.488 739.797 80.816C741.429 79.664 743.469 78.728 745.917 78.008C748.413 77.288 751.173 76.928 754.197 76.928C759.621 76.928 763.797 78.128 766.725 80.528C769.653 82.88 771.117 86.168 771.117 90.392V112.928C770.637 113.072 769.869 113.216 768.813 113.36C767.805 113.504 766.749 113.576 765.645 113.576C764.589 113.576 763.629 113.504 762.765 113.36C761.949 113.216 761.253 112.928 760.677 112.496C760.101 112.064 759.645 111.488 759.309 110.768C759.021 110 758.877 109.016 758.877 107.816V90.824ZM123.265 176.976C123.265 178.224 123.649 179.112 124.417 179.64C125.233 180.168 126.361 180.432 127.801 180.432C128.521 180.432 129.265 180.384 130.033 180.288C130.801 180.144 131.473 179.976 132.049 179.784C132.481 180.312 132.841 180.912 133.129 181.584C133.465 182.208 133.633 182.976 133.633 183.888C133.633 185.712 132.937 187.2 131.545 188.352C130.201 189.504 127.801 190.08 124.345 190.08C120.121 190.08 116.857 189.12 114.553 187.2C112.297 185.28 111.169 182.16 111.169 177.84V147.024C111.697 146.88 112.441 146.736 113.401 146.592C114.409 146.4 115.465 146.304 116.569 146.304C118.681 146.304 120.313 146.688 121.465 147.456C122.665 148.176 123.265 149.736 123.265 152.136V156.744H132.697C132.985 157.272 133.249 157.944 133.489 158.76C133.777 159.528 133.921 160.392 133.921 161.352C133.921 163.032 133.537 164.256 132.769 165.024C132.049 165.744 131.065 166.104 129.817 166.104H123.265V176.976ZM157.936 190.152C155.104 190.152 152.464 189.768 150.016 189C147.616 188.184 145.504 186.984 143.68 185.4C141.904 183.816 140.488 181.824 139.432 179.424C138.424 177.024 137.92 174.216 137.92 171C137.92 167.832 138.424 165.12 139.432 162.864C140.488 160.56 141.856 158.688 143.536 157.248C145.216 155.76 147.136 154.68 149.296 154.008C151.456 153.288 153.664 152.928 155.92 152.928C158.464 152.928 160.768 153.312 162.832 154.08C164.944 154.848 166.744 155.904 168.232 157.248C169.768 158.592 170.944 160.2 171.76 162.072C172.624 163.944 173.056 165.984 173.056 168.192C173.056 169.824 172.6 171.072 171.688 171.936C170.776 172.8 169.504 173.352 167.872 173.592L150.088 176.256C150.616 177.84 151.696 179.04 153.328 179.856C154.96 180.624 156.832 181.008 158.944 181.008C160.912 181.008 162.76 180.768 164.488 180.288C166.264 179.76 167.704 179.16 168.808 178.488C169.576 178.968 170.224 179.64 170.752 180.504C171.28 181.368 171.544 182.28 171.544 183.24C171.544 185.4 170.536 187.008 168.52 188.064C166.984 188.88 165.256 189.432 163.336 189.72C161.416 190.008 159.616 190.152 157.936 190.152ZM155.92 161.856C154.768 161.856 153.76 162.048 152.896 162.432C152.08 162.816 151.408 163.32 150.88 163.944C150.352 164.52 149.944 165.192 149.656 165.96C149.416 166.68 149.272 167.424 149.224 168.192L161.536 166.176C161.392 165.216 160.864 164.256 159.952 163.296C159.04 162.336 157.696 161.856 155.92 161.856ZM208.467 178.56C208.467 182.208 207.099 185.064 204.363 187.128C201.627 189.192 197.595 190.224 192.267 190.224C190.251 190.224 188.379 190.08 186.651 189.792C184.923 189.504 183.435 189.072 182.187 188.496C180.987 187.872 180.027 187.104 179.307 186.192C178.635 185.28 178.299 184.2 178.299 182.952C178.299 181.8 178.539 180.84 179.019 180.072C179.499 179.256 180.075 178.584 180.747 178.056C182.139 178.824 183.723 179.52 185.499 180.144C187.323 180.72 189.411 181.008 191.763 181.008C193.251 181.008 194.379 180.792 195.147 180.36C195.963 179.928 196.371 179.352 196.371 178.632C196.371 177.96 196.083 177.432 195.507 177.048C194.931 176.664 193.971 176.352 192.627 176.112L190.467 175.68C186.291 174.864 183.171 173.592 181.107 171.864C179.091 170.088 178.083 167.568 178.083 164.304C178.083 162.528 178.467 160.92 179.235 159.48C180.003 158.04 181.083 156.84 182.475 155.88C183.867 154.92 185.523 154.176 187.443 153.648C189.411 153.12 191.571 152.856 193.923 152.856C195.699 152.856 197.355 153 198.891 153.288C200.475 153.528 201.843 153.912 202.995 154.44C204.147 154.968 205.059 155.664 205.731 156.528C206.403 157.344 206.739 158.328 206.739 159.48C206.739 160.584 206.523 161.544 206.091 162.36C205.707 163.128 205.203 163.776 204.579 164.304C204.195 164.064 203.619 163.824 202.851 163.584C202.083 163.296 201.243 163.056 200.331 162.864C199.419 162.624 198.483 162.432 197.523 162.288C196.611 162.144 195.771 162.072 195.003 162.072C193.419 162.072 192.195 162.264 191.331 162.648C190.467 162.984 190.035 163.536 190.035 164.304C190.035 164.832 190.275 165.264 190.755 165.6C191.235 165.936 192.147 166.248 193.491 166.536L195.723 167.04C200.331 168.096 203.595 169.56 205.515 171.432C207.483 173.256 208.467 175.632 208.467 178.56ZM226.841 188.928C226.313 189.024 225.521 189.144 224.465 189.288C223.457 189.48 222.425 189.576 221.369 189.576C220.313 189.576 219.353 189.504 218.489 189.36C217.673 189.216 216.977 188.928 216.401 188.496C215.825 188.064 215.369 187.488 215.033 186.768C214.745 186 214.601 185.016 214.601 183.816V142.056C215.129 141.96 215.897 141.84 216.905 141.696C217.961 141.504 219.017 141.408 220.073 141.408C221.129 141.408 222.065 141.48 222.881 141.624C223.745 141.768 224.465 142.056 225.041 142.488C225.617 142.92 226.049 143.52 226.337 144.288C226.673 145.008 226.841 145.968 226.841 147.168V188.928ZM234.276 144.288C234.276 142.464 234.876 140.928 236.076 139.68C237.324 138.432 238.956 137.808 240.972 137.808C242.988 137.808 244.596 138.432 245.796 139.68C247.044 140.928 247.668 142.464 247.668 144.288C247.668 146.112 247.044 147.648 245.796 148.896C244.596 150.144 242.988 150.768 240.972 150.768C238.956 150.768 237.324 150.144 236.076 148.896C234.876 147.648 234.276 146.112 234.276 144.288ZM247.092 188.928C246.564 189.024 245.772 189.144 244.716 189.288C243.708 189.48 242.676 189.576 241.62 189.576C240.564 189.576 239.604 189.504 238.74 189.36C237.924 189.216 237.228 188.928 236.652 188.496C236.076 188.064 235.62 187.488 235.284 186.768C234.996 186 234.852 185.016 234.852 183.816V154.512C235.38 154.416 236.148 154.296 237.156 154.152C238.212 153.96 239.268 153.864 240.324 153.864C241.38 153.864 242.316 153.936 243.132 154.08C243.996 154.224 244.716 154.512 245.292 154.944C245.868 155.376 246.3 155.976 246.588 156.744C246.924 157.464 247.092 158.424 247.092 159.624V188.928ZM271.661 152.928C273.629 152.928 275.549 153.216 277.421 153.792C279.341 154.32 280.997 155.136 282.389 156.24C283.829 155.28 285.437 154.488 287.213 153.864C289.037 153.24 291.221 152.928 293.765 152.928C295.589 152.928 297.365 153.168 299.093 153.648C300.869 154.128 302.429 154.896 303.773 155.952C305.165 156.96 306.269 158.328 307.085 160.056C307.901 161.736 308.309 163.8 308.309 166.248V188.928C307.829 189.072 307.061 189.216 306.005 189.36C304.997 189.504 303.941 189.576 302.837 189.576C301.781 189.576 300.821 189.504 299.957 189.36C299.141 189.216 298.445 188.928 297.869 188.496C297.293 188.064 296.837 187.488 296.501 186.768C296.213 186 296.069 185.016 296.069 183.816V166.608C296.069 165.168 295.661 164.136 294.845 163.512C294.029 162.84 292.925 162.504 291.533 162.504C290.861 162.504 290.141 162.672 289.373 163.008C288.605 163.296 288.029 163.608 287.645 163.944C287.693 164.136 287.717 164.328 287.717 164.52C287.717 164.664 287.717 164.808 287.717 164.952V188.928C287.189 189.072 286.397 189.216 285.341 189.36C284.333 189.504 283.301 189.576 282.245 189.576C281.189 189.576 280.229 189.504 279.365 189.36C278.549 189.216 277.853 188.928 277.277 188.496C276.701 188.064 276.245 187.488 275.909 186.768C275.621 186 275.477 185.016 275.477 183.816V166.608C275.477 165.168 275.021 164.136 274.109 163.512C273.245 162.84 272.189 162.504 270.941 162.504C270.077 162.504 269.333 162.648 268.709 162.936C268.085 163.176 267.557 163.416 267.125 163.656V188.928C266.645 189.072 265.877 189.216 264.821 189.36C263.813 189.504 262.757 189.576 261.653 189.576C260.597 189.576 259.637 189.504 258.773 189.36C257.957 189.216 257.261 188.928 256.685 188.496C256.109 188.064 255.653 187.488 255.317 186.768C255.029 186 254.885 185.016 254.885 183.816V162.072C254.885 160.776 255.149 159.744 255.677 158.976C256.253 158.208 257.021 157.488 257.981 156.816C259.613 155.664 261.629 154.728 264.029 154.008C266.477 153.288 269.021 152.928 271.661 152.928ZM345.165 181.224C345.981 181.224 346.869 181.152 347.829 181.008C348.837 180.816 349.581 180.576 350.061 180.288V174.528L344.877 174.96C343.533 175.056 342.429 175.344 341.565 175.824C340.701 176.304 340.269 177.024 340.269 177.984C340.269 178.944 340.629 179.736 341.349 180.36C342.117 180.936 343.389 181.224 345.165 181.224ZM344.589 152.928C347.181 152.928 349.533 153.192 351.645 153.72C353.805 154.248 355.629 155.064 357.117 156.168C358.653 157.224 359.829 158.592 360.645 160.272C361.461 161.904 361.869 163.848 361.869 166.104V182.232C361.869 183.48 361.509 184.512 360.789 185.328C360.117 186.096 359.301 186.768 358.341 187.344C355.221 189.216 350.829 190.152 345.165 190.152C342.621 190.152 340.317 189.912 338.253 189.432C336.237 188.952 334.485 188.232 332.997 187.272C331.557 186.312 330.429 185.088 329.613 183.6C328.845 182.112 328.461 180.384 328.461 178.416C328.461 175.104 329.445 172.56 331.413 170.784C333.381 169.008 336.429 167.904 340.557 167.472L349.989 166.464V165.96C349.989 164.568 349.365 163.584 348.117 163.008C346.917 162.384 345.165 162.072 342.861 162.072C341.037 162.072 339.261 162.264 337.533 162.648C335.805 163.032 334.245 163.512 332.853 164.088C332.229 163.656 331.701 163.008 331.269 162.144C330.837 161.232 330.621 160.296 330.621 159.336C330.621 158.088 330.909 157.104 331.485 156.384C332.109 155.616 333.045 154.968 334.293 154.44C335.685 153.912 337.317 153.528 339.189 153.288C341.109 153.048 342.909 152.928 344.589 152.928ZM381.809 188.928C381.281 189.024 380.489 189.144 379.433 189.288C378.425 189.48 377.393 189.576 376.337 189.576C375.281 189.576 374.321 189.504 373.457 189.36C372.641 189.216 371.945 188.928 371.369 188.496C370.793 188.064 370.337 187.488 370.001 186.768C369.713 186 369.569 185.016 369.569 183.816V142.056C370.097 141.96 370.865 141.84 371.873 141.696C372.929 141.504 373.985 141.408 375.041 141.408C376.097 141.408 377.033 141.48 377.849 141.624C378.713 141.768 379.433 142.056 380.009 142.488C380.585 142.92 381.017 143.52 381.305 144.288C381.641 145.008 381.809 145.968 381.809 147.168V188.928ZM404.509 181.224C405.325 181.224 406.213 181.152 407.173 181.008C408.181 180.816 408.925 180.576 409.405 180.288V174.528L404.221 174.96C402.877 175.056 401.773 175.344 400.909 175.824C400.045 176.304 399.613 177.024 399.613 177.984C399.613 178.944 399.973 179.736 400.693 180.36C401.461 180.936 402.733 181.224 404.509 181.224ZM403.933 152.928C406.525 152.928 408.877 153.192 410.989 153.72C413.149 154.248 414.973 155.064 416.461 156.168C417.997 157.224 419.173 158.592 419.989 160.272C420.805 161.904 421.213 163.848 421.213 166.104V182.232C421.213 183.48 420.853 184.512 420.133 185.328C419.461 186.096 418.645 186.768 417.685 187.344C414.565 189.216 410.173 190.152 404.509 190.152C401.965 190.152 399.661 189.912 397.597 189.432C395.581 188.952 393.829 188.232 392.341 187.272C390.901 186.312 389.773 185.088 388.957 183.6C388.189 182.112 387.805 180.384 387.805 178.416C387.805 175.104 388.789 172.56 390.757 170.784C392.725 169.008 395.773 167.904 399.901 167.472L409.333 166.464V165.96C409.333 164.568 408.709 163.584 407.461 163.008C406.261 162.384 404.509 162.072 402.205 162.072C400.381 162.072 398.605 162.264 396.877 162.648C395.149 163.032 393.589 163.512 392.197 164.088C391.573 163.656 391.045 163.008 390.613 162.144C390.181 161.232 389.965 160.296 389.965 159.336C389.965 158.088 390.253 157.104 390.829 156.384C391.453 155.616 392.389 154.968 393.637 154.44C395.029 153.912 396.661 153.528 398.533 153.288C400.453 153.048 402.253 152.928 403.933 152.928ZM428.841 142.128C429.321 141.984 430.089 141.84 431.145 141.696C432.201 141.504 433.281 141.408 434.385 141.408C435.441 141.408 436.377 141.48 437.193 141.624C438.057 141.768 438.777 142.056 439.353 142.488C439.929 142.92 440.361 143.52 440.649 144.288C440.937 145.008 441.081 145.968 441.081 147.168V154.224C442.281 153.744 443.409 153.408 444.465 153.216C445.569 153.024 446.769 152.928 448.065 152.928C450.369 152.928 452.553 153.336 454.617 154.152C456.681 154.968 458.505 156.168 460.089 157.752C461.673 159.288 462.921 161.208 463.833 163.512C464.745 165.816 465.201 168.48 465.201 171.504C465.201 174.624 464.721 177.36 463.761 179.712C462.849 182.016 461.553 183.936 459.873 185.472C458.193 187.008 456.129 188.184 453.681 189C451.281 189.768 448.617 190.152 445.689 190.152C442.521 190.152 439.833 189.768 437.625 189C435.417 188.28 433.545 187.368 432.009 186.264C429.897 184.776 428.841 182.856 428.841 180.504V142.128ZM445.689 180.504C447.897 180.504 449.601 179.76 450.801 178.272C452.049 176.736 452.673 174.48 452.673 171.504C452.673 168.48 452.049 166.224 450.801 164.736C449.553 163.248 447.873 162.504 445.761 162.504C444.801 162.504 443.961 162.6 443.241 162.792C442.569 162.984 441.825 163.272 441.009 163.656V179.352C441.537 179.688 442.161 179.976 442.881 180.216C443.649 180.408 444.585 180.504 445.689 180.504ZM470.878 144.288C470.878 142.464 471.478 140.928 472.678 139.68C473.926 138.432 475.558 137.808 477.574 137.808C479.59 137.808 481.198 138.432 482.398 139.68C483.646 140.928 484.27 142.464 484.27 144.288C484.27 146.112 483.646 147.648 482.398 148.896C481.198 150.144 479.59 150.768 477.574 150.768C475.558 150.768 473.926 150.144 472.678 148.896C471.478 147.648 470.878 146.112 470.878 144.288ZM483.694 188.928C483.166 189.024 482.374 189.144 481.318 189.288C480.31 189.48 479.278 189.576 478.222 189.576C477.166 189.576 476.206 189.504 475.342 189.36C474.526 189.216 473.83 188.928 473.254 188.496C472.678 188.064 472.222 187.488 471.886 186.768C471.598 186 471.454 185.016 471.454 183.816V154.512C471.982 154.416 472.75 154.296 473.758 154.152C474.814 153.96 475.87 153.864 476.926 153.864C477.982 153.864 478.918 153.936 479.734 154.08C480.598 154.224 481.318 154.512 481.894 154.944C482.47 155.376 482.902 155.976 483.19 156.744C483.526 157.464 483.694 158.424 483.694 159.624V188.928ZM503.942 188.928C503.414 189.024 502.622 189.144 501.566 189.288C500.558 189.48 499.526 189.576 498.47 189.576C497.414 189.576 496.454 189.504 495.59 189.36C494.774 189.216 494.078 188.928 493.502 188.496C492.926 188.064 492.47 187.488 492.134 186.768C491.846 186 491.702 185.016 491.702 183.816V142.056C492.23 141.96 492.998 141.84 494.006 141.696C495.062 141.504 496.118 141.408 497.174 141.408C498.23 141.408 499.166 141.48 499.982 141.624C500.846 141.768 501.566 142.056 502.142 142.488C502.718 142.92 503.15 143.52 503.438 144.288C503.774 145.008 503.942 145.968 503.942 147.168V188.928ZM511.378 144.288C511.378 142.464 511.978 140.928 513.178 139.68C514.426 138.432 516.058 137.808 518.074 137.808C520.09 137.808 521.698 138.432 522.898 139.68C524.146 140.928 524.77 142.464 524.77 144.288C524.77 146.112 524.146 147.648 522.898 148.896C521.698 150.144 520.09 150.768 518.074 150.768C516.058 150.768 514.426 150.144 513.178 148.896C511.978 147.648 511.378 146.112 511.378 144.288ZM524.194 188.928C523.666 189.024 522.874 189.144 521.818 189.288C520.81 189.48 519.778 189.576 518.722 189.576C517.666 189.576 516.706 189.504 515.842 189.36C515.026 189.216 514.33 188.928 513.754 188.496C513.178 188.064 512.722 187.488 512.386 186.768C512.098 186 511.954 185.016 511.954 183.816V154.512C512.482 154.416 513.25 154.296 514.258 154.152C515.314 153.96 516.37 153.864 517.426 153.864C518.482 153.864 519.418 153.936 520.234 154.08C521.098 154.224 521.818 154.512 522.394 154.944C522.97 155.376 523.402 155.976 523.69 156.744C524.026 157.464 524.194 158.424 524.194 159.624V188.928ZM544.226 188.928C543.746 189.072 542.978 189.216 541.922 189.36C540.914 189.504 539.858 189.576 538.754 189.576C537.698 189.576 536.738 189.504 535.874 189.36C535.058 189.216 534.362 188.928 533.786 188.496C533.21 188.064 532.754 187.488 532.418 186.768C532.13 186 531.986 185.016 531.986 183.816V162.216C531.986 161.112 532.178 160.176 532.562 159.408C532.994 158.592 533.594 157.872 534.362 157.248C535.13 156.624 536.066 156.072 537.17 155.592C538.322 155.064 539.546 154.608 540.842 154.224C542.138 153.84 543.482 153.552 544.874 153.36C546.266 153.12 547.658 153 549.05 153C551.354 153 553.178 153.456 554.522 154.368C555.866 155.232 556.538 156.672 556.538 158.688C556.538 159.36 556.442 160.032 556.25 160.704C556.058 161.328 555.818 161.904 555.53 162.432C554.522 162.432 553.49 162.48 552.434 162.576C551.378 162.672 550.346 162.816 549.338 163.008C548.33 163.2 547.37 163.416 546.458 163.656C545.594 163.848 544.85 164.088 544.226 164.376V188.928ZM591.108 178.56C591.108 182.208 589.74 185.064 587.004 187.128C584.268 189.192 580.236 190.224 574.908 190.224C572.892 190.224 571.02 190.08 569.292 189.792C567.564 189.504 566.076 189.072 564.828 188.496C563.628 187.872 562.668 187.104 561.948 186.192C561.276 185.28 560.94 184.2 560.94 182.952C560.94 181.8 561.18 180.84 561.66 180.072C562.14 179.256 562.716 178.584 563.388 178.056C564.78 178.824 566.364 179.52 568.14 180.144C569.964 180.72 572.052 181.008 574.404 181.008C575.892 181.008 577.02 180.792 577.788 180.36C578.604 179.928 579.012 179.352 579.012 178.632C579.012 177.96 578.724 177.432 578.148 177.048C577.572 176.664 576.612 176.352 575.268 176.112L573.108 175.68C568.932 174.864 565.812 173.592 563.748 171.864C561.732 170.088 560.724 167.568 560.724 164.304C560.724 162.528 561.108 160.92 561.876 159.48C562.644 158.04 563.724 156.84 565.116 155.88C566.508 154.92 568.164 154.176 570.084 153.648C572.052 153.12 574.212 152.856 576.564 152.856C578.34 152.856 579.996 153 581.532 153.288C583.116 153.528 584.484 153.912 585.636 154.44C586.788 154.968 587.7 155.664 588.372 156.528C589.044 157.344 589.38 158.328 589.38 159.48C589.38 160.584 589.164 161.544 588.732 162.36C588.348 163.128 587.844 163.776 587.22 164.304C586.836 164.064 586.26 163.824 585.492 163.584C584.724 163.296 583.884 163.056 582.972 162.864C582.06 162.624 581.124 162.432 580.164 162.288C579.252 162.144 578.412 162.072 577.644 162.072C576.06 162.072 574.836 162.264 573.972 162.648C573.108 162.984 572.676 163.536 572.676 164.304C572.676 164.832 572.916 165.264 573.396 165.6C573.876 165.936 574.788 166.248 576.132 166.536L578.364 167.04C582.972 168.096 586.236 169.56 588.156 171.432C590.124 173.256 591.108 175.632 591.108 178.56ZM596.737 144.288C596.737 142.464 597.337 140.928 598.537 139.68C599.785 138.432 601.417 137.808 603.433 137.808C605.449 137.808 607.057 138.432 608.257 139.68C609.505 140.928 610.129 142.464 610.129 144.288C610.129 146.112 609.505 147.648 608.257 148.896C607.057 150.144 605.449 150.768 603.433 150.768C601.417 150.768 599.785 150.144 598.537 148.896C597.337 147.648 596.737 146.112 596.737 144.288ZM609.553 188.928C609.025 189.024 608.233 189.144 607.177 189.288C606.169 189.48 605.137 189.576 604.081 189.576C603.025 189.576 602.065 189.504 601.201 189.36C600.385 189.216 599.689 188.928 599.113 188.496C598.537 188.064 598.081 187.488 597.745 186.768C597.457 186 597.313 185.016 597.313 183.816V154.512C597.841 154.416 598.609 154.296 599.617 154.152C600.673 153.96 601.729 153.864 602.785 153.864C603.841 153.864 604.777 153.936 605.593 154.08C606.457 154.224 607.177 154.512 607.753 154.944C608.329 155.376 608.761 155.976 609.049 156.744C609.385 157.464 609.553 158.424 609.553 159.624V188.928ZM639.522 166.824C639.522 165.336 639.09 164.256 638.226 163.584C637.41 162.864 636.282 162.504 634.842 162.504C633.882 162.504 632.922 162.624 631.962 162.864C631.05 163.104 630.258 163.464 629.586 163.944V188.928C629.106 189.072 628.338 189.216 627.282 189.36C626.274 189.504 625.218 189.576 624.114 189.576C623.058 189.576 622.098 189.504 621.234 189.36C620.418 189.216 619.722 188.928 619.146 188.496C618.57 188.064 618.114 187.488 617.778 186.768C617.49 186 617.346 185.016 617.346 183.816V162.216C617.346 160.92 617.61 159.864 618.138 159.048C618.714 158.232 619.482 157.488 620.442 156.816C622.074 155.664 624.114 154.728 626.562 154.008C629.058 153.288 631.818 152.928 634.842 152.928C640.266 152.928 644.442 154.128 647.37 156.528C650.298 158.88 651.762 162.168 651.762 166.392V188.928C651.282 189.072 650.514 189.216 649.458 189.36C648.45 189.504 647.394 189.576 646.29 189.576C645.234 189.576 644.274 189.504 643.41 189.36C642.594 189.216 641.898 188.928 641.322 188.496C640.746 188.064 640.29 187.488 639.954 186.768C639.666 186 639.522 185.016 639.522 183.816V166.824ZM659.034 144.288C659.034 142.464 659.634 140.928 660.834 139.68C662.082 138.432 663.714 137.808 665.73 137.808C667.746 137.808 669.354 138.432 670.554 139.68C671.802 140.928 672.426 142.464 672.426 144.288C672.426 146.112 671.802 147.648 670.554 148.896C669.354 150.144 667.746 150.768 665.73 150.768C663.714 150.768 662.082 150.144 660.834 148.896C659.634 147.648 659.034 146.112 659.034 144.288ZM671.85 188.928C671.322 189.024 670.53 189.144 669.474 189.288C668.466 189.48 667.434 189.576 666.378 189.576C665.322 189.576 664.362 189.504 663.498 189.36C662.682 189.216 661.986 188.928 661.41 188.496C660.834 188.064 660.378 187.488 660.042 186.768C659.754 186 659.61 185.016 659.61 183.816V154.512C660.138 154.416 660.906 154.296 661.914 154.152C662.97 153.96 664.026 153.864 665.082 153.864C666.138 153.864 667.074 153.936 667.89 154.08C668.754 154.224 669.474 154.512 670.05 154.944C670.626 155.376 671.058 155.976 671.346 156.744C671.682 157.464 671.85 158.424 671.85 159.624V188.928ZM680.866 189C680.098 188.328 679.474 187.536 678.994 186.624C678.562 185.712 678.346 184.68 678.346 183.528C678.346 182.568 678.562 181.632 678.994 180.72C679.474 179.76 680.05 178.872 680.722 178.056L693.106 163.512H679.858C679.57 162.984 679.282 162.312 678.994 161.496C678.754 160.68 678.634 159.792 678.634 158.832C678.634 157.152 678.994 155.952 679.714 155.232C680.482 154.464 681.49 154.08 682.738 154.08H705.418C706.186 154.752 706.786 155.544 707.218 156.456C707.698 157.368 707.938 158.4 707.938 159.552C707.938 160.512 707.698 161.472 707.218 162.432C706.786 163.344 706.234 164.208 705.562 165.024L693.466 179.568H707.578C707.866 180.096 708.13 180.768 708.37 181.584C708.658 182.4 708.802 183.288 708.802 184.248C708.802 185.928 708.418 187.152 707.65 187.92C706.93 188.64 705.946 189 704.698 189H680.866ZM712.147 183.168C712.147 181.152 712.771 179.472 714.019 178.128C715.267 176.784 716.971 176.112 719.131 176.112C721.291 176.112 722.995 176.784 724.243 178.128C725.491 179.472 726.115 181.152 726.115 183.168C726.115 185.184 725.491 186.864 724.243 188.208C722.995 189.552 721.291 190.224 719.131 190.224C716.971 190.224 715.267 189.552 714.019 188.208C712.771 186.864 712.147 185.184 712.147 183.168Z" fill="white"/>
</g>
<defs>
<filter id="filter0_d_524_17069" x="0.746582" y="0.944" width="834.371" height="257.28" filterUnits="userSpaceOnUse" color-interpolation-filters="sRGB">
<feFlood flood-opacity="0" result="BackgroundImageFix"/>
<feColorMatrix in="SourceAlpha" type="matrix" values="0 0 0 0 0 0 0 0 0 0 0 0 0 0 0 0 0 0 127 0" result="hardAlpha"/>
<feOffset dy="4"/>
<feGaussianBlur stdDeviation="32"/>
<feComposite in2="hardAlpha" operator="out"/>
<feColorMatrix type="matrix" values="0 0 0 0 0.929412 0 0 0 0 0.109804 0 0 0 0 0.141176 0 0 0 0.64 0"/>
<feBlend mode="normal" in2="BackgroundImageFix" result="effect1_dropShadow_524_17069"/>
<feBlend mode="normal" in="SourceGraphic" in2="effect1_dropShadow_524_17069" result="shape"/>
</filter>
</defs>
</svg>
